<svg width="51" height="50" viewBox="0 0 51 50" fill="none" xmlns="http://www.w3.org/2000/svg">
<g clip-path="url(#clip0_1516_43101)">
<mask id="mask0_1516_43101" style="mask-type:luminance" maskUnits="userSpaceOnUse" x="0" y="0" width="51" height="50">
<path d="M50.4277 0H0.427734V50H50.4277V0Z" fill="white"/>
</mask>
<g mask="url(#mask0_1516_43101)">
<path d="M25.4277 45C36.4734 45 45.4277 36.0457 45.4277 25C45.4277 13.9543 36.4734 5 25.4277 5C14.382 5 5.42773 13.9543 5.42773 25C5.42773 36.0457 14.382 45 25.4277 45Z" stroke="#0085B8"/>
<path d="M13.8888 23.0769C19.1993 23.0769 23.5042 18.7719 23.5042 13.4615C23.5042 8.15108 19.1993 3.84613 13.8888 3.84613C8.57839 3.84613 4.27344 8.15108 4.27344 13.4615C4.27344 18.7719 8.57839 23.0769 13.8888 23.0769Z" fill="#005993"/>
<path d="M13.8888 46.1538C19.1993 46.1538 23.5042 41.8488 23.5042 36.5384C23.5042 31.228 19.1993 26.923 13.8888 26.923C8.57839 26.923 4.27344 31.228 4.27344 36.5384C4.27344 41.8488 8.57839 46.1538 13.8888 46.1538Z" fill="#D71049"/>
<path d="M36.965 23.0769C42.2754 23.0769 46.5804 18.7719 46.5804 13.4615C46.5804 8.15108 42.2754 3.84613 36.965 3.84613C31.6546 3.84613 27.3496 8.15108 27.3496 13.4615C27.3496 18.7719 31.6546 23.0769 36.965 23.0769Z" fill="#D71049"/>
<path d="M36.965 46.1538C42.2754 46.1538 46.5804 41.8488 46.5804 36.5384C46.5804 31.228 42.2754 26.923 36.965 26.923C31.6546 26.923 27.3496 31.228 27.3496 36.5384C27.3496 41.8488 31.6546 46.1538 36.965 46.1538Z" fill="#005993"/>
<path d="M15.2152 15.7485C15.2314 15.4387 15.1256 15.135 14.9206 14.9023C14.6335 14.6383 14.2922 14.4404 13.9206 14.3223C13.5051 14.1694 13.0986 13.9932 12.7029 13.7946C12.384 13.6351 12.0887 13.4324 11.8252 13.1923C11.5825 12.9674 11.3885 12.6951 11.2552 12.3923C11.1115 12.0457 11.0421 11.6728 11.0513 11.2977C11.0395 10.9666 11.0955 10.6367 11.2159 10.3281C11.3363 10.0194 11.5185 9.7387 11.7513 9.50307C12.2551 9.01976 12.9138 8.7306 13.6106 8.68692V7.30231H14.6444V8.70846C15.3441 8.78149 15.9878 9.12417 16.439 9.66384C16.8903 10.2519 17.1197 10.9803 17.0867 11.7208H15.2152C15.2463 11.3076 15.1329 10.8965 14.8944 10.5577C14.7906 10.4318 14.6591 10.3316 14.5102 10.2649C14.3613 10.1981 14.199 10.1667 14.0359 10.1731C13.8854 10.1637 13.7345 10.1857 13.5928 10.2376C13.4511 10.2895 13.3218 10.3702 13.2129 10.4746C13.1118 10.5872 13.0339 10.7188 12.9839 10.8616C12.9339 11.0045 12.9126 11.1558 12.9213 11.3069C12.9145 11.451 12.9362 11.5951 12.9851 11.7308C13.0341 11.8665 13.1094 11.9912 13.2067 12.0977C13.5165 12.3682 13.8764 12.5751 14.2659 12.7069C14.7016 12.8768 15.1267 13.0726 15.539 13.2931C15.8481 13.4592 16.1317 13.6688 16.3813 13.9154C16.6069 14.1416 16.7853 14.4104 16.9059 14.7062C17.033 15.0355 17.0946 15.3863 17.0875 15.7392C17.1008 16.0684 17.0468 16.3968 16.9287 16.7044C16.8106 17.0119 16.6308 17.2921 16.4006 17.5277C15.8847 18.0114 15.2151 18.2981 14.509 18.3377V19.6269H13.4783V18.3385C12.6988 18.2931 11.9647 17.9569 11.4213 17.3962C10.9163 16.806 10.6565 16.045 10.6952 15.2692H12.5652C12.5365 15.6951 12.667 16.1164 12.9313 16.4515C13.0661 16.593 13.2302 16.7031 13.4122 16.7743C13.5941 16.8454 13.7895 16.8757 13.9844 16.8631C14.3121 16.8812 14.6344 16.7733 14.8852 16.5615C14.9958 16.458 15.0826 16.3317 15.1395 16.1913C15.1965 16.0509 15.2223 15.8998 15.2152 15.7485Z" fill="white" stroke="white" stroke-linecap="round" stroke-linejoin="round"/>
<path d="M40.6139 10.9623V11.7907C40.6153 11.8253 40.6095 11.8597 40.597 11.8919C40.5844 11.9241 40.5653 11.9533 40.5409 11.9777C40.5164 12.0022 40.4872 12.0213 40.455 12.0338C40.4229 12.0464 40.3884 12.0522 40.3539 12.0507H38.9893C38.8861 12.7918 38.513 13.4686 37.9416 13.9515C37.3002 14.4667 36.5192 14.778 35.6993 14.8454C36.6039 15.8095 37.847 17.261 39.4285 19.2C39.4645 19.2355 39.4873 19.2822 39.4932 19.3324C39.499 19.3826 39.4876 19.4333 39.4608 19.4761C39.442 19.5222 39.4091 19.5611 39.3668 19.5874C39.3245 19.6136 39.2751 19.6258 39.2254 19.6223H37.6408C37.6015 19.6239 37.5625 19.6159 37.5271 19.5989C37.4916 19.5818 37.461 19.5563 37.4378 19.5246C35.7803 17.5369 34.4316 15.9905 33.3916 14.8854C33.3672 14.8625 33.3478 14.8349 33.3345 14.8042C33.3213 14.7735 33.3145 14.7403 33.3147 14.7069V13.6761C33.3157 13.6075 33.3434 13.5419 33.3919 13.4934C33.4405 13.4448 33.506 13.4171 33.5747 13.4161H34.4847C35.0799 13.4417 35.6724 13.3218 36.2108 13.0669C36.4141 12.9669 36.5936 12.8245 36.7373 12.6494C36.881 12.4743 36.9855 12.2704 37.0439 12.0515H33.5747C33.5402 12.0529 33.5057 12.0472 33.4735 12.0346C33.4413 12.022 33.4121 12.0029 33.3877 11.9785C33.3632 11.9541 33.3442 11.9248 33.3316 11.8927C33.319 11.8605 33.3133 11.826 33.3147 11.7915V10.9631C33.3133 10.9285 33.319 10.8941 33.3316 10.8619C33.3442 10.8297 33.3632 10.8005 33.3877 10.7761C33.4121 10.7516 33.4413 10.7325 33.4735 10.72C33.5057 10.7074 33.5402 10.7016 33.5747 10.7031H36.9339C36.6262 10.0913 35.9006 9.78537 34.757 9.78537H33.5793C33.5106 9.78437 33.4451 9.75666 33.3965 9.70811C33.348 9.65956 33.3203 9.59402 33.3193 9.52537V8.44844C33.3179 8.41392 33.3236 8.37948 33.3362 8.3473C33.3488 8.31511 33.3679 8.28589 33.3923 8.26146C33.4167 8.23703 33.446 8.21792 33.4781 8.20535C33.5103 8.19279 33.5448 8.18703 33.5793 8.18844H40.3385C40.373 8.18703 40.4075 8.19279 40.4396 8.20535C40.4718 8.21792 40.5011 8.23703 40.5255 8.26146C40.5499 8.28589 40.569 8.31511 40.5816 8.3473C40.5942 8.37948 40.5999 8.41392 40.5985 8.44844V9.27691C40.5999 9.31143 40.5942 9.34587 40.5816 9.37805C40.569 9.41023 40.5499 9.43946 40.5255 9.46389C40.5011 9.48832 40.4718 9.50743 40.4396 9.51999C40.4075 9.53256 40.373 9.53832 40.3385 9.53691H38.4454C38.7065 9.8817 38.8844 10.2821 38.9654 10.7069H40.3547C40.3892 10.7055 40.4236 10.7113 40.4558 10.7238C40.488 10.7364 40.5172 10.7555 40.5416 10.7799C40.5661 10.8044 40.5852 10.8336 40.5978 10.8658C40.6103 10.8979 40.6161 10.9324 40.6147 10.9669L40.6139 10.9623Z" fill="white" stroke="white" stroke-width="0.5"/>
<path d="M13.6676 32.34C13.9908 32.0808 14.4008 31.9548 14.8137 31.9877C15.1281 31.9973 15.4339 32.0927 15.698 32.2635C15.9621 32.4344 16.1745 32.6741 16.3122 32.9569L17.4584 31.9877C17.182 31.4873 16.7717 31.0737 16.2735 30.7934C15.7752 30.5131 15.2088 30.3771 14.6376 30.4008C13.8007 30.3643 12.9813 30.6479 12.3461 31.1939C12.0227 31.5306 11.7763 31.9336 11.6241 32.375C11.4719 32.8163 11.4175 33.2855 11.4645 33.75V35.5131H10.3184V36.9231H11.5491V39.4777H10.4068V40.9777H17.4584V39.4777H13.2276V36.9231H15.6076V35.5131H13.2268V33.6623C13.193 33.1806 13.3515 32.7051 13.6676 32.34Z" fill="white" stroke="white" stroke-linecap="round" stroke-linejoin="round"/>
<path d="M40.1431 31.7446L37.427 36.1384H37.35L34.7908 31.7446H32.9531L35.7493 36.3784H33.9116V37.5769H36.4685V38.4553H33.9116V39.6538H36.4685V41.3315H38.2262V39.6538H40.7824V38.4553H38.2262V37.6569L38.3031 37.58H40.78V36.3784H39.0247L41.9008 31.7446H40.1431Z" fill="white" stroke="white" stroke-width="0.5" stroke-linecap="round" stroke-linejoin="round"/>
</g>
</g>
<defs>
<clipPath id="clip0_1516_43101">
<rect x="0.427734" width="50" height="50" rx="8" fill="white"/>
</clipPath>
</defs>
</svg>
