<svg width="50" height="50" viewBox="0 0 50 50" fill="none" xmlns="http://www.w3.org/2000/svg">
<g clip-path="url(#clip0_1516_43079)">
<mask id="mask0_1516_43079" style="mask-type:luminance" maskUnits="userSpaceOnUse" x="0" y="0" width="50" height="50">
<path d="M50 0H0V50H50V0Z" fill="white"/>
</mask>
<g mask="url(#mask0_1516_43079)">
<path d="M41.5802 32.2592C41.5802 38.2192 36.7341 34.27 30.7741 34.27C24.8141 34.27 19.9648 38.2185 19.9648 32.2592C19.9648 27.8431 22.6218 19.2269 26.4264 15.0623L24.9902 11.4362C24.9279 11.2775 24.905 11.106 24.9237 10.9365C24.9423 10.767 25.0019 10.6046 25.0973 10.4633C25.1927 10.3219 25.321 10.2059 25.4712 10.1252C25.6214 10.0445 25.789 10.0015 25.9595 10H35.5802C35.7519 9.99816 35.9214 10.039 36.0735 10.1187C36.2255 10.1985 36.3554 10.3148 36.4515 10.4571C36.5475 10.5995 36.6068 10.7634 36.6239 10.9343C36.641 11.1052 36.6154 11.2776 36.5495 11.4362L35.1187 15.0623C38.921 19.2269 41.5802 27.8462 41.5802 32.2592Z" fill="#005993"/>
<path d="M35.1152 15.3492H26.4267C26.3888 15.3497 26.3512 15.3427 26.3161 15.3284C26.281 15.3141 26.2491 15.2929 26.2224 15.2661C26.1956 15.2392 26.1745 15.2073 26.1603 15.1722C26.1462 15.137 26.1392 15.0994 26.1398 15.0615C26.1362 15.023 26.1412 14.9841 26.1544 14.9477C26.1675 14.9112 26.1886 14.8782 26.216 14.8508C26.2433 14.8234 26.2764 14.8024 26.3128 14.7892C26.3493 14.776 26.3881 14.7711 26.4267 14.7746H35.1152C35.1914 14.7746 35.2644 14.8049 35.3183 14.8588C35.3722 14.9126 35.4025 14.9857 35.4025 15.0619C35.4025 15.1381 35.3722 15.2112 35.3183 15.2651C35.2644 15.319 35.1914 15.3492 35.1152 15.3492Z" fill="#7ED3F7" stroke="#7ED3F7" stroke-linecap="round" stroke-linejoin="round"/>
<path d="M32.2712 25.7422C32.2876 25.4329 32.1806 25.1296 31.973 24.8972C31.6824 24.6336 31.3369 24.4359 30.9606 24.318C30.54 24.1653 30.1284 23.9894 29.7278 23.7911C29.405 23.6318 29.106 23.4294 28.8392 23.1896C28.5935 22.965 28.3972 22.6931 28.2622 22.3907C28.1167 22.0445 28.0464 21.6722 28.0558 21.2976C28.0438 20.967 28.1005 20.6375 28.2224 20.3293C28.3443 20.0211 28.5287 19.7407 28.7645 19.5054C29.2745 19.0228 29.9414 18.734 30.6467 18.6904V17.3077H31.6934V18.7119C32.4017 18.7848 33.0534 19.127 33.5103 19.666C33.9672 20.2532 34.1994 20.9806 34.166 21.7201H32.2712C32.3027 21.3075 32.1879 20.8969 31.9465 20.5586C31.8414 20.4329 31.7083 20.3328 31.5575 20.2662C31.4068 20.1995 31.2425 20.1682 31.0774 20.1745C30.925 20.1652 30.7722 20.1871 30.6288 20.2389C30.4854 20.2908 30.3544 20.3714 30.2441 20.4756C30.1418 20.5881 30.063 20.7195 30.0123 20.8621C29.9617 21.0048 29.9401 21.1559 29.949 21.3068C29.942 21.4507 29.964 21.5945 30.0136 21.7301C30.0632 21.8656 30.1394 21.9901 30.2379 22.0965C30.5515 22.3666 30.9159 22.5733 31.3103 22.7049C31.7513 22.8746 32.1817 23.07 32.5991 23.2902C32.912 23.4562 33.1991 23.6654 33.4519 23.9117C33.6802 24.1376 33.8608 24.406 33.983 24.7014C34.1116 25.0302 34.174 25.3806 34.1668 25.733C34.1803 26.0617 34.1256 26.3897 34.006 26.6968C33.8864 27.004 33.7045 27.2837 33.4713 27.519C32.9491 28.0021 32.2712 28.2884 31.5563 28.3279V29.6154H30.5128V28.3287C29.7237 28.2834 28.9805 27.9476 28.4304 27.3877C27.9191 26.7984 27.6561 26.0383 27.6952 25.2637H29.5884C29.5594 25.6889 29.6915 26.1097 29.9591 26.4443C30.0955 26.5856 30.2617 26.6956 30.4459 26.7666C30.6301 26.8376 30.8279 26.8679 31.0252 26.8553C31.357 26.8734 31.6833 26.7657 31.9372 26.5542C32.0491 26.4508 32.137 26.3246 32.1947 26.1844C32.2524 26.0442 32.2785 25.8934 32.2712 25.7422Z" fill="white"/>
<path d="M44.3779 36.2438L41.5056 37.8238C38.5584 39.4392 35.2965 40.3976 31.9439 40.6331C28.5913 40.8687 25.2274 40.3758 22.0833 39.1885L18.4571 37.7885C18.1027 37.648 17.7252 37.575 17.3441 37.5731H14.1133V29.2792H18.7087C19.0514 29.2833 19.3911 29.3438 19.714 29.4585L23.8056 30.8231C25.2985 31.3232 26.8627 31.5778 28.4371 31.5769H32.2787C32.564 31.5741 32.8471 31.6276 33.1117 31.7344C33.3764 31.8412 33.6173 31.9991 33.8208 32.1992C34.0242 32.3993 34.1862 32.6376 34.2974 32.9004C34.4085 33.1632 34.4668 33.4454 34.4687 33.7308C34.4569 34.2594 34.2378 34.7622 33.8587 35.1308C33.719 35.27 33.5621 35.3907 33.3917 35.49L42.7625 32.6177C43.2316 32.4447 43.7481 32.4518 44.2122 32.6375C44.6764 32.8232 45.0553 33.1743 45.2756 33.6231C45.4738 34.0939 45.4918 34.6213 45.3263 35.1046C45.1607 35.5879 44.8232 35.9934 44.3779 36.2438Z" fill="#F1F1F1"/>
<path d="M15.5142 28.0946H13.3242V38.7577H15.5142V28.0946Z" fill="#005993"/>
<path d="M13.3595 27.2331V39.6546H7.7234C5.26255 35.9735 3.91613 31.6605 3.8457 27.2331H13.3595Z" fill="#D71049"/>
<path d="M10.9311 30.9054C11.5586 30.9054 12.0672 30.3968 12.0672 29.7693C12.0672 29.1418 11.5586 28.6331 10.9311 28.6331C10.3036 28.6331 9.79492 29.1418 9.79492 29.7693C9.79492 30.3968 10.3036 30.9054 10.9311 30.9054Z" fill="white"/>
</g>
</g>
<defs>
<clipPath id="clip0_1516_43079">
<rect width="50" height="50" rx="8" fill="white"/>
</clipPath>
</defs>
</svg>
