<svg width="51" height="50" viewBox="0 0 51 50" fill="none" xmlns="http://www.w3.org/2000/svg">
<path d="M35.4768 15.7158C36.1366 15.7117 36.7682 15.4478 37.2348 14.9813C37.7013 14.5148 37.9652 13.8832 37.9693 13.2234C37.9693 12.7304 37.8231 12.2486 37.5492 11.8387C37.2754 11.4288 36.8861 11.1094 36.4306 10.9207C35.9752 10.7321 35.4741 10.6827 34.9906 10.7789C34.5071 10.875 34.063 11.1124 33.7144 11.461C33.3658 11.8096 33.1284 12.2537 33.0323 12.7371C32.9361 13.2206 32.9855 13.7217 33.1741 14.1772C33.3628 14.6326 33.6822 15.0218 34.0921 15.2957C34.502 15.5696 34.9839 15.7158 35.4768 15.7158Z" fill="#D71049"/>
<path d="M35.724 8.42056H36.0938C36.7766 8.52686 37.4351 8.74907 38.0392 9.07709V2.92306L35.4207 5.40487L32.6543 2.92306V9.05544C33.2553 8.70743 33.9134 8.46335 34.5997 8.33399H35.3394C35.4626 8.38092 35.5922 8.41008 35.724 8.42056Z" fill="#F2F2F2"/>
<path d="M40.6937 13.2234C40.7025 12.3401 40.4852 11.4692 40.0624 10.6937C39.6396 9.91809 39.0254 9.2636 38.2782 8.79245C37.672 8.39553 36.9768 8.15502 36.255 8.09243H34.9626C34.2395 8.19559 33.5484 8.45836 32.9394 8.86168C31.9861 9.47023 31.2553 10.371 30.8563 11.4292C30.4574 12.4875 30.4116 13.6464 30.7258 14.7328C31.0401 15.8193 31.6975 16.7748 32.5998 17.4567C33.5021 18.1386 34.6009 18.5101 35.7319 18.5158C37.0781 18.4334 38.3419 17.8393 39.2643 16.8554C40.1868 15.8714 40.6982 14.5721 40.6937 13.2234ZM37.8935 13.2234C37.8895 13.8831 37.6256 14.5147 37.159 14.9813C36.6925 15.4478 36.0609 15.7117 35.4011 15.7157C35.0626 15.7346 34.7239 15.6842 34.4056 15.5676C34.0873 15.451 33.7961 15.2708 33.5499 15.0378C33.3036 14.8049 33.1075 14.5242 32.9734 14.2129C32.8394 13.9016 32.7702 13.5661 32.7702 13.2272C32.7702 12.8882 32.8394 12.5528 32.9734 12.2415C33.1075 11.9302 33.3036 11.6495 33.5499 11.4165C33.7961 11.1836 34.0873 11.0033 34.4056 10.8868C34.7239 10.7702 35.0626 10.7198 35.4011 10.7387C36.0559 10.7542 36.6797 11.0207 37.1436 11.4832C37.6075 11.9456 37.8759 12.5686 37.8935 13.2234Z" fill="white"/>
<path d="M35.7148 44.355L42.7922 37.2702H35.7148V44.355Z" fill="#F2F2F2"/>
<path d="M42.7939 37.2702V7.00007H38.1782V8.86937C39.1306 9.47543 39.8607 10.3741 40.2588 11.4305C40.6568 12.4869 40.7014 13.6439 40.3858 14.7277C40.0701 15.8116 39.4113 16.7638 38.5084 17.4413C37.6054 18.1188 36.507 18.4851 35.3781 18.4851C34.2492 18.4851 33.1507 18.1188 32.2478 17.4413C31.3448 16.7638 30.686 15.8116 30.3704 14.7277C30.0548 13.6439 30.0993 12.4869 30.4974 11.4305C30.8954 10.3741 31.6255 9.47543 32.5779 8.86937V7.00007H12.1152V44.355H35.7319V37.2702H42.7939Z" fill="#005993"/>
<path d="M23.0307 11.0464H15.638C15.5929 11.0393 15.5469 11.0421 15.5031 11.0544C15.4592 11.0668 15.4186 11.0886 15.3839 11.1182C15.3493 11.1478 15.3215 11.1846 15.3024 11.226C15.2833 11.2674 15.2734 11.3124 15.2734 11.3579C15.2734 11.4035 15.2833 11.4485 15.3024 11.4899C15.3215 11.5313 15.3493 11.5681 15.3839 11.5977C15.4186 11.6273 15.4592 11.6491 15.5031 11.6615C15.5469 11.6739 15.5929 11.6766 15.638 11.6695H23.1076C23.1874 11.6641 23.2626 11.6299 23.3192 11.5734C23.3758 11.5168 23.4099 11.4416 23.4153 11.3618C23.4056 11.2692 23.3598 11.1841 23.2878 11.1251C23.2158 11.0661 23.1234 11.0378 23.0307 11.0464Z" fill="white"/>
<path d="M21.7082 39.8472H15.554C15.509 39.8401 15.4629 39.8429 15.4191 39.8553C15.3752 39.8677 15.3346 39.8894 15.2999 39.919C15.2653 39.9486 15.2375 39.9854 15.2184 40.0268C15.1993 40.0682 15.1895 40.1132 15.1895 40.1588C15.1895 40.2044 15.1993 40.2494 15.2184 40.2908C15.2375 40.3322 15.2653 40.3689 15.2999 40.3985C15.3346 40.4282 15.3752 40.4499 15.4191 40.4623C15.4629 40.4747 15.509 40.4774 15.554 40.4703H21.7082C21.7824 40.4586 21.85 40.4208 21.8988 40.3637C21.9476 40.3066 21.9745 40.2339 21.9745 40.1588C21.9745 40.0837 21.9476 40.011 21.8988 39.9539C21.85 39.8968 21.7824 39.8589 21.7082 39.8472Z" fill="white"/>
<path d="M27.6225 38.2087H15.4834C15.4022 38.2123 15.3251 38.2456 15.267 38.3024C15.2088 38.3591 15.1736 38.4353 15.168 38.5164C15.1734 38.5983 15.2084 38.6754 15.2664 38.7334C15.3244 38.7914 15.4015 38.8264 15.4834 38.8318H27.5379C27.6198 38.8264 27.6969 38.7914 27.7549 38.7334C27.8129 38.6754 27.8479 38.5983 27.8533 38.5164C27.8533 38.3625 27.7764 38.2087 27.6225 38.2087Z" fill="white"/>
<path d="M27.6225 32.8394H15.4834C15.4022 32.843 15.3251 32.8763 15.267 32.933C15.2088 32.9898 15.1736 33.066 15.168 33.1471C15.1734 33.2289 15.2084 33.306 15.2664 33.3641C15.3244 33.4221 15.4015 33.457 15.4834 33.4625H27.5379C27.6198 33.457 27.6969 33.4221 27.7549 33.3641C27.8129 33.306 27.8479 33.2289 27.8533 33.1471C27.8533 32.9932 27.7764 32.8394 27.6225 32.8394Z" fill="#D71049"/>
<path d="M33.2997 30.8162H15.4834C15.4022 30.8198 15.3251 30.8532 15.267 30.9099C15.2088 30.9667 15.1736 31.0429 15.168 31.1239C15.1734 31.2058 15.2084 31.2829 15.2664 31.3409C15.3244 31.3989 15.4015 31.4339 15.4834 31.4393H33.2228C33.3033 31.4322 33.3786 31.3964 33.435 31.3385C33.4915 31.2807 33.5253 31.2046 33.5305 31.1239C33.5305 30.9701 33.4228 30.8162 33.2997 30.8162Z" fill="white"/>
<path d="M33.2997 28.793H15.4834C15.4022 28.7966 15.3251 28.83 15.267 28.8867C15.2088 28.9435 15.1736 29.0197 15.168 29.1007C15.1734 29.1826 15.2084 29.2597 15.2664 29.3177C15.3244 29.3757 15.4015 29.4107 15.4834 29.4161H33.2228C33.3033 29.409 33.3786 29.3732 33.435 29.3154C33.4915 29.2575 33.5253 29.1814 33.5305 29.1007C33.5305 28.9469 33.4228 28.793 33.2997 28.793Z" fill="white"/>
<path d="M37.7387 26.8469H15.4836C15.4386 26.8398 15.3926 26.8425 15.3488 26.8549C15.3049 26.8673 15.2643 26.8891 15.2296 26.9187C15.195 26.9483 15.1672 26.985 15.1481 27.0264C15.129 27.0678 15.1191 27.1129 15.1191 27.1584C15.1191 27.204 15.129 27.249 15.1481 27.2904C15.1672 27.3318 15.195 27.3686 15.2296 27.3982C15.2643 27.4278 15.3049 27.4495 15.3488 27.4619C15.3926 27.4743 15.4386 27.4771 15.4836 27.47H37.7387C37.813 27.4583 37.8806 27.4205 37.9294 27.3633C37.9782 27.3062 38.005 27.2336 38.005 27.1584C38.005 27.0833 37.9782 27.0106 37.9294 26.9535C37.8806 26.8964 37.813 26.8586 37.7387 26.8469Z" fill="white"/>
<path d="M37.7385 24.8237H15.4834C15.4022 24.8273 15.3251 24.8607 15.267 24.9174C15.2088 24.9742 15.1736 25.0504 15.168 25.1314C15.1734 25.2133 15.2084 25.2904 15.2664 25.3485C15.3244 25.4065 15.4015 25.4414 15.4834 25.4468H37.7385C37.819 25.4397 37.8942 25.4039 37.9507 25.3461C38.0071 25.2882 38.041 25.2121 38.0462 25.1314C38.0408 25.0516 38.0066 24.9765 37.95 24.9199C37.8935 24.8633 37.8183 24.8291 37.7385 24.8237Z" fill="white"/>
<path d="M27.6225 22.8006H15.4834C15.4022 22.8041 15.3251 22.8375 15.267 22.8942C15.2088 22.951 15.1736 23.0272 15.168 23.1082C15.1734 23.1901 15.2084 23.2672 15.2664 23.3253C15.3244 23.3833 15.4015 23.4182 15.4834 23.4236H27.5379C27.6198 23.4182 27.6969 23.3833 27.7549 23.3253C27.8129 23.2672 27.8479 23.1901 27.8533 23.1082C27.8533 22.9236 27.7764 22.8006 27.6225 22.8006Z" fill="white"/>
</svg>
