<svg width="51" height="50" viewBox="0 0 51 50" fill="none" xmlns="http://www.w3.org/2000/svg">
<g clip-path="url(#clip0_1516_43057)">
<mask id="mask0_1516_43057" style="mask-type:luminance" maskUnits="userSpaceOnUse" x="0" y="0" width="51" height="50">
<path d="M50.1426 0H0.142578V50H50.1426V0Z" fill="white"/>
</mask>
<g mask="url(#mask0_1516_43057)">
<path d="M44.1485 16.9139H5.32927C4.91081 16.9139 4.74389 16.3285 5.0785 16.1608L23.9024 4.86616C24.1659 4.70189 24.4703 4.61481 24.7808 4.61481C25.0914 4.61481 25.3957 4.70189 25.6593 4.86616L44.4831 16.1608C44.7347 16.3285 44.567 16.9139 44.1485 16.9139Z" fill="#005993"/>
<path d="M41.4669 16.9138H8.00534V18.5869C7.99861 18.6986 8.01564 18.8104 8.05532 18.915C8.095 19.0196 8.15642 19.1145 8.23552 19.1936C8.31462 19.2727 8.4096 19.3342 8.51419 19.3738C8.61878 19.4135 8.7306 19.4306 8.84226 19.4238H40.6338C40.7451 19.43 40.8565 19.4125 40.9607 19.3726C41.0648 19.3327 41.1593 19.2712 41.238 19.1921C41.3166 19.1131 41.3777 19.0183 41.4172 18.914C41.4566 18.8097 41.4736 18.6982 41.4669 18.5869V16.9138Z" fill="#F1F1F1"/>
<path d="M40.6338 35.3192H8.84226C8.7306 35.3125 8.61878 35.3295 8.51419 35.3692C8.4096 35.4089 8.31462 35.4703 8.23552 35.5494C8.15642 35.6285 8.095 35.7235 8.05532 35.8281C8.01564 35.9327 7.99861 36.0445 8.00534 36.1562V37.8292H41.4669V36.1562C41.4736 36.0448 41.4566 35.9334 41.4172 35.8291C41.3777 35.7248 41.3166 35.63 41.238 35.5509C41.1593 35.4719 41.0648 35.4104 40.9607 35.3705C40.8565 35.3305 40.7451 35.3131 40.6338 35.3192Z" fill="#F1F1F1"/>
<path d="M43.144 37.8293H6.3325C6.22084 37.8225 6.10902 37.8396 6.00443 37.8792C5.89983 37.9189 5.80485 37.9803 5.72575 38.0594C5.64665 38.1385 5.58523 38.2335 5.54556 38.3381C5.50588 38.4427 5.48884 38.5545 5.49557 38.6662V41.1754H43.9802V38.6662C43.9869 38.5546 43.9699 38.4428 43.9303 38.3383C43.8906 38.2338 43.8293 38.1388 43.7503 38.0597C43.6712 37.9806 43.5764 37.9192 43.4719 37.8795C43.3674 37.8398 43.2556 37.8226 43.144 37.8293Z" fill="#005993"/>
<path d="M28.0844 21.0969V19.4238H21.3921V21.0969C21.3854 21.2086 21.4024 21.3204 21.4421 21.425C21.4818 21.5296 21.5432 21.6245 21.6223 21.7036C21.7014 21.7827 21.7964 21.8442 21.901 21.8838C22.0055 21.9235 22.1174 21.9406 22.229 21.9338V32.8084C22.1173 32.8017 22.0054 32.8188 21.9008 32.8585C21.7961 32.8982 21.7011 32.9597 21.622 33.0389C21.5429 33.1181 21.4815 33.2131 21.4418 33.3178C21.4022 33.4225 21.3853 33.5344 21.3921 33.6461V35.3192H28.0844V33.6461C28.0912 33.5345 28.0743 33.4226 28.0347 33.318C27.9951 33.2134 27.9338 33.1184 27.8548 33.0392C27.7758 32.96 27.6808 32.8985 27.5763 32.8587C27.4717 32.819 27.3599 32.8018 27.2483 32.8084V21.9338C27.3599 21.9404 27.4716 21.9233 27.5761 21.8836C27.6806 21.8439 27.7755 21.7824 27.8545 21.7033C27.9335 21.6243 27.9949 21.5293 28.0345 21.4248C28.0741 21.3202 28.0911 21.2085 28.0844 21.0969Z" fill="#005993"/>
<path d="M17.2094 21.0969V19.4238H10.5171V21.0969C10.5104 21.2086 10.5274 21.3204 10.5671 21.425C10.6068 21.5296 10.6682 21.6245 10.7473 21.7036C10.8264 21.7827 10.9214 21.8442 11.026 21.8838C11.1305 21.9235 11.2424 21.9406 11.354 21.9338V32.8084C11.2423 32.8017 11.1304 32.8188 11.0258 32.8585C10.9211 32.8982 10.8261 32.9597 10.747 33.0389C10.6679 33.1181 10.6065 33.2131 10.5668 33.3178C10.5272 33.4225 10.5103 33.5344 10.5171 33.6461V35.3192H17.2094V33.6461C17.2162 33.5345 17.1993 33.4226 17.1597 33.318C17.1202 33.2134 17.0588 33.1184 16.9798 33.0392C16.9008 32.96 16.8058 32.8985 16.7013 32.8587C16.5967 32.819 16.4849 32.8018 16.3733 32.8084V21.9338C16.4849 21.9404 16.5966 21.9233 16.7011 21.8836C16.8056 21.8439 16.9005 21.7824 16.9795 21.7033C17.0585 21.6243 17.1199 21.5293 17.1595 21.4248C17.1991 21.3202 17.2161 21.2085 17.2094 21.0969Z" fill="#005993"/>
<path d="M38.9614 21.0969V19.4238H32.2691V21.0969C32.2623 21.2086 32.2794 21.3204 32.319 21.425C32.3587 21.5296 32.4201 21.6245 32.4992 21.7036C32.5783 21.7827 32.6733 21.8442 32.7779 21.8838C32.8825 21.9235 32.9943 21.9406 33.106 21.9338V32.8084C32.9943 32.8017 32.8824 32.8188 32.7777 32.8585C32.6731 32.8982 32.578 32.9597 32.4989 33.0389C32.4198 33.1181 32.3584 33.2131 32.3188 33.3178C32.2792 33.4225 32.2622 33.5344 32.2691 33.6461V35.3192H38.9614V33.6461C38.9682 33.5345 38.9513 33.4226 38.9117 33.318C38.8721 33.2134 38.8108 33.1184 38.7317 33.0392C38.6527 32.96 38.5578 32.8985 38.4532 32.8587C38.3487 32.819 38.2369 32.8018 38.1252 32.8084V21.9338C38.2368 21.9404 38.3485 21.9233 38.453 21.8836C38.5575 21.8439 38.6524 21.7824 38.7314 21.7033C38.8105 21.6243 38.8718 21.5293 38.9114 21.4248C38.9511 21.3202 38.9681 21.2085 38.9614 21.0969Z" fill="#005993"/>
<path d="M46.2958 36.1762C46.2958 31.2906 42.3353 27.33 37.4497 27.33C32.5641 27.33 28.6035 31.2906 28.6035 36.1762C28.6035 41.0618 32.5641 45.0223 37.4497 45.0223C42.3353 45.0223 46.2958 41.0618 46.2958 36.1762Z" fill="#D71049"/>
<path d="M37.4495 44.6375C35.6925 44.6375 34.0116 44.1056 32.582 43.0983C32.2385 42.3756 32.0645 41.6001 32.0645 40.7915C32.0645 37.8225 34.4802 35.4071 37.4495 35.4071C40.4185 35.4071 42.8339 37.8225 42.8339 40.7915C42.8339 41.6004 42.6598 42.3761 42.3162 43.0987C40.8868 44.1057 39.2063 44.6375 37.4495 44.6375Z" fill="white"/>
<path d="M37.4498 37.33C39.3616 37.33 40.9114 35.7802 40.9114 33.8685C40.9114 31.9567 39.3616 30.4069 37.4498 30.4069C35.5381 30.4069 33.9883 31.9567 33.9883 33.8685C33.9883 35.7802 35.5381 37.33 37.4498 37.33Z" fill="white"/>
</g>
</g>
<defs>
<clipPath id="clip0_1516_43057">
<rect width="50" height="50" fill="white" transform="translate(0.142578)"/>
</clipPath>
</defs>
</svg>
