<svg width="51" height="50" viewBox="0 0 51 50" fill="none" xmlns="http://www.w3.org/2000/svg">
<g clip-path="url(#clip0_1516_43046)">
<mask id="mask0_1516_43046" style="mask-type:luminance" maskUnits="userSpaceOnUse" x="0" y="0" width="51" height="50">
<path d="M50.7148 0H0.714844V50H50.7148V0Z" fill="white"/>
</mask>
<g mask="url(#mask0_1516_43046)">
<path d="M18.5171 15.5384C17.5219 15.7207 16.5615 16.0582 15.671 16.5384C11.5171 15.5384 6.51711 16.8461 5.97865 18.0769C5.51711 19.0769 7.67096 21.1538 9.1325 22.3846C8.43178 23.705 7.96341 25.1361 7.74788 26.6154C6.28635 26.7692 4.28635 27.2307 3.97865 28.4615C3.44019 30.5384 3.97865 35.3846 6.67096 35.9231C7.84044 36.1122 9.02528 36.1895 10.2094 36.1538C11.2508 37.3577 12.47 38.3953 13.8248 39.2307L12.594 44.5384H20.5171L21.594 41.6923C22.2056 41.7817 22.8222 41.8331 23.4402 41.8461C24.4739 41.7938 25.5023 41.6653 26.5171 41.4615L25.7479 44.5384H33.2863C33.2863 44.5384 39.2094 36.7692 40.0556 32.5384C40.6689 31.2399 40.9843 29.8207 40.9787 28.3846C40.8248 25.3846 36.9017 12.3077 18.5171 15.5384Z" fill="#005993"/>
<path d="M28.1331 5.38459C27.1832 5.38347 26.2425 5.56974 25.3647 5.93273C24.4869 6.29571 23.6894 6.82829 23.0177 7.49995C22.346 8.17161 21.8135 8.96916 21.4505 9.84694C21.0875 10.7247 20.9012 11.6655 20.9023 12.6154C20.9077 13.8422 21.2203 15.0481 21.8115 16.123C22.4027 17.198 23.2538 18.1077 24.287 18.7692C26.1256 18.7124 27.9568 19.0264 29.6716 19.6923C31.2987 19.3527 32.7597 18.4643 33.81 17.176C34.8603 15.8876 35.436 14.2775 35.4408 12.6154C35.4126 10.6931 34.6312 8.85869 33.2647 7.50653C31.8981 6.15436 30.0555 5.39244 28.1331 5.38459Z" fill="#D71049"/>
<path d="M30.7483 10.4615C30.7483 10.4615 30.5176 9.30768 28.133 9.30768C26.2868 9.30768 25.5176 10.3077 25.5176 11.2308C25.5176 12.1538 26.5945 12.7692 28.133 12.7692C30.2099 12.7692 30.7483 13.4615 30.7483 14.3077C30.7483 15.4615 29.5176 16.2308 28.133 16.2308C27.6372 16.2558 27.1425 16.1645 26.6884 15.9641C26.2342 15.7638 25.8333 15.4599 25.5176 15.0769" stroke="white" stroke-width="2" stroke-miterlimit="10" stroke-linecap="round" stroke-linejoin="round"/>
<path d="M28.0547 8.38458V16.8461" stroke="white" stroke-width="2" stroke-miterlimit="10" stroke-linecap="round" stroke-linejoin="round"/>
<path d="M13.4411 26.6923C13.8659 26.6923 14.2103 26.3479 14.2103 25.923C14.2103 25.4982 13.8659 25.1538 13.4411 25.1538C13.0163 25.1538 12.6719 25.4982 12.6719 25.923C12.6719 26.3479 13.0163 26.6923 13.4411 26.6923Z" stroke="white" stroke-width="2" stroke-miterlimit="10" stroke-linecap="round" stroke-linejoin="round"/>
<path d="M39.2871 25.4615C39.2871 25.4615 44.5948 25.7692 44.2871 21.9999C44.0563 19.2307 42.6717 18.6923 41.7486 19.8461C40.9794 20.8461 41.7486 23.6153 44.9794 23.4615C48.2102 23.3076 47.2871 19.2307 47.2871 19.2307" stroke="#7ED3F7" stroke-miterlimit="10" stroke-linecap="round" stroke-linejoin="round"/>
<path d="M21.5176 19C21.5176 19 27.6714 17.8461 31.133 20.6154" stroke="#7ED3F7" stroke-miterlimit="10" stroke-linecap="round" stroke-linejoin="round"/>
</g>
</g>
<defs>
<clipPath id="clip0_1516_43046">
<rect x="0.714844" width="50" height="50" rx="8" fill="white"/>
</clipPath>
</defs>
</svg>
