<svg width="51" height="50" viewBox="0 0 51 50" fill="none" xmlns="http://www.w3.org/2000/svg">
<path d="M32.815 17.3846H34.2919V19.6923L31.7227 20.7C32.5131 18.9519 33.012 17.0862 33.1996 15.1769C33.1348 15.9225 33.0061 16.6611 32.815 17.3846Z" fill="white"/>
<path d="M35.6914 13.4154V17.3846H32.8145C32.9872 16.6446 33.0902 15.89 33.1221 15.1308V13.6539V13.3385H35.6914V13.4154Z" fill="#D71049"/>
<path d="M17.6379 17.3846H14.8379V13.4154H17.4071C17.3461 13.7761 17.3203 14.142 17.3302 14.5077C17.326 15.4751 17.4292 16.44 17.6379 17.3846Z" fill="#D71049"/>
<path d="M33.1224 13.4154V13.7308C32.9292 11.7845 32.0174 9.98025 30.5651 8.67022C29.1128 7.3602 27.2244 6.63854 25.2686 6.6462C23.3659 6.65022 21.5274 7.33489 20.0855 8.57642C18.6437 9.81795 17.6936 11.5344 17.4071 13.4154H16.084C16.6301 8.12312 20.5224 3.9231 25.2686 3.9231C30.0148 3.9231 33.9071 8.04619 34.4455 13.4154H33.1224Z" fill="#005993"/>
<path d="M31.7221 20.7308C30.399 23.6154 28.2221 26.1154 25.2683 26.1154C21.2221 26.1154 18.5759 21.4462 17.7144 17.477C17.5102 16.5576 17.407 15.6187 17.4067 14.677C17.3912 14.3137 17.417 13.9498 17.4836 13.5924H17.4067C17.6916 11.7099 18.6409 9.99164 20.0829 8.74855C21.525 7.50547 23.3644 6.81973 25.2683 6.81543C27.2241 6.80777 29.1125 7.52942 30.5648 8.83945C32.017 10.1495 32.9288 11.9538 33.1221 13.9001V15.377C32.9787 17.2308 32.5046 19.0441 31.7221 20.7308Z" fill="#F1F1F1"/>
<path d="M20.437 26.9539L25.1062 33.2616L22.6216 35.8308L18.6523 28.5923L20.437 26.9539Z" fill="#F1F1F1"/>
<path d="M31.569 28.5923L27.4459 35.4385L25.1074 33.2616L29.7766 26.9539L31.569 28.5923Z" fill="#F1F1F1"/>
<path d="M31.5679 28.5923C42.3371 34.7462 41.0602 31.8616 41.0602 44.077C30.5425 46.5309 19.601 46.5309 9.08328 44.077C9.08328 31.7693 7.83712 34.7385 18.5756 28.5923L22.5448 35.8308L25.0294 33.3385L27.3371 35.5154L31.5679 28.5923Z" fill="#005993"/>
<path d="M31.5691 38.7846H27.9153C27.8703 38.7917 27.8242 38.789 27.7804 38.7766C27.7365 38.7642 27.6959 38.7424 27.6613 38.7128C27.6266 38.6832 27.5988 38.6465 27.5797 38.6051C27.5607 38.5637 27.5508 38.5187 27.5508 38.4731C27.5508 38.4275 27.5607 38.3825 27.5797 38.3411C27.5988 38.2997 27.6266 38.2629 27.6613 38.2333C27.6959 38.2037 27.7365 38.182 27.7804 38.1696C27.8242 38.1572 27.8703 38.1545 27.9153 38.1616H31.5691C31.6502 38.1671 31.7264 38.2024 31.7831 38.2606C31.8399 38.3187 31.8732 38.3958 31.8768 38.477C31.8803 38.5183 31.8748 38.5598 31.8605 38.5987C31.8463 38.6376 31.8238 38.673 31.7945 38.7023C31.7652 38.7316 31.7298 38.7542 31.6909 38.7684C31.652 38.7826 31.6104 38.7881 31.5691 38.7846Z" fill="#D71049"/>
<path d="M31.5688 41.0385H27.915C27.8338 41.0349 27.7568 41.0016 27.6986 40.9448C27.6404 40.8881 27.6052 40.8119 27.5996 40.7308C27.605 40.649 27.64 40.5718 27.698 40.5138C27.756 40.4558 27.8331 40.4208 27.915 40.4154H31.5688C31.6493 40.4226 31.7246 40.4584 31.781 40.5162C31.8375 40.5741 31.8713 40.6502 31.8765 40.7308C31.88 40.7721 31.8745 40.8137 31.8603 40.8526C31.846 40.8915 31.8235 40.9269 31.7942 40.9562C31.7649 40.9855 31.7295 41.008 31.6906 41.0222C31.6517 41.0365 31.6101 41.042 31.5688 41.0385Z" fill="white"/>
<path d="M22.9296 14.9C22.6424 14.9139 22.3547 14.8854 22.0758 14.8154C21.4581 14.7364 20.8703 14.5024 20.3673 14.1352C19.8643 13.7681 19.4624 13.2797 19.1988 12.7154C19.1625 12.6331 19.1581 12.5402 19.1865 12.4549C19.215 12.3696 19.2742 12.2979 19.3527 12.2539C19.4363 12.2188 19.5298 12.215 19.616 12.2432C19.7022 12.2715 19.7753 12.3299 19.8219 12.4077C20.0622 12.8605 20.4051 13.2507 20.8231 13.5472C21.2412 13.8438 21.7229 14.0383 22.2296 14.1154C22.7858 14.2229 23.3585 14.2098 23.9092 14.0771C24.4599 13.9444 24.9757 13.6952 25.4219 13.3462C26.9604 11.8692 27.3681 11.7154 27.6758 11.8692C27.9835 12.0231 27.9142 12.4154 27.8373 12.7231C27.8373 12.8846 27.7527 13.1154 27.7527 13.1923C27.912 13.1895 28.0701 13.1636 28.2219 13.1154C29.1527 12.7231 30.4758 12.4154 31.3373 12.8C31.6642 12.9965 31.9119 13.3014 32.0373 13.6616C32.1142 13.8154 31.9604 14.0462 31.7988 14.1231C31.6373 14.2 31.4142 14.0462 31.3373 13.8923C31.2748 13.7323 31.1648 13.5954 31.0219 13.5C30.156 13.2837 29.2406 13.3961 28.4527 13.8154C28.2738 13.9104 28.0744 13.96 27.8719 13.96C27.6694 13.96 27.47 13.9104 27.2912 13.8154C26.9758 13.5847 27.0527 13.1923 27.0527 12.8C26.8219 12.9616 26.4296 13.3462 25.8142 13.8923C25.0078 14.5688 23.9819 14.9272 22.9296 14.9Z" fill="#7ED3F7"/>
<path d="M27.214 17.5385C27.0524 17.5385 26.9755 17.4616 26.8986 17.3078C26.8651 17.2239 26.8621 17.131 26.8902 17.0452C26.9184 16.9594 26.9758 16.8863 27.0524 16.8385C27.214 16.7616 28.8447 16.0693 29.6986 16.9231C29.8601 17.077 29.8601 17.3077 29.6986 17.3847C29.537 17.4616 29.314 17.5385 29.237 17.3847C28.7678 16.9231 27.6986 17.3078 27.3678 17.4616C27.3678 17.5385 27.2909 17.5385 27.214 17.5385Z" fill="#7ED3F7"/>
<path d="M23.2217 17.5384H23.0602C22.7525 17.3846 21.5833 17.0769 21.1987 17.4615C21.0371 17.6231 20.8064 17.6231 20.7294 17.4615C20.6525 17.3 20.5756 17.0769 20.7294 17C21.5833 16.1384 23.2218 16.8384 23.3756 16.9231C23.4528 16.9683 23.511 17.04 23.5393 17.1249C23.5676 17.2098 23.5641 17.3021 23.5294 17.3846C23.5525 17.4615 23.3987 17.5384 23.2217 17.5384Z" fill="#7ED3F7"/>
<path d="M26.1992 23.1462C26.0454 23.1462 25.8915 23.0693 25.8915 22.9077C25.8736 22.8625 25.8654 22.8139 25.8675 22.7652C25.8696 22.7166 25.882 22.6689 25.9037 22.6253C25.9255 22.5818 25.9562 22.5433 25.9939 22.5124C26.0316 22.4815 26.0753 22.459 26.1223 22.4462L34.0608 19.4077V17.3077C34.0662 17.2279 34.1003 17.1527 34.1569 17.0962C34.2135 17.0396 34.2886 17.0054 34.3685 17C34.4491 17.0052 34.5253 17.0391 34.5831 17.0955C34.6409 17.1519 34.6767 17.2272 34.6838 17.3077V19.6154C34.6838 19.7692 34.6069 19.9231 34.4454 19.9231L26.3531 23C26.3405 23.0346 26.32 23.0658 26.2933 23.0912C26.2666 23.1165 26.2344 23.1354 26.1992 23.1462Z" fill="#7ED3F7"/>
</svg>
