<svg width="51" height="50" viewBox="0 0 51 50" fill="none" xmlns="http://www.w3.org/2000/svg">
<g clip-path="url(#clip0_1516_43068)">
<mask id="mask0_1516_43068" style="mask-type:luminance" maskUnits="userSpaceOnUse" x="0" y="0" width="51" height="50">
<path d="M50.2852 0H0.285156V50H50.2852V0Z" fill="white"/>
</mask>
<g mask="url(#mask0_1516_43068)">
<path d="M44.1309 9.61536H6.43855C5.16405 9.61536 4.13086 10.6485 4.13086 11.923V37.3077C4.13086 38.5822 5.16405 39.6154 6.43855 39.6154H44.1309C45.4054 39.6154 46.4386 38.5822 46.4386 37.3077V11.923C46.4386 10.6485 45.4054 9.61536 44.1309 9.61536Z" fill="#005993"/>
<path d="M13.3615 23.4615C15.9105 23.4615 17.9769 21.3951 17.9769 18.8461C17.9769 16.2971 15.9105 14.2307 13.3615 14.2307C10.8125 14.2307 8.74609 16.2971 8.74609 18.8461C8.74609 21.3951 10.8125 23.4615 13.3615 23.4615Z" fill="white"/>
<path d="M17.9767 23.4615C20.5257 23.4615 22.5921 21.3951 22.5921 18.8461C22.5921 16.2971 20.5257 14.2307 17.9767 14.2307C15.4277 14.2307 13.3613 16.2971 13.3613 18.8461C13.3613 21.3951 15.4277 23.4615 17.9767 23.4615Z" fill="#D71049"/>
<path d="M9.11914 33.6923H41.4514H9.11914Z" fill="white"/>
<path d="M9.11914 33.6923H41.4514" stroke="white" stroke-width="2" stroke-linecap="round" stroke-dasharray="6 6"/>
</g>
</g>
<defs>
<clipPath id="clip0_1516_43068">
<rect x="0.285156" width="50" height="50" rx="8" fill="white"/>
</clipPath>
</defs>
</svg>
