<svg width="37" height="37" viewBox="0 0 37 37" fill="none" xmlns="http://www.w3.org/2000/svg">
<g id="Group">
<path id="Vector" d="M21.666 21.878V25.013C20.3084 24.533 18.8554 24.3858 17.4291 24.5837C16.0028 24.7816 14.6448 25.3188 13.4692 26.1503C12.2935 26.9818 11.3345 28.0832 10.6728 29.3621C10.011 30.641 9.66574 32.06 9.66602 33.5L6.66602 33.4985C6.66555 31.6668 7.0844 29.8594 7.89046 28.2146C8.69653 26.5698 9.86842 25.1314 11.3163 24.0096C12.7643 22.8877 14.4498 22.1122 16.2437 21.7425C18.0377 21.3727 19.8925 21.4186 21.666 21.8765V21.878ZM18.666 20C13.6935 20 9.66602 15.9725 9.66602 11C9.66602 6.0275 13.6935 2 18.666 2C23.6385 2 27.666 6.0275 27.666 11C27.666 15.9725 23.6385 20 18.666 20ZM18.666 17C21.981 17 24.666 14.315 24.666 11C24.666 7.685 21.981 5 18.666 5C15.351 5 12.666 7.685 12.666 11C12.666 14.315 15.351 17 18.666 17ZM27.666 26V20.75L35.166 27.5L27.666 34.25V29H23.166V26H27.666Z" fill="#7ED3F7"/>
</g>
</svg>
