<svg width="37" height="37" viewBox="0 0 37 37" fill="none" xmlns="http://www.w3.org/2000/svg">
<g id="Group">
<path id="Vector" d="M30.573 12.4999H32.166C32.9617 12.4999 33.7247 12.8159 34.2873 13.3785C34.8499 13.9411 35.166 14.7042 35.166 15.4998V21.4998C35.166 22.2955 34.8499 23.0586 34.2873 23.6212C33.7247 24.1838 32.9617 24.4998 32.166 24.4998H30.573C30.2073 27.3998 28.7959 30.0666 26.6036 31.9998C24.4114 33.9331 21.5889 34.9998 18.666 34.9999V31.9999C21.053 31.9999 23.3421 31.0516 25.03 29.3638C26.7178 27.676 27.666 25.3868 27.666 22.9998V13.9999C27.666 11.6129 26.7178 9.32372 25.03 7.63589C23.3421 5.94806 21.053 4.99985 18.666 4.99985C16.2791 4.99985 13.9899 5.94806 12.3021 7.63589C10.6142 9.32372 9.66602 11.6129 9.66602 13.9999V24.4998H5.16602C4.37037 24.4998 3.6073 24.1838 3.0447 23.6212C2.48209 23.0586 2.16602 22.2955 2.16602 21.4998V15.4998C2.16602 14.7042 2.48209 13.9411 3.0447 13.3785C3.6073 12.8159 4.37037 12.4999 5.16602 12.4999H6.75902C7.12506 9.60019 8.53664 6.93376 10.7289 5.00086C12.9211 3.06797 15.7433 2.00146 18.666 2.00146C21.5887 2.00146 24.4109 3.06797 26.6032 5.00086C28.7954 6.93376 30.207 9.60019 30.573 12.4999ZM5.16602 15.4998V21.4998H6.66602V15.4998H5.16602ZM30.666 15.4998V21.4998H32.166V15.4998H30.666ZM12.306 24.1773L13.896 21.6334C15.3256 22.5289 16.9791 23.0026 18.666 22.9998C20.353 23.0026 22.0064 22.5289 23.436 21.6334L25.026 24.1773C23.1199 25.3716 20.9153 26.0033 18.666 25.9998C16.4167 26.0033 14.2121 25.3716 12.306 24.1773Z" fill="#7ED3F7"/>
</g>
</svg>
