<svg width="56" height="49" viewBox="0 0 56 49" fill="none" xmlns="http://www.w3.org/2000/svg">
<mask id="path-1-inside-1_1516_43059" fill="white">
<path d="M55.1426 47.9643C55.1426 48.5363 54.6787 49.001 54.1068 48.9902C40.9727 48.743 28.3472 43.8013 18.5278 35.0409C8.70843 26.2805 2.3641 14.2982 0.626167 1.27731C0.550499 0.710361 0.959465 0.196632 1.52773 0.131641C2.09599 0.0666542 2.60833 0.474987 2.68442 1.04187C4.36428 13.5575 10.4668 25.0735 19.9067 33.4953C29.3466 41.9171 41.4814 46.6717 54.1068 46.9186C54.6787 46.9297 55.1426 47.3924 55.1426 47.9643Z"/>
</mask>
<path d="M55.1426 47.9643C55.1426 48.5363 54.6787 49.001 54.1068 48.9902C40.9727 48.743 28.3472 43.8013 18.5278 35.0409C8.70843 26.2805 2.3641 14.2982 0.626167 1.27731C0.550499 0.710361 0.959465 0.196632 1.52773 0.131641C2.09599 0.0666542 2.60833 0.474987 2.68442 1.04187C4.36428 13.5575 10.4668 25.0735 19.9067 33.4953C29.3466 41.9171 41.4814 46.6717 54.1068 46.9186C54.6787 46.9297 55.1426 47.3924 55.1426 47.9643Z" stroke="#7ED3F7" stroke-width="8" mask="url(#path-1-inside-1_1516_43059)"/>
</svg>
