<svg width="50" height="55" viewBox="0 0 50 55" fill="none" xmlns="http://www.w3.org/2000/svg">
<mask id="path-1-inside-1_1516_43092" fill="white">
<path d="M48.394 -1.14441e-05C48.966 -1.14441e-05 49.4307 0.463921 49.4199 1.03579C49.1727 14.1699 44.231 26.7954 35.4706 36.6148C26.7102 46.4342 14.7279 52.7785 1.70699 54.5164C1.14005 54.5921 0.62632 54.1831 0.561329 53.6148C0.496342 53.0466 0.904675 52.5342 1.47156 52.4582C13.9872 50.7783 25.5032 44.6757 33.925 35.2359C42.3468 25.796 47.1013 13.6612 47.3483 1.03575C47.3594 0.463886 47.8221 -1.14441e-05 48.394 -1.14441e-05Z"/>
</mask>
<path d="M48.394 -1.14441e-05C48.966 -1.14441e-05 49.4307 0.463921 49.4199 1.03579C49.1727 14.1699 44.231 26.7954 35.4706 36.6148C26.7102 46.4342 14.7279 52.7785 1.70699 54.5164C1.14005 54.5921 0.62632 54.1831 0.561329 53.6148C0.496342 53.0466 0.904675 52.5342 1.47156 52.4582C13.9872 50.7783 25.5032 44.6757 33.925 35.2359C42.3468 25.796 47.1013 13.6612 47.3483 1.03575C47.3594 0.463886 47.8221 -1.14441e-05 48.394 -1.14441e-05Z" stroke="#7ED3F7" stroke-width="8" mask="url(#path-1-inside-1_1516_43092)"/>
</svg>
