<svg width="50" height="55" viewBox="0 0 50 55" fill="none" xmlns="http://www.w3.org/2000/svg">
<mask id="path-1-inside-1_1516_43060" fill="white">
<path d="M48.1069 -1.6337e-05C48.6789 -1.63627e-05 49.1436 0.463916 49.1328 1.03578C48.8856 14.1699 43.9439 26.7954 35.1835 36.6148C26.4231 46.4341 14.4408 52.7785 1.41989 54.5164C0.852944 54.5921 0.339215 54.1831 0.274224 53.6148C0.209237 53.0466 0.61757 52.5342 1.18446 52.4582C13.7001 50.7783 25.2161 44.6757 33.6379 35.2359C42.0597 25.796 46.8142 13.6612 47.0611 1.03574C47.0723 0.463881 47.5349 -1.63113e-05 48.1069 -1.6337e-05Z"/>
</mask>
<path d="M48.1069 -1.6337e-05C48.6789 -1.63627e-05 49.1436 0.463916 49.1328 1.03578C48.8856 14.1699 43.9439 26.7954 35.1835 36.6148C26.4231 46.4341 14.4408 52.7785 1.41989 54.5164C0.852944 54.5921 0.339215 54.1831 0.274224 53.6148C0.209237 53.0466 0.61757 52.5342 1.18446 52.4582C13.7001 50.7783 25.2161 44.6757 33.6379 35.2359C42.0597 25.796 46.8142 13.6612 47.0611 1.03574C47.0723 0.463881 47.5349 -1.63113e-05 48.1069 -1.6337e-05Z" stroke="#005993" stroke-width="8" mask="url(#path-1-inside-1_1516_43060)"/>
</svg>
