<svg width="55" height="49" viewBox="0 0 55 49" fill="none" xmlns="http://www.w3.org/2000/svg">
<mask id="path-1-inside-1_1516_43083" fill="white">
<path d="M55 47.9643C55 48.5363 54.5361 49.001 53.9642 48.9902C40.8301 48.7431 28.2046 43.8013 18.3852 35.0409C8.56586 26.2805 2.22153 14.2982 0.483595 1.27732C0.407926 0.710371 0.816892 0.196642 1.38516 0.131651C1.95342 0.0666637 2.46576 0.474996 2.54185 1.04188C4.22171 13.5575 10.3243 25.0735 19.7641 33.4953C29.204 41.9171 41.3388 46.6717 53.9643 46.9186C54.5361 46.9298 55 47.3924 55 47.9643Z"/>
</mask>
<path d="M55 47.9643C55 48.5363 54.5361 49.001 53.9642 48.9902C40.8301 48.7431 28.2046 43.8013 18.3852 35.0409C8.56586 26.2805 2.22153 14.2982 0.483595 1.27732C0.407926 0.710371 0.816892 0.196642 1.38516 0.131651C1.95342 0.0666637 2.46576 0.474996 2.54185 1.04188C4.22171 13.5575 10.3243 25.0735 19.7641 33.4953C29.204 41.9171 41.3388 46.6717 53.9643 46.9186C54.5361 46.9298 55 47.3924 55 47.9643Z" stroke="#D71049" stroke-width="8" mask="url(#path-1-inside-1_1516_43083)"/>
</svg>
