<svg width="55" height="49" viewBox="0 0 55 49" fill="none" xmlns="http://www.w3.org/2000/svg">
<mask id="path-1-inside-1_1516_43051" fill="white">
<path d="M54.7149 47.9643C54.7149 48.5363 54.2509 49.001 53.679 48.9902C40.545 48.743 27.9194 43.8013 18.1001 35.0409C8.28069 26.2805 1.93636 14.2982 0.19843 1.2773C0.122762 0.710357 0.531728 0.196627 1.1 0.131637C1.66826 0.0666494 2.18059 0.474982 2.25668 1.04187C3.93654 13.5575 10.0391 25.0735 19.479 33.4953C28.9188 41.9171 41.0536 46.6717 53.6791 46.9186C54.251 46.9297 54.7149 47.3924 54.7149 47.9643Z"/>
</mask>
<path d="M54.7149 47.9643C54.7149 48.5363 54.2509 49.001 53.679 48.9902C40.545 48.743 27.9194 43.8013 18.1001 35.0409C8.28069 26.2805 1.93636 14.2982 0.19843 1.2773C0.122762 0.710357 0.531728 0.196627 1.1 0.131637C1.66826 0.0666494 2.18059 0.474982 2.25668 1.04187C3.93654 13.5575 10.0391 25.0735 19.479 33.4953C28.9188 41.9171 41.0536 46.6717 53.6791 46.9186C54.251 46.9297 54.7149 47.3924 54.7149 47.9643Z" stroke="#4CB8E9" stroke-width="8" mask="url(#path-1-inside-1_1516_43051)"/>
</svg>
