<svg width="50" height="55" viewBox="0 0 50 55" fill="none" xmlns="http://www.w3.org/2000/svg">
<mask id="path-1-inside-1_1516_43104" fill="white">
<path d="M48.8218 -1.6337e-05C49.3937 -1.63627e-05 49.8584 0.463916 49.8477 1.03578C49.6005 14.1699 44.6587 26.7954 35.8983 36.6148C27.1379 46.4341 15.1557 52.7785 2.13473 54.5164C1.56779 54.5921 1.05406 54.1831 0.989068 53.6148C0.924081 53.0466 1.33241 52.5342 1.8993 52.4582C14.4149 50.7783 25.9309 44.6757 34.3527 35.2359C42.7745 25.796 47.5291 13.6612 47.776 1.03574C47.7872 0.463881 48.2498 -1.63113e-05 48.8218 -1.6337e-05Z"/>
</mask>
<path d="M48.8218 -1.6337e-05C49.3937 -1.63627e-05 49.8584 0.463916 49.8477 1.03578C49.6005 14.1699 44.6587 26.7954 35.8983 36.6148C27.1379 46.4341 15.1557 52.7785 2.13473 54.5164C1.56779 54.5921 1.05406 54.1831 0.989068 53.6148C0.924081 53.0466 1.33241 52.5342 1.8993 52.4582C14.4149 50.7783 25.9309 44.6757 34.3527 35.2359C42.7745 25.796 47.5291 13.6612 47.776 1.03574C47.7872 0.463881 48.2498 -1.63113e-05 48.8218 -1.6337e-05Z" stroke="#005993" stroke-width="8" mask="url(#path-1-inside-1_1516_43104)"/>
</svg>
