<svg width="50" height="55" viewBox="0 0 50 55" fill="none" xmlns="http://www.w3.org/2000/svg">
<mask id="path-1-inside-1_1516_43048" fill="white">
<path d="M48.6792 -1.14441e-05C49.2511 -1.14441e-05 49.7158 0.463921 49.7051 1.03579C49.4579 14.1699 44.5161 26.7954 35.7557 36.6148C26.9954 46.4342 15.0131 52.7785 1.99215 54.5164C1.42521 54.5921 0.911476 54.1831 0.846485 53.6148C0.781498 53.0466 1.18983 52.5342 1.75672 52.4582C14.2723 50.7783 25.7883 44.6757 34.2101 35.2359C42.632 25.796 47.3865 13.6612 47.6334 1.03575C47.6446 0.463886 48.1072 -1.14441e-05 48.6792 -1.14441e-05Z"/>
</mask>
<path d="M48.6792 -1.14441e-05C49.2511 -1.14441e-05 49.7158 0.463921 49.7051 1.03579C49.4579 14.1699 44.5161 26.7954 35.7557 36.6148C26.9954 46.4342 15.0131 52.7785 1.99215 54.5164C1.42521 54.5921 0.911476 54.1831 0.846485 53.6148C0.781498 53.0466 1.18983 52.5342 1.75672 52.4582C14.2723 50.7783 25.7883 44.6757 34.2101 35.2359C42.632 25.796 47.3865 13.6612 47.6334 1.03575C47.6446 0.463886 48.1072 -1.14441e-05 48.6792 -1.14441e-05Z" stroke="#7ED3F7" stroke-width="8" mask="url(#path-1-inside-1_1516_43048)"/>
</svg>
