<svg width="56" height="49" viewBox="0 0 56 49" fill="none" xmlns="http://www.w3.org/2000/svg">
<mask id="path-1-inside-1_1516_43115" fill="white">
<path d="M55.2871 47.9643C55.2871 48.5363 54.8232 49.001 54.2513 48.9902C41.1173 48.7431 28.4917 43.8013 18.6723 35.0409C8.85296 26.2805 2.50863 14.2982 0.770701 1.27731C0.695033 0.710366 1.104 0.196637 1.67227 0.131646C2.24053 0.0666588 2.75286 0.474992 2.82895 1.04188C4.50882 13.5575 10.6114 25.0735 20.0512 33.4953C29.4911 41.9171 41.6259 46.6717 54.2514 46.9186C54.8232 46.9298 55.2871 47.3924 55.2871 47.9643Z"/>
</mask>
<path d="M55.2871 47.9643C55.2871 48.5363 54.8232 49.001 54.2513 48.9902C41.1173 48.7431 28.4917 43.8013 18.6723 35.0409C8.85296 26.2805 2.50863 14.2982 0.770701 1.27731C0.695033 0.710366 1.104 0.196637 1.67227 0.131646C2.24053 0.0666588 2.75286 0.474992 2.82895 1.04188C4.50882 13.5575 10.6114 25.0735 20.0512 33.4953C29.4911 41.9171 41.6259 46.6717 54.2514 46.9186C54.8232 46.9298 55.2871 47.3924 55.2871 47.9643Z" stroke="#005993" stroke-width="8" mask="url(#path-1-inside-1_1516_43115)"/>
</svg>
