<svg width="49" height="55" viewBox="0 0 49 55" fill="none" xmlns="http://www.w3.org/2000/svg">
<mask id="path-1-inside-1_1516_43084" fill="white">
<path d="M47.9643 -6.80756e-06C48.5363 -6.78322e-06 49.001 0.463925 48.9902 1.03579C48.743 14.1699 43.8013 26.7954 35.0409 36.6148C26.2805 46.4342 14.2982 52.7785 1.2773 54.5164C0.710357 54.5921 0.196627 54.1831 0.131637 53.6148C0.0666494 53.0466 0.474982 52.5343 1.04187 52.4582C13.5575 50.7783 25.0735 44.6757 33.4953 35.2359C41.9171 25.796 46.6717 13.6612 46.9186 1.03575C46.9297 0.463891 47.3924 -6.8319e-06 47.9643 -6.80756e-06Z"/>
</mask>
<path d="M47.9643 -6.80756e-06C48.5363 -6.78322e-06 49.001 0.463925 48.9902 1.03579C48.743 14.1699 43.8013 26.7954 35.0409 36.6148C26.2805 46.4342 14.2982 52.7785 1.2773 54.5164C0.710357 54.5921 0.196627 54.1831 0.131637 53.6148C0.0666494 53.0466 0.474982 52.5343 1.04187 52.4582C13.5575 50.7783 25.0735 44.6757 33.4953 35.2359C41.9171 25.796 46.6717 13.6612 46.9186 1.03575C46.9297 0.463891 47.3924 -6.8319e-06 47.9643 -6.80756e-06Z" stroke="#4CB8E9" stroke-width="8" mask="url(#path-1-inside-1_1516_43084)"/>
</svg>
