<svg width="50" height="55" viewBox="0 0 50 55" fill="none" xmlns="http://www.w3.org/2000/svg">
<mask id="path-1-inside-1_1516_43094" fill="white">
<path d="M1.46535 55C0.893382 55 0.428691 54.5361 0.439448 53.9642C0.686632 40.8301 5.6284 28.2046 14.3888 18.3852C23.1492 8.56586 35.1314 2.22153 48.1524 0.483595C48.7193 0.407926 49.233 0.816892 49.298 1.38516C49.363 1.95342 48.9547 2.46576 48.3878 2.54185C35.8722 4.22171 24.3562 10.3243 15.9344 19.7641C7.51257 29.204 2.75803 41.3388 2.51112 53.9643C2.49993 54.5361 2.03732 55 1.46535 55Z"/>
</mask>
<path d="M1.46535 55C0.893382 55 0.428691 54.5361 0.439448 53.9642C0.686632 40.8301 5.6284 28.2046 14.3888 18.3852C23.1492 8.56586 35.1314 2.22153 48.1524 0.483595C48.7193 0.407926 49.233 0.816892 49.298 1.38516C49.363 1.95342 48.9547 2.46576 48.3878 2.54185C35.8722 4.22171 24.3562 10.3243 15.9344 19.7641C7.51257 29.204 2.75803 41.3388 2.51112 53.9643C2.49993 54.5361 2.03732 55 1.46535 55Z" stroke="#D71049" stroke-width="8" mask="url(#path-1-inside-1_1516_43094)"/>
</svg>
