<svg width="56" height="49" viewBox="0 0 56 49" fill="none" xmlns="http://www.w3.org/2000/svg">
<mask id="path-1-inside-1_1516_43073" fill="white">
<path d="M0.572259 1.03567C0.572259 0.463702 1.03619 -0.000989331 1.60806 0.00976814C14.7421 0.256953 27.3677 5.19873 37.187 13.9591C47.0064 22.7195 53.3507 34.7018 55.0887 47.7227C55.1643 48.2896 54.7554 48.8034 54.1871 48.8684C53.6189 48.9334 53.1065 48.525 53.0304 47.9581C51.3506 35.4425 45.248 23.9265 35.8081 15.5047C26.3683 7.0829 14.2335 2.32835 1.60802 2.08144C1.03616 2.07025 0.572259 1.60764 0.572259 1.03567Z"/>
</mask>
<path d="M0.572259 1.03567C0.572259 0.463702 1.03619 -0.000989331 1.60806 0.00976814C14.7421 0.256953 27.3677 5.19873 37.187 13.9591C47.0064 22.7195 53.3507 34.7018 55.0887 47.7227C55.1643 48.2896 54.7554 48.8034 54.1871 48.8684C53.6189 48.9334 53.1065 48.525 53.0304 47.9581C51.3506 35.4425 45.248 23.9265 35.8081 15.5047C26.3683 7.0829 14.2335 2.32835 1.60802 2.08144C1.03616 2.07025 0.572259 1.60764 0.572259 1.03567Z" stroke="#4CB8E9" stroke-width="8" mask="url(#path-1-inside-1_1516_43073)"/>
</svg>
