<svg width="50" height="55" viewBox="0 0 50 55" fill="none" xmlns="http://www.w3.org/2000/svg">
<mask id="path-1-inside-1_1516_43106" fill="white">
<path d="M1.89309 55C1.32112 55 0.856433 54.5361 0.86719 53.9642C1.11438 40.8301 6.05615 28.2046 14.8165 18.3852C23.5769 8.56585 35.5592 2.22152 48.5801 0.483587C49.1471 0.407918 49.6608 0.816884 49.7258 1.38515C49.7908 1.95341 49.3824 2.46575 48.8156 2.54184C36.2999 4.2217 24.7839 10.3243 16.3621 19.7641C7.94032 29.204 3.18577 41.3388 2.93886 53.9642C2.92768 54.5361 2.46506 55 1.89309 55Z"/>
</mask>
<path d="M1.89309 55C1.32112 55 0.856433 54.5361 0.86719 53.9642C1.11438 40.8301 6.05615 28.2046 14.8165 18.3852C23.5769 8.56585 35.5592 2.22152 48.5801 0.483587C49.1471 0.407918 49.6608 0.816884 49.7258 1.38515C49.7908 1.95341 49.3824 2.46575 48.8156 2.54184C36.2999 4.2217 24.7839 10.3243 16.3621 19.7641C7.94032 29.204 3.18577 41.3388 2.93886 53.9642C2.92768 54.5361 2.46506 55 1.89309 55Z" stroke="#4CB8E9" stroke-width="8" mask="url(#path-1-inside-1_1516_43106)"/>
</svg>
