<svg width="55" height="49" viewBox="0 0 55 49" fill="none" xmlns="http://www.w3.org/2000/svg">
<mask id="path-1-inside-1_1516_43071" fill="white">
<path d="M54.5723 47.9643C54.5723 48.5363 54.1083 49.001 53.5365 48.9902C40.4024 48.7431 27.7769 43.8013 17.9575 35.0409C8.13812 26.2805 1.79379 14.2982 0.0558576 1.27731C-0.0198108 0.710366 0.389155 0.196637 0.957423 0.131646C1.52568 0.0666588 2.03802 0.474992 2.11411 1.04188C3.79397 13.5575 9.89653 25.0735 19.3364 33.4953C28.7763 41.9171 40.9111 46.6717 53.5365 46.9186C54.1084 46.9298 54.5723 47.3924 54.5723 47.9643Z"/>
</mask>
<path d="M54.5723 47.9643C54.5723 48.5363 54.1083 49.001 53.5365 48.9902C40.4024 48.7431 27.7769 43.8013 17.9575 35.0409C8.13812 26.2805 1.79379 14.2982 0.0558576 1.27731C-0.0198108 0.710366 0.389155 0.196637 0.957423 0.131646C1.52568 0.0666588 2.03802 0.474992 2.11411 1.04188C3.79397 13.5575 9.89653 25.0735 19.3364 33.4953C28.7763 41.9171 40.9111 46.6717 53.5365 46.9186C54.1084 46.9298 54.5723 47.3924 54.5723 47.9643Z" stroke="#005993" stroke-width="8" mask="url(#path-1-inside-1_1516_43071)"/>
</svg>
