<svg width="50" height="55" viewBox="0 0 50 55" fill="none" xmlns="http://www.w3.org/2000/svg">
<mask id="path-1-inside-1_1516_43116" fill="white">
<path d="M48.2514 -2.09701e-05C48.8234 -2.10201e-05 49.2881 0.463911 49.2773 1.03578C49.0302 14.1699 44.0884 26.7954 35.328 36.6148C26.5676 46.4341 14.5854 52.7785 1.56442 54.5164C0.99748 54.5921 0.483751 54.1831 0.41876 53.6148C0.353773 53.0466 0.762106 52.5342 1.32899 52.4582C13.8446 50.7783 25.3606 44.6757 33.7824 35.2359C42.2042 25.796 46.9588 13.6612 47.2057 1.03574C47.2169 0.463877 47.6795 -2.09201e-05 48.2514 -2.09701e-05Z"/>
</mask>
<path d="M48.2514 -2.09701e-05C48.8234 -2.10201e-05 49.2881 0.463911 49.2773 1.03578C49.0302 14.1699 44.0884 26.7954 35.328 36.6148C26.5676 46.4341 14.5854 52.7785 1.56442 54.5164C0.99748 54.5921 0.483751 54.1831 0.41876 53.6148C0.353773 53.0466 0.762106 52.5342 1.32899 52.4582C13.8446 50.7783 25.3606 44.6757 33.7824 35.2359C42.2042 25.796 46.9588 13.6612 47.2057 1.03574C47.2169 0.463877 47.6795 -2.09201e-05 48.2514 -2.09701e-05Z" stroke="#D71049" stroke-width="8" mask="url(#path-1-inside-1_1516_43116)"/>
</svg>
