<svg width="55" height="49" viewBox="0 0 55 49" fill="none" xmlns="http://www.w3.org/2000/svg">
<mask id="path-1-inside-1_1516_43093" fill="white">
<path d="M0.429671 1.03567C0.429671 0.463697 0.893603 -0.000994181 1.46547 0.00976324C14.5995 0.256947 27.2251 5.19872 37.0445 13.9591C46.8638 22.7195 53.2082 34.7018 54.9461 47.7227C55.0218 48.2896 54.6128 48.8034 54.0445 48.8684C53.4763 48.9333 52.9639 48.525 52.8878 47.9581C51.208 35.4425 45.1054 23.9265 35.6656 15.5047C26.2257 7.08289 14.0909 2.32834 1.46543 2.08143C0.893569 2.07025 0.429671 1.60763 0.429671 1.03567Z"/>
</mask>
<path d="M0.429671 1.03567C0.429671 0.463697 0.893603 -0.000994181 1.46547 0.00976324C14.5995 0.256947 27.2251 5.19872 37.0445 13.9591C46.8638 22.7195 53.2082 34.7018 54.9461 47.7227C55.0218 48.2896 54.6128 48.8034 54.0445 48.8684C53.4763 48.9333 52.9639 48.525 52.8878 47.9581C51.208 35.4425 45.1054 23.9265 35.6656 15.5047C26.2257 7.08289 14.0909 2.32834 1.46543 2.08143C0.893569 2.07025 0.429671 1.60763 0.429671 1.03567Z" stroke="#005993" stroke-width="8" mask="url(#path-1-inside-1_1516_43093)"/>
</svg>
