<svg width="55" height="49" viewBox="0 0 55 49" fill="none" xmlns="http://www.w3.org/2000/svg">
<mask id="path-1-inside-1_1516_43081" fill="white">
<path d="M-1.14441e-05 1.03567C-1.14441e-05 0.463699 0.463921 -0.000991821 1.03579 0.00976562C14.1699 0.25695 26.7954 5.19872 36.6148 13.9591C46.4342 22.7195 52.7785 34.7018 54.5164 47.7227C54.5921 48.2896 54.1831 48.8034 53.6148 48.8684C53.0466 48.9333 52.5342 48.525 52.4582 47.9581C50.7783 35.4425 44.6757 23.9265 35.2359 15.5047C25.796 7.08289 13.6612 2.32835 1.03575 2.08144C0.463886 2.07025 -1.14441e-05 1.60764 -1.14441e-05 1.03567Z"/>
</mask>
<path d="M-1.14441e-05 1.03567C-1.14441e-05 0.463699 0.463921 -0.000991821 1.03579 0.00976562C14.1699 0.25695 26.7954 5.19872 36.6148 13.9591C46.4342 22.7195 52.7785 34.7018 54.5164 47.7227C54.5921 48.2896 54.1831 48.8034 53.6148 48.8684C53.0466 48.9333 52.5342 48.525 52.4582 47.9581C50.7783 35.4425 44.6757 23.9265 35.2359 15.5047C25.796 7.08289 13.6612 2.32835 1.03575 2.08144C0.463886 2.07025 -1.14441e-05 1.60764 -1.14441e-05 1.03567Z" stroke="#7ED3F7" stroke-width="8" mask="url(#path-1-inside-1_1516_43081)"/>
</svg>
