<svg width="36" height="37" viewBox="0 0 36 37" fill="none" xmlns="http://www.w3.org/2000/svg">
<g id="Group">
<path id="Vector" d="M29.907 12.8875H31.5C32.2956 12.8875 33.0587 13.2036 33.6213 13.7662C34.1839 14.3288 34.5 15.0919 34.5 15.8875V21.8875C34.5 22.6832 34.1839 23.4463 33.6213 24.0089C33.0587 24.5715 32.2956 24.8875 31.5 24.8875H29.907C29.5413 27.7875 28.1299 30.4543 25.9376 32.3875C23.7453 34.3208 20.9229 35.3875 18 35.3875V32.3875C20.3869 32.3875 22.6761 31.4393 24.364 29.7515C26.0518 28.0637 27 25.7745 27 23.3875V14.3875C27 12.0006 26.0518 9.71141 24.364 8.02359C22.6761 6.33576 20.3869 5.38755 18 5.38755C15.6131 5.38755 13.3239 6.33576 11.636 8.02359C9.94821 9.71141 9 12.0006 9 14.3875V24.8875H4.5C3.70435 24.8875 2.94129 24.5715 2.37868 24.0089C1.81607 23.4463 1.5 22.6832 1.5 21.8875V15.8875C1.5 15.0919 1.81607 14.3288 2.37868 13.7662C2.94129 13.2036 3.70435 12.8875 4.5 12.8875H6.093C6.45905 9.98789 7.87062 7.32146 10.0629 5.38856C12.2551 3.45566 15.0773 2.38916 18 2.38916C20.9227 2.38916 23.7449 3.45566 25.9371 5.38856C28.1294 7.32146 29.541 9.98789 29.907 12.8875ZM4.5 15.8875V21.8875H6V15.8875H4.5ZM30 15.8875V21.8875H31.5V15.8875H30ZM11.64 24.565L13.23 22.021C14.6596 22.9166 16.313 23.3903 18 23.3875C19.687 23.3903 21.3404 22.9166 22.77 22.021L24.36 24.565C22.4539 25.7593 20.2493 26.391 18 26.3875C15.7507 26.391 13.5461 25.7593 11.64 24.565Z" fill="white"/>
</g>
</svg>
