<svg width="72" height="72" viewBox="0 0 72 72" fill="none" xmlns="http://www.w3.org/2000/svg">
<g id="vuesax/bulk/24-support">
<g id="24-support">
<path id="Vector" opacity="0.4" d="M54 56.5802H51.72C49.32 56.5802 47.04 57.5102 45.36 59.1902L40.23 64.2602C37.89 66.5702 34.08 66.5702 31.74 64.2602L26.61 59.1902C24.93 57.5102 22.62 56.5802 20.25 56.5802H18C13.02 56.5802 9 52.5903 9 47.6703V14.9402C9 10.0202 13.02 6.03027 18 6.03027H54C58.98 6.03027 63 10.0202 63 14.9402V47.6703C63 52.5603 58.98 56.5802 54 56.5802Z" fill="#4CB8E9"/>
<g id="Group">
<g id="Group_2">
<path id="Vector_2" d="M31.1402 43.5298H23.1002C21.7802 43.5298 20.5502 42.8998 19.7702 41.8198C19.0202 40.7998 18.8402 39.5399 19.2002 38.3399C20.2502 35.1299 22.8302 33.3898 25.1102 31.8298C27.5102 30.2098 28.8602 29.1899 28.8602 27.4499C28.8602 25.8899 27.6002 24.6299 26.0402 24.6299C24.4802 24.6299 23.2202 25.8899 23.2202 27.4499C23.2202 28.6799 22.2002 29.6999 20.9702 29.6999C19.7402 29.6999 18.7202 28.6799 18.7202 27.4499C18.7202 23.4299 21.9902 20.1299 26.0402 20.1299C30.0902 20.1299 33.3602 23.3999 33.3602 27.4499C33.3602 31.6799 30.1802 33.8398 27.6302 35.5798C26.0402 36.6598 24.5402 37.6798 23.7902 39.0298H31.1102C32.3402 39.0298 33.3602 40.0498 33.3602 41.2798C33.3602 42.5098 32.3702 43.5298 31.1402 43.5298Z" fill="#4CB8E9"/>
</g>
<g id="Group_3">
<path id="Vector_3" d="M48.1201 43.5298C46.8901 43.5298 45.8701 42.5098 45.8701 41.2798V39.2098H39.9901C39.9901 39.2098 39.9901 39.2098 39.9601 39.2098C38.4901 39.2098 37.1401 38.4299 36.3901 37.1699C35.6401 35.8799 35.6401 34.2898 36.3901 33.0298C38.4301 29.5198 40.8001 25.5297 42.9601 22.0497C43.9201 20.5197 45.7501 19.8299 47.4601 20.3099C49.1701 20.8199 50.3701 22.3798 50.3401 24.1798V34.7399H51.0001C52.2301 34.7399 53.2501 35.7599 53.2501 36.9899C53.2501 38.2199 52.2301 39.2399 51.0001 39.2399H50.3701V41.3099C50.3701 42.5399 49.3801 43.5298 48.1201 43.5298ZM45.8701 25.9199C44.1001 28.7999 42.2701 31.8898 40.6201 34.7098H45.8701V25.9199Z" fill="#4CB8E9"/>
</g>
</g>
</g>
</g>
</svg>
