<svg width="44" height="40" viewBox="0 0 44 40" fill="none" xmlns="http://www.w3.org/2000/svg">
<g id="Group 791">
<path id="Vector" d="M7.43018 15.1086H5.15234V17.3709H7.43018V15.1086Z" fill="white"/>
<path id="Vector_2" d="M7.43018 6.43799H5.15234V8.70023H7.43018V6.43799Z" fill="white"/>
<path id="Vector_3" d="M31.3438 11.364L32.4399 15.5796L28.273 16.9076C28.273 16.8304 28.1952 16.676 28.1952 16.5911C28.0534 16.0425 28.0224 15.4714 28.1041 14.9108C28.1859 14.3502 28.3788 13.8113 28.6716 13.3252C28.9644 12.8392 29.3513 12.4155 29.81 12.0789C30.2686 11.7423 30.79 11.4993 31.3438 11.364Z" fill="white"/>
<path id="Vector_4" d="M7.43018 19.4863H5.15234V21.7486H7.43018V19.4863Z" fill="#D71049"/>
<path id="Vector_5" d="M7.43018 10.8159H5.15234V13.0782H7.43018V10.8159Z" fill="#D71049"/>
<path id="Vector_6" d="M39.1254 15.5024C39.4644 16.8402 39.2603 18.2567 38.5573 19.4465C37.8543 20.6363 36.7087 21.504 35.3675 21.8626C34.0262 22.2212 32.5968 22.0419 31.3873 21.3634C30.1779 20.6849 29.2855 19.5616 28.9023 18.2356L34.0178 16.9076L32.6806 11.8195C33.3473 11.6299 34.0456 11.5753 34.734 11.6588C35.4224 11.7424 36.0869 11.9625 36.688 12.306C37.2892 12.6495 37.8146 13.1094 38.2333 13.6585C38.652 14.2076 38.9554 14.8346 39.1254 15.5024Z" fill="#D71049"/>
<path id="Vector_7" d="M27.0132 27.9177L34.4842 39.2444H31.4212L28.0394 34.164L23.9502 27.9177H27.0132Z" fill="#005993"/>
<path id="Vector_8" d="M16.7123 34.2489L13.4083 39.2444H10.3452L17.8162 27.9177H20.8793L16.7123 34.2489Z" fill="#005993"/>
<path id="Vector_9" d="M23.8725 34.2489V39.2444H20.8794V34.2489V27.9177H23.8725V34.2489Z" fill="#005993"/>
<path id="Vector_10" d="M43.2147 25.8099C43.3994 25.9769 43.5281 26.1961 43.5834 26.4381C43.6386 26.68 43.6178 26.9329 43.5237 27.1627C43.4296 27.3926 43.2668 27.5882 43.0573 27.7232C42.8477 27.8582 42.6015 27.9261 42.3518 27.9177H2.40014C2.07332 27.896 1.76556 27.7572 1.53394 27.5272C1.30233 27.2971 1.16259 26.9915 1.14073 26.6669C1.13861 26.5024 1.1698 26.3392 1.23245 26.1869C1.29509 26.0346 1.3879 25.8964 1.50538 25.7805C1.62286 25.6645 1.76264 25.5732 1.91634 25.5119C2.07005 25.4507 2.23455 25.4207 2.40014 25.4238H42.2741C42.6099 25.4906 42.9294 25.6217 43.2147 25.8099Z" fill="white"/>
<path id="Vector_11" d="M43.2145 1.04885C43.4561 1.27408 43.5985 1.58477 43.611 1.91359C43.6131 2.07807 43.5819 2.24129 43.5193 2.39356C43.4567 2.54583 43.3638 2.68405 43.2464 2.8C43.1289 2.91595 42.9892 3.00728 42.8355 3.06855C42.6818 3.12982 42.5172 3.15978 42.3516 3.15666H2.39993C2.07288 3.1435 1.76366 3.00516 1.53701 2.77062C1.35231 2.6036 1.22366 2.38434 1.16842 2.14241C1.11317 1.90048 1.13398 1.64754 1.22806 1.41773C1.32214 1.18793 1.48498 0.99232 1.69454 0.857321C1.9041 0.722321 2.15029 0.654424 2.39993 0.662801H42.3516C42.6787 0.675967 42.9879 0.814309 43.2145 1.04885Z" fill="white"/>
<path id="Vector_12" d="M42.1963 3.15674V25.5012H2.54785V3.15674H42.1963ZM35.4328 21.9804C36.782 21.6195 37.9339 20.7456 38.6395 19.5479C39.3451 18.3501 39.5476 16.9246 39.2033 15.5797C39.0286 14.9149 38.7223 14.2913 38.3023 13.7453C37.8823 13.1993 37.3569 12.7419 36.7569 12.3998C36.157 12.0577 35.4944 11.8376 34.8079 11.7526C34.1214 11.6676 33.4247 11.7193 32.7585 11.9046L34.0956 16.985L28.9802 18.313C29.3565 19.6426 30.2438 20.7721 31.4508 21.4581C32.6578 22.1441 34.0879 22.3317 35.4328 21.9804ZM32.3231 15.657L31.2269 11.4413C30.0919 11.7242 29.1156 12.4416 28.5111 13.4368C27.9067 14.432 27.7232 15.6242 28.0007 16.7533C28.0007 16.8305 28.0784 16.985 28.0784 17.0622L32.3231 15.657ZM7.39122 21.7488V19.4865H5.11338V21.7488H7.39122ZM7.39122 17.3787V15.1088H5.11338V17.3787H7.39122ZM7.39122 13.0782V10.8159H5.11338V13.0782H7.39122ZM7.39122 8.7081V6.41498H5.11338V8.73126L7.39122 8.7081Z" fill="#005993"/>
<path id="Vector_13" d="M2.55557 25.8099C2.47489 25.8045 2.39894 25.7702 2.34176 25.7135C2.28458 25.6567 2.25009 25.5812 2.24463 25.5011V3.15667C2.25645 3.08218 2.29467 3.01432 2.35239 2.96532C2.41011 2.91632 2.48353 2.8894 2.55946 2.8894C2.63539 2.8894 2.70886 2.91632 2.76658 2.96532C2.8243 3.01432 2.86251 3.08218 2.87434 3.15667V25.5011C2.95208 25.6555 2.79657 25.8099 2.55557 25.8099Z" fill="#0085B8"/>
<path id="Vector_14" d="M42.1962 25.8099C42.1141 25.8063 42.0363 25.7729 41.9775 25.7159C41.9187 25.6589 41.8831 25.5825 41.8774 25.5011V3.15667C41.8893 3.08218 41.9275 3.01432 41.9852 2.96532C42.0429 2.91632 42.1164 2.8894 42.1923 2.8894C42.2683 2.8894 42.3417 2.91632 42.3994 2.96532C42.4571 3.01432 42.4953 3.08218 42.5071 3.15667V25.5011C42.5017 25.5812 42.4672 25.6567 42.41 25.7135C42.3528 25.7702 42.2768 25.8045 42.1962 25.8099Z" fill="#0085B8"/>
<path id="Vector_15" d="M42.3517 3.4732H2.40006C1.992 3.45971 1.60438 3.29269 1.31568 3.00597C1.02698 2.71925 0.858796 2.33427 0.845215 1.92901C0.845215 1.51946 1.00905 1.12669 1.30064 0.837099C1.59223 0.547508 1.98769 0.384818 2.40006 0.384818H42.3517C42.5589 0.380649 42.7646 0.420517 42.955 0.501746C43.1454 0.582976 43.3161 0.703689 43.4557 0.855796C43.7218 1.16444 43.8848 1.54754 43.9221 1.95217C43.916 2.36037 43.7473 2.74956 43.453 3.03459C43.1588 3.31963 42.7628 3.47733 42.3517 3.4732ZM2.40006 1.01021C2.17182 1.01223 1.95352 1.10317 1.79213 1.26346C1.63073 1.42375 1.53916 1.64057 1.53713 1.86724C1.52926 2.09802 1.61302 2.32262 1.77035 2.49263C1.85402 2.5721 1.95281 2.6342 2.06093 2.6753C2.16906 2.7164 2.28434 2.73567 2.40006 2.73198H42.3517C42.5813 2.72995 42.8008 2.63794 42.9624 2.47599C43.124 2.31404 43.2147 2.09525 43.2147 1.86724C43.2284 1.7514 43.2155 1.63399 43.177 1.5238C43.1385 1.41362 43.0753 1.31354 42.9923 1.23106C42.9093 1.14859 42.8085 1.08588 42.6975 1.04763C42.5866 1.00938 42.4684 0.996584 42.3517 1.01021H2.40006Z" fill="#0085B8"/>
<path id="Vector_16" d="M42.3517 28.3114H27.0132C26.9382 28.2997 26.8699 28.2617 26.8205 28.2044C26.7712 28.1471 26.7441 28.0742 26.7441 27.9987C26.7441 27.9233 26.7712 27.8504 26.8205 27.7931C26.8699 27.7357 26.9382 27.6978 27.0132 27.686H42.3517C42.58 27.684 42.7983 27.5931 42.9597 27.4328C43.1211 27.2725 43.2126 27.0557 43.2147 26.829C43.2225 26.5982 43.1388 26.3736 42.9814 26.2036C42.8978 26.1242 42.799 26.0621 42.6909 26.021C42.5827 25.9799 42.4674 25.9606 42.3517 25.9643H2.40006C2.17048 25.9663 1.95104 26.0583 1.78942 26.2203C1.62781 26.3822 1.53712 26.601 1.53713 26.829C1.53249 27.0593 1.61581 27.2827 1.77035 27.4544C1.9424 27.6093 2.16796 27.6922 2.40006 27.686H17.8163C17.8913 27.6978 17.9597 27.7357 18.009 27.7931C18.0584 27.8504 18.0855 27.9233 18.0855 27.9987C18.0855 28.0742 18.0584 28.1471 18.009 28.2044C17.9597 28.2617 17.8913 28.2997 17.8163 28.3114H2.40006C1.992 28.2979 1.60438 28.1309 1.31568 27.8442C1.02698 27.5575 0.858796 27.1725 0.845215 26.7672C0.845215 26.3577 1.00905 25.9649 1.30064 25.6753C1.59223 25.3857 1.98769 25.2231 2.40006 25.2231H42.3517C42.5592 25.2168 42.7655 25.2558 42.9562 25.3371C43.1469 25.4185 43.3174 25.5403 43.4557 25.694C43.6026 25.837 43.7195 26.0076 43.7995 26.1958C43.8796 26.384 43.9213 26.5861 43.9221 26.7904C43.916 27.1986 43.7473 27.5878 43.453 27.8728C43.1588 28.1579 42.7628 28.3156 42.3517 28.3114Z" fill="#0085B8"/>
<path id="Vector_17" d="M23.9502 28.3114C23.9032 28.3168 23.8556 28.3128 23.8101 28.2998C23.7647 28.2867 23.7223 28.2648 23.6854 28.2354C23.6485 28.2059 23.6179 28.1695 23.5953 28.1282C23.5727 28.0869 23.5585 28.0416 23.5537 27.9949C23.5594 27.9135 23.595 27.837 23.6538 27.7801C23.7126 27.7231 23.7904 27.6896 23.8725 27.686C23.9532 27.6915 24.0291 27.7257 24.0863 27.7825C24.1435 27.8393 24.178 27.9147 24.1834 27.9949C24.1834 28.157 24.1057 28.3114 23.9502 28.3114Z" fill="#0085B8"/>
<path id="Vector_18" d="M23.8723 39.615H20.7626C20.6813 39.6078 20.6052 39.5719 20.5482 39.5139C20.4911 39.4558 20.4569 39.3794 20.4517 39.2985V27.9178C20.4517 27.6862 20.6071 27.5317 20.8404 27.609H23.9501C24.0307 27.6144 24.1067 27.6487 24.1639 27.7054C24.221 27.7622 24.2556 27.8377 24.261 27.9178V39.2444C24.2611 39.2944 24.2509 39.3439 24.2312 39.3899C24.2115 39.4359 24.1826 39.4775 24.1463 39.5121C24.11 39.5467 24.067 39.5737 24.0199 39.5914C23.9728 39.6091 23.9226 39.6171 23.8723 39.615ZM21.198 38.9124H23.5303V28.3116H21.198V38.9124Z" fill="#0085B8"/>
<path id="Vector_19" d="M34.484 39.6149H31.421C31.3592 39.6124 31.2987 39.5966 31.2437 39.5686C31.1887 39.5406 31.1404 39.5011 31.1023 39.4528L23.6313 28.1339C23.5922 28.0756 23.5713 28.0071 23.5713 27.937C23.5713 27.8669 23.5922 27.7984 23.6313 27.7401C23.709 27.5857 23.7945 27.5857 23.95 27.5857H27.013C27.0743 27.5868 27.1346 27.6012 27.1896 27.6278C27.2447 27.6545 27.2932 27.6928 27.3318 27.7401L34.8028 38.9895C34.8322 39.02 34.8544 39.0566 34.8678 39.0967C34.8813 39.1367 34.8856 39.1793 34.8805 39.2212C34.8028 39.476 34.6473 39.6149 34.484 39.6149ZM31.5765 38.9123H33.7766L26.7798 28.2883H24.5797L31.5765 38.9123Z" fill="#0085B8"/>
<path id="Vector_20" d="M13.408 39.6149H10.345C10.2832 39.6124 10.2227 39.5966 10.1677 39.5686C10.1127 39.5406 10.0644 39.5011 10.0263 39.4528C9.98783 39.3957 9.96729 39.3285 9.96729 39.2598C9.96729 39.191 9.98783 39.1239 10.0263 39.0667L17.4973 27.7401C17.5351 27.692 17.5834 27.6531 17.6387 27.6263C17.6939 27.5996 17.7545 27.5857 17.816 27.5857H20.8868C20.9483 27.5857 21.0089 27.5996 21.0641 27.6263C21.1194 27.6531 21.1677 27.692 21.2055 27.7401C21.2446 27.7984 21.2655 27.8669 21.2655 27.937C21.2655 28.0071 21.2446 28.0756 21.2055 28.1339L13.7345 39.4528C13.6442 39.5377 13.5306 39.5941 13.408 39.6149ZM10.9747 38.9123H13.1748L20.1716 28.2883H17.9715L10.9747 38.9123Z" fill="#0085B8"/>
<path id="Vector_21" d="M27.9614 34.5577H23.9499C23.9044 34.5648 23.8579 34.5621 23.8136 34.5497C23.7693 34.5372 23.7282 34.5154 23.6932 34.4857C23.6582 34.456 23.63 34.419 23.6108 34.3775C23.5915 34.336 23.5815 34.2908 23.5815 34.245C23.5815 34.1993 23.5915 34.1541 23.6108 34.1125C23.63 34.071 23.6582 34.0341 23.6932 34.0044C23.7282 33.9747 23.7693 33.9528 23.8136 33.9404C23.8579 33.928 23.9044 33.9252 23.9499 33.9323H27.9614C28.0364 33.9441 28.1047 33.982 28.1541 34.0393C28.2034 34.0967 28.2305 34.1696 28.2305 34.245C28.2305 34.3204 28.2034 34.3934 28.1541 34.4507C28.1047 34.508 28.0364 34.546 27.9614 34.5577Z" fill="#0085B8"/>
<path id="Vector_22" d="M20.8872 34.5578H16.7203C16.5648 34.5578 16.3315 34.4034 16.3315 34.2489C16.3352 34.1674 16.3689 34.0901 16.4262 34.0317C16.4836 33.9734 16.5605 33.938 16.6425 33.9324H20.8095C20.8922 33.9378 20.9701 33.9729 21.0288 34.0311C21.0874 34.0894 21.1227 34.1668 21.1282 34.2489C21.1204 34.4034 21.0427 34.5578 20.8872 34.5578Z" fill="#0085B8"/>
<path id="Vector_23" d="M34.0176 22.4513C32.7787 22.4514 31.5742 22.0461 30.5905 21.298C29.6068 20.5499 28.8987 19.5008 28.5757 18.3129V18.0812C28.5757 17.9963 28.7312 17.9191 28.8089 17.9191L33.6056 16.676L32.3462 11.9894V11.75C32.4239 11.6728 32.5016 11.5956 32.5872 11.5956C33.0729 11.4637 33.5771 11.4115 34.0798 11.4412C35.3184 11.4424 36.5223 11.8482 37.5057 12.5961C38.4892 13.344 39.1976 14.3924 39.5217 15.5796C39.8934 17.0186 39.6813 18.545 38.931 19.8302C38.1808 21.1154 36.9523 22.0566 35.5103 22.4513C35.0135 22.4126 34.5144 22.4126 34.0176 22.4513ZM29.3531 18.4673C29.6898 19.4285 30.3202 20.2613 31.1564 20.8495C31.9926 21.4378 32.9929 21.7521 34.0176 21.7487C34.4387 21.7353 34.8577 21.6836 35.2693 21.5943C36.4244 21.2838 37.426 20.5661 38.0868 19.5752C38.7475 18.5844 39.0221 17.3884 38.8591 16.211C38.6961 15.0336 38.1068 13.9556 37.2014 13.1785C36.2959 12.4015 35.1364 11.9788 33.9399 11.9894C33.6217 11.9765 33.3032 12.0024 32.9914 12.0666L34.2508 16.7532V16.9848C34.1731 17.0621 34.0954 17.1393 34.0176 17.1393L29.3531 18.4673Z" fill="#0085B8"/>
<path id="Vector_24" d="M28.1951 17.2936C28.0396 17.2936 27.8841 17.2164 27.8841 17.062C27.8841 16.9075 27.7986 16.8303 27.7986 16.7531C27.5044 15.5282 27.7023 14.2375 28.3505 13.1552C28.6617 12.6214 29.0818 12.1582 29.5838 11.7952C30.0859 11.4322 30.6588 11.1775 31.2659 11.0474C31.3073 11.0333 31.3513 11.0285 31.3948 11.0333C31.4383 11.0382 31.4801 11.0526 31.5173 11.0755C31.5545 11.0984 31.5861 11.1293 31.6099 11.1658C31.6336 11.2023 31.6489 11.2436 31.6546 11.2867L32.7585 15.5023C32.7727 15.5435 32.7775 15.5872 32.7726 15.6304C32.7677 15.6736 32.7532 15.7152 32.7302 15.7521C32.7071 15.789 32.6761 15.8204 32.6393 15.844C32.6025 15.8676 32.5609 15.8827 32.5175 15.8884L28.3505 17.2241C28.2728 17.2936 28.2728 17.2936 28.1951 17.2936ZM31.1026 11.8272C30.2227 12.1517 29.4761 12.7574 28.9802 13.5489C28.4389 14.438 28.2688 15.5019 28.506 16.5138L32.0511 15.3479L31.1026 11.8272Z" fill="#0085B8"/>
<path id="Vector_25" d="M39.7553 5.7355H33.326C33.244 5.7319 33.1661 5.69843 33.1073 5.64146C33.0486 5.5845 33.013 5.50805 33.0073 5.42667C33.0128 5.3445 33.0481 5.2671 33.1067 5.20887C33.1654 5.15064 33.2433 5.11554 33.326 5.11011H39.7708C39.853 5.11709 39.9301 5.15269 39.9884 5.21061C40.0467 5.26853 40.0826 5.34505 40.0896 5.42667C40.082 5.51 40.0436 5.5876 39.982 5.64459C39.9203 5.70158 39.8396 5.73395 39.7553 5.7355Z" fill="white"/>
<path id="Vector_26" d="M39.7553 7.14053H33.326C33.244 7.13693 33.1661 7.10346 33.1073 7.04649C33.0486 6.98953 33.013 6.91306 33.0073 6.83169C33.0128 6.74952 33.0481 6.67213 33.1067 6.6139C33.1654 6.55567 33.2433 6.52057 33.326 6.51514H39.7708C39.853 6.52212 39.9301 6.55771 39.9884 6.61563C40.0467 6.67355 40.0826 6.75007 40.0896 6.83169C40.082 6.91502 40.0436 6.99261 39.982 7.0496C39.9203 7.10659 39.8396 7.13898 39.7553 7.14053Z" fill="white"/>
<path id="Vector_27" d="M7.43013 9.09394H5.1523C5.07162 9.08852 4.99566 9.05424 4.93849 8.99745C4.88131 8.94066 4.84677 8.86523 4.84131 8.78511V6.51514C4.84677 6.43502 4.88131 6.35957 4.93849 6.30279C4.99566 6.246 5.07162 6.21172 5.1523 6.2063H7.43013C7.51219 6.2099 7.59004 6.24337 7.64883 6.30034C7.70762 6.3573 7.74321 6.43377 7.74886 6.51514V8.78511C7.8266 8.93952 7.67113 9.09394 7.43013 9.09394ZM5.47102 8.39133H7.02586V6.84714H5.47102V8.39133Z" fill="#0085B8"/>
<path id="Vector_28" d="M18.9904 7.18701H9.22603C9.14355 7.18701 9.06446 7.15448 9.00614 7.09656C8.94783 7.03864 8.91504 6.96009 8.91504 6.87818C8.91504 6.79627 8.94783 6.71771 9.00614 6.65979C9.06446 6.60187 9.14355 6.56934 9.22603 6.56934H19.0604C19.1411 6.57476 19.2171 6.60904 19.2742 6.66582C19.3314 6.72261 19.3659 6.79806 19.3714 6.87818C19.3597 6.96828 19.3137 7.05049 19.2428 7.10794C19.172 7.16538 19.0817 7.19368 18.9904 7.18701Z" fill="white"/>
<path id="Vector_29" d="M18.9904 8.63077H9.22603C9.14468 8.62356 9.06859 8.58768 9.01155 8.52962C8.95452 8.47156 8.92028 8.39516 8.91504 8.31422C8.9205 8.23409 8.95504 8.15865 9.01222 8.10186C9.06939 8.04507 9.14535 8.01079 9.22603 8.00537H19.0604C19.1411 8.01079 19.2171 8.04507 19.2742 8.10186C19.3314 8.15865 19.3659 8.23409 19.3714 8.31422C19.3597 8.40495 19.314 8.48796 19.2434 8.54666C19.1728 8.60536 19.0824 8.63539 18.9904 8.63077Z" fill="white"/>
<path id="Vector_30" d="M7.43013 13.3637H5.1523C5.07095 13.3565 4.99486 13.3207 4.93782 13.2626C4.88079 13.2045 4.84655 13.1281 4.84131 13.0472V10.8158C4.84655 10.7349 4.88079 10.6585 4.93782 10.6004C4.99486 10.5423 5.07095 10.5065 5.1523 10.4993H7.43013C7.51287 10.5047 7.59082 10.5398 7.64945 10.598C7.70808 10.6563 7.74338 10.7337 7.74886 10.8158V13.0781C7.8266 13.2325 7.67113 13.3637 7.43013 13.3637ZM5.47102 12.6611H7.02586V11.1169H5.47102V12.6611Z" fill="#0085B8"/>
<path id="Vector_31" d="M18.9901 11.5956H9.22568C9.15067 11.5839 9.08237 11.5459 9.03303 11.4886C8.9837 11.4313 8.95654 11.3583 8.95654 11.2829C8.95654 11.2075 8.9837 11.1346 9.03303 11.0772C9.08237 11.0199 9.15067 10.982 9.22568 10.9702H19.0601C19.142 10.9758 19.219 11.0112 19.2764 11.0696C19.3337 11.128 19.3674 11.2053 19.371 11.2868C19.3593 11.3769 19.3133 11.4591 19.2425 11.5165C19.1716 11.574 19.0813 11.6023 18.9901 11.5956Z" fill="white"/>
<path id="Vector_32" d="M18.9901 13.0009H9.22568C9.15067 12.9891 9.08237 12.9512 9.03303 12.8939C8.9837 12.8365 8.95654 12.7636 8.95654 12.6882C8.95654 12.6128 8.9837 12.5398 9.03303 12.4825C9.08237 12.4252 9.15067 12.3872 9.22568 12.3755H19.0601C19.142 12.3811 19.219 12.4165 19.2764 12.4749C19.3337 12.5332 19.3674 12.6106 19.371 12.6921C19.3593 12.7821 19.3133 12.8644 19.2425 12.9218C19.1716 12.9793 19.0813 13.0076 18.9901 13.0009Z" fill="white"/>
<path id="Vector_33" d="M7.43013 17.7646H5.1523C5.07162 17.7592 4.99566 17.7249 4.93849 17.6681C4.88131 17.6113 4.84677 17.5359 4.84131 17.4557V15.1858C4.84677 15.1057 4.88131 15.0302 4.93849 14.9734C4.99566 14.9166 5.07162 14.8824 5.1523 14.877H7.43013C7.51219 14.8806 7.59004 14.914 7.64883 14.971C7.70762 15.0279 7.74321 15.1044 7.74886 15.1858V17.4557C7.8266 17.6102 7.67113 17.7646 7.43013 17.7646ZM5.47102 17.062H7.02586V15.5178H5.47102V17.062Z" fill="#0085B8"/>
<path id="Vector_34" d="M18.9904 15.8886H9.22603C9.14535 15.8832 9.06939 15.8489 9.01222 15.7921C8.95504 15.7353 8.9205 15.6599 8.91504 15.5797C8.92028 15.4988 8.95452 15.4224 9.01155 15.3643C9.06859 15.3063 9.14468 15.2704 9.22603 15.2632H19.0604C19.1418 15.2704 19.2178 15.3063 19.2748 15.3643C19.3319 15.4224 19.3661 15.4988 19.3714 15.5797C19.3597 15.6698 19.3137 15.7521 19.2428 15.8095C19.172 15.8669 19.0817 15.8952 18.9904 15.8886Z" fill="white"/>
<path id="Vector_35" d="M18.9904 17.2937H9.22603C9.14355 17.2937 9.06446 17.2612 9.00614 17.2032C8.94783 17.1453 8.91504 17.0668 8.91504 16.9849C8.91504 16.903 8.94783 16.8244 9.00614 16.7665C9.06446 16.7086 9.14355 16.676 9.22603 16.676H19.0604C19.1411 16.6814 19.2171 16.7157 19.2742 16.7725C19.3314 16.8293 19.3659 16.9047 19.3714 16.9849C19.3597 17.075 19.3137 17.1572 19.2428 17.2146C19.172 17.2721 19.0817 17.3004 18.9904 17.2937Z" fill="white"/>
<path id="Vector_36" d="M7.43013 22.1424H5.1523C5.07095 22.1352 4.99486 22.0993 4.93782 22.0413C4.88079 21.9832 4.84655 21.9068 4.84131 21.8258V19.5404C4.84655 19.4595 4.88079 19.3831 4.93782 19.325C4.99486 19.267 5.07095 19.2311 5.1523 19.2239H7.43013C7.51287 19.2293 7.59082 19.2644 7.64945 19.3226C7.70808 19.3809 7.74338 19.4583 7.74886 19.5404V21.8567C7.8266 21.9803 7.67113 22.1424 7.43013 22.1424ZM5.47102 21.4398H7.02586V19.8956H5.47102V21.4398Z" fill="#0085B8"/>
<path id="Vector_37" d="M18.9901 20.2663H9.22568C9.15067 20.2545 9.08237 20.2166 9.03303 20.1592C8.9837 20.1019 8.95654 20.029 8.95654 19.9536C8.95654 19.8782 8.9837 19.8052 9.03303 19.7479C9.08237 19.6906 9.15067 19.6526 9.22568 19.6409H19.0601C19.1408 19.6463 19.2167 19.6806 19.2739 19.7373C19.3311 19.7941 19.3656 19.8696 19.371 19.9497C19.3612 20.0412 19.316 20.1253 19.2449 20.1844C19.1739 20.2434 19.0825 20.2728 18.9901 20.2663Z" fill="white"/>
<path id="Vector_38" d="M18.9901 21.6715H9.22568C9.15067 21.6598 9.08237 21.6218 9.03303 21.5645C8.9837 21.5072 8.95654 21.4343 8.95654 21.3588C8.95654 21.2834 8.9837 21.2105 9.03303 21.1532C9.08237 21.0958 9.15067 21.0579 9.22568 21.0461H19.0601C19.142 21.0518 19.219 21.0871 19.2764 21.1455C19.3337 21.2039 19.3674 21.2812 19.371 21.3627C19.3593 21.4528 19.3133 21.535 19.2425 21.5925C19.1716 21.6499 19.0813 21.6782 18.9901 21.6715Z" fill="white"/>
</g>
</svg>
