<svg width="43" height="44" viewBox="0 0 43 44" fill="none" xmlns="http://www.w3.org/2000/svg">
<g id="B - 109, Report, Analytics, audit, business, data, marketing, paper">
<path id="Vector" d="M36.576 27.3022H34.7065V39.6725H36.576V27.3022Z" fill="#D71049"/>
<path id="Vector_2" d="M27.2366 32.0566H25.3672V39.6803H27.2366V32.0566Z" fill="#D71049"/>
<path id="Vector_3" d="M33.3836 30.4949H31.5142V39.6033H33.3836V30.4949Z" fill="white"/>
<path id="Vector_4" d="M24.1209 35.5569H22.2515V39.6803H24.1209V35.5569Z" fill="white"/>
<path id="Vector_5" d="M40.7766 5.9082V42.8343H13.8511C14.4496 42.8323 15.0229 42.5931 15.4454 42.1692C15.8679 41.7453 16.1051 41.1711 16.1051 40.5726V5.9082H40.7766ZM36.5762 39.6956V27.3023H34.7068V39.6956H36.5762ZM33.3836 39.6956V30.4641H31.5142V39.5725H33.3836V39.6956ZM30.2679 39.6956V33.9336H28.3985V39.6956H30.2679ZM27.2369 39.6956V32.0719H25.3675V39.6956H27.2369ZM24.1212 39.6956V35.5722H22.2518V39.6956H24.1212ZM22.0672 18.2784V15.3244H19.1439V18.2784H22.0672ZM22.0672 12.5164V9.56235H19.1439V12.5164H22.0672ZM21.0056 39.6956V34.5413H19.1439V39.6956H21.0056Z" fill="white"/>
<path id="Vector_6" d="M30.5295 4.50033V5.90816H16.1051V14.155H11.5893V38.0031H3.604C4.20252 38.0031 4.77664 37.7659 5.20058 37.3434C5.62452 36.9209 5.86371 36.3476 5.86575 35.7491V0.923096H30.5295V4.50033Z" fill="#005993"/>
<path id="Vector_7" d="M30.2678 33.9182H28.3984V39.6802H30.2678V33.9182Z" fill="white"/>
<path id="Vector_8" d="M22.0977 15.3245H19.1436V18.2785H22.0977V15.3245Z" fill="#D71049"/>
<path id="Vector_9" d="M22.0977 9.56226H19.1436V12.5163H22.0977V9.56226Z" fill="#D71049"/>
<path id="Vector_10" d="M21.013 34.5413H19.1436V39.6801H21.013V34.5413Z" fill="#D71049"/>
<path id="Vector_11" d="M16.105 14.155V40.6111C16.105 41.2096 15.8678 41.7837 15.4453 42.2077C15.0228 42.6316 14.4495 42.8708 13.851 42.8728H13.6048C13.055 42.795 12.5503 42.5253 12.1801 42.1115C11.8099 41.6976 11.5978 41.1662 11.5815 40.6111V14.155H16.105Z" fill="white"/>
<path id="Vector_12" d="M5.83491 9.16992V35.6336C5.83288 36.2321 5.5937 36.8055 5.16976 37.228C4.74582 37.6504 4.1717 37.8877 3.57318 37.8877H3.26546C2.70917 37.8287 2.19447 37.5656 1.8208 37.1494C1.44712 36.7331 1.24098 36.193 1.24219 35.6336V9.16992H5.83491Z" fill="white"/>
<path id="Vector_13" d="M13.8508 43.2575H13.6046C13.5248 43.2521 13.4496 43.2179 13.393 43.1613C13.3364 43.1048 13.3023 43.0296 13.2969 42.9497C13.3105 42.8668 13.3365 42.7865 13.3738 42.7112C13.4507 42.5574 13.5277 42.5574 13.6046 42.5574H13.7661C13.8472 42.563 13.9234 42.5982 13.9802 42.6564C14.0369 42.7146 14.0703 42.7916 14.0739 42.8728C14.0816 43.0267 14.0816 43.2575 13.8508 43.2575Z" fill="#0085B8"/>
<path id="Vector_14" d="M40.7766 43.2574H13.8511C13.7699 43.2538 13.6928 43.2204 13.6346 43.1637C13.5765 43.1069 13.5412 43.0308 13.5356 42.9497C13.5411 42.8678 13.576 42.7907 13.634 42.7327C13.6921 42.6747 13.7692 42.6397 13.8511 42.6343H40.3842V6.2928H30.5295C30.4553 6.28111 30.3876 6.24329 30.3388 6.18617C30.29 6.12905 30.2632 6.05636 30.2632 5.98122C30.2632 5.90608 30.29 5.83343 30.3388 5.77631C30.3876 5.71919 30.4553 5.68138 30.5295 5.66968H40.8073C40.8884 5.67527 40.9646 5.71048 41.0213 5.76866C41.0781 5.82683 41.1115 5.90387 41.115 5.98507V42.9497C41.1091 43.0347 41.0706 43.1142 41.0076 43.1715C40.9445 43.2288 40.8618 43.2596 40.7766 43.2574Z" fill="#0085B8"/>
<path id="Vector_15" d="M13.8509 43.2575H13.5354C12.9029 43.186 12.3186 42.8849 11.8933 42.4113C11.4679 41.9378 11.231 41.3246 11.2275 40.6881V38.0417C11.2329 37.9619 11.2671 37.8867 11.3237 37.8301C11.3802 37.7735 11.4554 37.7394 11.5353 37.734C11.6159 37.7392 11.692 37.7731 11.7499 37.8295C11.8077 37.8859 11.8435 37.9612 11.8507 38.0417V40.6881C11.8437 41.1664 12.0145 41.6303 12.33 41.9899C12.6455 42.3495 13.0833 42.5792 13.5585 42.6344H13.7124C13.9688 42.6375 14.2233 42.5893 14.4609 42.4926C14.6984 42.3958 14.9142 42.2526 15.0955 42.0712C15.2769 41.8899 15.4201 41.6741 15.5169 41.4366C15.6136 41.199 15.6618 40.9445 15.6587 40.6881V14.2321C15.6659 14.1516 15.7016 14.0763 15.7595 14.0198C15.8173 13.9634 15.8935 13.9295 15.9741 13.9243C16.054 13.9297 16.1291 13.9639 16.1857 14.0204C16.2423 14.077 16.2764 14.1522 16.2818 14.2321V40.6881C16.3207 41.023 16.2856 41.3624 16.1792 41.6823C16.0727 42.0022 15.8975 42.295 15.6658 42.5399C15.434 42.7849 15.1515 42.976 14.8379 43.1C14.5243 43.224 14.1874 43.2778 13.8509 43.2575Z" fill="#0085B8"/>
<path id="Vector_16" d="M22.0674 12.8319H19.144C19.0616 12.8281 18.9835 12.7937 18.9252 12.7353C18.8668 12.677 18.8324 12.5989 18.8286 12.5164V9.56238C18.8342 9.48129 18.8695 9.40511 18.9276 9.34836C18.9858 9.2916 19.0628 9.25823 19.144 9.25464H22.0674C22.1472 9.26004 22.2224 9.29422 22.279 9.3508C22.3355 9.40738 22.3697 9.48254 22.3751 9.56238V12.5164C22.3715 12.5976 22.3381 12.6747 22.2814 12.7329C22.2246 12.791 22.1485 12.8263 22.0674 12.8319ZM19.4979 12.1318H21.7597V9.87777H19.5287V12.1318H19.4979Z" fill="#0085B8"/>
<path id="Vector_17" d="M29.7988 11.1163H24.0444C23.9638 11.1111 23.8876 11.0772 23.8298 11.0208C23.7719 10.9643 23.7362 10.8891 23.729 10.8086C23.736 10.7273 23.7714 10.651 23.8291 10.5933C23.8868 10.5356 23.9631 10.5001 24.0444 10.4932H29.7988C29.8807 10.4986 29.9578 10.5336 30.0158 10.5916C30.0738 10.6496 30.1088 10.7267 30.1142 10.8086C30.1179 10.8506 30.1122 10.8929 30.0975 10.9324C30.0829 10.972 30.0596 11.0078 30.0294 11.0372C29.9992 11.0667 29.9629 11.089 29.923 11.1027C29.8831 11.1164 29.8407 11.121 29.7988 11.1163Z" fill="#0085B8"/>
<path id="Vector_18" d="M35.6378 12.6781H24.0444C23.9631 12.6711 23.8868 12.6356 23.8291 12.5779C23.7714 12.5202 23.736 12.4439 23.729 12.3626C23.7362 12.2821 23.7719 12.2069 23.8298 12.1504C23.8876 12.094 23.9638 12.0601 24.0444 12.0549H35.6378C35.7184 12.0601 35.7946 12.094 35.8524 12.1504C35.9103 12.2069 35.946 12.2821 35.9532 12.3626C35.9462 12.4439 35.9107 12.5202 35.853 12.5779C35.7953 12.6356 35.7191 12.6711 35.6378 12.6781Z" fill="#0085B8"/>
<path id="Vector_19" d="M22.0674 18.5863H19.144C19.0628 18.5827 18.9858 18.5494 18.9276 18.4926C18.8695 18.4358 18.8342 18.3596 18.8286 18.2785V15.3245C18.8324 15.242 18.8668 15.164 18.9252 15.1056C18.9835 15.0473 19.0616 15.0128 19.144 15.009H22.0674C22.1485 15.0146 22.2246 15.0499 22.2814 15.1081C22.3381 15.1662 22.3715 15.2433 22.3751 15.3245V18.2785C22.3697 18.3584 22.3355 18.4336 22.279 18.4902C22.2224 18.5467 22.1472 18.5809 22.0674 18.5863ZM19.4979 17.8862H21.7597V15.6322H19.5287V17.8862H19.4979Z" fill="#0085B8"/>
<path id="Vector_20" d="M29.7986 16.8784H24.0442C23.9992 16.8855 23.9532 16.8828 23.9093 16.8704C23.8655 16.858 23.8248 16.8362 23.7902 16.8066C23.7555 16.777 23.7277 16.7402 23.7086 16.6988C23.6896 16.6575 23.6797 16.6124 23.6797 16.5669C23.6797 16.5213 23.6896 16.4763 23.7086 16.4349C23.7277 16.3935 23.7555 16.3567 23.7902 16.3271C23.8248 16.2975 23.8655 16.2757 23.9093 16.2633C23.9532 16.2509 23.9992 16.2482 24.0442 16.2553H29.7986C29.8798 16.2589 29.9568 16.2922 30.015 16.349C30.0732 16.4057 30.1084 16.4819 30.114 16.563C30.1189 16.6056 30.1141 16.6488 30.1 16.6893C30.0859 16.7298 30.0628 16.7666 30.0325 16.7969C30.0022 16.8273 29.9654 16.8503 29.9249 16.8644C29.8844 16.8786 29.8412 16.8834 29.7986 16.8784Z" fill="#0085B8"/>
<path id="Vector_21" d="M35.6378 18.4325H24.0444C23.9638 18.4273 23.8876 18.3934 23.8298 18.3369C23.7719 18.2805 23.7362 18.2053 23.729 18.1248C23.736 18.0434 23.7714 17.9672 23.8291 17.9095C23.8868 17.8518 23.9631 17.8163 24.0444 17.8093H35.6378C35.7191 17.8163 35.7953 17.8518 35.853 17.9095C35.9107 17.9672 35.9462 18.0434 35.9532 18.1248C35.946 18.2053 35.9103 18.2805 35.8524 18.3369C35.7946 18.3934 35.7184 18.4273 35.6378 18.4325Z" fill="#0085B8"/>
<path id="Vector_22" d="M21.0057 39.988H19.144C19.0628 39.9844 18.9858 39.951 18.9276 39.8942C18.8695 39.8375 18.8342 39.7613 18.8286 39.6802V34.5413C18.8342 34.4603 18.8695 34.3841 18.9276 34.3273C18.9858 34.2706 19.0628 34.2372 19.144 34.2336H21.0057C21.0869 34.2372 21.164 34.2706 21.2221 34.3273C21.2803 34.3841 21.3156 34.4603 21.3211 34.5413V39.6956C21.3981 39.8341 21.2442 39.988 21.0057 39.988ZM19.5287 39.2879H20.698V34.8568H19.5287V39.2879Z" fill="#0085B8"/>
<path id="Vector_23" d="M24.121 39.988H22.2516C22.1717 39.9826 22.0966 39.9485 22.04 39.8919C21.9834 39.8353 21.9492 39.7601 21.9438 39.6803V35.5568C21.949 35.4762 21.9829 35.4001 22.0394 35.3422C22.0958 35.2844 22.1711 35.2486 22.2516 35.2415H24.121C24.2015 35.2486 24.2767 35.2844 24.3332 35.3422C24.3896 35.4001 24.4235 35.4762 24.4287 35.5568V39.6957C24.5133 39.8341 24.3748 39.988 24.121 39.988ZM22.5824 39.2879H23.744V35.8492H22.5824V39.2879Z" fill="#0085B8"/>
<path id="Vector_24" d="M27.2371 39.9881H25.3677C25.287 39.9829 25.2109 39.949 25.153 39.8926C25.0952 39.8361 25.0594 39.7608 25.0522 39.6803V32.0566C25.0577 31.9748 25.0926 31.8976 25.1507 31.8396C25.2087 31.7816 25.2858 31.7466 25.3677 31.7412H27.2371C27.3181 31.7468 27.3943 31.7821 27.4511 31.8402C27.5078 31.8984 27.5412 31.9755 27.5448 32.0566V39.6957C27.5359 39.7728 27.5002 39.8443 27.444 39.8978C27.3877 39.9512 27.3145 39.9832 27.2371 39.9881ZM25.6985 39.288H26.8678V32.3643H25.6985V39.288Z" fill="#0085B8"/>
<path id="Vector_25" d="M30.2679 39.988H28.3985C28.3187 39.9826 28.2435 39.9485 28.187 39.8919C28.1304 39.8353 28.0962 39.7601 28.0908 39.6803V33.9183C28.0962 33.8385 28.1304 33.7633 28.187 33.7067C28.2435 33.6501 28.3187 33.616 28.3985 33.6106H30.2679C30.3486 33.6158 30.4247 33.6497 30.4826 33.7061C30.5404 33.7625 30.5762 33.8378 30.5834 33.9183V39.6957C30.6603 39.8342 30.5295 39.988 30.2679 39.988ZM28.7909 39.2879H29.9602V34.2337H28.7909V39.2879Z" fill="#0085B8"/>
<path id="Vector_26" d="M33.3837 39.9879H31.5143C31.4344 39.9825 31.3593 39.9483 31.3027 39.8917C31.2461 39.8352 31.2119 39.76 31.2065 39.6801V30.464C31.2119 30.3842 31.2461 30.309 31.3027 30.2524C31.3593 30.1958 31.4344 30.1617 31.5143 30.1562H33.3837C33.4635 30.1617 33.5387 30.1958 33.5952 30.2524C33.6518 30.309 33.686 30.3842 33.6914 30.464V39.5725C33.7683 39.834 33.6068 39.9879 33.3837 39.9879ZM31.9066 39.2878H33.0682V30.8871H31.9066V39.2878Z" fill="#0085B8"/>
<path id="Vector_27" d="M36.5759 39.988H34.7065C34.6259 39.9828 34.5497 39.949 34.4919 39.8925C34.434 39.8361 34.3983 39.7608 34.3911 39.6803V27.3024C34.3983 27.2219 34.434 27.1466 34.4919 27.0901C34.5497 27.0337 34.6259 26.9998 34.7065 26.9946H36.5759C36.6558 27 36.7309 27.0342 36.7875 27.0908C36.8441 27.1474 36.8782 27.2225 36.8836 27.3024V39.6957C36.8748 39.7728 36.8391 39.8443 36.7828 39.8977C36.7266 39.9512 36.6534 39.9831 36.5759 39.988ZM35.0373 39.2879H36.2067V27.6178H35.0373V39.2879Z" fill="#0085B8"/>
<path id="Vector_28" d="M42.069 29.6409C41.9871 29.6354 41.91 29.6005 41.852 29.5424C41.794 29.4844 41.759 29.4073 41.7536 29.3255V4.89266H30.5295C30.4553 4.88096 30.3876 4.84314 30.3388 4.78603C30.29 4.72891 30.2632 4.65621 30.2632 4.58107C30.2632 4.50593 30.29 4.43328 30.3388 4.37616C30.3876 4.31904 30.4553 4.28123 30.5295 4.26953H42.069C42.1501 4.27512 42.2262 4.31034 42.283 4.36851C42.3398 4.42668 42.3731 4.50373 42.3767 4.58492V29.3255C42.4844 29.487 42.3305 29.6409 42.069 29.6409Z" fill="#0085B8"/>
<path id="Vector_29" d="M3.60394 38.2802H3.37314C3.29206 38.2746 3.21588 38.2394 3.15913 38.1812C3.10237 38.123 3.06902 38.046 3.06543 37.9648C3.06543 37.8879 3.14235 37.811 3.14235 37.734C3.17275 37.7049 3.20921 37.683 3.24912 37.6696C3.28902 37.6563 3.33138 37.652 3.37314 37.6571H3.527C3.60766 37.6623 3.68379 37.6961 3.74164 37.7526C3.79949 37.809 3.83524 37.8843 3.84242 37.9648C3.81165 38.1571 3.81165 38.2802 3.60394 38.2802Z" fill="#0085B8"/>
<path id="Vector_30" d="M11.589 38.2801H3.6037C3.52948 38.2684 3.46187 38.2306 3.41305 38.1735C3.36422 38.1164 3.3374 38.0437 3.3374 37.9686C3.3374 37.8934 3.36422 37.8207 3.41305 37.7636C3.46187 37.7065 3.52948 37.6687 3.6037 37.657H11.2967V14.155C11.3019 14.0744 11.3358 13.9983 11.3922 13.9404C11.4486 13.8826 11.5239 13.8468 11.6044 13.8397H15.8125V5.90823C15.8161 5.82703 15.8494 5.74999 15.9062 5.69182C15.9629 5.63364 16.0391 5.59838 16.1202 5.59279H30.1292V1.31552H6.21932V9.17003C6.21573 9.25123 6.18238 9.32827 6.12562 9.38644C6.06887 9.44462 5.99269 9.47983 5.9116 9.48542C5.82973 9.48001 5.75261 9.44507 5.69459 9.38705C5.63657 9.32903 5.6016 9.2519 5.59619 9.17003V0.923168C5.60337 0.842668 5.63911 0.767421 5.69696 0.710983C5.75481 0.654545 5.83095 0.620669 5.9116 0.615479H30.5831C30.6629 0.620879 30.7381 0.655014 30.7946 0.711593C30.8512 0.768173 30.8854 0.843335 30.8908 0.923168V5.90823C30.8854 5.98806 30.8512 6.06322 30.7946 6.1198C30.7381 6.17638 30.6629 6.21052 30.5831 6.21592H16.5741V14.0781C16.5685 14.1592 16.5333 14.2354 16.4751 14.2922C16.4169 14.3489 16.3399 14.3822 16.2587 14.3858H11.9814V37.8109C11.9814 38.157 11.8275 38.2801 11.589 38.2801Z" fill="#0085B8"/>
<path id="Vector_31" d="M3.6039 38.2801H3.29618C2.66432 38.2069 2.08097 37.9054 1.65593 37.4322C1.23088 36.959 0.993442 36.3467 0.988281 35.7107V9.2546C0.993697 9.17273 1.02867 9.0956 1.08669 9.03758C1.1447 8.97956 1.22181 8.94462 1.30369 8.93921H5.81948C5.90057 8.9448 5.97675 8.98001 6.0335 9.03819C6.09026 9.09636 6.12361 9.1734 6.1272 9.2546V35.7107C6.15427 36.051 6.10795 36.3932 5.99136 36.7141C5.87478 37.035 5.69065 37.3271 5.45142 37.5707C5.2122 37.8143 4.92345 38.0037 4.60472 38.1261C4.28598 38.2485 3.94468 38.301 3.6039 38.2801ZM1.66526 9.56234V35.7184C1.65997 36.1962 1.83138 36.6592 2.14659 37.0184C2.4618 37.3776 2.89859 37.6078 3.3731 37.6646H3.52696C3.78342 37.6677 4.0379 37.6195 4.27544 37.5228C4.51298 37.4261 4.72878 37.2828 4.91013 37.1015C5.09149 36.9201 5.23474 36.7043 5.33145 36.4668C5.42817 36.2293 5.47639 35.9748 5.47329 35.7184V9.56234H1.66526Z" fill="#0085B8"/>
</g>
</svg>
