<svg width="35" height="44" viewBox="0 0 35 44" fill="none" xmlns="http://www.w3.org/2000/svg">
<g id="B - 105, certificate, Business, diploma, legal document, letter, paper">
<path id="Vector" d="M27.0486 29.2842C27.7084 29.2882 28.34 29.5521 28.8066 30.0186C29.2731 30.4852 29.537 31.1168 29.5411 31.7766C29.5411 32.2695 29.3949 32.7514 29.121 33.1612C28.8471 33.5711 28.4579 33.8906 28.0024 34.0792C27.547 34.2679 27.0458 34.3172 26.5623 34.2211C26.0789 34.1249 25.6347 33.8875 25.2862 33.539C24.9376 33.1904 24.7002 32.7463 24.604 32.2628C24.5079 31.7793 24.5572 31.2782 24.7459 30.8228C24.9345 30.3674 25.254 29.9781 25.6639 29.7042C26.0738 29.4304 26.5556 29.2842 27.0486 29.2842Z" fill="#D71049"/>
<path id="Vector_2" d="M27.2948 36.5794H27.6646C28.3474 36.4731 29.0059 36.2509 29.61 35.9229V42.0769L26.9915 39.5951L24.2251 42.0769V35.9445C24.8261 36.2925 25.4842 36.5366 26.1705 36.666H26.9102C27.0334 36.619 27.163 36.5899 27.2948 36.5794Z" fill="white"/>
<path id="Vector_3" d="M32.264 31.7766C32.2728 32.6599 32.0555 33.5307 31.6327 34.3063C31.2099 35.0818 30.5957 35.7363 29.8485 36.2075C29.2423 36.6044 28.5472 36.8449 27.8253 36.9075H26.5329C25.8098 36.8043 25.1187 36.5416 24.5097 36.1383C23.5564 35.5297 22.8256 34.629 22.4267 33.5707C22.0277 32.5125 21.9819 31.3535 22.2961 30.2671C22.6104 29.1807 23.2678 28.2251 24.1701 27.5432C25.0724 26.8614 26.1712 26.4898 27.3022 26.4841C28.6484 26.5666 29.9122 27.1606 30.8347 28.1445C31.7571 29.1285 32.2685 30.4279 32.264 31.7766ZM29.4638 31.7766C29.4598 31.1168 29.1959 30.4852 28.7293 30.0187C28.2628 29.5521 27.6312 29.2882 26.9714 29.2842C26.6329 29.2654 26.2942 29.3158 25.9759 29.4323C25.6576 29.5489 25.3664 29.7292 25.1202 29.9621C24.8739 30.195 24.6778 30.4757 24.5437 30.7871C24.4097 31.0984 24.3405 31.4338 24.3405 31.7728C24.3405 32.1117 24.4097 32.4471 24.5437 32.7584C24.6778 33.0698 24.8739 33.3505 25.1202 33.5834C25.3664 33.8163 25.6576 33.9966 25.9759 34.1131C26.2942 34.2297 26.6329 34.2801 26.9714 34.2613C27.6262 34.2457 28.25 33.9792 28.7139 33.5168C29.1778 33.0543 29.4463 32.4313 29.4638 31.7766Z" fill="white"/>
<path id="Vector_4" d="M27.2871 0.644775L34.3644 7.7296H27.2871V0.644775Z" fill="white"/>
<path id="Vector_5" d="M34.3642 7.7296V37.9997H29.7485V36.1304C30.7009 35.5244 31.431 34.6257 31.8291 33.5693C32.2271 32.5129 32.2717 31.3559 31.9561 30.2721C31.6404 29.1882 30.9817 28.236 30.0787 27.5585C29.1757 26.881 28.0773 26.5147 26.9484 26.5147C25.8195 26.5147 24.721 26.881 23.8181 27.5585C22.9151 28.236 22.2563 29.1882 21.9407 30.2721C21.6251 31.3559 21.6696 32.5129 22.0677 33.5693C22.4658 34.6257 23.1958 35.5244 24.1482 36.1304V37.9997H3.68555V0.644775H27.3022V7.7296H34.3642Z" fill="#005993"/>
<path id="Vector_6" d="M26.5868 37.2997H26.1176C25.347 37.1945 24.6061 36.9327 23.9405 36.5304C23.1251 36.0128 22.4583 35.292 22.0056 34.4388C21.5529 33.5857 21.3299 32.6294 21.3584 31.664C21.3869 30.6986 21.666 29.7572 22.1683 28.9322C22.6705 28.1072 23.3787 27.4271 24.2233 26.9585C25.0679 26.4899 26.0198 26.2489 26.9856 26.2594C27.9514 26.2698 28.8979 26.5312 29.7321 27.0179C30.5664 27.5046 31.2597 28.1999 31.7441 29.0355C32.2285 29.8711 32.4872 30.8183 32.4949 31.7841C32.4998 32.7265 32.2678 33.6551 31.8202 34.4844C31.3726 35.3138 30.7237 36.0173 29.9332 36.5304C29.7716 36.6074 29.5408 36.6073 29.4639 36.4458C29.387 36.2843 29.387 36.0612 29.5409 35.9842C30.2314 35.5403 30.7996 34.9303 31.1934 34.2099C31.5872 33.4896 31.794 32.682 31.7948 31.8611C31.7888 30.583 31.2789 29.3589 30.3759 28.4545C29.4728 27.55 28.2495 27.0382 26.9715 27.0301C25.9159 27.0196 24.8857 27.3534 24.0369 27.981C23.1881 28.6087 22.5671 29.4959 22.2679 30.5082C21.9687 31.5205 22.0077 32.6028 22.3789 33.5909C22.7502 34.5791 23.4334 35.4193 24.3252 35.9842C24.8842 36.362 25.5248 36.6019 26.1945 36.6843H26.5022C26.5948 36.694 26.6799 36.7398 26.7389 36.8118C26.7979 36.8838 26.8262 36.9762 26.8176 37.0689C26.9715 37.1458 26.8176 37.2997 26.5868 37.2997Z" fill="#0085B8"/>
<path id="Vector_7" d="M26.6638 37.2999C26.5621 37.2927 26.4664 37.2491 26.3944 37.177C26.3223 37.1049 26.2786 37.0092 26.2715 36.9076C26.2715 36.7537 26.5023 36.5999 26.6638 36.5999C26.7436 36.6053 26.8188 36.6394 26.8754 36.696C26.932 36.7526 26.9661 36.8277 26.9715 36.9076C26.9824 37.0003 26.9561 37.0936 26.8985 37.1671C26.8409 37.2406 26.7565 37.2883 26.6638 37.2999Z" fill="#0085B8"/>
<path id="Vector_8" d="M26.8176 37.2997H26.6637C26.6143 37.2992 26.5655 37.2884 26.5206 37.2679C26.4756 37.2474 26.4354 37.2177 26.4026 37.1807C26.3698 37.1437 26.3451 37.1003 26.3301 37.0532C26.3152 37.0061 26.3102 36.9564 26.3156 36.9072C26.321 36.8581 26.3366 36.8107 26.3615 36.7679C26.3863 36.7252 26.4199 36.6882 26.4599 36.6592C26.5 36.6302 26.5456 36.61 26.594 36.5997C26.6423 36.5895 26.6923 36.5895 26.7406 36.5997H26.8945C26.9439 36.6002 26.9927 36.6111 27.0377 36.6316C27.0826 36.6521 27.1228 36.6818 27.1556 36.7188C27.1884 36.7557 27.2131 36.7992 27.2281 36.8463C27.2431 36.8934 27.248 36.9431 27.2426 36.9922C27.2372 37.0413 27.2216 37.0888 27.1967 37.1315C27.1719 37.1742 27.1383 37.2113 27.0983 37.2402C27.0583 37.2692 27.0126 37.2895 26.9642 37.2997C26.9159 37.31 26.8659 37.31 26.8176 37.2997Z" fill="#0085B8"/>
<path id="Vector_9" d="M27.0483 37.2997H26.8175C26.7681 37.2992 26.7193 37.2884 26.6744 37.2679C26.6294 37.2474 26.5892 37.2177 26.5564 37.1807C26.5236 37.1437 26.4989 37.1003 26.4839 37.0532C26.469 37.0061 26.464 36.9564 26.4694 36.9072C26.4748 36.8581 26.4904 36.8107 26.5153 36.7679C26.5401 36.7252 26.5737 36.6882 26.6137 36.6592C26.6538 36.6302 26.6994 36.61 26.7478 36.5997C26.7961 36.5895 26.8461 36.5895 26.8944 36.5997H27.2098C27.3637 36.5997 27.5945 36.7536 27.5945 36.9074C27.5945 37.0613 27.4406 37.2997 27.2868 37.2997H27.0483Z" fill="#0085B8"/>
<path id="Vector_10" d="M27.2099 37.2999C27.1275 37.2961 27.0494 37.2617 26.9911 37.2033C26.9327 37.145 26.8983 37.0669 26.8945 36.9845C26.8945 36.8306 27.0484 36.5999 27.2099 36.5999H27.3638C27.5176 36.5999 27.7484 36.7537 27.7484 36.9076C27.7484 37.0614 27.5946 37.2999 27.4407 37.2999H27.2099Z" fill="#0085B8"/>
<path id="Vector_11" d="M27.4409 37.2998C27.359 37.2944 27.2819 37.2594 27.2239 37.2014C27.1659 37.1434 27.1309 37.0663 27.1255 36.9844C27.1255 36.8306 27.287 36.5998 27.4409 36.5998H27.7486C28.4166 36.5361 29.0573 36.3031 29.6102 35.9228C29.7641 35.8459 30.0026 35.8459 30.0795 35.9998C30.1564 36.1536 30.1564 36.3844 30.0026 36.4613C29.3418 36.8794 28.5948 37.1424 27.8178 37.2306H27.587C27.587 37.3075 27.5101 37.3075 27.4332 37.3075L27.4409 37.2998Z" fill="#0085B8"/>
<path id="Vector_12" d="M27.0484 34.5767C26.4924 34.5783 25.9485 34.4147 25.4856 34.1067C25.0227 33.7988 24.6616 33.3604 24.4481 32.847C24.2346 32.3336 24.1784 31.7684 24.2865 31.2231C24.3946 30.6777 24.6622 30.1767 25.0553 29.7836C25.4485 29.3904 25.9495 29.1229 26.4949 29.0148C27.0402 28.9067 27.6054 28.9629 28.1188 29.1764C28.6322 29.3899 29.0707 29.7509 29.3786 30.2138C29.6865 30.6767 29.8501 31.2207 29.8486 31.7766C29.8496 32.1446 29.7779 32.5092 29.6375 32.8494C29.4972 33.1896 29.2909 33.4986 29.0307 33.7589C28.7705 34.0191 28.4614 34.2253 28.1212 34.3657C27.781 34.506 27.4164 34.5777 27.0484 34.5767ZM27.0484 29.592C26.6309 29.5904 26.2223 29.713 25.8745 29.944C25.5267 30.175 25.2554 30.5041 25.0949 30.8896C24.9344 31.275 24.892 31.6994 24.9731 32.109C25.0542 32.5186 25.2551 32.8949 25.5503 33.1901C25.8456 33.4853 26.2218 33.6862 26.6314 33.7673C27.041 33.8484 27.4655 33.806 27.8509 33.6455C28.2364 33.4851 28.5655 33.2137 28.7965 32.8659C29.0276 32.5181 29.1501 32.1096 29.1486 31.692C29.1368 31.1388 28.9117 30.6114 28.5204 30.2201C28.1291 29.8288 27.6017 29.6037 27.0484 29.592Z" fill="#0085B8"/>
<path id="Vector_13" d="M14.602 33.9536H7.20924C7.16423 33.9607 7.1182 33.9579 7.07435 33.9456C7.03049 33.9332 6.98985 33.9114 6.95521 33.8818C6.92056 33.8522 6.89274 33.8154 6.87367 33.774C6.8546 33.7326 6.84473 33.6876 6.84473 33.6421C6.84473 33.5965 6.8546 33.5515 6.87367 33.5101C6.89274 33.4687 6.92056 33.4319 6.95521 33.4023C6.98985 33.3727 7.03049 33.3509 7.07435 33.3385C7.1182 33.3261 7.16423 33.3234 7.20924 33.3305H14.6789C14.7587 33.3359 14.8339 33.3701 14.8905 33.4266C14.947 33.4832 14.9812 33.5584 14.9866 33.6382C14.9769 33.7308 14.931 33.8159 14.859 33.8749C14.787 33.9339 14.6947 33.9622 14.602 33.9536Z" fill="white"/>
<path id="Vector_14" d="M13.2785 5.15257H7.12428C7.07927 5.15967 7.03324 5.15691 6.98939 5.14452C6.94553 5.13213 6.90489 5.11039 6.87025 5.08078C6.8356 5.05117 6.80778 5.01439 6.78871 4.97301C6.76964 4.93162 6.75977 4.8866 6.75977 4.84103C6.75977 4.79545 6.76964 4.75043 6.78871 4.70904C6.80778 4.66766 6.8356 4.63088 6.87025 4.60127C6.90489 4.57166 6.94553 4.54992 6.98939 4.53753C7.03324 4.52514 7.07927 4.52238 7.12428 4.52948H13.2785C13.3527 4.54118 13.4203 4.57899 13.4691 4.63611C13.5179 4.69322 13.5448 4.76589 13.5448 4.84103C13.5448 4.91616 13.5179 4.98883 13.4691 5.04595C13.4203 5.10306 13.3527 5.14087 13.2785 5.15257Z" fill="white"/>
<path id="Vector_15" d="M19.1943 6.79106H7.05514C6.97395 6.78748 6.89692 6.75412 6.83875 6.69737C6.78057 6.64062 6.74534 6.56444 6.73975 6.48337C6.74516 6.4015 6.78013 6.32437 6.83815 6.26636C6.89616 6.20834 6.97327 6.17338 7.05514 6.16797H19.1097C19.1915 6.17338 19.2686 6.20834 19.3267 6.26636C19.3847 6.32437 19.4196 6.4015 19.4251 6.48337C19.4251 6.63722 19.3481 6.79106 19.1943 6.79106Z" fill="white"/>
<path id="Vector_16" d="M19.1943 12.1604H7.05514C6.97395 12.1569 6.89692 12.1235 6.83875 12.0668C6.78057 12.01 6.74534 11.9338 6.73975 11.8527C6.74516 11.7709 6.78013 11.6938 6.83815 11.6358C6.89616 11.5777 6.97327 11.5428 7.05514 11.5374H19.1097C19.1915 11.5428 19.2686 11.5777 19.3267 11.6358C19.3847 11.6938 19.4196 11.7709 19.4251 11.8527C19.4251 12.0066 19.3481 12.1604 19.1943 12.1604Z" fill="#D71049"/>
<path id="Vector_17" d="M24.8715 14.1836H7.05514C6.97395 14.1801 6.89692 14.1467 6.83875 14.0899C6.78057 14.0332 6.74534 13.957 6.73975 13.8759C6.74516 13.7941 6.78013 13.717 6.83815 13.659C6.89616 13.6009 6.97327 13.566 7.05514 13.5605H24.7946C24.8751 13.5677 24.9504 13.6035 25.0068 13.6613C25.0632 13.7192 25.0971 13.7953 25.1023 13.8759C25.1023 14.0298 24.9946 14.1836 24.8715 14.1836Z" fill="white"/>
<path id="Vector_18" d="M24.8715 16.2068H7.05514C6.97395 16.2032 6.89692 16.1699 6.83875 16.1131C6.78057 16.0564 6.74534 15.9802 6.73975 15.8991C6.74516 15.8173 6.78013 15.7402 6.83815 15.6822C6.89616 15.6241 6.97327 15.5892 7.05514 15.5837H24.7946C24.8751 15.5909 24.9504 15.6267 25.0068 15.6845C25.0632 15.7424 25.0971 15.8185 25.1023 15.8991C25.1023 16.053 24.9946 16.2068 24.8715 16.2068Z" fill="white"/>
<path id="Vector_19" d="M29.31 18.1531H7.05494C7.00992 18.1602 6.96391 18.1574 6.92005 18.145C6.8762 18.1326 6.83555 18.1109 6.80091 18.0813C6.76627 18.0517 6.73845 18.0149 6.71938 17.9735C6.7003 17.9321 6.69043 17.8871 6.69043 17.8415C6.69043 17.7959 6.7003 17.7509 6.71938 17.7095C6.73845 17.6681 6.76627 17.6314 6.80091 17.6018C6.83555 17.5721 6.8762 17.5504 6.92005 17.538C6.96391 17.5256 7.00992 17.5229 7.05494 17.53H29.31C29.3843 17.5417 29.4519 17.5795 29.5007 17.6366C29.5495 17.6937 29.5763 17.7664 29.5763 17.8415C29.5763 17.9167 29.5495 17.9893 29.5007 18.0464C29.4519 18.1036 29.3843 18.1414 29.31 18.1531Z" fill="white"/>
<path id="Vector_20" d="M29.3102 20.1761H7.05514C6.97395 20.1725 6.89692 20.1391 6.83875 20.0824C6.78057 20.0256 6.74534 19.9495 6.73975 19.8684C6.74516 19.7865 6.78013 19.7094 6.83815 19.6514C6.89616 19.5933 6.97327 19.5584 7.05514 19.553H29.3102C29.3907 19.5602 29.466 19.5959 29.5224 19.6537C29.5789 19.7116 29.6127 19.7877 29.6179 19.8684C29.6125 19.9482 29.5784 20.0234 29.5218 20.0799C29.4652 20.1365 29.3901 20.1707 29.3102 20.1761Z" fill="white"/>
<path id="Vector_21" d="M19.1943 22.1993H7.05514C6.97395 22.1957 6.89692 22.1623 6.83875 22.1056C6.78057 22.0488 6.74534 21.9726 6.73975 21.8916C6.74516 21.8097 6.78013 21.7326 6.83815 21.6746C6.89616 21.6165 6.97327 21.5816 7.05514 21.5762H19.1097C19.1915 21.5816 19.2686 21.6165 19.3267 21.6746C19.3847 21.7326 19.4196 21.8097 19.4251 21.8916C19.4251 22.0762 19.3481 22.1993 19.1943 22.1993Z" fill="white"/>
<path id="Vector_22" d="M34.3642 38.5075H29.7485C29.6687 38.5021 29.5935 38.4679 29.5369 38.4114C29.4804 38.3548 29.4462 38.2796 29.4408 38.1998V36.9536C28.9173 37.1805 28.3665 37.3382 27.8023 37.4228H26.3252C25.7635 37.3382 25.2152 37.1804 24.6944 36.9536V38.1998C24.6888 38.2809 24.6536 38.3571 24.5954 38.4138C24.5372 38.4706 24.4602 38.5039 24.379 38.5075H3.68552C3.60433 38.5039 3.5273 38.4706 3.46913 38.4138C3.41096 38.3571 3.37571 38.2809 3.37012 38.1998V0.84483C3.37571 0.763753 3.41096 0.687554 3.46913 0.630801C3.5273 0.574049 3.60433 0.540697 3.68552 0.537109H27.3022C27.3821 0.542509 27.4572 0.576666 27.5138 0.633243C27.5704 0.68982 27.6045 0.765 27.6099 0.84483C27.6099 0.998681 27.4561 1.23713 27.3022 1.23713H4.09324V37.8075H23.9405V36.3305C23.9416 36.271 23.956 36.2125 23.9827 36.1593C24.0093 36.106 24.0474 36.0594 24.0944 36.0228C24.1495 35.9804 24.2171 35.9574 24.2867 35.9574C24.3562 35.9574 24.4239 35.9804 24.479 36.0228C25.0458 36.3854 25.6828 36.6239 26.3483 36.7228H27.6715C28.3403 36.6368 28.9801 36.3972 29.5408 36.0228C29.5609 36.0023 29.5848 35.9861 29.6112 35.975C29.6376 35.9639 29.666 35.9581 29.6947 35.9581C29.7233 35.9581 29.7517 35.9639 29.7781 35.975C29.8045 35.9861 29.8285 36.0023 29.8485 36.0228C30.0101 36.0997 30.0101 36.1766 30.0101 36.3305V37.8075H33.818V7.92965C33.8234 7.84778 33.8584 7.77066 33.9164 7.71264C33.9744 7.65463 34.0515 7.61967 34.1334 7.61425C34.2145 7.61985 34.2906 7.65508 34.3474 7.71325C34.4041 7.77142 34.4375 7.84846 34.4411 7.92965V38.1998C34.6796 38.3536 34.518 38.5075 34.3642 38.5075Z" fill="#0085B8"/>
<path id="Vector_23" d="M34.3642 8.11427H27.3022C27.221 8.11068 27.144 8.07733 27.0858 8.02058C27.0277 7.96383 26.9924 7.88765 26.9868 7.80657V0.721726C26.9868 0.567876 27.0637 0.490955 27.2253 0.41403C27.2895 0.385327 27.361 0.377309 27.4299 0.391094C27.4988 0.404879 27.5617 0.439788 27.6099 0.49096L34.6949 7.56811C34.7458 7.61812 34.7804 7.68233 34.7941 7.75234C34.8078 7.82236 34.8001 7.89488 34.7719 7.96041C34.6519 8.04673 34.5112 8.09981 34.3642 8.11427ZM27.5945 7.41425H33.4564L27.6176 1.49868L27.5945 7.41425Z" fill="#0085B8"/>
<path id="Vector_24" d="M17.7942 40.5383H1.06248C0.980606 40.5328 0.903488 40.4979 0.845472 40.4399C0.787455 40.3819 0.752486 40.3047 0.74707 40.2229V13.3759C0.758769 13.3017 0.796582 13.2341 0.8537 13.1853C0.910818 13.1364 0.983486 13.1096 1.05863 13.1096C1.13376 13.1096 1.20644 13.1364 1.26356 13.1853C1.32068 13.2341 1.35848 13.3017 1.37018 13.3759V39.8382H17.7096C17.7908 39.8418 17.8678 39.8752 17.926 39.9319C17.9841 39.9887 18.0194 40.0649 18.025 40.1459C18.025 40.3306 17.948 40.5383 17.7942 40.5383Z" fill="#0085B8"/>
<path id="Vector 1" d="M24.2251 36.6921V42.0769L26.9176 39.3845L29.61 42.0769V36.6921" stroke="#0085B8"/>
</g>
</svg>
