<svg width="51" height="50" viewBox="0 0 51 50" fill="none" xmlns="http://www.w3.org/2000/svg">
<g id="Clip path group">
<mask id="mask0_1703_13250" style="mask-type:luminance" maskUnits="userSpaceOnUse" x="0" y="0" width="51" height="50">
<g id="clip-Account">
<path id="Vector" d="M50.4292 0H0.429199V50H50.4292V0Z" fill="white"/>
</g>
</mask>
<g mask="url(#mask0_1703_13250)">
<g id="Account">
<g id="Account_2">
<g id="3631690_bank_deposit_savings_icon">
<path id="Path 17" d="M44.4351 16.9138H5.6159C5.19743 16.9138 5.03051 16.3284 5.36513 16.1607L24.189 4.8661C24.4525 4.70183 24.7569 4.61475 25.0674 4.61475C25.378 4.61475 25.6823 4.70183 25.9459 4.8661L44.7697 16.1607C45.0213 16.3284 44.8536 16.9138 44.4351 16.9138Z" fill="#005993" stroke="#0085B8" stroke-linecap="round" stroke-linejoin="round"/>
<path id="Path 18" d="M41.7545 16.9138H8.29294V18.5869C8.28621 18.6986 8.30324 18.8104 8.34292 18.915C8.3826 19.0196 8.44402 19.1145 8.52312 19.1936C8.60222 19.2727 8.6972 19.3342 8.80179 19.3738C8.90638 19.4135 9.0182 19.4306 9.12986 19.4238H40.9214C41.0327 19.43 41.1441 19.4125 41.2483 19.3726C41.3524 19.3327 41.4469 19.2712 41.5256 19.1921C41.6042 19.1131 41.6653 19.0183 41.7048 18.914C41.7442 18.8097 41.7612 18.6982 41.7545 18.5869V16.9138Z" fill="white" stroke="#0085B8" stroke-linecap="round" stroke-linejoin="round"/>
<path id="Path 19" d="M40.9214 35.3191H9.12986C9.0182 35.3123 8.90638 35.3294 8.80179 35.369C8.6972 35.4087 8.60222 35.4701 8.52312 35.5492C8.44402 35.6283 8.3826 35.7233 8.34292 35.8279C8.30324 35.9325 8.28621 36.0443 8.29294 36.156V37.8291H41.7545V36.156C41.7612 36.0447 41.7442 35.9332 41.7048 35.8289C41.6653 35.7246 41.6042 35.6298 41.5256 35.5508C41.4469 35.4717 41.3524 35.4102 41.2483 35.3703C41.1441 35.3303 41.0327 35.3129 40.9214 35.3191Z" fill="white" stroke="#0085B8" stroke-linecap="round" stroke-linejoin="round"/>
<path id="Path 20" d="M43.4311 37.8291H6.61961C6.50794 37.8223 6.39613 37.8394 6.29153 37.8791C6.18694 37.9187 6.09196 37.9801 6.01286 38.0592C5.93376 38.1383 5.87234 38.2333 5.83267 38.3379C5.79299 38.4425 5.77595 38.5543 5.78268 38.666V41.1752H44.2673V38.666C44.274 38.5544 44.257 38.4426 44.2174 38.3381C44.1777 38.2336 44.1164 38.1386 44.0374 38.0596C43.9584 37.9805 43.8635 37.919 43.759 37.8793C43.6545 37.8396 43.5427 37.8225 43.4311 37.8291Z" fill="#005993" stroke="#0085B8"/>
<path id="Path 21" d="M28.3715 21.0969V19.4238H21.6792V21.0969C21.6725 21.2086 21.6895 21.3204 21.7292 21.425C21.7689 21.5296 21.8303 21.6245 21.9094 21.7036C21.9885 21.7827 22.0835 21.8442 22.1881 21.8838C22.2927 21.9235 22.4045 21.9406 22.5161 21.9338V32.8084C22.4044 32.8017 22.2925 32.8188 22.1879 32.8585C22.0832 32.8982 21.9882 32.9597 21.9091 33.0389C21.83 33.1181 21.7686 33.2131 21.7289 33.3178C21.6893 33.4225 21.6724 33.5344 21.6792 33.6461V35.3192H28.3715V33.6461C28.3784 33.5345 28.3614 33.4226 28.3218 33.318C28.2823 33.2134 28.2209 33.1184 28.1419 33.0392C28.0629 32.96 27.9679 32.8985 27.8634 32.8587C27.7588 32.819 27.647 32.8018 27.5354 32.8084V21.9338C27.647 21.9404 27.7587 21.9233 27.8632 21.8836C27.9677 21.8439 28.0626 21.7824 28.1416 21.7033C28.2206 21.6243 28.282 21.5293 28.3216 21.4248C28.3612 21.3202 28.3782 21.2085 28.3715 21.0969Z" fill="#005993" stroke="#0085B8" stroke-linecap="round" stroke-linejoin="round"/>
<path id="Path 22" d="M17.4951 21.0969V19.4238H10.8027V21.0969C10.796 21.2086 10.8131 21.3204 10.8527 21.425C10.8924 21.5296 10.9538 21.6245 11.0329 21.7036C11.112 21.7827 11.207 21.8442 11.3116 21.8838C11.4162 21.9235 11.528 21.9406 11.6397 21.9338V32.8084C11.5279 32.8017 11.4161 32.8188 11.3114 32.8585C11.2068 32.8982 11.1117 32.9597 11.0326 33.0389C10.9535 33.1181 10.8921 33.2131 10.8525 33.3178C10.8129 33.4225 10.7959 33.5344 10.8027 33.6461V35.3192H17.4951V33.6461C17.5019 33.5345 17.485 33.4226 17.4454 33.318C17.4058 33.2134 17.3445 33.1184 17.2654 33.0392C17.1864 32.96 17.0915 32.8985 16.9869 32.8587C16.8824 32.819 16.7706 32.8018 16.6589 32.8084V21.9338C16.7705 21.9404 16.8822 21.9233 16.9867 21.8836C17.0912 21.8439 17.1861 21.7824 17.2651 21.7033C17.3441 21.6243 17.4055 21.5293 17.4451 21.4248C17.4848 21.3202 17.5018 21.2085 17.4951 21.0969Z" fill="#005993" stroke="#0085B8" stroke-linecap="round" stroke-linejoin="round"/>
<path id="Path 23" d="M39.2475 21.0969V19.4238H32.5552V21.0969C32.5485 21.2086 32.5655 21.3204 32.6052 21.425C32.6449 21.5296 32.7063 21.6245 32.7854 21.7036C32.8645 21.7827 32.9595 21.8442 33.064 21.8838C33.1686 21.9235 33.2805 21.9406 33.3921 21.9338V32.8084C33.2804 32.8017 33.1685 32.8188 33.0638 32.8585C32.9592 32.8982 32.8642 32.9597 32.7851 33.0389C32.706 33.1181 32.6446 33.2131 32.6049 33.3178C32.5653 33.4225 32.5483 33.5344 32.5552 33.6461V35.3192H39.2475V33.6461C39.2543 33.5345 39.2374 33.4226 39.1978 33.318C39.1582 33.2134 39.0969 33.1184 39.0179 33.0392C38.9388 32.96 38.8439 32.8985 38.7394 32.8587C38.6348 32.819 38.523 32.8018 38.4113 32.8084V21.9338C38.5229 21.9404 38.6347 21.9233 38.7392 21.8836C38.8437 21.8439 38.9386 21.7824 39.0176 21.7033C39.0966 21.6243 39.1579 21.5293 39.1976 21.4248C39.2372 21.3202 39.2542 21.2085 39.2475 21.0969Z" fill="#005993" stroke="#0085B8" stroke-linecap="round" stroke-linejoin="round"/>
</g>
<g id="Group 779">
<g id="Rectangle 440">
<path id="Vector_2" d="M46.5829 36.176C46.5829 31.2904 42.6224 27.3298 37.7368 27.3298C32.8512 27.3298 28.8906 31.2904 28.8906 36.176C28.8906 41.0616 32.8512 45.0221 37.7368 45.0221C42.6224 45.0221 46.5829 41.0616 46.5829 36.176Z" fill="#D71049"/>
<path id="Vector_3" d="M46.1985 36.1759C46.1985 31.5027 42.4101 27.7144 37.7369 27.7144C33.0638 27.7144 29.2754 31.5027 29.2754 36.1759C29.2754 40.8491 33.0638 44.6374 37.7369 44.6374C42.4101 44.6374 46.1985 40.8491 46.1985 36.1759Z" stroke="#0085B8"/>
</g>
<g id="Intersection 1">
<path id="Vector_4" d="M37.7371 44.6372C35.9801 44.6372 34.2992 44.1052 32.8696 43.0979C32.5261 42.3753 32.3521 41.5997 32.3521 40.7911C32.3521 37.8222 34.7678 35.4067 37.7371 35.4067C40.7061 35.4067 43.1215 37.8222 43.1215 40.7911C43.1215 41.6 42.9474 42.3757 42.6038 43.0983C41.1744 44.1054 39.4939 44.6372 37.7371 44.6372Z" fill="white"/>
<path id="Vector_5" d="M37.737 44.2527C39.3797 44.2527 40.9526 43.7655 42.2985 42.8422C42.5894 42.1976 42.7367 41.5085 42.7367 40.7912C42.7367 38.0343 40.4938 35.7914 37.737 35.7914C34.9797 35.7914 32.7365 38.0343 32.7365 40.7912C32.7365 41.5082 32.8838 42.1971 33.1747 42.8418C34.5207 43.7654 36.094 44.2527 37.737 44.2527ZM37.737 45.0219C35.8068 45.0219 34.0207 44.4035 32.5664 43.3543C32.1829 42.5821 31.9673 41.712 31.9673 40.7912C31.9673 37.6052 34.5503 35.0222 37.737 35.0222C40.923 35.0222 43.5059 37.6052 43.5059 40.7912C43.5059 41.7122 43.2903 42.5825 42.9067 43.3547C41.4526 44.4036 39.6669 45.0219 37.737 45.0219Z" fill="#0085B8"/>
</g>
<g id="Ellipse 46">
<path id="Vector_6" d="M37.7369 37.3298C39.6487 37.3298 41.1985 35.78 41.1985 33.8683C41.1985 31.9565 39.6487 30.4067 37.7369 30.4067C35.8252 30.4067 34.2754 31.9565 34.2754 33.8683C34.2754 35.78 35.8252 37.3298 37.7369 37.3298Z" fill="white"/>
<path id="Vector_7" d="M37.7371 36.9451C39.4364 36.9451 40.814 35.5675 40.814 33.8682C40.814 32.1688 39.4364 30.7913 37.7371 30.7913C36.0377 30.7913 34.6602 32.1688 34.6602 33.8682C34.6602 35.5675 36.0377 36.9451 37.7371 36.9451Z" stroke="#0085B8"/>
</g>
</g>
</g>
</g>
</g>
</g>
</svg>
