<svg width="33" height="44" viewBox="0 0 33 44" fill="none" xmlns="http://www.w3.org/2000/svg">
<g id="B - 119, Support, Business, consulting, customer, man, online consultant, service">
<path id="Vector" d="M24.2393 14.3847H25.7162V16.6924L23.147 17.7001C23.9374 15.952 24.4363 14.0863 24.6239 12.177C24.5591 12.9225 24.4304 13.6612 24.2393 14.3847Z" fill="white"/>
<path id="Vector_2" d="M27.1162 10.4155V14.3847H24.2393C24.412 13.6447 24.515 12.8901 24.5469 12.1309V10.654V10.3386H27.1162V10.4155Z" fill="#D71049"/>
<path id="Vector_3" d="M9.06268 14.3847H6.2627V10.4155H8.83192C8.7709 10.7763 8.74514 11.1421 8.755 11.5078C8.75083 12.4752 8.85402 13.4401 9.06268 14.3847Z" fill="#D71049"/>
<path id="Vector_4" d="M24.5472 10.4154V10.7308C24.354 8.78454 23.4422 6.98025 21.9899 5.67022C20.5377 4.3602 18.6492 3.63854 16.6934 3.6462C14.7907 3.65022 12.9522 4.33489 11.5103 5.57642C10.0685 6.81795 9.11837 8.53439 8.83187 10.4154H7.50879C8.05494 5.12312 11.9473 0.923096 16.6934 0.923096C21.4396 0.923096 25.3319 5.04619 25.8703 10.4154H24.5472Z" fill="#005993"/>
<path id="Vector_5" d="M23.1469 17.7309C21.8238 20.6155 19.6469 23.1155 16.6931 23.1155C12.6469 23.1155 10.0008 18.4462 9.13921 14.477C8.93499 13.5577 8.83182 12.6188 8.83152 11.6771C8.816 11.3138 8.84181 10.9499 8.90845 10.5924H8.83152C9.11636 8.70997 10.0657 6.9917 11.5078 5.74861C12.9498 4.50553 14.7892 3.81979 16.6931 3.81549C18.6489 3.80783 20.5373 4.52948 21.9896 5.83951C23.4418 7.14954 24.3536 8.95387 24.5469 10.9001V12.377C24.4035 14.2309 23.9294 16.0441 23.1469 17.7309Z" fill="#F1F1F1"/>
<path id="Vector_6" d="M11.8623 23.9539L16.5315 30.2616L14.0469 32.8308L10.0776 25.5923L11.8623 23.9539Z" fill="#F1F1F1"/>
<path id="Vector_7" d="M22.9933 25.5923L18.8702 32.4385L16.5317 30.2616L21.201 23.9539L22.9933 25.5923Z" fill="#F1F1F1"/>
<path id="Vector_8" d="M22.9932 25.5923C33.7624 31.7461 32.4855 28.8615 32.4855 41.0769C21.9678 43.5308 11.0263 43.5308 0.508574 41.0769C0.508574 28.7692 -0.737582 31.7384 10.0009 25.5923L13.9701 32.8308L16.4547 30.3385L18.7624 32.5154L22.9932 25.5923Z" fill="#005993"/>
<path id="Vector_9" d="M22.9934 35.7846H19.3396C19.2946 35.7917 19.2486 35.789 19.2047 35.7766C19.1609 35.7642 19.1202 35.7424 19.0856 35.7128C19.0509 35.6832 19.0231 35.6465 19.004 35.6051C18.985 35.5637 18.9751 35.5187 18.9751 35.4731C18.9751 35.4275 18.985 35.3825 19.004 35.3411C19.0231 35.2997 19.0509 35.2629 19.0856 35.2333C19.1202 35.2037 19.1609 35.182 19.2047 35.1696C19.2486 35.1572 19.2946 35.1545 19.3396 35.1616H22.9934C23.0745 35.1671 23.1507 35.2024 23.2074 35.2606C23.2642 35.3187 23.2975 35.3958 23.3011 35.477C23.3046 35.5183 23.2991 35.5598 23.2849 35.5987C23.2706 35.6376 23.2481 35.673 23.2188 35.7023C23.1895 35.7316 23.1541 35.7542 23.1152 35.7684C23.0763 35.7826 23.0347 35.7881 22.9934 35.7846Z" fill="#D71049"/>
<path id="Vector_10" d="M22.9932 38.0386H19.3393C19.2581 38.035 19.1811 38.0017 19.1229 37.9449C19.0648 37.8882 19.0295 37.812 19.0239 37.7309C19.0293 37.6491 19.0643 37.5719 19.1223 37.5139C19.1803 37.4559 19.2574 37.4209 19.3393 37.4155H22.9932C23.0737 37.4227 23.1489 37.4585 23.2054 37.5163C23.2618 37.5742 23.2957 37.6503 23.3008 37.7309C23.3044 37.7722 23.2988 37.8138 23.2846 37.8527C23.2704 37.8917 23.2478 37.927 23.2185 37.9563C23.1892 37.9856 23.1538 38.0081 23.1149 38.0224C23.076 38.0366 23.0345 38.0421 22.9932 38.0386Z" fill="white"/>
<path id="Vector_11" d="M14.3549 11.9C14.0677 11.9138 13.78 11.8853 13.5011 11.8154C12.8834 11.7363 12.2956 11.5023 11.7926 11.1352C11.2896 10.768 10.8877 10.2796 10.6241 9.71537C10.5878 9.63308 10.5834 9.54019 10.6118 9.45484C10.6403 9.36949 10.6995 9.2978 10.778 9.2538C10.8616 9.21869 10.9551 9.21493 11.0413 9.24319C11.1275 9.27145 11.2006 9.32984 11.2472 9.40765C11.4875 9.86042 11.8303 10.2507 12.2484 10.5472C12.6665 10.8437 13.1482 11.0383 13.6549 11.1153C14.2111 11.2228 14.7838 11.2098 15.3345 11.0771C15.8852 10.9444 16.401 10.6951 16.8472 10.3461C18.3857 8.86917 18.7934 8.71534 19.1011 8.86918C19.4088 9.02303 19.3395 9.41533 19.2626 9.72302C19.2626 9.88456 19.178 10.1154 19.178 10.1923C19.3373 10.1895 19.4954 10.1635 19.6472 10.1153C20.578 9.72303 21.9011 9.41535 22.7626 9.79997C23.0895 9.99645 23.3372 10.3013 23.4626 10.6615C23.5395 10.8154 23.3857 11.0461 23.2241 11.123C23.0626 11.1999 22.8395 11.0461 22.7626 10.8923C22.7001 10.7323 22.5901 10.5953 22.4472 10.4999C21.5813 10.2836 20.6659 10.396 19.878 10.8154C19.6991 10.9103 19.4997 10.96 19.2972 10.96C19.0947 10.96 18.8953 10.9103 18.7165 10.8154C18.4011 10.5846 18.478 10.1923 18.478 9.79997C18.2472 9.96151 17.8549 10.3461 17.2395 10.8923C16.4331 11.5687 15.4072 11.9271 14.3549 11.9Z" fill="#005993"/>
<path id="Vector_12" d="M18.6392 14.5386C18.4777 14.5386 18.4008 14.4617 18.3239 14.3079C18.2904 14.224 18.2874 14.1311 18.3155 14.0453C18.3437 13.9595 18.4011 13.8864 18.4777 13.8387C18.6393 13.7617 20.27 13.0694 21.1239 13.9233C21.2854 14.0771 21.2854 14.3079 21.1239 14.3848C20.9623 14.4617 20.7392 14.5386 20.6623 14.3848C20.1931 13.9232 19.1239 14.3079 18.7931 14.4617C18.7931 14.5387 18.7162 14.5386 18.6392 14.5386Z" fill="#005993"/>
<path id="Vector_13" d="M14.647 14.5384H14.4855C14.1778 14.3846 13.0086 14.0769 12.624 14.4615C12.4624 14.6231 12.2317 14.6231 12.1547 14.4615C12.0778 14.3 12.0009 14.0769 12.1547 14C13.0086 13.1384 14.6471 13.8384 14.8009 13.9231C14.8781 13.9683 14.9363 14.04 14.9646 14.1249C14.9929 14.2098 14.9894 14.3021 14.9547 14.3846C14.9778 14.4615 14.824 14.5384 14.647 14.5384Z" fill="#005993"/>
<path id="Vector_14" d="M17.624 20.1462C17.4702 20.1462 17.3164 20.0693 17.3164 19.9077C17.2984 19.8625 17.2902 19.8139 17.2923 19.7652C17.2944 19.7166 17.3068 19.6689 17.3285 19.6253C17.3503 19.5818 17.381 19.5433 17.4187 19.5124C17.4564 19.4815 17.5001 19.459 17.5471 19.4462L25.4856 16.4077V14.3077C25.491 14.2279 25.5251 14.1527 25.5817 14.0962C25.6383 14.0396 25.7134 14.0054 25.7933 14C25.8739 14.0052 25.9501 14.0391 26.0079 14.0955C26.0657 14.1519 26.1015 14.2272 26.1087 14.3077V16.6154C26.1087 16.7692 26.0317 16.9231 25.8702 16.9231L17.7779 20C17.7653 20.0346 17.7448 20.0658 17.7181 20.0912C17.6914 20.1165 17.6592 20.1354 17.624 20.1462Z" fill="#005993"/>
</g>
</svg>
