<svg width="44" height="42" viewBox="0 0 44 42" fill="none" xmlns="http://www.w3.org/2000/svg">
<g id="Frame 1">
<path id="Vector" d="M42.6861 15.0668V38.7272C42.6823 39.1633 42.5073 39.5804 42.1989 39.8888C41.8906 40.1972 41.4734 40.3722 41.0373 40.376H22.146C21.6948 40.3584 21.2669 40.1709 20.9482 39.8511C21.1321 39.7386 21.2867 39.584 21.3992 39.4L21.4731 39.3261C21.5471 39.2521 21.5471 39.2522 21.5471 39.1782V39.1043V38.9934C21.5471 38.9194 21.621 38.9194 21.621 38.8455V38.6237C21.6314 38.5172 21.6053 38.4103 21.5471 38.3205C21.3939 37.9561 21.1367 37.6449 20.8077 37.4259C21.1034 37.2041 21.4066 36.9748 21.4805 36.753V36.4573V36.3759V36.302C21.4493 36.0513 21.3585 35.8118 21.2157 35.6034C21.0729 35.395 20.8823 35.2238 20.6598 35.1042C20.9888 34.8851 21.246 34.5739 21.3992 34.2095V34.1356V34.0617V33.9877C21.3696 33.7356 21.2786 33.4945 21.1343 33.2857C20.9899 33.0769 20.7965 32.9067 20.5711 32.7899L20.6524 32.716C20.7264 32.716 20.7263 32.642 20.8003 32.642L20.8742 32.5607L20.9482 32.4868L21.0221 32.4128L21.096 32.3389C21.096 32.3193 21.1038 32.3005 21.1177 32.2866C21.1316 32.2727 21.1504 32.2649 21.17 32.2649C21.1699 32.2546 21.1721 32.2443 21.1762 32.2348C21.1804 32.2253 21.1865 32.2168 21.1942 32.2099C21.2019 32.2029 21.2109 32.1976 21.2207 32.1944C21.2306 32.1911 21.241 32.19 21.2513 32.191V32.1171V31.8139V31.74V31.666V31.5995C21.2513 31.1485 20.9482 30.7788 20.4232 30.4017C20.8002 30.181 21.0919 29.8398 21.2513 29.4331V29.3813V29.2335V28.9377C21.2513 28.8638 21.17 28.8638 21.17 28.7898V28.5606C21.17 28.4867 21.0961 28.4867 21.0221 28.4127L20.9482 28.3388C20.9482 28.3192 20.9404 28.3004 20.9265 28.2865C20.9126 28.2727 20.8938 28.2649 20.8742 28.2649C20.8003 28.1909 20.8003 28.1909 20.7264 28.117C20.541 27.9486 20.3405 27.7976 20.1274 27.666V15.0964C20.1313 14.6622 20.3055 14.247 20.6125 13.94C20.9195 13.633 21.3347 13.4588 21.7689 13.455H40.6972C41.9394 13.4254 42.6861 14.1722 42.6861 15.0668ZM40.3645 20.9006V15.5178H22.8854V20.9006H40.3645ZM40.0687 37.5811V30.4017H37.1481V37.5811H40.0687ZM40.0687 29.1299V26.2168H37.1481V29.1299H40.0687ZM40.0687 24.5679V23.2222H37.1481V24.5679H40.0687ZM35.4549 37.5811V34.6679H32.4974V37.5811H35.4549ZM35.4549 33.3962V30.4387H32.4974V33.3962H35.4549ZM35.4549 29.1299V26.2168H32.4974V29.1299H35.4549ZM35.4549 24.5679V23.2222H32.4974V24.5679H35.4549ZM30.8116 37.5811V34.6679H27.8984V37.5811H30.8116ZM30.8116 33.3962V30.4387H27.8984V33.3962H30.8116ZM30.8116 29.1299V26.2168H27.8984V29.1299H30.8116ZM30.8116 24.5679V23.2222H27.8984V24.5679H30.8116ZM26.1017 37.5811V34.6679H23.1885V37.5811H26.1017ZM26.1017 33.3962V30.4387H23.1885V33.3962H26.1017ZM26.1017 29.1299V26.2168H23.1885V29.1299H26.1017ZM26.1017 24.5679V23.2222H23.1885V24.5679H26.1017Z" fill="#005993"/>
<path id="Vector_2" d="M40.2901 15.5178H22.8628V20.9006H40.2901V15.5178Z" fill="white"/>
<path id="Vector_3" d="M40.0685 33.3964V37.5813H37.1479V33.3964V32.4204V30.4019H40.0685V32.4204V33.3964Z" fill="#D71049"/>
<path id="Vector_4" d="M40.0685 26.2168H37.1479V29.13H40.0685V26.2168Z" fill="white"/>
<path id="Vector_5" d="M40.0685 23.2224H37.1479V24.5681H40.0685V23.2224Z" fill="white"/>
<path id="Vector_6" d="M35.4328 34.668H32.5122V37.5886H35.4328V34.668Z" fill="white"/>
<path id="Vector_7" d="M35.4328 30.4019H32.5122V33.3224H35.4328V30.4019Z" fill="white"/>
<path id="Vector_8" d="M35.4328 26.2168H32.5122V29.13H35.4328V26.2168Z" fill="white"/>
<path id="Vector_9" d="M35.4328 23.2224H32.5122V24.5681H35.4328V23.2224Z" fill="white"/>
<path id="Vector_10" d="M33.9314 5.86899V13.4255H22.1456C21.7107 13.4294 21.2947 13.6033 20.9865 13.9101C20.6783 14.2169 20.5025 14.6321 20.4967 15.067V27.7105C19.7646 27.3546 18.9853 27.1056 18.1825 26.9711H18.0346C17.9286 26.9752 17.8236 26.9495 17.7314 26.8972C17.6272 26.9082 17.5224 26.882 17.4357 26.8232H17.2804C17.128 26.8358 16.9749 26.8077 16.8368 26.7419H13.9901C13.6138 26.7572 13.2399 26.8092 12.8737 26.8972C12.6314 26.827 12.3843 26.7751 12.1343 26.7419V2.28297C12.1343 1.89078 12.2901 1.51464 12.5674 1.23732C12.8447 0.959997 13.2209 0.804199 13.6131 0.804199H28.8001V4.39762C28.8001 4.78981 28.9559 5.16594 29.2332 5.44326C29.5105 5.72058 29.8866 5.87639 30.2788 5.87639L33.9314 5.86899ZM19.2768 9.56593C19.2807 9.25023 19.2215 8.93693 19.1025 8.64449C18.9835 8.35205 18.8072 8.08637 18.5839 7.86312C18.3607 7.63987 18.095 7.46357 17.8026 7.34458C17.5101 7.2256 17.1968 7.16635 16.8812 7.17032C16.247 7.1742 15.6399 7.42783 15.1915 7.87625C14.743 8.32468 14.4894 8.93177 14.4855 9.56593C14.4816 9.88162 14.5408 10.1949 14.6598 10.4874C14.7788 10.7798 14.9551 11.0455 15.1783 11.2687C15.4016 11.492 15.6673 11.6683 15.9597 11.7873C16.2522 11.9063 16.5655 11.9655 16.8812 11.9615C17.1977 11.9596 17.5107 11.8953 17.8025 11.7724C18.0942 11.6495 18.3588 11.4703 18.5812 11.2451C18.8037 11.0199 18.9796 10.7531 19.0989 10.4599C19.2183 10.1667 19.2787 9.85289 19.2768 9.53636V9.56593Z" fill="white"/>
<path id="Vector_11" d="M33.9315 5.86882H30.3455C29.9533 5.86882 29.5771 5.71303 29.2998 5.4357C29.0225 5.15838 28.8667 4.78225 28.8667 4.39005V0.796631L33.9315 5.86882Z" fill="white"/>
<path id="Vector_12" d="M30.7228 34.668H27.8022V37.5886H30.7228V34.668Z" fill="white"/>
<path id="Vector_13" d="M30.7228 30.4019H27.8022V33.3224H30.7228V30.4019Z" fill="white"/>
<path id="Vector_14" d="M30.7228 26.2168H27.8022V29.13H30.7228V26.2168Z" fill="white"/>
<path id="Vector_15" d="M30.7228 23.2224H27.8022V24.5681H30.7228V23.2224Z" fill="white"/>
<path id="Vector_16" d="M26.0866 34.668H23.166V37.5886H26.0866V34.668Z" fill="white"/>
<path id="Vector_17" d="M26.0866 30.4019H23.166V33.3224H26.0866V30.4019Z" fill="white"/>
<path id="Vector_18" d="M26.0866 26.2168H23.166V29.13H26.0866V26.2168Z" fill="white"/>
<path id="Vector_19" d="M26.0866 23.2224H23.166V24.5681H26.0866V23.2224Z" fill="white"/>
<path id="Vector_20" d="M16.8811 7.14057C17.355 7.14057 17.8181 7.28107 18.2121 7.5443C18.606 7.80753 18.9131 8.18168 19.0944 8.61942C19.2757 9.05716 19.3232 9.53884 19.2307 10.0035C19.1383 10.4683 18.9101 10.8951 18.5751 11.2301C18.2401 11.5652 17.8132 11.7933 17.3485 11.8858C16.8838 11.9782 16.4021 11.9308 15.9644 11.7494C15.5266 11.5681 15.1525 11.2611 14.8893 10.8671C14.626 10.4732 14.4855 10.01 14.4855 9.53619C14.4816 9.22049 14.5408 8.90718 14.6598 8.61474C14.7788 8.3223 14.9551 8.05663 15.1783 7.83338C15.4016 7.61013 15.6673 7.43382 15.9597 7.31483C16.2522 7.19585 16.5654 7.1366 16.8811 7.14057Z" fill="white"/>
<path id="Vector_21" d="M40.3642 21.2038H22.8851C22.8072 21.1984 22.734 21.1646 22.6794 21.1086C22.6249 21.0527 22.5928 20.9787 22.5894 20.9007V15.5179C22.5945 15.4412 22.6274 15.3689 22.6818 15.3146C22.7361 15.2602 22.8084 15.2274 22.8851 15.2222H40.3125C40.39 15.2272 40.4631 15.2597 40.5187 15.314C40.5743 15.3682 40.6087 15.4405 40.6156 15.5179V20.9007C40.6674 21.0559 40.5121 21.2038 40.3642 21.2038ZM23.24 20.5088H39.9945V15.7989H23.24V20.5088Z" fill="#0085B8"/>
<path id="Vector_22" d="M26.0791 29.507H23.1659C23.0873 29.5018 23.0131 29.4682 22.9574 29.4124C22.9016 29.3567 22.868 29.2826 22.8628 29.2039V26.2907C22.868 26.212 22.9016 26.1379 22.9574 26.0821C23.0131 26.0264 23.0873 25.9928 23.1659 25.9875H26.0791C26.1573 25.9942 26.2306 26.0283 26.286 26.0838C26.3415 26.1393 26.3756 26.2125 26.3823 26.2907V29.2039C26.4562 29.3813 26.3009 29.507 26.0791 29.507ZM23.4617 28.8342H25.6799V26.616H23.4617V28.8342Z" fill="#0085B8"/>
<path id="Vector_23" d="M30.7891 29.507H27.8759C27.7977 29.5003 27.7245 29.4663 27.669 29.4108C27.6135 29.3553 27.5794 29.282 27.5728 29.2039V26.2907C27.5794 26.2125 27.6135 26.1393 27.669 26.0838C27.7245 26.0283 27.7977 25.9942 27.8759 25.9875H30.7891C30.8678 25.9928 30.9419 26.0264 30.9977 26.0821C31.0534 26.1379 31.087 26.212 31.0922 26.2907V29.2039C31.087 29.2826 31.0534 29.3567 30.9977 29.4124C30.9419 29.4682 30.8678 29.5018 30.7891 29.507ZM28.1717 28.8342H30.3898V26.616H28.1717V28.8342Z" fill="#0085B8"/>
<path id="Vector_24" d="M35.4545 29.507H32.4969C32.4196 29.5001 32.3472 29.4658 32.293 29.4102C32.2387 29.3546 32.2062 29.2814 32.2012 29.2039V26.2907C32.2062 26.2132 32.2387 26.14 32.293 26.0844C32.3472 26.0288 32.4196 25.9945 32.4969 25.9875H35.4545C35.5318 25.9945 35.6042 26.0288 35.6584 26.0844C35.7127 26.14 35.7452 26.2132 35.7502 26.2907V29.2039C35.802 29.3813 35.6541 29.507 35.4545 29.507ZM32.8297 28.8342H35.0478V26.616H32.8297V28.8342Z" fill="#0085B8"/>
<path id="Vector_25" d="M40.0684 29.507H37.1478C37.0704 29.5001 36.9981 29.4658 36.9438 29.4102C36.8896 29.3546 36.857 29.2814 36.8521 29.2039V26.2907C36.857 26.2132 36.8896 26.14 36.9438 26.0844C36.9981 26.0288 37.0704 25.9945 37.1478 25.9875H40.0684C40.1457 25.9945 40.2181 26.0288 40.2723 26.0844C40.3266 26.14 40.3592 26.2132 40.3641 26.2907V29.2039C40.4381 29.3813 40.2902 29.507 40.0684 29.507ZM37.451 28.8342H39.6691V26.616H37.451V28.8342Z" fill="#0085B8"/>
<path id="Vector_26" d="M26.0791 33.6921H23.1659C23.0879 33.6887 23.0139 33.6566 22.9579 33.6021C22.902 33.5475 22.8682 33.4743 22.8628 33.3964V30.4388C22.8682 30.3609 22.902 30.2877 22.9579 30.2331C23.0139 30.1786 23.0879 30.1465 23.1659 30.1431H26.0791C26.1566 30.1481 26.2298 30.1806 26.2854 30.2349C26.341 30.2891 26.3754 30.3614 26.3823 30.4388V33.3964C26.4562 33.5442 26.3009 33.6921 26.0791 33.6921ZM23.4617 33.0193H25.6799V30.8011H23.4617V33.0193Z" fill="#0085B8"/>
<path id="Vector_27" d="M30.7891 33.6921H27.8759C27.7984 33.6871 27.7252 33.6546 27.6696 33.6003C27.614 33.5461 27.5797 33.4737 27.5728 33.3964V30.4388C27.5797 30.3614 27.614 30.2891 27.6696 30.2349C27.7252 30.1806 27.7984 30.1481 27.8759 30.1431H30.7891C30.8671 30.1465 30.9412 30.1786 30.9971 30.2331C31.053 30.2877 31.0869 30.3609 31.0922 30.4388V33.3964C31.0869 33.4743 31.053 33.5475 30.9971 33.6021C30.9412 33.6566 30.8671 33.6887 30.7891 33.6921ZM28.1717 33.0193H30.3898V30.8011H28.1717V33.0193Z" fill="#0085B8"/>
<path id="Vector_28" d="M35.4545 33.6921H32.4969C32.4202 33.6869 32.348 33.6541 32.2936 33.5997C32.2392 33.5453 32.2064 33.4731 32.2012 33.3964V30.4388C32.2064 30.3621 32.2392 30.2898 32.2936 30.2355C32.348 30.1811 32.4202 30.1483 32.4969 30.1431H35.4545C35.5312 30.1483 35.6034 30.1811 35.6578 30.2355C35.7122 30.2898 35.745 30.3621 35.7502 30.4388V33.3964C35.802 33.5442 35.6541 33.6921 35.4545 33.6921ZM32.8297 33.0193H35.0478V30.8011H32.8297V33.0193Z" fill="#0085B8"/>
<path id="Vector_29" d="M40.0684 37.9583H37.1478C37.0699 37.9529 36.9966 37.919 36.9421 37.8631C36.8875 37.8072 36.8555 37.7332 36.8521 37.6551V30.4757C36.8572 30.399 36.89 30.3267 36.9444 30.2723C36.9988 30.218 37.0711 30.1851 37.1478 30.1799H40.0684C40.1451 30.1851 40.2174 30.218 40.2717 30.2723C40.3261 30.3267 40.359 30.399 40.3641 30.4757V37.6551C40.4381 37.8104 40.2902 37.9583 40.0684 37.9583ZM37.451 37.2854H39.6691V30.7788H37.451V37.2854Z" fill="#0085B8"/>
<path id="Vector_30" d="M26.0791 37.9582H23.1659C23.0867 37.9546 23.0117 37.9215 22.9556 37.8654C22.8995 37.8093 22.8664 37.7343 22.8628 37.6551V34.7419C22.868 34.6632 22.9016 34.5891 22.9574 34.5333C23.0131 34.4775 23.0873 34.4439 23.1659 34.4387H26.0791C26.1573 34.4454 26.2306 34.4795 26.286 34.535C26.3415 34.5904 26.3756 34.6637 26.3823 34.7419V37.6551C26.4562 37.8103 26.3009 37.9582 26.0791 37.9582ZM23.4617 37.2854H25.6799V35.0672H23.4617V37.2854Z" fill="#0085B8"/>
<path id="Vector_31" d="M30.7891 37.9582H27.8759C27.7972 37.953 27.7231 37.9194 27.6673 37.8636C27.6116 37.8079 27.578 37.7337 27.5728 37.6551V34.7419C27.5794 34.6637 27.6135 34.5904 27.669 34.535C27.7245 34.4795 27.7977 34.4454 27.8759 34.4387H30.7891C30.8678 34.4439 30.9419 34.4775 30.9977 34.5333C31.0534 34.5891 31.087 34.6632 31.0922 34.7419V37.6551C31.0886 37.7343 31.0555 37.8093 30.9994 37.8654C30.9433 37.9215 30.8683 37.9546 30.7891 37.9582ZM28.1717 37.2854H30.3898V35.0672H28.1717V37.2854Z" fill="#0085B8"/>
<path id="Vector_32" d="M35.4545 37.9582H32.4969C32.419 37.9528 32.3458 37.919 32.2912 37.863C32.2367 37.8071 32.2046 37.7331 32.2012 37.6551V34.7419C32.2062 34.6644 32.2387 34.5912 32.293 34.5356C32.3472 34.48 32.4196 34.4456 32.4969 34.4387H35.4545C35.5318 34.4456 35.6042 34.48 35.6584 34.5356C35.7127 34.5912 35.7452 34.6644 35.7502 34.7419V37.6551C35.802 37.8103 35.6541 37.9582 35.4545 37.9582ZM32.8297 37.2854H35.0478V35.0672H32.8297V37.2854Z" fill="#0085B8"/>
<path id="Vector_33" d="M26.0791 24.9451H23.1659C23.0873 24.9399 23.0131 24.9063 22.9574 24.8505C22.9016 24.7947 22.868 24.7206 22.8628 24.6419V23.2962C22.8682 23.2183 22.902 23.1451 22.9579 23.0905C23.0139 23.036 23.0879 23.0039 23.1659 23.0005H26.0791C26.1566 23.0055 26.2298 23.038 26.2854 23.0923C26.341 23.1465 26.3754 23.2189 26.3823 23.2962V24.6419C26.4562 24.7898 26.3009 24.9451 26.0791 24.9451ZM23.4617 24.2722H25.6799V23.5328H23.4617V24.2722Z" fill="#0085B8"/>
<path id="Vector_34" d="M30.7891 24.9451H27.8759C27.7977 24.9384 27.7245 24.9043 27.669 24.8488C27.6135 24.7934 27.5794 24.7201 27.5728 24.6419V23.2962C27.5797 23.2189 27.614 23.1465 27.6696 23.0923C27.7252 23.038 27.7984 23.0055 27.8759 23.0005H30.7891C30.8671 23.0039 30.9412 23.036 30.9971 23.0905C31.053 23.1451 31.0869 23.2183 31.0922 23.2962V24.6419C31.087 24.7206 31.0534 24.7947 30.9977 24.8505C30.9419 24.9063 30.8678 24.9399 30.7891 24.9451ZM28.1717 24.2722H30.3898V23.5328H28.1717V24.2722Z" fill="#0085B8"/>
<path id="Vector_35" d="M35.4545 24.9451H32.4969C32.4196 24.9382 32.3472 24.9038 32.293 24.8482C32.2387 24.7926 32.2062 24.7194 32.2012 24.6419V23.2962C32.2064 23.2195 32.2392 23.1473 32.2936 23.0929C32.348 23.0385 32.4202 23.0057 32.4969 23.0005H35.4545C35.5312 23.0057 35.6034 23.0385 35.6578 23.0929C35.7122 23.1473 35.745 23.2195 35.7502 23.2962V24.6419C35.802 24.7898 35.6541 24.9451 35.4545 24.9451ZM32.8297 24.2722H35.0478V23.5328H32.8297V24.2722Z" fill="#0085B8"/>
<path id="Vector_36" d="M40.0684 24.9451H37.1478C37.0704 24.9382 36.9981 24.9038 36.9438 24.8482C36.8896 24.7926 36.857 24.7194 36.8521 24.6419V23.2962C36.8572 23.2195 36.89 23.1473 36.9444 23.0929C36.9988 23.0385 37.0711 23.0057 37.1478 23.0005H40.0684C40.1451 23.0057 40.2174 23.0385 40.2717 23.0929C40.3261 23.1473 40.359 23.2195 40.3641 23.2962V24.6419C40.4381 24.7898 40.2902 24.9451 40.0684 24.9451ZM37.451 24.2722H39.6691V23.5328H37.451V24.2722Z" fill="#0085B8"/>
<path id="Vector_37" d="M38.7968 19.1853C38.7186 19.1786 38.6454 19.1445 38.5899 19.089C38.5344 19.0336 38.5003 18.9603 38.4937 18.8821V17.3146C38.5003 17.2365 38.5344 17.1632 38.5899 17.1077C38.6454 17.0522 38.7186 17.0182 38.7968 17.0115C38.8742 17.0184 38.9465 17.0527 39.0008 17.1083C39.055 17.1639 39.0876 17.2371 39.0926 17.3146V18.8821C39.0876 18.9596 39.055 19.0328 39.0008 19.0884C38.9465 19.144 38.8742 19.1784 38.7968 19.1853Z" fill="#0085B8"/>
<path id="Vector_38" d="M36.9335 19.1853C36.8554 19.1786 36.7821 19.1445 36.7266 19.089C36.6711 19.0336 36.6371 18.9603 36.6304 18.8821V17.3146C36.6371 17.2365 36.6711 17.1632 36.7266 17.1077C36.7821 17.0522 36.8554 17.0182 36.9335 17.0115C37.0109 17.0184 37.0832 17.0527 37.1375 17.1083C37.1917 17.1639 37.2243 17.2371 37.2293 17.3146V18.8821C37.2243 18.9596 37.1917 19.0328 37.1375 19.0884C37.0832 19.144 37.0109 19.1784 36.9335 19.1853Z" fill="#0085B8"/>
<path id="Vector_39" d="M35.0555 19.1852C34.9781 19.1783 34.9058 19.144 34.8516 19.0884C34.7973 19.0328 34.7648 18.9596 34.7598 18.8821V17.3145C34.7598 17.2361 34.7909 17.1609 34.8464 17.1054C34.9019 17.05 34.9771 17.0188 35.0555 17.0188C35.134 17.0188 35.2092 17.05 35.2646 17.1054C35.3201 17.1609 35.3513 17.2361 35.3513 17.3145V18.8821C35.3463 18.9596 35.3137 19.0328 35.2595 19.0884C35.2052 19.144 35.1329 19.1783 35.0555 19.1852Z" fill="#0085B8"/>
<path id="Vector_40" d="M33.1849 19.1853C33.1075 19.1784 33.0352 19.144 32.981 19.0884C32.9267 19.0328 32.8941 18.9596 32.8892 18.8821V17.3146C32.8941 17.2371 32.9267 17.1639 32.981 17.1083C33.0352 17.0527 33.1075 17.0184 33.1849 17.0115C33.2631 17.0182 33.3364 17.0522 33.3918 17.1077C33.4473 17.1632 33.4814 17.2365 33.4881 17.3146V18.8821C33.4814 18.9603 33.4473 19.0336 33.3918 19.089C33.3364 19.1445 33.2631 19.1786 33.1849 19.1853Z" fill="#0085B8"/>
<path id="Vector_41" d="M31.3143 19.1853C31.2369 19.1784 31.1646 19.144 31.1103 19.0884C31.0561 19.0328 31.0235 18.9596 31.0186 18.8821V17.3146C31.0235 17.2371 31.0561 17.1639 31.1103 17.1083C31.1646 17.0527 31.2369 17.0184 31.3143 17.0115C31.3925 17.0182 31.4658 17.0522 31.5212 17.1077C31.5767 17.1632 31.6108 17.2365 31.6175 17.3146V18.8821C31.6108 18.9603 31.5767 19.0336 31.5212 19.089C31.4658 19.1445 31.3925 19.1786 31.3143 19.1853Z" fill="#0085B8"/>
<path id="Vector_42" d="M41.0372 40.6497H22.1459C21.6121 40.6456 21.1017 40.4303 20.7263 40.0508C20.6523 39.9768 20.6523 39.9029 20.6523 39.755C20.6523 39.6071 20.7263 39.5258 20.8002 39.5258C20.9481 39.3779 21.096 39.304 21.1699 39.1561C21.2189 39.0865 21.2936 39.0392 21.3775 39.0247C21.4614 39.0101 21.5476 39.0295 21.6172 39.0785C21.6869 39.1275 21.7341 39.2022 21.7487 39.2861C21.7633 39.37 21.7439 39.4562 21.6949 39.5258L21.6209 39.5998C21.547 39.6737 21.4731 39.755 21.4731 39.829C21.6855 39.9217 21.9141 39.972 22.1459 39.9768H41.0668C41.2341 39.9778 41.3999 39.9456 41.5546 39.882C41.7094 39.8185 41.85 39.7248 41.9682 39.6065C42.0865 39.4883 42.1802 39.3477 42.2437 39.1929C42.3073 39.0382 42.3395 38.8724 42.3386 38.7051V15.0447C42.3292 14.7104 42.1923 14.3923 41.9557 14.1558C41.7192 13.9193 41.4011 13.7823 41.0668 13.773H33.9613C33.8846 13.7678 33.8123 13.735 33.7579 13.6806C33.7036 13.6262 33.6707 13.554 33.6655 13.4772C33.6705 13.3997 33.7031 13.3265 33.7573 13.2709C33.8116 13.2153 33.8839 13.181 33.9613 13.1741H41.0668C41.5796 13.1836 42.0687 13.3915 42.4314 13.7541C42.794 14.1168 43.0019 14.6059 43.0114 15.1187V38.779C43.0057 39.0318 42.9499 39.281 42.8474 39.5121C42.7449 39.7432 42.5976 39.9518 42.4141 40.1257C42.2305 40.2996 42.0144 40.4354 41.7781 40.5254C41.5417 40.6153 41.2899 40.6576 41.0372 40.6497Z" fill="#0085B8"/>
<path id="Vector_43" d="M42.6119 39.23H23.7649C23.7216 39.2369 23.6774 39.2342 23.6353 39.2223C23.5931 39.2104 23.554 39.1895 23.5207 39.161C23.4874 39.1326 23.4607 39.0972 23.4424 39.0575C23.424 39.0177 23.4146 38.9744 23.4146 38.9306C23.4146 38.8868 23.424 38.8435 23.4424 38.8037C23.4607 38.7639 23.4874 38.7286 23.5207 38.7001C23.554 38.6717 23.5931 38.6508 23.6353 38.6389C23.6774 38.627 23.7216 38.6243 23.7649 38.6311H42.6119C42.6832 38.6424 42.7482 38.6787 42.7951 38.7336C42.842 38.7885 42.8678 38.8584 42.8678 38.9306C42.8678 39.0028 42.842 39.0727 42.7951 39.1276C42.7482 39.1825 42.6832 39.2188 42.6119 39.23Z" fill="#0085B8"/>
<path id="Vector_44" d="M12.1717 27.9026C12.1304 27.9081 12.0884 27.9043 12.0487 27.8915C12.0091 27.8787 11.9728 27.8572 11.9425 27.8287C11.8685 27.7548 11.7946 27.6808 11.7946 27.6069V2.85222C11.7916 2.60573 11.8379 2.36115 11.9309 2.13284C12.0239 1.90454 12.1615 1.69713 12.3358 1.52283C12.5101 1.34853 12.7175 1.21085 12.9458 1.11789C13.1741 1.02494 13.4187 0.978593 13.6652 0.981569H28.8448C28.9229 0.985017 28.9969 1.01706 29.0528 1.07161C29.1087 1.12616 29.1426 1.19939 29.148 1.27732C29.148 1.4252 29.0001 1.6544 28.8448 1.6544H13.6652C13.5074 1.65242 13.3507 1.68204 13.2045 1.74153C13.0583 1.80103 12.9254 1.88918 12.8138 2.00081C12.7022 2.11243 12.614 2.24527 12.5545 2.39149C12.495 2.53771 12.4654 2.69437 12.4674 2.85222V27.1559C12.6153 27.1559 12.6892 27.0819 12.8445 27.0819C13.2142 27.008 13.5839 27.008 14.0349 26.934H14.1902C14.3381 26.934 14.5599 27.0819 14.5599 27.2298C14.5599 27.3777 14.412 27.6069 14.2641 27.6069H14.1902C13.8117 27.6197 13.4353 27.6692 13.0663 27.7548C12.7626 27.7612 12.4613 27.8109 12.1717 27.9026Z" fill="#0085B8"/>
<path id="Vector_45" d="M20.5412 28.3668C20.4673 28.3668 20.4673 28.3668 20.3934 28.2929C19.6802 27.9738 18.9372 27.7261 18.1752 27.5535C18.0273 27.5535 17.8721 27.3317 17.8721 27.1838C17.8721 27.0359 18.1013 26.8807 18.2492 26.8807C18.9106 27.0022 19.561 27.1778 20.1937 27.4056V15.4276C20.2014 14.9122 20.4095 14.4202 20.7739 14.0557C21.1383 13.6913 21.6304 13.4832 22.1457 13.4756H33.5914V6.22959C33.5966 6.15286 33.6294 6.08061 33.6838 6.02623C33.7382 5.97185 33.8105 5.93903 33.8872 5.93384C33.9647 5.93883 34.0379 5.97139 34.0935 6.02563C34.1491 6.07987 34.1834 6.15222 34.1903 6.22959V13.7861C34.1834 13.8635 34.1491 13.9358 34.0935 13.9901C34.0379 14.0443 33.9647 14.0769 33.8872 14.0819H22.1457C21.8114 14.0912 21.4933 14.2282 21.2568 14.4647C21.0203 14.7012 20.8833 15.0193 20.874 15.3536V27.9971C20.8729 28.0543 20.859 28.1106 20.8335 28.1617C20.8079 28.2129 20.7712 28.2577 20.7261 28.2929C20.6226 28.3668 20.6226 28.3668 20.5412 28.3668Z" fill="#0085B8"/>
<path id="Vector_46" d="M33.9313 6.17208H30.3453C30.0991 6.17405 29.855 6.12701 29.6271 6.0337C29.3993 5.94039 29.1923 5.80268 29.0182 5.62858C28.8441 5.45448 28.7064 5.24747 28.6131 5.01962C28.5197 4.79178 28.4727 4.54764 28.4747 4.30144V0.708017C28.4747 0.56014 28.5486 0.486206 28.6965 0.412267C28.7595 0.38514 28.8292 0.377681 28.8965 0.390876C28.9638 0.404071 29.0255 0.437297 29.0736 0.486199L34.1606 5.57318C34.2097 5.6195 34.2433 5.67998 34.2565 5.74623C34.2698 5.81248 34.2621 5.88121 34.2345 5.94288C34.2345 6.09075 34.0792 6.17208 33.9313 6.17208ZM29.1475 1.52874V4.30144C29.1455 4.45929 29.1751 4.61593 29.2346 4.76216C29.2941 4.90838 29.3823 5.04121 29.4939 5.15283C29.6055 5.26446 29.7384 5.35262 29.8846 5.41211C30.0308 5.4716 30.1875 5.50123 30.3453 5.49924H33.1106L29.1475 1.52874Z" fill="#0085B8"/>
<path id="Vector_47" d="M20.667 3.85037H14.4561C14.3848 3.83912 14.3198 3.80278 14.2729 3.74788C14.226 3.69298 14.2002 3.62314 14.2002 3.55092C14.2002 3.4787 14.226 3.40885 14.2729 3.35395C14.3198 3.29905 14.3848 3.26271 14.4561 3.25146H20.667C20.7383 3.26271 20.8033 3.29905 20.8502 3.35395C20.8972 3.40885 20.9229 3.4787 20.9229 3.55092C20.9229 3.62314 20.8972 3.69298 20.8502 3.74788C20.8033 3.80278 20.7383 3.83912 20.667 3.85037Z" fill="#0085B8"/>
<path id="Vector_48" d="M24.8078 5.41799H14.4564C14.3797 5.4128 14.3074 5.37998 14.253 5.3256C14.1986 5.27122 14.1658 5.19897 14.1606 5.12224C14.1656 5.04473 14.1982 4.97155 14.2524 4.91595C14.3067 4.86035 14.379 4.82599 14.4564 4.81909H24.8818C24.9599 4.82578 25.0332 4.85986 25.0886 4.91533C25.1441 4.9708 25.1782 5.04409 25.1849 5.12224C25.172 5.21052 25.1257 5.29046 25.0555 5.34552C24.9853 5.40057 24.8966 5.42652 24.8078 5.41799Z" fill="#0085B8"/>
<path id="Vector_49" d="M16.8812 12.2278C16.3321 12.2292 15.795 12.0677 15.3379 11.7636C14.8808 11.4595 14.5243 11.0265 14.3135 10.5196C14.1028 10.0126 14.0472 9.4545 14.154 8.91596C14.2607 8.37742 14.525 7.88269 14.9132 7.49448C15.3014 7.10627 15.7961 6.84204 16.3347 6.73529C16.8732 6.62854 17.4313 6.68407 17.9383 6.89484C18.4452 7.10562 18.8782 7.46215 19.1823 7.91925C19.4864 8.37635 19.6479 8.91344 19.6465 9.46246C19.635 10.1923 19.34 10.889 18.8239 11.4052C18.3077 11.9213 17.611 12.2163 16.8812 12.2278ZM16.8812 7.44394C16.4673 7.44394 16.0628 7.56666 15.7186 7.79658C15.3745 8.0265 15.1063 8.3533 14.948 8.73565C14.7896 9.118 14.7482 9.53873 14.8289 9.94462C14.9096 10.3505 15.1089 10.7234 15.4016 11.016C15.6942 11.3086 16.067 11.5079 16.4729 11.5887C16.8788 11.6694 17.2996 11.628 17.6819 11.4696C18.0642 11.3112 18.3911 11.043 18.621 10.6989C18.8509 10.3548 18.9736 9.95025 18.9736 9.5364C18.9435 8.99123 18.7134 8.47632 18.3273 8.09024C17.9412 7.70417 17.4263 7.47404 16.8812 7.44394Z" fill="#0085B8"/>
<path id="Vector_50" d="M17.5544 8.78957L17.1773 8.86351C17.1773 8.70824 17.1034 8.6343 16.9555 8.6343V9.2332C17.1773 9.30714 17.4065 9.38848 17.4805 9.53635C17.585 9.65971 17.6379 9.81859 17.6283 9.97998C17.6391 10.1438 17.5861 10.3054 17.4805 10.431C17.3662 10.5638 17.2041 10.6462 17.0294 10.6602V10.956H16.8076V10.6602C16.7209 10.6541 16.6364 10.6306 16.5589 10.5912C16.4814 10.5519 16.4127 10.4974 16.3566 10.431C16.2087 10.2831 16.2087 10.1353 16.1348 9.97998L16.5784 9.90605C16.5784 9.97999 16.6523 10.0613 16.6523 10.1353L16.8076 10.2831V9.61029C16.5784 9.53635 16.4305 9.46242 16.3566 9.30715C16.2588 9.1785 16.2059 9.02138 16.2059 8.85981C16.2059 8.69824 16.2588 8.54113 16.3566 8.41248C16.4013 8.33493 16.468 8.27243 16.5483 8.23293C16.6287 8.19343 16.7189 8.17871 16.8076 8.19067V8.0354H17.0294V8.19067C17.1687 8.1934 17.3025 8.24585 17.4065 8.33854C17.4805 8.56036 17.5544 8.6343 17.5544 8.78957ZM17.2512 9.97998C17.2512 9.90604 17.2512 9.8321 17.1773 9.8321C17.1161 9.76595 17.0401 9.71527 16.9555 9.68423V10.2831C17.0294 10.2831 17.1034 10.2092 17.1773 10.1353C17.2189 10.0934 17.245 10.0387 17.2512 9.97998ZM16.7337 9.15926V8.6343C16.6523 8.6343 16.6523 8.70823 16.5784 8.78957C16.5045 8.8709 16.5045 8.86351 16.5045 8.93745C16.5045 9.01139 16.5045 9.01139 16.5784 9.08533C16.6523 9.15927 16.6523 9.15926 16.7337 9.15926Z" fill="#D71049"/>
<path id="Ellipse 55" d="M11.2944 35.6663C11.2944 35.7027 11.2728 35.8169 11.0491 35.9931C10.8312 36.1649 10.4847 36.3415 10.0121 36.4991C9.07203 36.8124 7.74155 37.0148 6.24901 37.0148C4.75648 37.0148 3.426 36.8124 2.48594 36.4991C2.01329 36.3415 1.66687 36.1649 1.44889 35.9931C1.22526 35.8169 1.20361 35.7027 1.20361 35.6663C1.20361 35.63 1.22526 35.5158 1.44889 35.3395C1.66687 35.1677 2.01329 34.9912 2.48594 34.8336C3.426 34.5203 4.75648 34.3179 6.24901 34.3179C7.74155 34.3179 9.07203 34.5203 10.0121 34.8336C10.4847 34.9912 10.8312 35.1677 11.0491 35.3395C11.2728 35.5158 11.2944 35.63 11.2944 35.6663Z" fill="white" stroke="#0085B8"/>
<path id="Ellipse 56" d="M11.2944 33.8178C11.2944 33.9423 11.2334 34.1114 11.0151 34.3179C10.7957 34.5254 10.4514 34.7353 9.98451 34.922C9.05349 35.2944 7.73301 35.5359 6.24901 35.5359C4.76502 35.5359 3.44454 35.2944 2.51352 34.922C2.04662 34.7353 1.70234 34.5254 1.48295 34.3179C1.26462 34.1114 1.20361 33.9423 1.20361 33.8178C1.20361 33.6933 1.26462 33.5241 1.48295 33.3176C1.70234 33.1102 2.04662 32.9003 2.51352 32.7135C3.44454 32.3411 4.76502 32.0996 6.24901 32.0996C7.73301 32.0996 9.05349 32.3411 9.98451 32.7135C10.4514 32.9003 10.7957 33.1102 11.0151 33.3176C11.2334 33.5241 11.2944 33.6933 11.2944 33.8178Z" fill="white" stroke="#0085B8"/>
<path id="Ellipse 57" d="M11.2944 31.9692C11.2944 32.3742 10.9229 32.896 9.95876 33.346C9.03518 33.777 7.72412 34.0571 6.24901 34.0571C4.77391 34.0571 3.46284 33.777 2.53927 33.346C1.57509 32.896 1.20361 32.3742 1.20361 31.9692C1.20361 31.5642 1.57509 31.0424 2.53927 30.5924C3.46284 30.1614 4.77391 29.8813 6.24901 29.8813C7.72412 29.8813 9.03518 30.1614 9.95876 30.5924C10.9229 31.0424 11.2944 31.5642 11.2944 31.9692Z" fill="white" stroke="#0085B8"/>
<path id="Ellipse 58" d="M11.2944 30.8603C11.2944 30.9847 11.2334 31.1539 11.0151 31.3604C10.7957 31.5679 10.4514 31.7777 9.98451 31.9645C9.05349 32.3369 7.73301 32.5784 6.24901 32.5784C4.76502 32.5784 3.44454 32.3369 2.51352 31.9645C2.04662 31.7777 1.70234 31.5679 1.48295 31.3604C1.26462 31.1539 1.20361 30.9847 1.20361 30.8603C1.20361 30.7358 1.26462 30.5666 1.48295 30.3601C1.70234 30.1526 2.04662 29.9428 2.51352 29.756C3.44454 29.3836 4.76502 29.1421 6.24901 29.1421C7.73301 29.1421 9.05349 29.3836 9.98451 29.756C10.4514 29.9428 10.7957 30.1526 11.0151 30.3601C11.2334 30.5666 11.2944 30.7358 11.2944 30.8603Z" fill="white" stroke="#0085B8"/>
<path id="Ellipse 59" d="M11.2944 29.7511C11.2944 29.7874 11.2728 29.9016 11.0491 30.0779C10.8312 30.2497 10.4847 30.4262 10.0121 30.5838C9.07203 30.8971 7.74155 31.0995 6.24901 31.0995C4.75648 31.0995 3.426 30.8971 2.48594 30.5838C2.01329 30.4262 1.66687 30.2497 1.44889 30.0779C1.22526 29.9016 1.20361 29.7874 1.20361 29.7511C1.20361 29.7147 1.22526 29.6005 1.44889 29.4243C1.66687 29.2525 2.01329 29.0759 2.48594 28.9183C3.426 28.605 4.75648 28.4026 6.24901 28.4026C7.74155 28.4026 9.07203 28.605 10.0121 28.9183C10.4847 29.0759 10.8312 29.2525 11.0491 29.4243C11.2728 29.6005 11.2944 29.7147 11.2944 29.7511Z" fill="white" stroke="#0085B8"/>
<path id="Ellipse 50" d="M22.3853 38.6237C22.3853 38.7832 22.2992 38.9976 22.0049 39.254C21.7116 39.5094 21.2584 39.7622 20.6551 39.9845C19.4524 40.4276 17.7575 40.7116 15.8611 40.7116C13.9647 40.7116 12.2698 40.4276 11.0671 39.9845C10.4638 39.7622 10.0105 39.5094 9.71732 39.254C9.42294 38.9976 9.33691 38.7832 9.33691 38.6237C9.33691 38.4643 9.42294 38.2499 9.71732 37.9935C10.0105 37.7381 10.4638 37.4853 11.0671 37.263C12.2698 36.8199 13.9647 36.5359 15.8611 36.5359C17.7575 36.5359 19.4524 36.8199 20.6551 37.263C21.2584 37.4853 21.7116 37.7381 22.0049 37.9935C22.2992 38.2499 22.3853 38.4643 22.3853 38.6237Z" fill="#005993" stroke="#0085B8"/>
<path id="Ellipse 51" d="M22.3853 36.0359C22.3853 36.272 22.2738 36.5409 21.9805 36.8328C21.6854 37.1266 21.233 37.4142 20.6339 37.6664C19.4378 38.17 17.7507 38.4935 15.8611 38.4935C13.9715 38.4935 12.2844 38.17 11.0883 37.6664C10.4892 37.4142 10.0368 37.1266 9.74166 36.8328C9.44843 36.5409 9.33691 36.272 9.33691 36.0359C9.33691 35.7998 9.44843 35.531 9.74166 35.2391C10.0368 34.9453 10.4892 34.6577 11.0883 34.4054C12.2844 33.9018 13.9715 33.5784 15.8611 33.5784C17.7507 33.5784 19.4378 33.9018 20.6339 34.4054C21.233 34.6577 21.6854 34.9453 21.9805 35.2391C22.2738 35.531 22.3853 35.7998 22.3853 36.0359Z" fill="#D71049" stroke="#0085B8"/>
<path id="Ellipse 52" d="M22.3853 33.8177C22.3853 34.0537 22.2738 34.3226 21.9805 34.6145C21.6854 34.9083 21.233 35.1959 20.6339 35.4481C19.4378 35.9518 17.7507 36.2752 15.8611 36.2752C13.9715 36.2752 12.2844 35.9518 11.0883 35.4481C10.4892 35.1959 10.0368 34.9083 9.74166 34.6145C9.44843 34.3226 9.33691 34.0537 9.33691 33.8177C9.33691 33.5816 9.44843 33.3127 9.74166 33.0208C10.0368 32.727 10.4892 32.4394 11.0883 32.1872C12.2844 31.6835 13.9715 31.3601 15.8611 31.3601C17.7507 31.3601 19.4378 31.6835 20.6339 32.1872C21.233 32.4394 21.6854 32.727 21.9805 33.0208C22.2738 33.3127 22.3853 33.5816 22.3853 33.8177Z" fill="#005993" stroke="#0085B8"/>
<path id="Ellipse 53" d="M22.3853 31.5996C22.3853 31.8357 22.2738 32.1046 21.9805 32.3965C21.6854 32.6903 21.233 32.9779 20.6339 33.2301C19.4378 33.7337 17.7507 34.0572 15.8611 34.0572C13.9715 34.0572 12.2844 33.7337 11.0883 33.2301C10.4892 32.9779 10.0368 32.6903 9.74166 32.3965C9.44843 32.1046 9.33691 31.8357 9.33691 31.5996C9.33691 31.3636 9.44843 31.0947 9.74166 30.8028C10.0368 30.509 10.4892 30.2214 11.0883 29.9692C12.2844 29.4655 13.9715 29.1421 15.8611 29.1421C17.7507 29.1421 19.4378 29.4655 20.6339 29.9692C21.233 30.2214 21.6854 30.509 21.9805 30.8028C22.2738 31.0947 22.3853 31.3636 22.3853 31.5996Z" fill="#D71049" stroke="#0085B8"/>
<path id="Ellipse 54" d="M22.3853 29.0117C22.3853 29.1711 22.2992 29.3855 22.0049 29.642C21.7116 29.8974 21.2584 30.1501 20.6551 30.3724C19.4524 30.8155 17.7575 31.0995 15.8611 31.0995C13.9647 31.0995 12.2698 30.8155 11.0671 30.3724C10.4638 30.1501 10.0105 29.8974 9.71732 29.642C9.42294 29.3855 9.33691 29.1711 9.33691 29.0117C9.33691 28.8523 9.42294 28.6378 9.71732 28.3814C10.0105 28.126 10.4638 27.8732 11.0671 27.651C12.2698 27.2079 13.9647 26.9238 15.8611 26.9238C17.7575 26.9238 19.4524 27.2079 20.6551 27.651C21.2584 27.8732 21.7116 28.126 22.0049 28.3814C22.2992 28.6378 22.3853 28.8523 22.3853 29.0117Z" fill="#005993" stroke="#0085B8"/>
</g>
</svg>
