<svg width="51" height="50" viewBox="0 0 51 50" fill="none" xmlns="http://www.w3.org/2000/svg">
<g id="Clip path group">
<mask id="mask0_1703_3481" style="mask-type:luminance" maskUnits="userSpaceOnUse" x="0" y="0" width="51" height="50">
<g id="clip-Interest">
<path id="Vector" d="M50.7144 0H0.714355V50H50.7144V0Z" fill="white"/>
</g>
</mask>
<g mask="url(#mask0_1703_3481)">
<g id="Interest">
<g id="Interest_2">
<g id="Group 665">
<g id="Group 660">
<path id="Path 103" d="M11.0173 24.6223V13.02H9.17578L12.1089 9.19849L15.0412 13.02H13.2189V24.6223H11.0173Z" fill="#D71049" stroke="#0085B8" stroke-linecap="round" stroke-linejoin="round"/>
</g>
<g id="Group 661">
<path id="Path 106" d="M18.8127 27.0407V20.3577H16.9712L19.9043 16.5361L22.8374 20.3577H21.0143V27.0407H18.8127Z" fill="#D71049" stroke="#0085B8" stroke-linecap="round" stroke-linejoin="round"/>
</g>
<g id="Group 662">
<path id="Ellipse 15" d="M34.7466 24.8108C39.0578 24.8108 42.5527 21.3159 42.5527 17.0046C42.5527 12.6934 39.0578 9.19849 34.7466 9.19849C30.4354 9.19849 26.9404 12.6934 26.9404 17.0046C26.9404 21.3159 30.4354 24.8108 34.7466 24.8108Z" fill="#005993" stroke="#0085B8"/>
<path id="Ellipse 16" d="M34.7649 22.95C38.017 22.95 40.6534 20.3137 40.6534 17.0616C40.6534 13.8095 38.017 11.1731 34.7649 11.1731C31.5128 11.1731 28.8765 13.8095 28.8765 17.0616C28.8765 20.3137 31.5128 22.95 34.7649 22.95Z" fill="white" stroke="#0085B8"/>
<g id="Group 746">
<g id="Group 666">
<path id="Path 111" d="M34.1713 12.5239V13.7001C33.7619 13.82 33.4023 14.0692 33.1462 14.4104C32.8901 14.7516 32.7513 15.1665 32.7506 15.5932C32.7506 16.1236 32.9613 16.6323 33.3364 17.0074C33.7114 17.3824 34.2201 17.5932 34.7506 17.5932H34.7706C34.9886 17.5932 35.1976 17.6797 35.3517 17.8339C35.5059 17.988 35.5925 18.1971 35.5925 18.4151C35.5925 18.6331 35.5059 18.8421 35.3517 18.9963C35.1976 19.1504 34.9886 19.237 34.7706 19.237H34.7244C34.5064 19.2366 34.2974 19.1497 34.1434 18.9954C33.9894 18.8411 33.9029 18.632 33.9029 18.4139V18.3747H32.749V18.4139C32.7498 18.8406 32.8886 19.2555 33.1446 19.5967C33.4007 19.9379 33.7604 20.1871 34.1698 20.307V21.4832H35.3236V20.307C35.7798 20.1743 36.1728 19.8815 36.4303 19.4822C36.6878 19.083 36.7926 18.6042 36.7253 18.1338C36.658 17.6635 36.4232 17.2333 36.0641 16.9223C35.705 16.6112 35.2457 16.4403 34.7706 16.4408H34.749C34.6379 16.4408 34.5279 16.419 34.4252 16.3764C34.3226 16.3339 34.2293 16.2716 34.1507 16.193C34.0721 16.1144 34.0098 16.0212 33.9673 15.9185C33.9248 15.8158 33.9029 15.7058 33.9029 15.5947C33.9033 15.3769 33.99 15.1682 34.144 15.0142C34.2979 14.8603 34.5067 14.7736 34.7244 14.7732H34.7698C34.8779 14.7727 34.9849 14.7936 35.0849 14.8346C35.1849 14.8756 35.2758 14.9359 35.3524 15.0121C35.4291 15.0882 35.49 15.1788 35.5316 15.2785C35.5733 15.3782 35.5949 15.4851 35.5952 15.5932V15.6062H36.749V15.5932C36.7483 15.1666 36.6097 14.7518 36.3537 14.4106C36.0978 14.0694 35.7383 13.8201 35.329 13.7001V12.5239H34.1752H34.1713Z" fill="#D71049"/>
</g>
</g>
</g>
<g id="Group 664">
<path id="Rectangle 428" d="M34.8281 31.4724H28.022V45.5355H34.8281V31.4724Z" fill="#D71049" stroke="#0085B8" stroke-linecap="round" stroke-linejoin="round"/>
<path id="Rectangle 436" d="M47.1357 27.6262H40.3296V45.5355H47.1357V27.6262Z" fill="#005993" stroke="#0085B8" stroke-linecap="round" stroke-linejoin="round"/>
<path id="Rectangle 435" d="M23.2896 34.5493H16.4834V45.5355H23.2896V34.5493Z" fill="#005993" stroke="#0085B8" stroke-linecap="round" stroke-linejoin="round"/>
<path id="Rectangle 437" d="M11.7515 37.6262H4.94531V45.5355H11.7515V37.6262Z" fill="#D71049" stroke="#0085B8" stroke-linecap="round" stroke-linejoin="round"/>
<path id="Path 185" d="M4.56055 46.1538H46.8682" stroke="#0085B8" stroke-linecap="round"/>
</g>
</g>
</g>
</g>
</g>
</g>
</svg>
