<svg width="64" height="65" viewBox="0 0 64 65" fill="none" xmlns="http://www.w3.org/2000/svg">
<path d="M59.5 31.5908C59.5 16.4028 47.188 4.09082 32 4.09082C16.812 4.09082 4.5 16.4028 4.5 31.5908C4.5 40.9868 9.215 49.2778 16.405 54.2378H47.596C54.785 49.2778 59.5 40.9868 59.5 31.5908Z" fill="#EDF8FD"/>
<path d="M15.375 57.4736H48.625" stroke="#7ED3F7" stroke-width="1.5" stroke-miterlimit="10" stroke-linecap="round" stroke-linejoin="round"/>
<path d="M24.6411 60.709H35.3141" stroke="#7ED3F7" stroke-width="1.5" stroke-miterlimit="10" stroke-linecap="round" stroke-linejoin="round"/>
<path d="M38.166 60.709H39.415" stroke="#7ED3F7" stroke-width="1.5" stroke-miterlimit="10" stroke-linecap="round" stroke-linejoin="round"/>
<path d="M48.1249 11.5786H51.0779V54.1976H27.3809V11.5786H45.1249" fill="#4CB8E9"/>
<path d="M31.896 33.0488C31.896 28.9988 35.179 25.7158 39.229 25.7158C43.279 25.7158 46.562 28.9988 46.562 33.0488C46.562 36.8278 43.703 39.9398 40.03 40.3388" stroke="white" stroke-width="1.5" stroke-miterlimit="10" stroke-linecap="round" stroke-linejoin="round"/>
<path d="M31.896 24.1807V20.1377L35.795 16.2397H42.665L46.563 20.1377V24.1807" stroke="white" stroke-width="1.5" stroke-miterlimit="10" stroke-linecap="round" stroke-linejoin="round"/>
<path d="M46.563 42.0986V46.1426L42.665 50.0406H35.795L31.896 46.1426V42.0986" stroke="#4CB8E9" stroke-width="1.5" stroke-miterlimit="10" stroke-linecap="round" stroke-linejoin="round"/>
<path d="M39.23 19.9067V22.0637" stroke="white" stroke-width="1.5" stroke-miterlimit="10" stroke-linecap="round" stroke-linejoin="round"/>
<path d="M12.646 44.4609C12.646 43.3809 13.521 42.5059 14.601 42.5059H23.673C24.753 42.5059 25.628 43.3809 25.628 44.4609C25.628 45.5409 24.753 46.4159 23.673 46.4159H14.601C13.521 46.4169 12.646 45.5409 12.646 44.4609Z" fill="#7ED3F7"/>
<path d="M13.8296 48.3705C13.8296 47.2905 14.7046 46.4155 15.7846 46.4155H24.8566C25.9366 46.4155 26.8116 47.2905 26.8116 48.3705C26.8116 49.4505 25.9366 50.3255 24.8566 50.3255H15.7846C14.7046 50.3265 13.8296 49.4505 13.8296 48.3705Z" fill="#4CB8E9"/>
<path d="M11.2974 52.2802C11.2974 51.2002 12.1724 50.3252 13.2524 50.3252H22.3244C23.4044 50.3252 24.2794 51.2002 24.2794 52.2802C24.2794 53.3602 23.4044 54.2352 22.3244 54.2352H13.2524C12.1724 54.2362 11.2974 53.3602 11.2974 52.2802Z" fill="#7ED3F7"/>
<path d="M12.646 40.5497C12.646 39.4697 13.521 38.5947 14.601 38.5947H23.673C24.753 38.5947 25.628 39.4697 25.628 40.5497C25.628 41.6297 24.753 42.5047 23.673 42.5047H14.601C13.521 42.5057 12.646 41.6297 12.646 40.5497Z" fill="#4CB8E9"/>
<path d="M12.646 28.8178C12.646 27.7378 13.521 26.8628 14.601 26.8628H23.673C24.753 26.8628 25.628 27.7378 25.628 28.8178C25.628 29.8978 24.753 30.7728 23.673 30.7728H14.601C13.521 30.7738 12.646 29.8978 12.646 28.8178Z" fill="#7ED3F7"/>
<path d="M12.3906 32.7065C12.3906 31.6265 13.2656 30.7515 14.3456 30.7515H23.4176C24.4976 30.7515 25.3726 31.6265 25.3726 32.7065C25.3726 33.7865 24.4976 34.6615 23.4176 34.6615H14.3456C13.2656 34.6625 12.3906 33.7865 12.3906 32.7065Z" fill="#4CB8E9"/>
<path d="M10.8013 36.6161C10.8013 35.5361 11.6763 34.6611 12.7563 34.6611H21.8283C22.9083 34.6611 23.7833 35.5361 23.7833 36.6161C23.7833 37.6961 22.9083 38.5711 21.8283 38.5711H12.7563C11.6763 38.5721 10.8013 37.6961 10.8013 36.6161Z" fill="#7ED3F7"/>
<path d="M10.064 24.9067C10.064 23.8267 10.939 22.9517 12.019 22.9517H21.091C22.171 22.9517 23.046 23.8267 23.046 24.9067C23.046 25.9867 22.171 26.8617 21.091 26.8617H12.019C10.94 26.8627 10.064 25.9867 10.064 24.9067Z" fill="#4CB8E9"/>
<path d="M36.5091 45.578L41.2071 40.88L33.5321 33.205L27.5781 27.251L22.8801 31.949C21.0361 33.793 21.0361 36.784 22.8801 38.628L36.5101 52.258C34.6651 50.413 34.6651 47.422 36.5091 45.578Z" fill="#D71049"/>
<path d="M46.5812 20.1548L33.5322 33.2038L41.2072 40.8788L36.5092 45.5768C34.6652 47.4208 34.6652 50.4118 36.5092 52.2558C38.3532 54.0998 41.3442 54.0998 43.1882 52.2558L60.9362 34.5098L46.5812 20.1548Z" fill="#7ED3F7"/>
<path d="M35.9663 35.6659C38.5683 33.0639 42.7883 33.0639 45.3903 35.6659C47.9923 38.2679 47.9923 42.4879 45.3903 45.0899C42.9623 47.5179 39.1253 47.6809 36.5093 45.5769" stroke="white" stroke-width="1.5" stroke-miterlimit="10"/>
<path d="M53.6869 31.7847V36.7937L51.0889 39.3917" stroke="white" stroke-width="1.5" stroke-miterlimit="10" stroke-linecap="round" stroke-linejoin="round"/>
<path d="M41.665 29.9676L44.263 27.3696H49.273L51.672 29.7686" stroke="white" stroke-width="1.5" stroke-miterlimit="10" stroke-linecap="round" stroke-linejoin="round"/>
<path d="M48.9452 32.146L47.8232 33.268" stroke="white" stroke-width="1.5" stroke-miterlimit="10" stroke-linecap="round" stroke-linejoin="round"/>
</svg>
