<svg width="64" height="65" viewBox="0 0 64 65" fill="none" xmlns="http://www.w3.org/2000/svg">
<path d="M59.5 31.5908C59.5 16.4028 47.188 4.09082 32 4.09082C16.812 4.09082 4.5 16.4028 4.5 31.5908C4.5 40.9868 9.215 49.2778 16.405 54.2378H47.596C54.785 49.2778 59.5 40.9868 59.5 31.5908Z" fill="#EDF8FD"/>
<path d="M20.375 57.4736H43.625" stroke="#7ED3F7" stroke-width="1.5" stroke-miterlimit="10" stroke-linecap="round" stroke-linejoin="round"/>
<path d="M27.6411 60.709H32.3141" stroke="#7ED3F7" stroke-width="1.5" stroke-miterlimit="10" stroke-linecap="round" stroke-linejoin="round"/>
<path d="M35.166 60.709H36.415" stroke="#7ED3F7" stroke-width="1.5" stroke-miterlimit="10" stroke-linecap="round" stroke-linejoin="round"/>
<path d="M12.811 52.2826C12.811 51.2026 13.686 50.3276 14.766 50.3276H23.838C24.918 50.3276 25.793 51.2026 25.793 52.2826C25.793 53.3626 24.918 54.2376 23.838 54.2376H14.766C13.687 54.2376 12.811 53.3626 12.811 52.2826Z" fill="#4CB8E9"/>
<path d="M11.6182 48.372C11.6182 47.292 12.4932 46.417 13.5732 46.417H22.6452C23.7252 46.417 24.6002 47.292 24.6002 48.372C24.6002 49.452 23.7252 50.327 22.6452 50.327H13.5732C12.4932 50.327 11.6182 49.452 11.6182 48.372Z" fill="#7ED3F7"/>
<path d="M12.811 44.4609C12.811 43.3809 13.686 42.5059 14.766 42.5059H23.838C24.918 42.5059 25.793 43.3809 25.793 44.4609C25.793 45.5409 24.918 46.4159 23.838 46.4159H14.766C13.687 46.4169 12.811 45.5409 12.811 44.4609Z" fill="#4CB8E9"/>
<path d="M11.7158 40.4687C11.7158 39.3887 12.5908 38.5137 13.6708 38.5137H22.7428C23.8228 38.5137 24.6978 39.3887 24.6978 40.4687C24.6978 41.5487 23.8228 42.4237 22.7428 42.4237H13.6708C12.5918 42.4247 11.7158 41.5487 11.7158 40.4687Z" fill="#7ED3F7"/>
<path d="M10.6201 36.477C10.6201 35.397 11.4951 34.522 12.5751 34.522H21.6471C22.7271 34.522 23.6021 35.397 23.6021 36.477C23.6021 37.557 22.7271 38.432 21.6471 38.432H12.5751C11.4961 38.433 10.6201 37.557 10.6201 36.477Z" fill="#4CB8E9"/>
<path d="M9.22998 32.7289C9.22998 31.6489 10.105 30.7739 11.185 30.7739H20.257C21.337 30.7739 22.212 31.6489 22.212 32.7289C22.212 33.8089 21.337 34.6839 20.257 34.6839H11.185C10.105 34.6839 9.22998 33.8089 9.22998 32.7289Z" fill="#7ED3F7"/>
<path d="M10.916 28.8188C10.916 27.7388 11.791 26.8638 12.871 26.8638H21.943C23.023 26.8638 23.898 27.7388 23.898 28.8188C23.898 29.8988 23.023 30.7738 21.943 30.7738H12.871C11.791 30.7738 10.916 29.8988 10.916 28.8188Z" fill="#4CB8E9"/>
<path d="M9.22998 24.9091C9.22998 23.8291 10.105 22.9541 11.185 22.9541H20.257C21.337 22.9541 22.212 23.8291 22.212 24.9091C22.212 25.9891 21.337 26.8641 20.257 26.8641H11.185C10.105 26.8641 9.22998 25.9891 9.22998 24.9091Z" fill="#7ED3F7"/>
<path d="M11.6182 20.997C11.6182 19.917 12.4932 19.042 13.5732 19.042H22.6452C23.7252 19.042 24.6002 19.917 24.6002 20.997C24.6002 22.077 23.7252 22.952 22.6452 22.952H13.5732C12.4932 22.952 11.6182 22.076 11.6182 20.997Z" fill="#4CB8E9"/>
<path d="M12.811 17.0859C12.811 16.0059 13.686 15.1309 14.766 15.1309H23.838C24.918 15.1309 25.793 16.0059 25.793 17.0859C25.793 18.1659 24.918 19.0409 23.838 19.0409H14.766C13.687 19.0409 12.811 18.1659 12.811 17.0859Z" fill="#7ED3F7"/>
<path d="M49.9579 34.3828C48.7069 28.0168 42.2739 23.1668 34.4779 23.1668L32.4449 23.2818C31.8119 23.3548 31.1909 23.4588 30.5819 23.5908L30.6249 23.5668C24.3479 21.1218 19.1529 22.4078 18.6989 23.1668C18.2449 23.9258 19.4929 25.6718 22.0579 28.3228L22.0799 28.3108C20.4919 30.0348 19.3919 32.0968 18.9419 34.3518L18.9339 34.3198C16.2289 34.7168 14.0529 35.6008 14.2569 38.0488C14.4609 40.4968 15.5069 42.5628 16.5889 43.8968C18.0039 45.6418 19.4879 44.9168 21.1909 43.8968L21.1859 43.8748C22.4759 45.5988 24.2089 47.0508 26.2469 48.1198L26.2429 48.1188C26.8389 51.1558 25.4109 54.2368 25.4109 54.2368H29.7969C29.7969 54.2368 31.9839 52.1608 32.2449 49.8638L34.4389 50.0958C35.4709 50.0958 36.7329 49.9518 36.7329 49.9518C37.3789 53.8988 36.7329 54.2368 36.7329 54.2368H42.6829C42.6829 54.2368 49.7549 45.8338 50.1769 36.6308L49.9579 34.3828Z" fill="#D71049"/>
<path d="M53.6779 31.3034C53.5379 30.3374 52.3969 30.1444 51.8069 30.5784C51.2169 31.0124 51.2069 32.0014 51.7859 32.7884C52.3639 33.5754 53.6779 33.5784 54.5589 32.9444C55.4319 32.3164 55.8889 31.6244 55.6859 29.6704" stroke="white" stroke-width="1.5" stroke-miterlimit="10" stroke-linecap="round" stroke-linejoin="round"/>
<path d="M52.067 33.0698C49.929 35.4488 47.625 34.0748 47.625 34.0748" stroke="white" stroke-width="1.5" stroke-miterlimit="10" stroke-linecap="round" stroke-linejoin="round"/>
<path d="M24.743 33.8088C25.419 33.8088 25.967 33.2608 25.967 32.5848C25.967 31.9088 25.419 31.3608 24.743 31.3608C24.067 31.3608 23.519 31.9088 23.519 32.5848C23.519 33.2608 24.067 33.8088 24.743 33.8088Z" fill="white"/>
<path d="M39.4029 27.2868C42.1666 27.2868 44.4069 25.0464 44.4069 22.2828C44.4069 19.5192 42.1666 17.2788 39.4029 17.2788C36.6393 17.2788 34.3989 19.5192 34.3989 22.2828C34.3989 25.0464 36.6393 27.2868 39.4029 27.2868Z" fill="#4CB8E9"/>
<path d="M39.4029 25.2868C41.062 25.2868 42.4069 23.9419 42.4069 22.2828C42.4069 20.6237 41.062 19.2788 39.4029 19.2788C37.7439 19.2788 36.3989 20.6237 36.3989 22.2828C36.3989 23.9419 37.7439 25.2868 39.4029 25.2868Z" fill="white"/>
<path d="M43.3271 29.8565C40.0071 27.2085 35.9281 26.1565 32.0161 26.5965" stroke="white" stroke-width="1.5" stroke-miterlimit="10" stroke-linecap="round" stroke-linejoin="round"/>
<path d="M51.3368 54.2376C55.0167 54.2376 57.9998 51.2545 57.9998 47.5746C57.9998 43.8947 55.0167 40.9116 51.3368 40.9116C47.657 40.9116 44.6738 43.8947 44.6738 47.5746C44.6738 51.2545 47.657 54.2376 51.3368 54.2376Z" fill="#4CB8E9"/>
<path d="M51.3369 51.5747C53.5461 51.5747 55.3369 49.7838 55.3369 47.5747C55.3369 45.3656 53.5461 43.5747 51.3369 43.5747C49.1278 43.5747 47.3369 45.3656 47.3369 47.5747C47.3369 49.7838 49.1278 51.5747 51.3369 51.5747Z" fill="white"/>
</svg>
