<svg width="65" height="65" viewBox="0 0 65 65" fill="none" xmlns="http://www.w3.org/2000/svg">
<path d="M59.833 31.5908C59.833 16.4028 47.521 4.09082 32.333 4.09082C17.145 4.09082 4.83301 16.4028 4.83301 31.5908C4.83301 40.9868 9.54801 49.2778 16.738 54.2378H47.929C55.118 49.2778 59.833 40.9868 59.833 31.5908Z" fill="#EDF8FD"/>
<path d="M20.708 57.4736H43.958" stroke="#7ED3F7" stroke-width="1.5" stroke-miterlimit="10" stroke-linecap="round" stroke-linejoin="round"/>
<path d="M27.9741 60.709H32.6471" stroke="#7ED3F7" stroke-width="1.5" stroke-miterlimit="10" stroke-linecap="round" stroke-linejoin="round"/>
<path d="M35.499 60.709H36.748" stroke="#7ED3F7" stroke-width="1.5" stroke-miterlimit="10" stroke-linecap="round" stroke-linejoin="round"/>
<path d="M18.6411 10.0537V24.7197V30.5477L27.8851 39.3847H36.7811L46.0251 30.5477V24.7197V10.0537H18.6411Z" fill="white"/>
<path d="M52.1209 24.7197H46.0249V30.5477L52.1209 24.7197Z" fill="#7ED3F7"/>
<path d="M18.6409 30.5477L12.5449 24.7197V54.0507L27.8849 39.3847L18.6409 30.5477Z" fill="#4CB8E9"/>
<path d="M46.0248 30.5477L36.7808 39.3847L52.1208 54.0507V24.7197L46.0248 30.5477Z" fill="#4CB8E9"/>
<path d="M18.6409 24.7197H12.5449L18.6409 30.5477V24.7197Z" fill="#7ED3F7"/>
<path d="M27.8849 39.3848L12.5449 54.0508H52.1209L36.7809 39.3848H27.8849Z" fill="#7ED3F7"/>
<path d="M23.333 15.0537H29.333" stroke="#D71049" stroke-width="1.5" stroke-miterlimit="10" stroke-linecap="round" stroke-linejoin="round"/>
<path d="M23.333 20.0537H30.5" stroke="#7ED3F7" stroke-width="1.5" stroke-miterlimit="10" stroke-linecap="round" stroke-linejoin="round"/>
<path d="M23.333 24.0537H30.5" stroke="#7ED3F7" stroke-width="1.5" stroke-miterlimit="10" stroke-linecap="round" stroke-linejoin="round"/>
<path d="M23.333 28.0537H41.333" stroke="#7ED3F7" stroke-width="1.5" stroke-miterlimit="10" stroke-linecap="round" stroke-linejoin="round"/>
<path d="M38.333 32.0537H39.333" stroke="#7ED3F7" stroke-width="1.5" stroke-miterlimit="10" stroke-linecap="round" stroke-linejoin="round"/>
<path d="M25.333 32.0537H35.333" stroke="#7ED3F7" stroke-width="1.5" stroke-miterlimit="10" stroke-linecap="round" stroke-linejoin="round"/>
<path d="M20.0071 51.0655C22.2809 51.0655 24.1241 49.2223 24.1241 46.9485C24.1241 44.6748 22.2809 42.8315 20.0071 42.8315C17.7334 42.8315 15.8901 44.6748 15.8901 46.9485C15.8901 49.2223 17.7334 51.0655 20.0071 51.0655Z" stroke="white" stroke-miterlimit="10" stroke-linecap="round" stroke-linejoin="round"/>
<path d="M30.0103 44.2986C28.9853 45.3236 27.3242 45.3236 26.2992 44.2986C25.3752 43.3746 23.9323 43.2836 22.9062 44.0276" stroke="white" stroke-miterlimit="10" stroke-linecap="round" stroke-linejoin="round"/>
<path d="M30.0102 46.9483C28.9852 47.9733 27.3242 47.9733 26.2992 46.9483C25.6882 46.3373 24.8502 46.0903 24.0552 46.2083" stroke="white" stroke-miterlimit="10" stroke-linecap="round" stroke-linejoin="round"/>
<path d="M30.0104 49.5997C28.9854 50.6247 27.3244 50.6247 26.2994 49.5997C25.5664 48.8667 24.5074 48.6577 23.5894 48.9737" stroke="white" stroke-miterlimit="10" stroke-linecap="round" stroke-linejoin="round"/>
<path d="M41.333 20.0537H33.5V24.0537H41.333V20.0537Z" stroke="#7ED3F7" stroke-width="1.5" stroke-miterlimit="10" stroke-linecap="round" stroke-linejoin="round"/>
</svg>
