<svg width="64" height="65" viewBox="0 0 64 65" fill="none" xmlns="http://www.w3.org/2000/svg">
<path d="M59.5 31.5908C59.5 16.4028 47.188 4.09082 32 4.09082C16.812 4.09082 4.5 16.4028 4.5 31.5908C4.5 40.9868 9.215 49.2778 16.405 54.2378H47.596C54.785 49.2778 59.5 40.9868 59.5 31.5908Z" fill="#EDF8FD"/>
<path d="M20.375 57.4736H43.625" stroke="#7ED3F7" stroke-width="1.5" stroke-miterlimit="10" stroke-linecap="round" stroke-linejoin="round"/>
<path d="M27.6411 60.709H32.3141" stroke="#7ED3F7" stroke-width="1.5" stroke-miterlimit="10" stroke-linecap="round" stroke-linejoin="round"/>
<path d="M35.166 60.709H36.415" stroke="#7ED3F7" stroke-width="1.5" stroke-miterlimit="10" stroke-linecap="round" stroke-linejoin="round"/>
<path d="M31.8853 44.4609C31.8853 43.3809 32.7603 42.5059 33.8403 42.5059H42.9123C43.9923 42.5059 44.8673 43.3809 44.8673 44.4609C44.8673 45.5409 43.9923 46.4159 42.9123 46.4159H33.8403C32.7603 46.4169 31.8853 45.5409 31.8853 44.4609Z" fill="#4CB8E9"/>
<path d="M30.6914 40.5497C30.6914 39.4697 31.5664 38.5947 32.6464 38.5947H41.7184C42.7984 38.5947 43.6734 39.4697 43.6734 40.5497C43.6734 41.6297 42.7984 42.5047 41.7184 42.5047H32.6464C31.5674 42.5057 30.6914 41.6297 30.6914 40.5497Z" fill="#7ED3F7"/>
<path d="M31.8853 36.6396C31.8853 35.5596 32.7603 34.6846 33.8403 34.6846H42.9123C43.9923 34.6846 44.8673 35.5596 44.8673 36.6396C44.8673 37.7196 43.9923 38.5946 42.9123 38.5946H33.8403C32.7603 38.5946 31.8853 37.7196 31.8853 36.6396Z" fill="#4CB8E9"/>
<path d="M28.3032 24.9067C28.3032 23.8267 29.1782 22.9517 30.2582 22.9517H39.3302C40.4102 22.9517 41.2852 23.8267 41.2852 24.9067C41.2852 25.9867 40.4102 26.8617 39.3302 26.8617H30.2582C29.1792 26.8627 28.3032 25.9867 28.3032 24.9067Z" fill="#7ED3F7"/>
<path d="M29.4971 28.8149C29.4971 27.7349 30.3721 26.8599 31.4521 26.8599H40.5241C41.6041 26.8599 42.4791 27.7349 42.4791 28.8149C42.4791 29.8949 41.6041 30.7699 40.5241 30.7699H31.4521C30.3731 30.7709 29.4971 29.8949 29.4971 28.8149Z" fill="#4CB8E9"/>
<path d="M31.1245 32.7226C31.1245 31.6426 31.9995 30.7676 33.0795 30.7676H42.1515C43.2315 30.7676 44.1065 31.6426 44.1065 32.7226C44.1065 33.8026 43.2315 34.6776 42.1515 34.6776H33.0795C32.0005 34.6786 31.1245 33.8026 31.1245 32.7226Z" fill="#7ED3F7"/>
<path d="M29.4971 20.9965C29.4971 19.9165 30.3721 19.0415 31.4521 19.0415H40.5241C41.6041 19.0415 42.4791 19.9165 42.4791 20.9965C42.4791 22.0765 41.6041 22.9515 40.5241 22.9515H31.4521C30.3731 22.9515 29.4971 22.0755 29.4971 20.9965Z" fill="#4CB8E9"/>
<path d="M28.2378 17.0859C28.2378 16.0059 29.1128 15.1309 30.1928 15.1309H39.2648C40.3448 15.1309 41.2198 16.0059 41.2198 17.0859C41.2198 18.1659 40.3448 19.0409 39.2648 19.0409H30.1928C29.1138 19.0409 28.2378 18.1649 28.2378 17.0859Z" fill="#7ED3F7"/>
<path d="M49.213 52.2826C49.213 51.2026 48.338 50.3276 47.258 50.3276H38.186C37.106 50.3276 36.231 51.2026 36.231 52.2826C36.231 53.3626 37.106 54.2376 38.186 54.2376H47.258C48.337 54.2376 49.213 53.3626 49.213 52.2826Z" fill="#7ED3F7"/>
<path d="M50.4058 48.3715C50.4058 47.2915 49.5308 46.4165 48.4508 46.4165H39.3788C38.2988 46.4165 37.4238 47.2915 37.4238 48.3715C37.4238 49.4515 38.2988 50.3265 39.3788 50.3265H48.4508C49.5308 50.3265 50.4058 49.4515 50.4058 48.3715Z" fill="#4CB8E9"/>
<path d="M49.213 44.4609C49.213 43.3809 48.338 42.5059 47.258 42.5059H38.186C37.106 42.5059 36.231 43.3809 36.231 44.4609C36.231 45.5409 37.106 46.4159 38.186 46.4159H47.258C48.337 46.4169 49.213 45.5409 49.213 44.4609Z" fill="#7ED3F7"/>
<path d="M52.794 32.7284C52.794 31.6484 51.919 30.7734 50.839 30.7734H41.767C40.687 30.7734 39.812 31.6484 39.812 32.7284C39.812 33.8084 40.687 34.6834 41.767 34.6834H50.839C51.919 34.6834 52.794 33.8084 52.794 32.7284Z" fill="#4CB8E9"/>
<path d="M51.358 36.581C51.358 35.501 50.483 34.626 49.403 34.626H40.331C39.251 34.626 38.376 35.501 38.376 36.581C38.376 37.661 39.251 38.536 40.331 38.536H49.403C50.483 38.536 51.358 37.661 51.358 36.581Z" fill="#7ED3F7"/>
<path d="M49.397 40.4335C49.397 39.3535 48.522 38.4785 47.442 38.4785H38.37C37.29 38.4785 36.415 39.3535 36.415 40.4335C36.415 41.5135 37.29 42.3885 38.37 42.3885H47.442C48.522 42.3885 49.397 41.5135 49.397 40.4335Z" fill="#4CB8E9"/>
<path d="M51.358 28.8168C51.358 27.7368 50.483 26.8618 49.403 26.8618H40.331C39.251 26.8618 38.376 27.7368 38.376 28.8168C38.376 29.8968 39.251 30.7718 40.331 30.7718H49.403C50.483 30.7718 51.358 29.8968 51.358 28.8168Z" fill="#7ED3F7"/>
<path d="M52.503 24.9047C52.503 23.8247 51.628 22.9497 50.548 22.9497H41.476C40.396 22.9497 39.521 23.8247 39.521 24.9047C39.521 25.9847 40.396 26.8597 41.476 26.8597H50.548C51.628 26.8597 52.503 25.9847 52.503 24.9047Z" fill="#4CB8E9"/>
<path d="M23.8822 23.7339C22.9492 22.8009 21.4372 22.8009 20.5042 23.7339L4.20121 40.0359C3.26821 40.9689 3.26821 42.4809 4.20121 43.4139L14.1262 53.3389C15.0592 54.2719 16.5712 54.2719 17.5042 53.3389L33.8072 37.0359C34.7402 36.1029 34.7402 34.5909 33.8072 33.6579L23.8822 23.7339Z" fill="#4CB8E9"/>
<path d="M22.812 30.2541L23.134 29.9321" stroke="white" stroke-width="1.5" stroke-miterlimit="10" stroke-linecap="round" stroke-linejoin="round"/>
<path d="M15.8862 37.1789L20.8952 32.1699" stroke="white" stroke-width="1.5" stroke-miterlimit="10" stroke-linecap="round" stroke-linejoin="round"/>
<path d="M12.8844 38.4927C11.9514 37.5597 10.4394 37.5597 9.50643 38.4927C9.19743 38.8017 9.00043 39.1767 8.89643 39.5717C8.50243 39.6757 8.12743 39.8727 7.81743 40.1817C6.88443 41.1147 6.88443 42.6267 7.81743 43.5597C8.75043 44.4927 10.2624 44.4927 11.1954 43.5597C11.5044 43.2507 11.7014 42.8757 11.8054 42.4807C12.1994 42.3767 12.5744 42.1797 12.8844 41.8707C13.8174 40.9377 13.8174 39.4247 12.8844 38.4927Z" fill="white"/>
<path d="M29.3026 29.1554L9.62256 48.8354L13.5632 52.7761L33.2432 33.0961L29.3026 29.1554Z" fill="#D71049"/>
<path d="M14.1982 35.4908L17.0352 32.6528" stroke="white" stroke-width="1.5" stroke-miterlimit="10" stroke-linecap="round" stroke-linejoin="round"/>
</svg>
