<svg width="65" height="65" viewBox="0 0 65 65" fill="none" xmlns="http://www.w3.org/2000/svg">
<path d="M60.1665 31.5908C60.1665 16.4028 47.8545 4.09082 32.6665 4.09082C17.4785 4.09082 5.1665 16.4028 5.1665 31.5908C5.1665 40.9868 9.8815 49.2778 17.0715 54.2378H48.2625C55.4515 49.2778 60.1665 40.9868 60.1665 31.5908Z" fill="#EDF8FD"/>
<path d="M21.0415 57.4736H44.2915" stroke="#7ED3F7" stroke-width="1.5" stroke-miterlimit="10" stroke-linecap="round" stroke-linejoin="round"/>
<path d="M28.3076 60.709H32.9806" stroke="#7ED3F7" stroke-width="1.5" stroke-miterlimit="10" stroke-linecap="round" stroke-linejoin="round"/>
<path d="M35.8325 60.709H37.0815" stroke="#7ED3F7" stroke-width="1.5" stroke-miterlimit="10" stroke-linecap="round" stroke-linejoin="round"/>
<path d="M46.1183 47.4106H41.3703H19.2143C17.4663 47.4106 16.0493 48.8276 16.0493 50.5756V51.0716C16.0493 52.8196 17.4663 54.2366 19.2143 54.2366H46.1193C47.8673 54.2366 49.2843 52.8196 49.2843 51.0716V50.5756C49.2843 48.8276 47.8663 47.4106 46.1183 47.4106Z" fill="#4CB8E9"/>
<path d="M45.0636 11.6368C43.8766 10.9368 41.1066 11.0838 39.9916 12.7988C38.8756 14.5138 35.8976 14.3818 35.8976 12.7988C35.8976 11.2158 34.7766 9.23779 32.6666 9.23779C30.5566 9.23779 29.4356 11.2158 29.4356 12.7988C29.4356 14.3818 26.4576 14.5138 25.3416 12.7988C24.2256 11.0838 21.4566 10.9368 20.2696 11.6368C19.0826 12.3368 23.5506 13.1288 25.3396 17.3818H39.9946C41.7826 13.1288 46.2506 12.3378 45.0636 11.6368Z" fill="#7ED3F7"/>
<path d="M46.1184 47.4108V39.2418C46.1184 33.3728 45.3274 26.5808 39.9194 20.7778H25.4124C20.0054 26.5808 19.2134 33.3728 19.2134 39.2418V47.4108H46.1184Z" fill="#7ED3F7"/>
<path d="M39.9936 20.7778C40.9316 20.7778 41.6916 20.0178 41.6916 19.0798C41.6916 18.1418 40.9316 17.3818 39.9936 17.3818H25.3396C24.4016 17.3818 23.6416 18.1418 23.6416 19.0798C23.6416 20.0178 24.4016 20.7778 25.3396 20.7778H25.4136H39.9206H39.9936Z" fill="#D71049"/>
<path d="M36.2154 37.3997C36.2154 35.7727 35.2644 34.7007 33.3524 34.3067V30.4177C33.7944 30.4887 34.1874 30.6237 34.5944 30.8127C34.7124 30.8807 34.8644 30.9147 34.9824 30.9147C35.3534 30.9147 35.6234 30.5937 35.6234 30.2387C35.6234 30.0027 35.4884 29.7997 35.2524 29.6647C34.7434 29.3867 34.1024 29.1587 33.3524 29.0687V27.9257C33.3524 27.5467 33.0454 27.2397 32.6664 27.2397C32.2874 27.2397 31.9804 27.5467 31.9804 27.9257V29.0987C30.3604 29.3887 29.2734 30.6127 29.2734 32.3667C29.2734 33.9257 30.1834 34.9957 31.9804 35.4267V39.5157C31.2894 39.4147 30.6294 39.1577 30.1354 38.8517C30.0174 38.7847 29.8654 38.7507 29.7474 38.7507C29.3424 38.7507 29.0884 39.0547 29.0884 39.4427C29.0884 39.6797 29.2064 39.8987 29.4424 40.0337C30.0684 40.4147 30.9374 40.7547 31.9804 40.8437V41.9757C31.9804 42.3547 32.2874 42.6617 32.6664 42.6617C33.0454 42.6617 33.3524 42.3547 33.3524 41.9757V40.7847C35.1454 40.4787 36.2154 39.2017 36.2154 37.3997ZM30.6584 32.2487C30.6584 31.3367 31.1624 30.6777 31.9804 30.4447V34.0067C30.9964 33.6757 30.6584 33.0877 30.6584 32.2487ZM33.3524 39.4577V35.7217C34.4204 36.0297 34.8304 36.6287 34.8304 37.4847C34.8304 38.5357 34.2704 39.2157 33.3524 39.4577Z" fill="white"/>
</svg>
