<svg width="64" height="65" viewBox="0 0 64 65" fill="none" xmlns="http://www.w3.org/2000/svg">
<path d="M59.5 31.5908C59.5 16.4028 47.188 4.09082 32 4.09082C16.812 4.09082 4.5 16.4028 4.5 31.5908C4.5 40.9868 9.215 49.2778 16.405 54.2378H47.596C54.785 49.2778 59.5 40.9868 59.5 31.5908Z" fill="#EDF8FD"/>
<path d="M20.375 57.4736H43.625" stroke="#7ED3F7" stroke-width="1.5" stroke-miterlimit="10" stroke-linecap="round" stroke-linejoin="round"/>
<path d="M27.6411 60.709H32.3141" stroke="#7ED3F7" stroke-width="1.5" stroke-miterlimit="10" stroke-linecap="round" stroke-linejoin="round"/>
<path d="M35.166 60.709H36.415" stroke="#7ED3F7" stroke-width="1.5" stroke-miterlimit="10" stroke-linecap="round" stroke-linejoin="round"/>
<path d="M53.213 52.2826C53.213 51.2026 52.338 50.3276 51.258 50.3276H42.186C41.106 50.3276 40.231 51.2026 40.231 52.2826C40.231 53.3626 41.106 54.2376 42.186 54.2376H51.258C52.337 54.2376 53.213 53.3626 53.213 52.2826Z" fill="#4CB8E9"/>
<path d="M54.4058 48.3715C54.4058 47.2915 53.5308 46.4165 52.4508 46.4165H43.3788C42.2988 46.4165 41.4238 47.2915 41.4238 48.3715C41.4238 49.4515 42.2988 50.3265 43.3788 50.3265H52.4508C53.5308 50.3265 54.4058 49.4515 54.4058 48.3715Z" fill="#7ED3F7"/>
<path d="M53.213 44.4604C53.213 43.3804 52.338 42.5054 51.258 42.5054H42.186C41.106 42.5054 40.231 43.3804 40.231 44.4604C40.231 45.5404 41.106 46.4154 42.186 46.4154H51.258C52.337 46.4164 53.213 45.5404 53.213 44.4604Z" fill="#4CB8E9"/>
<path d="M56.794 32.7284C56.794 31.6484 55.919 30.7734 54.839 30.7734H45.767C44.687 30.7734 43.812 31.6484 43.812 32.7284C43.812 33.8084 44.687 34.6834 45.767 34.6834H54.839C55.919 34.6834 56.794 33.8084 56.794 32.7284Z" fill="#7ED3F7"/>
<path d="M54.8751 36.6386C54.8751 35.5586 54.0001 34.6836 52.9201 34.6836H43.8481C42.7681 34.6836 41.8931 35.5586 41.8931 36.6386C41.8931 37.7186 42.7681 38.5936 43.8481 38.5936H52.9201C54.0001 38.5936 54.8751 37.7186 54.8751 36.6386Z" fill="#4CB8E9"/>
<path d="M52.9556 40.5483C52.9556 39.4683 52.0806 38.5933 51.0006 38.5933H41.9286C40.8486 38.5933 39.9736 39.4683 39.9736 40.5483C39.9736 41.6283 40.8486 42.5033 41.9286 42.5033H51.0006C52.0806 42.5033 52.9556 41.6283 52.9556 40.5483Z" fill="#7ED3F7"/>
<path d="M54.1553 28.8188C54.1553 27.7388 53.2803 26.8638 52.2003 26.8638H43.1283C42.0483 26.8638 41.1733 27.7388 41.1733 28.8188C41.1733 29.8988 42.0483 30.7738 43.1283 30.7738H52.2003C53.2803 30.7738 54.1553 29.8988 54.1553 28.8188Z" fill="#4CB8E9"/>
<path d="M57.274 24.9091C57.274 23.8291 56.399 22.9541 55.319 22.9541H46.247C45.167 22.9541 44.292 23.8291 44.292 24.9091C44.292 25.9891 45.167 26.8641 46.247 26.8641H55.319C56.399 26.8641 57.274 25.9891 57.274 24.9091Z" fill="#7ED3F7"/>
<path d="M38.4058 40.5497C38.4058 39.4697 37.5308 38.5947 36.4508 38.5947H27.3788C26.2988 38.5947 25.4238 39.4697 25.4238 40.5497C25.4238 41.6297 26.2988 42.5047 27.3788 42.5047H36.4508C37.5308 42.5057 38.4058 41.6297 38.4058 40.5497Z" fill="#4CB8E9"/>
<path d="M39.6002 36.6396C39.6002 35.5596 38.7252 34.6846 37.6452 34.6846H28.5732C27.4932 34.6846 26.6182 35.5596 26.6182 36.6396C26.6182 37.7196 27.4932 38.5946 28.5732 38.5946H37.6452C38.7252 38.5946 39.6002 37.7196 39.6002 36.6396Z" fill="#7ED3F7"/>
<path d="M37.213 44.4604C37.213 43.3804 36.338 42.5054 35.258 42.5054H26.186C25.106 42.5054 24.231 43.3804 24.231 44.4604C24.231 45.5404 25.106 46.4154 26.186 46.4154H35.258C36.337 46.4164 37.213 45.5404 37.213 44.4604Z" fill="#7ED3F7"/>
<path d="M39.2071 48.3705C39.2071 47.2905 38.3321 46.4155 37.2521 46.4155H28.1801C27.1001 46.4155 26.2251 47.2905 26.2251 48.3705C26.2251 49.4505 27.1001 50.3255 28.1801 50.3255H37.2521C38.3311 50.3265 39.2071 49.4505 39.2071 48.3705Z" fill="#4CB8E9"/>
<path d="M37.6299 52.2802C37.6299 51.2002 36.7549 50.3252 35.6749 50.3252H26.6029C25.5229 50.3252 24.6479 51.2002 24.6479 52.2802C24.6479 53.3602 25.5229 54.2352 26.6029 54.2352H35.6749C36.7539 54.2362 37.6299 53.3602 37.6299 52.2802Z" fill="#7ED3F7"/>
<path d="M20.983 52.2826C20.983 51.2026 20.108 50.3276 19.028 50.3276H9.955C8.875 50.3266 8 51.2026 8 52.2826C8 53.3626 8.875 54.2376 9.955 54.2376H19.027C20.107 54.2376 20.983 53.3626 20.983 52.2826Z" fill="#7ED3F7"/>
<path d="M22.1768 48.3715C22.1768 47.2915 21.3018 46.4165 20.2218 46.4165H11.1498C10.0698 46.4165 9.19482 47.2915 9.19482 48.3715C9.19482 49.4515 10.0698 50.3265 11.1498 50.3265H20.2218C21.3008 50.3265 22.1768 49.4515 22.1768 48.3715Z" fill="#4CB8E9"/>
<path d="M24.4238 22.9518C29.9998 21.3998 33.1658 26.8628 33.1658 30.7738C33.1658 30.7738 32.9878 22.3788 37.8538 18.1538" stroke="white" stroke-width="1.5" stroke-miterlimit="10" stroke-linecap="round" stroke-linejoin="round"/>
<path d="M16.2422 38.1275C17.1362 32.4805 18.7222 27.3455 21.5112 24.6655" stroke="white" stroke-width="1.5" stroke-miterlimit="10" stroke-linecap="round" stroke-linejoin="round"/>
<path d="M15.6851 42.5059C15.7401 41.9489 15.8011 41.3909 15.8681 40.8359" stroke="white" stroke-width="1.5" stroke-miterlimit="10" stroke-linecap="round" stroke-linejoin="round"/>
<path d="M36.603 11.5317L40.511 16.5347L40.208 23.0497L53.537 12.5037L36.603 11.5317Z" fill="#D71049"/>
</svg>
