<svg width="72" height="72" viewBox="0 0 72 72" fill="none" xmlns="http://www.w3.org/2000/svg">
<g id="vuesax/bulk/edit">
<g id="edit">
<path id="Vector" opacity="0.4" d="M46.44 9H22.56C12.21 9 6 15.18 6 25.56V49.41C6 59.82 12.21 66 22.56 66H46.41C56.79 66 62.97 59.82 62.97 49.44V25.56C63 15.18 56.79 9 46.44 9Z" fill="#4CB8E9"/>
<path id="Vector_2" d="M63.0599 8.93985C57.6899 3.53985 52.4399 3.41985 46.9199 8.93985L43.5299 12.2999C43.2299 12.5999 43.1399 13.0199 43.2599 13.4099C45.3599 20.7599 51.2399 26.6399 58.5899 28.7399C58.6799 28.7699 58.8299 28.7699 58.9199 28.7699C59.2199 28.7699 59.5199 28.6499 59.7299 28.4398L63.0599 25.0799C65.7899 22.3498 67.1399 19.7399 67.1399 17.0699C67.1399 14.3699 65.7899 11.6999 63.0599 8.93985Z" fill="#4CB8E9"/>
<path id="Vector_3" d="M53.5798 31.26C52.7698 30.87 51.9898 30.48 51.2698 30.03C50.6698 29.67 50.0698 29.28 49.4998 28.86C49.0198 28.56 48.4798 28.11 47.9398 27.66C47.8798 27.63 47.6998 27.48 47.4598 27.24C46.5298 26.49 45.5398 25.47 44.6098 24.36C44.5498 24.3 44.3698 24.12 44.2198 23.85C43.9198 23.52 43.4698 22.95 43.0798 22.32C42.7498 21.9 42.3598 21.3 41.9998 20.67C41.5498 19.92 41.1598 19.17 40.7998 18.39C40.4098 17.55 40.1098 16.77 39.8398 16.02L23.6998 32.16C22.6498 33.21 21.6298 35.19 21.4198 36.66L20.1298 45.6C19.8598 47.49 20.3698 49.26 21.5398 50.43C22.5298 51.42 23.8798 51.93 25.3798 51.93C25.7098 51.93 26.0398 51.9 26.3698 51.87L35.2798 50.61C36.7498 50.4 38.7298 49.41 39.7798 48.33L55.9198 32.19C55.1698 31.95 54.4198 31.62 53.5798 31.26Z" fill="#4CB8E9"/>
</g>
</g>
</svg>
