<svg width="55" height="49" viewBox="0 0 55 49" fill="none" xmlns="http://www.w3.org/2000/svg">
<mask id="path-1-inside-1_1516_43117" fill="white">
<path d="M0.287103 1.03567C0.287103 0.463702 0.751035 -0.000989331 1.3229 0.00976814C14.457 0.256953 27.0825 5.19873 36.9019 13.9591C46.7213 22.7195 53.0656 34.7018 54.8035 47.7227C54.8792 48.2896 54.4702 48.8034 53.902 48.8684C53.3337 48.9334 52.8214 48.525 52.7453 47.9581C51.0654 35.4425 44.9628 23.9265 35.523 15.5047C26.0831 7.0829 13.9483 2.32835 1.32286 2.08144C0.751 2.07025 0.287103 1.60764 0.287103 1.03567Z"/>
</mask>
<path d="M0.287103 1.03567C0.287103 0.463702 0.751035 -0.000989331 1.3229 0.00976814C14.457 0.256953 27.0825 5.19873 36.9019 13.9591C46.7213 22.7195 53.0656 34.7018 54.8035 47.7227C54.8792 48.2896 54.4702 48.8034 53.902 48.8684C53.3337 48.9334 52.8214 48.525 52.7453 47.9581C51.0654 35.4425 44.9628 23.9265 35.523 15.5047C26.0831 7.0829 13.9483 2.32835 1.32286 2.08144C0.751 2.07025 0.287103 1.60764 0.287103 1.03567Z" stroke="#4CB8E9" stroke-width="8" mask="url(#path-1-inside-1_1516_43117)"/>
</svg>
