<svg width="49" height="55" viewBox="0 0 49 55" fill="none" xmlns="http://www.w3.org/2000/svg">
<mask id="path-1-inside-1_1516_43082" fill="white">
<path d="M1.03567 55C0.463697 55 -0.000994181 54.5361 0.00976324 53.9642C0.256947 40.8301 5.19872 28.2046 13.9591 18.3852C22.7195 8.56585 34.7018 2.22152 47.7227 0.483592C48.2896 0.407924 48.8034 0.81689 48.8684 1.38516C48.9333 1.95342 48.525 2.46575 47.9581 2.54184C35.4425 4.22171 23.9265 10.3243 15.5047 19.7641C7.08289 29.204 2.32834 41.3388 2.08143 53.9643C2.07025 54.5361 1.60763 55 1.03567 55Z"/>
</mask>
<path d="M1.03567 55C0.463697 55 -0.000994181 54.5361 0.00976324 53.9642C0.256947 40.8301 5.19872 28.2046 13.9591 18.3852C22.7195 8.56585 34.7018 2.22152 47.7227 0.483592C48.2896 0.407924 48.8034 0.81689 48.8684 1.38516C48.9333 1.95342 48.525 2.46575 47.9581 2.54184C35.4425 4.22171 23.9265 10.3243 15.5047 19.7641C7.08289 29.204 2.32834 41.3388 2.08143 53.9643C2.07025 54.5361 1.60763 55 1.03567 55Z" stroke="#005993" stroke-width="8" mask="url(#path-1-inside-1_1516_43082)"/>
</svg>
