<svg width="50" height="55" viewBox="0 0 50 55" fill="none" xmlns="http://www.w3.org/2000/svg">
<mask id="path-1-inside-1_1516_43050" fill="white">
<path d="M1.75051 55C1.17854 55 0.713847 54.5361 0.724604 53.9642C0.971788 40.8301 5.91356 28.2046 14.6739 18.3852C23.4343 8.56586 35.4166 2.22153 48.4375 0.483595C49.0045 0.407926 49.5182 0.816892 49.5832 1.38516C49.6482 1.95342 49.2398 2.46576 48.673 2.54185C36.1573 4.22171 24.6413 10.3243 16.2195 19.7641C7.79773 29.204 3.04318 41.3388 2.79628 53.9643C2.78509 54.5361 2.32247 55 1.75051 55Z"/>
</mask>
<path d="M1.75051 55C1.17854 55 0.713847 54.5361 0.724604 53.9642C0.971788 40.8301 5.91356 28.2046 14.6739 18.3852C23.4343 8.56586 35.4166 2.22153 48.4375 0.483595C49.0045 0.407926 49.5182 0.816892 49.5832 1.38516C49.6482 1.95342 49.2398 2.46576 48.673 2.54185C36.1573 4.22171 24.6413 10.3243 16.2195 19.7641C7.79773 29.204 3.04318 41.3388 2.79628 53.9643C2.78509 54.5361 2.32247 55 1.75051 55Z" stroke="#D71049" stroke-width="8" mask="url(#path-1-inside-1_1516_43050)"/>
</svg>
