<svg width="56" height="49" viewBox="0 0 56 49" fill="none" xmlns="http://www.w3.org/2000/svg">
<mask id="path-1-inside-1_1516_43049" fill="white">
<path d="M0.714827 1.03567C0.714827 0.463697 1.17876 -0.000994181 1.75063 0.00976324C14.8847 0.256947 27.5102 5.19872 37.3296 13.9591C47.149 22.7195 53.4933 34.7018 55.2313 47.7227C55.3069 48.2896 54.898 48.8034 54.3297 48.8684C53.7614 48.9333 53.2491 48.525 53.173 47.9581C51.4931 35.4425 45.3906 23.9265 35.9507 15.5047C26.5108 7.08289 14.376 2.32834 1.75059 2.08143C1.17873 2.07025 0.714827 1.60763 0.714827 1.03567Z"/>
</mask>
<path d="M0.714827 1.03567C0.714827 0.463697 1.17876 -0.000994181 1.75063 0.00976324C14.8847 0.256947 27.5102 5.19872 37.3296 13.9591C47.149 22.7195 53.4933 34.7018 55.2313 47.7227C55.3069 48.2896 54.898 48.8034 54.3297 48.8684C53.7614 48.9333 53.2491 48.525 53.173 47.9581C51.4931 35.4425 45.3906 23.9265 35.9507 15.5047C26.5108 7.08289 14.376 2.32834 1.75059 2.08143C1.17873 2.07025 0.714827 1.60763 0.714827 1.03567Z" stroke="#005993" stroke-width="8" mask="url(#path-1-inside-1_1516_43049)"/>
</svg>
