<svg width="56" height="49" viewBox="0 0 56 49" fill="none" xmlns="http://www.w3.org/2000/svg">
<mask id="path-1-inside-1_1516_43095" fill="white">
<path d="M55.4297 47.9643C55.4297 48.5363 54.9658 49.001 54.3939 48.9902C41.2598 48.743 28.6343 43.8013 18.8149 35.0409C8.99553 26.2805 2.6512 14.2982 0.913274 1.2773C0.837606 0.710357 1.24657 0.196627 1.81484 0.131637C2.3831 0.0666494 2.89544 0.474982 2.97152 1.04187C4.65139 13.5575 10.7539 25.0735 20.1938 33.4953C29.6337 41.9171 41.7685 46.6717 54.3939 46.9186C54.9658 46.9297 55.4297 47.3924 55.4297 47.9643Z"/>
</mask>
<path d="M55.4297 47.9643C55.4297 48.5363 54.9658 49.001 54.3939 48.9902C41.2598 48.743 28.6343 43.8013 18.8149 35.0409C8.99553 26.2805 2.6512 14.2982 0.913274 1.2773C0.837606 0.710357 1.24657 0.196627 1.81484 0.131637C2.3831 0.0666494 2.89544 0.474982 2.97152 1.04187C4.65139 13.5575 10.7539 25.0735 20.1938 33.4953C29.6337 41.9171 41.7685 46.6717 54.3939 46.9186C54.9658 46.9297 55.4297 47.3924 55.4297 47.9643Z" stroke="#4CB8E9" stroke-width="8" mask="url(#path-1-inside-1_1516_43095)"/>
</svg>
