<svg width="50" height="55" viewBox="0 0 50 55" fill="none" xmlns="http://www.w3.org/2000/svg">
<mask id="path-1-inside-1_1516_43114" fill="white">
<path d="M1.32278 55C0.750809 55 0.286118 54.5361 0.296875 53.9642C0.54406 40.8301 5.48583 28.2046 14.2462 18.3852C23.0066 8.56585 34.9889 2.22152 48.0098 0.483589C48.5767 0.407921 49.0905 0.816887 49.1555 1.38515C49.2205 1.95341 48.8121 2.46575 48.2452 2.54184C35.7296 4.2217 24.2136 10.3243 15.7918 19.7641C7.37 29.204 2.61546 41.3388 2.36855 53.9643C2.35736 54.5361 1.89474 55 1.32278 55Z"/>
</mask>
<path d="M1.32278 55C0.750809 55 0.286118 54.5361 0.296875 53.9642C0.54406 40.8301 5.48583 28.2046 14.2462 18.3852C23.0066 8.56585 34.9889 2.22152 48.0098 0.483589C48.5767 0.407921 49.0905 0.816887 49.1555 1.38515C49.2205 1.95341 48.8121 2.46575 48.2452 2.54184C35.7296 4.2217 24.2136 10.3243 15.7918 19.7641C7.37 29.204 2.61546 41.3388 2.36855 53.9643C2.35736 54.5361 1.89474 55 1.32278 55Z" stroke="#7ED3F7" stroke-width="8" mask="url(#path-1-inside-1_1516_43114)"/>
</svg>
