<svg width="55" height="49" viewBox="0 0 55 49" fill="none" xmlns="http://www.w3.org/2000/svg">
<mask id="path-1-inside-1_1516_43061" fill="white">
<path d="M0.142557 1.03566C0.142557 0.463695 0.606489 -0.00099667 1.17836 0.00976073C14.3124 0.256944 26.938 5.19872 36.7573 13.9591C46.5767 22.7195 52.9211 34.7018 54.659 47.7227C54.7347 48.2896 54.3257 48.8034 53.7574 48.8683C53.1892 48.9333 52.6768 48.525 52.6007 47.9581C50.9209 35.4425 44.8183 23.9265 35.3784 15.5047C25.9386 7.08289 13.8038 2.32834 1.17832 2.08143C0.606455 2.07025 0.142557 1.60763 0.142557 1.03566Z"/>
</mask>
<path d="M0.142557 1.03566C0.142557 0.463695 0.606489 -0.00099667 1.17836 0.00976073C14.3124 0.256944 26.938 5.19872 36.7573 13.9591C46.5767 22.7195 52.9211 34.7018 54.659 47.7227C54.7347 48.2896 54.3257 48.8034 53.7574 48.8683C53.1892 48.9333 52.6768 48.525 52.6007 47.9581C50.9209 35.4425 44.8183 23.9265 35.3784 15.5047C25.9386 7.08289 13.8038 2.32834 1.17832 2.08143C0.606455 2.07025 0.142557 1.60763 0.142557 1.03566Z" stroke="#D71049" stroke-width="8" mask="url(#path-1-inside-1_1516_43061)"/>
</svg>
