<svg width="50" height="55" viewBox="0 0 50 55" fill="none" xmlns="http://www.w3.org/2000/svg">
<mask id="path-1-inside-1_1516_43072" fill="white">
<path d="M48.5366 -2.09701e-05C49.1086 -2.10201e-05 49.5733 0.463911 49.5625 1.03578C49.3153 14.1699 44.3735 26.7954 35.6132 36.6148C26.8528 46.4341 14.8705 52.7785 1.84958 54.5164C1.28264 54.5921 0.768908 54.1831 0.703917 53.6148C0.638929 53.0466 1.04726 52.5342 1.61415 52.4582C14.1298 50.7783 25.6458 44.6757 34.0676 35.2359C42.4894 25.796 47.2439 13.6612 47.4908 1.03574C47.502 0.463877 47.9646 -2.09201e-05 48.5366 -2.09701e-05Z"/>
</mask>
<path d="M48.5366 -2.09701e-05C49.1086 -2.10201e-05 49.5733 0.463911 49.5625 1.03578C49.3153 14.1699 44.3735 26.7954 35.6132 36.6148C26.8528 46.4341 14.8705 52.7785 1.84958 54.5164C1.28264 54.5921 0.768908 54.1831 0.703917 53.6148C0.638929 53.0466 1.04726 52.5342 1.61415 52.4582C14.1298 50.7783 25.6458 44.6757 34.0676 35.2359C42.4894 25.796 47.2439 13.6612 47.4908 1.03574C47.502 0.463877 47.9646 -2.09201e-05 48.5366 -2.09701e-05Z" stroke="#D71049" stroke-width="8" mask="url(#path-1-inside-1_1516_43072)"/>
</svg>
