<svg width="55" height="49" viewBox="0 0 55 49" fill="none" xmlns="http://www.w3.org/2000/svg">
<mask id="path-1-inside-1_1516_43103" fill="white">
<path d="M54.8574 47.9643C54.8574 48.5363 54.3935 49.001 53.8216 48.9902C40.6876 48.743 28.062 43.8013 18.2426 35.0409C8.42327 26.2805 2.07894 14.2982 0.341011 1.27731C0.265343 0.710361 0.674309 0.196632 1.24258 0.131641C1.81084 0.0666542 2.32317 0.474987 2.39926 1.04187C4.07912 13.5575 10.1817 25.0735 19.6216 33.4953C29.0614 41.9171 41.1962 46.6717 53.8217 46.9186C54.3935 46.9297 54.8574 47.3924 54.8574 47.9643Z"/>
</mask>
<path d="M54.8574 47.9643C54.8574 48.5363 54.3935 49.001 53.8216 48.9902C40.6876 48.743 28.062 43.8013 18.2426 35.0409C8.42327 26.2805 2.07894 14.2982 0.341011 1.27731C0.265343 0.710361 0.674309 0.196632 1.24258 0.131641C1.81084 0.0666542 2.32317 0.474987 2.39926 1.04187C4.07912 13.5575 10.1817 25.0735 19.6216 33.4953C29.0614 41.9171 41.1962 46.6717 53.8217 46.9186C54.3935 46.9297 54.8574 47.3924 54.8574 47.9643Z" stroke="#7ED3F7" stroke-width="8" mask="url(#path-1-inside-1_1516_43103)"/>
</svg>
