<svg width="56" height="49" viewBox="0 0 56 49" fill="none" xmlns="http://www.w3.org/2000/svg">
<mask id="path-1-inside-1_1516_43105" fill="white">
<path d="M0.857401 1.03566C0.857401 0.463695 1.32133 -0.00099667 1.8932 0.00976073C15.0273 0.256944 27.6528 5.19872 37.4722 13.9591C47.2916 22.7195 53.6359 34.7018 55.3738 47.7227C55.4495 48.2896 55.0405 48.8034 54.4723 48.8683C53.904 48.9333 53.3917 48.525 53.3156 47.9581C51.6357 35.4425 45.5331 23.9265 36.0933 15.5047C26.6534 7.08289 14.5186 2.32834 1.89316 2.08143C1.3213 2.07025 0.857401 1.60763 0.857401 1.03566Z"/>
</mask>
<path d="M0.857401 1.03566C0.857401 0.463695 1.32133 -0.00099667 1.8932 0.00976073C15.0273 0.256944 27.6528 5.19872 37.4722 13.9591C47.2916 22.7195 53.6359 34.7018 55.3738 47.7227C55.4495 48.2896 55.0405 48.8034 54.4723 48.8683C53.904 48.9333 53.3917 48.525 53.3156 47.9581C51.6357 35.4425 45.5331 23.9265 36.0933 15.5047C26.6534 7.08289 14.5186 2.32834 1.89316 2.08143C1.3213 2.07025 0.857401 1.60763 0.857401 1.03566Z" stroke="#D71049" stroke-width="8" mask="url(#path-1-inside-1_1516_43105)"/>
</svg>
