<svg width="50" height="55" viewBox="0 0 50 55" fill="none" xmlns="http://www.w3.org/2000/svg">
<mask id="path-1-inside-1_1516_43070" fill="white">
<path d="M1.60793 55C1.03596 55 0.571274 54.5361 0.582031 53.9642C0.829216 40.8301 5.77099 28.2046 14.5314 18.3852C23.2918 8.56585 35.274 2.22152 48.295 0.483589C48.8619 0.407921 49.3756 0.816887 49.4406 1.38515C49.5056 1.95341 49.0973 2.46575 48.5304 2.54184C36.0148 4.2217 24.4988 10.3243 16.077 19.7641C7.65516 29.204 2.90061 41.3388 2.6537 53.9643C2.64252 54.5361 2.1799 55 1.60793 55Z"/>
</mask>
<path d="M1.60793 55C1.03596 55 0.571274 54.5361 0.582031 53.9642C0.829216 40.8301 5.77099 28.2046 14.5314 18.3852C23.2918 8.56585 35.274 2.22152 48.295 0.483589C48.8619 0.407921 49.3756 0.816887 49.4406 1.38515C49.5056 1.95341 49.0973 2.46575 48.5304 2.54184C36.0148 4.2217 24.4988 10.3243 16.077 19.7641C7.65516 29.204 2.90061 41.3388 2.6537 53.9643C2.64252 54.5361 2.1799 55 1.60793 55Z" stroke="#7ED3F7" stroke-width="8" mask="url(#path-1-inside-1_1516_43070)"/>
</svg>
