<svg width="50" height="55" viewBox="0 0 50 55" fill="none" xmlns="http://www.w3.org/2000/svg">
<mask id="path-1-inside-1_1516_43062" fill="white">
<path d="M1.17825 55C0.60628 55 0.141589 54.5361 0.152346 53.9642C0.399532 40.8301 5.3413 28.2046 14.1017 18.3852C22.8621 8.56585 34.8443 2.22152 47.8653 0.483587C48.4322 0.407918 48.946 0.816884 49.0109 1.38515C49.0759 1.95341 48.6676 2.46575 48.1007 2.54184C35.5851 4.2217 24.0691 10.3243 15.6473 19.7641C7.22548 29.204 2.47093 41.3388 2.22402 53.9642C2.21283 54.5361 1.75022 55 1.17825 55Z"/>
</mask>
<path d="M1.17825 55C0.60628 55 0.141589 54.5361 0.152346 53.9642C0.399532 40.8301 5.3413 28.2046 14.1017 18.3852C22.8621 8.56585 34.8443 2.22152 47.8653 0.483587C48.4322 0.407918 48.946 0.816884 49.0109 1.38515C49.0759 1.95341 48.6676 2.46575 48.1007 2.54184C35.5851 4.2217 24.0691 10.3243 15.6473 19.7641C7.22548 29.204 2.47093 41.3388 2.22402 53.9642C2.21283 54.5361 1.75022 55 1.17825 55Z" stroke="#4CB8E9" stroke-width="8" mask="url(#path-1-inside-1_1516_43062)"/>
</svg>
