<svg width="72" height="72" viewBox="0 0 72 72" fill="none" xmlns="http://www.w3.org/2000/svg">
<g id="vuesax/bulk/login">
<g id="login">
<path id="Vector" opacity="0.4" d="M32.2802 6C30.8402 6 29.7002 7.14 29.7002 8.58V63.45C29.7002 64.86 30.8402 66.03 32.2802 66.03C49.9502 66.03 62.2802 53.7 62.2802 36.03C62.2802 18.36 49.9202 6 32.2802 6Z" fill="#4CB8E9"/>
<path id="Vector_2" d="M47.7002 34.62L39.1802 26.07C38.3102 25.2 36.8702 25.2 36.0002 26.07C35.1302 26.94 35.1302 28.38 36.0002 29.25L40.6802 33.93H11.9702C10.7402 33.93 9.72021 34.95 9.72021 36.18C9.72021 37.41 10.7402 38.43 11.9702 38.43H40.6802L36.0002 43.14C35.1302 44.01 35.1302 45.45 36.0002 46.32C36.4502 46.77 37.0202 46.98 37.5902 46.98C38.1602 46.98 38.7302 46.77 39.1802 46.32L47.7002 37.77C48.6002 36.9 48.6002 35.49 47.7002 34.62Z" fill="#4CB8E9"/>
</g>
</g>
</svg>
