<svg width="65" height="65" viewBox="0 0 65 65" fill="none" xmlns="http://www.w3.org/2000/svg">
<path d="M16.2941 0.399902H17.4079C17.636 0.399902 17.8184 0.586227 17.8184 0.810576V1.92471C17.8184 2.15286 17.6322 2.33538 17.4079 2.33538H16.2941C16.066 2.33538 15.8835 2.14906 15.8835 1.92471V0.810576C15.8835 0.586227 16.0698 0.399902 16.2941 0.399902Z" fill="black"/>
<path d="M19.3504 2.33918C19.5785 2.33918 19.7609 2.15285 19.7609 1.9285V2.33918H19.3504Z" fill="black"/>
<path d="M21.6997 1.92854V0.814407C21.6997 0.586256 21.5134 0.403736 21.2891 0.403736H20.1753C19.9472 0.403736 19.7648 0.590059 19.7648 0.814407V2.33922H21.7035V1.92854H21.6997Z" fill="black"/>
<path d="M23.2278 2.33918C23.4559 2.33918 23.6384 2.15285 23.6384 1.9285V2.33918H23.2278Z" fill="black"/>
<path d="M22.1102 2.33918C21.8821 2.33918 21.6997 2.15289 21.6997 1.92854L21.6996 2.33918H22.1102Z" fill="black"/>
<path d="M25.5771 1.92854V0.814407C25.5771 0.586256 25.3908 0.403736 25.1665 0.403736H24.0527C23.8246 0.403736 23.6422 0.590059 23.6422 0.814407V2.33922H25.5809V1.92854H25.5771Z" fill="black"/>
<path d="M27.1052 2.33918C27.3333 2.33918 27.5158 2.15285 27.5158 1.9285V2.33918H27.1052Z" fill="black"/>
<path d="M25.9876 2.33918C25.7595 2.33918 25.5771 2.15289 25.5771 1.92854L25.5771 2.33918H25.9876Z" fill="black"/>
<path d="M29.4545 1.92854V0.814407C29.4545 0.586256 29.2682 0.403736 29.0439 0.403736H27.9301C27.702 0.403736 27.5196 0.590059 27.5196 0.814407V2.33922H29.4583V1.92854H29.4545Z" fill="black"/>
<path d="M39.5585 0.399902C39.3304 0.399902 39.148 0.586227 39.148 0.810576V2.33919H41.0867V0.399902H39.5585Z" fill="black"/>
<path d="M43.0254 0.399902H41.0867V2.33919H43.0254V0.399902Z" fill="black"/>
<path d="M44.9641 0.399902H43.0254V2.33919H44.9641V0.399902Z" fill="black"/>
<path d="M45.3746 2.33922H46.4884C46.7165 2.33922 46.899 2.15289 46.899 1.92854V0.814407C46.899 0.586256 46.7127 0.403736 46.4884 0.403736H44.9641V2.34302L45.3746 2.33922Z" fill="black"/>
<path d="M17.4117 4.27858C17.6398 4.27858 17.8222 4.09226 17.8222 3.86791V4.27858H17.4117Z" fill="black"/>
<path d="M18.2328 2.3391C18.0047 2.3391 17.8222 2.52543 17.8222 2.74978L17.8222 4.27858L19.7609 4.27839L19.7609 2.33918L18.2328 2.3391Z" fill="black"/>
<path d="M21.6996 2.33918H19.7609L19.7609 4.27839L21.6996 4.27839L21.6996 2.33918Z" fill="black"/>
<path d="M23.6384 2.33918H21.6996L21.6996 4.27839H23.6384L23.6384 2.33918Z" fill="black"/>
<path d="M25.5771 2.33918H23.6384L23.6384 4.27839H25.577L25.5771 2.33918Z" fill="black"/>
<path d="M27.5158 2.33918H25.5771L25.577 4.27839H27.5158L27.5158 2.33918Z" fill="black"/>
<path d="M29.4545 2.3391L27.5158 2.33918L27.5158 4.27839H29.4545V2.3391Z" fill="black"/>
<path d="M30.9826 4.27858C31.2107 4.27858 31.3931 4.09226 31.3931 3.86791V4.27858H30.9826Z" fill="black"/>
<path d="M29.865 4.27858C29.6369 4.27858 29.4545 4.09226 29.4545 3.86791L29.4545 4.27839L29.865 4.27858Z" fill="black"/>
<path d="M33.3319 3.86775V2.75361C33.3319 2.52546 33.1456 2.34294 32.9213 2.34294H31.8075C31.5794 2.34294 31.397 2.52926 31.397 2.75361V4.27842H33.3357V3.86775H33.3319Z" fill="black"/>
<path d="M35.6811 2.3391H36.7949C37.023 2.3391 37.2055 2.52543 37.2055 2.74978V3.86391C37.2055 4.09207 37.0192 4.27459 36.7949 4.27459H35.6811C35.453 4.27459 35.2706 4.08826 35.2706 3.86391V2.74978C35.2706 2.52543 35.4568 2.3391 35.6811 2.3391Z" fill="black"/>
<path d="M41.0867 2.33919H39.148V4.27839H41.0867V2.33919Z" fill="black"/>
<path d="M43.0254 2.33919H41.0867V4.27839H43.0254V2.33919Z" fill="black"/>
<path d="M44.9641 2.33919H43.0254V4.27839H44.9641V2.33919Z" fill="black"/>
<path d="M45.3746 2.33922L44.9641 2.33919L44.9641 2.74978C44.9641 2.52543 45.1503 2.33922 45.3746 2.33922Z" fill="black"/>
<path d="M45.3746 4.27858C45.1465 4.27858 44.9641 4.09226 44.9641 3.86791L44.9641 4.27839L45.3746 4.27858Z" fill="black"/>
<path d="M16.2941 4.27851C16.066 4.27851 15.8835 4.46483 15.8835 4.68918V6.21779H17.8222L17.8222 4.27858L16.2941 4.27851Z" fill="black"/>
<path d="M19.7609 4.27839L17.8222 4.27858L17.8222 6.21779H19.7609V4.27839Z" fill="black"/>
<path d="M21.6996 4.27839L19.7609 4.27839V6.21779H21.6996V4.27839Z" fill="black"/>
<path d="M22.1102 4.27851L21.6996 4.27839L21.6996 4.68918C21.6996 4.46483 21.8859 4.27851 22.1102 4.27851Z" fill="black"/>
<path d="M25.5771 4.68918L25.577 4.27839L25.1665 4.27851C25.3908 4.27851 25.5771 4.46483 25.5771 4.68918Z" fill="black"/>
<path d="M25.5771 5.80712C25.5771 6.03527 25.7633 6.21779 25.9876 6.21779H27.5158V4.27839H25.577L25.5771 5.80712Z" fill="black"/>
<path d="M29.4545 4.27839H27.5158V6.21779H29.4545V4.27839Z" fill="black"/>
<path d="M31.3931 4.27858L29.4545 4.27839V6.21779H31.3932L31.3931 4.27858Z" fill="black"/>
<path d="M33.3319 4.27851L31.3931 4.27858L31.3932 6.21779H33.3319V4.27851Z" fill="black"/>
<path d="M33.7424 6.21778C33.5143 6.21778 33.3319 6.03146 33.3319 5.80711L33.3319 6.21779L33.7424 6.21778Z" fill="black"/>
<path d="M41.0867 4.27839H39.148V6.21779H41.0867V4.27839Z" fill="black"/>
<path d="M41.4972 4.27851L41.0867 4.27839L41.0867 4.68918C41.0867 4.46483 41.2729 4.27851 41.4972 4.27851Z" fill="black"/>
<path d="M43.0254 4.68918L43.0254 4.27839L42.6148 4.27851C42.8391 4.27851 43.0254 4.46483 43.0254 4.68918Z" fill="black"/>
<path d="M41.4972 6.21778C41.2691 6.21778 41.0867 6.03146 41.0867 5.80711L41.0867 6.21779L41.4972 6.21778Z" fill="black"/>
<path d="M43.0254 5.80712C43.0254 6.03527 43.2116 6.21779 43.4359 6.21779H44.9641V4.27839H43.0254L43.0254 5.80712Z" fill="black"/>
<path d="M45.3746 6.21782H46.4884C46.7165 6.21782 46.899 6.0315 46.899 5.80715V4.69301C46.899 4.46486 46.7127 4.28234 46.4884 4.28234H44.9641V6.22162H45.3746V6.21782Z" fill="black"/>
<path d="M17.8222 6.21779H15.8835V8.15699H17.8222V6.21779Z" fill="black"/>
<path d="M19.7609 6.21779H17.8222V8.15699H19.7609V6.21779Z" fill="black"/>
<path d="M21.6996 7.74632C21.6996 7.97447 21.5134 8.15699 21.2891 8.15699H19.7609V6.21779H21.6996V7.74632Z" fill="black"/>
<path d="M23.2278 8.15698C23.4559 8.15698 23.6384 7.97066 23.6384 7.74631V8.15698H23.2278Z" fill="black"/>
<path d="M25.5771 7.74635V6.63222C25.5771 6.40406 25.3908 6.22154 25.1665 6.22154H24.0527C23.8246 6.22154 23.6422 6.40787 23.6422 6.63222V8.15702H25.5809V7.74635H25.5771Z" fill="black"/>
<path d="M27.5158 6.62838L27.5158 6.21779L27.1052 6.21771C27.3295 6.21771 27.5158 6.40404 27.5158 6.62838Z" fill="black"/>
<path d="M29.4545 6.21779H27.5158L27.5158 8.15699H29.4545V6.21779Z" fill="black"/>
<path d="M31.3932 6.21779H29.4545V8.15699H31.3932V6.21779Z" fill="black"/>
<path d="M33.3319 6.21779H31.3932V8.15699H33.3319V6.21779Z" fill="black"/>
<path d="M34.86 6.21771C35.0881 6.21771 35.2706 6.40404 35.2706 6.62838V8.15699H33.3319V6.21779L34.86 6.21771Z" fill="black"/>
<path d="M39.148 7.74632C39.148 7.97447 39.3342 8.15699 39.5585 8.15699H41.0867V6.21779H39.148V7.74632Z" fill="black"/>
<path d="M41.4972 8.15702H42.611C42.8391 8.15702 43.0216 7.9707 43.0216 7.74635V6.63222C43.0216 6.40406 42.8353 6.22154 42.611 6.22154H41.0867V8.16083H41.4972V8.15702Z" fill="black"/>
<path d="M48.8415 7.74635V6.63222C48.8415 6.40406 48.6552 6.22154 48.4309 6.22154H47.3171C47.089 6.22154 46.9066 6.40787 46.9066 6.63222V8.15702H48.8453L48.8415 7.74635Z" fill="black"/>
<path d="M15.8835 9.68552C15.8835 9.91367 16.0698 10.0962 16.2941 10.0962H17.4079C17.636 10.0962 17.8184 9.90987 17.8184 9.68552V8.15691H15.8797V9.68552H15.8835Z" fill="black"/>
<path d="M18.2328 8.15691L17.8222 8.15699L17.8222 8.56758C17.8222 8.34324 18.0085 8.15691 18.2328 8.15691Z" fill="black"/>
<path d="M21.2891 10.0964C21.5172 10.0964 21.6996 9.91006 21.6996 9.68572V10.0964H21.2891Z" fill="black"/>
<path d="M22.1102 8.15691C21.8821 8.15691 21.6996 8.34324 21.6996 8.56758V10.0964L23.6384 10.0962L23.6384 8.15698L22.1102 8.15691Z" fill="black"/>
<path d="M25.577 9.68552C25.577 9.91367 25.3908 10.0962 25.1665 10.0962H23.6384L23.6384 8.15698L25.577 8.15691V9.68552Z" fill="black"/>
<path d="M27.5157 9.68552C27.5157 9.91367 27.702 10.0962 27.9263 10.0962H29.0401C29.2682 10.0962 29.4507 9.90987 29.4507 9.68552V8.15691H27.5119V9.68552H27.5157Z" fill="black"/>
<path d="M29.865 8.15691L29.4545 8.15699L29.4545 8.56758C29.4545 8.34324 29.6407 8.15691 29.865 8.15691Z" fill="black"/>
<path d="M33.3319 8.56758L33.3319 8.15699L32.9213 8.15691C33.1456 8.15691 33.3319 8.34324 33.3319 8.56758Z" fill="black"/>
<path d="M35.2706 8.15699H33.3319L33.3319 10.0962H35.2706V8.15699Z" fill="black"/>
<path d="M35.6811 10.0964C35.453 10.0964 35.2706 9.91006 35.2706 9.68572L35.2706 10.0962L35.6811 10.0964Z" fill="black"/>
<path d="M43.4359 8.15691H44.5497C44.7778 8.15691 44.9603 8.34324 44.9603 8.56758V9.68172C44.9603 9.90987 44.774 10.0924 44.5497 10.0924H43.4359C43.2078 10.0924 43.0254 9.90607 43.0254 9.68172V8.56758C43.0254 8.34324 43.2116 8.15691 43.4359 8.15691Z" fill="black"/>
<path d="M46.9028 9.68552C46.9028 9.91367 47.0891 10.0962 47.3133 10.0962H48.4271C48.6552 10.0962 48.8377 9.90987 48.8377 9.68552V8.15691H46.899L46.9028 9.68552Z" fill="black"/>
<path d="M20.1715 10.0965C19.9434 10.0965 19.7609 10.2828 19.7609 10.5072V12.0358H21.6996L21.6996 10.0964L20.1715 10.0965Z" fill="black"/>
<path d="M23.6384 11.6251C23.6384 11.8533 23.4521 12.0358 23.2278 12.0358H21.6996L21.6996 10.0964L23.6384 10.0962V11.6251Z" fill="black"/>
<path d="M24.0489 10.0965L23.6384 10.0962L23.6383 10.5072C23.6383 10.2828 23.8246 10.0965 24.0489 10.0965Z" fill="black"/>
<path d="M25.9876 10.0965H27.1014C27.3295 10.0965 27.512 10.2828 27.512 10.5072V11.6213C27.512 11.8495 27.3257 12.032 27.1014 12.032H25.9876C25.7595 12.032 25.5771 11.8457 25.5771 11.6213V10.5072C25.5771 10.2828 25.7633 10.0965 25.9876 10.0965Z" fill="black"/>
<path d="M33.3319 11.6251C33.3319 11.8533 33.5181 12.0358 33.7424 12.0358H35.2706V10.0962H33.3319V11.6251Z" fill="black"/>
<path d="M36.7987 10.0965C37.0268 10.0965 37.2093 10.2828 37.2093 10.5072V12.0358H35.2706V10.0962L36.7987 10.0965Z" fill="black"/>
<path d="M41.4972 10.0965H42.611C42.8391 10.0965 43.0216 10.2828 43.0216 10.5072V11.6213C43.0216 11.8495 42.8353 12.032 42.611 12.032H41.4972C41.2691 12.032 41.0867 11.8457 41.0867 11.6213V10.5072C41.0867 10.2828 41.2729 10.0965 41.4972 10.0965Z" fill="black"/>
<path d="M45.3746 10.0965H46.4884C46.7165 10.0965 46.899 10.2828 46.899 10.5072V11.6213C46.899 11.8495 46.7127 12.032 46.4884 12.032H45.3746C45.1465 12.032 44.9641 11.8457 44.9641 11.6213V10.5072C44.9641 10.2828 45.1503 10.0965 45.3746 10.0965Z" fill="black"/>
<path d="M16.2941 12.0357H17.4079C17.636 12.0357 17.8184 12.222 17.8184 12.4464V13.5605C17.8184 13.7887 17.6322 13.9712 17.4079 13.9712H16.2941C16.066 13.9712 15.8835 13.7849 15.8835 13.5605V12.4464C15.8835 12.222 16.0698 12.0357 16.2941 12.0357Z" fill="black"/>
<path d="M21.6996 12.0358H19.7609V13.975H21.6996V12.0358Z" fill="black"/>
<path d="M22.1102 12.0357L21.6996 12.0358L21.6996 12.4464C21.6996 12.222 21.8859 12.0357 22.1102 12.0357Z" fill="black"/>
<path d="M25.5771 13.5642V12.45C25.5771 12.2219 25.3908 12.0394 25.1665 12.0394H24.0527C23.8246 12.0394 23.6422 12.2257 23.6422 12.45V13.9748H25.5809V13.5642H25.5771Z" fill="black"/>
<path d="M29.4545 13.5642V12.45C29.4545 12.2219 29.2682 12.0394 29.0439 12.0394H27.9301C27.702 12.0394 27.5196 12.2257 27.5196 12.45V13.9748H29.4583V13.5642H29.4545Z" fill="black"/>
<path d="M29.865 13.9748C29.6369 13.9748 29.4545 13.7885 29.4545 13.5642L29.4545 13.9748H29.865Z" fill="black"/>
<path d="M31.8037 12.0357H32.9175C33.1456 12.0357 33.3281 12.222 33.3281 12.4464V13.5605C33.3281 13.7887 33.1418 13.9712 32.9175 13.9712H31.8037C31.5756 13.9712 31.3932 13.7849 31.3932 13.5605V12.4464C31.3932 12.222 31.5794 12.0357 31.8037 12.0357Z" fill="black"/>
<path d="M35.2706 12.4464L35.2706 12.0358L34.86 12.0357C35.0843 12.0357 35.2706 12.222 35.2706 12.4464Z" fill="black"/>
<path d="M35.2706 13.5643C35.2706 13.7925 35.4568 13.975 35.6811 13.975H36.7949C37.023 13.975 37.2055 13.7887 37.2055 13.5643V12.0357H35.2668L35.2706 13.5643Z" fill="black"/>
<path d="M38.7374 13.9748C38.9655 13.9748 39.148 13.7885 39.148 13.5641V13.9748H38.7374Z" fill="black"/>
<path d="M41.0867 13.5642V12.45C41.0867 12.2219 40.9004 12.0394 40.6761 12.0394H39.5623C39.3342 12.0394 39.1518 12.2257 39.1518 12.45V13.9748H41.0905L41.0867 13.5642Z" fill="black"/>
<path d="M44.9641 13.5642V12.45C44.9641 12.2219 44.7778 12.0394 44.5535 12.0394H43.4397C43.2116 12.0394 43.0292 12.2257 43.0292 12.45V13.9748H44.9679L44.9641 13.5642Z" fill="black"/>
<path d="M48.8415 13.5642V12.45C48.8415 12.2219 48.6552 12.0394 48.4309 12.0394H47.3171C47.089 12.0394 46.9066 12.2257 46.9066 12.45V13.9748H48.8453L48.8415 13.5642Z" fill="black"/>
<path d="M21.6996 13.975H19.7609V15.9142H21.6996V13.975Z" fill="black"/>
<path d="M23.2278 15.9142C23.4559 15.9142 23.6384 15.7279 23.6384 15.5035V15.9142H23.2278Z" fill="black"/>
<path d="M22.1102 15.9142C21.8821 15.9142 21.6996 15.7279 21.6996 15.5035L21.6996 15.9142L22.1102 15.9142Z" fill="black"/>
<path d="M25.577 13.9749H23.6383L23.6384 15.9142L25.577 15.9142V13.9749Z" fill="black"/>
<path d="M25.9876 15.9142C25.7595 15.9142 25.5771 15.7279 25.5771 15.5035L25.577 15.9142L25.9876 15.9142Z" fill="black"/>
<path d="M27.5158 15.5035C27.5158 15.7317 27.702 15.9142 27.9263 15.9142H29.4545L29.4545 13.9748L27.5158 13.9749V15.5035Z" fill="black"/>
<path d="M29.865 15.914H30.9788C31.2069 15.914 31.3894 15.7277 31.3894 15.5034V14.3892C31.3894 14.1611 31.2031 13.9786 30.9788 13.9786H29.4545V15.9178L29.865 15.914Z" fill="black"/>
<path d="M33.7424 13.9749H34.8562C35.0843 13.9749 35.2668 14.1612 35.2668 14.3856V15.4997C35.2668 15.7279 35.0805 15.9104 34.8562 15.9104H33.7424C33.5143 15.9104 33.3319 15.7241 33.3319 15.4997V14.3856C33.3319 14.1612 33.5181 13.9749 33.7424 13.9749Z" fill="black"/>
<path d="M37.6198 13.9749C37.3917 13.9749 37.2093 14.1612 37.2093 14.3856V15.9142H39.148L39.148 13.9748L37.6198 13.9749Z" fill="black"/>
<path d="M41.0867 13.9749L39.148 13.9748L39.148 15.9142H41.0867V13.9749Z" fill="black"/>
<path d="M44.9641 13.9749H43.0254V15.9142H44.9641V13.9749Z" fill="black"/>
<path d="M46.9028 15.5035C46.9028 15.7317 47.0891 15.9142 47.3133 15.9142H48.4271C48.6552 15.9142 48.8377 15.7279 48.8377 15.5035V13.9749H46.899L46.9028 15.5035Z" fill="black"/>
<path d="M0.784457 15.9143C0.556374 15.9143 0.373908 16.1006 0.373908 16.325V17.8536H2.31261V15.9143H0.784457Z" fill="black"/>
<path d="M4.25133 15.9143L2.31261 15.9143V17.8536L4.25133 17.8536V15.9143Z" fill="black"/>
<path d="M6.19003 15.9143H4.25133V17.8536H6.19003V15.9143Z" fill="black"/>
<path d="M7.71818 15.9143C7.94626 15.9143 8.12873 16.1007 8.12873 16.325V17.8536H6.19003V15.9143H7.71818Z" fill="black"/>
<path d="M12.4167 15.9143H13.5305C13.7586 15.9143 13.941 16.1007 13.941 16.325V17.4391C13.941 17.6673 13.7548 17.8498 13.5305 17.8498H12.4167C12.1886 17.8498 12.0061 17.6635 12.0061 17.4391V16.325C12.0061 16.1007 12.1924 15.9143 12.4167 15.9143Z" fill="black"/>
<path d="M16.2941 15.9143H17.4079C17.636 15.9143 17.8184 16.1007 17.8184 16.325V17.4391C17.8184 17.6673 17.6322 17.8498 17.4079 17.8498H16.2941C16.066 17.8498 15.8835 17.6635 15.8835 17.4391V16.325C15.8835 16.1007 16.0698 15.9143 16.2941 15.9143Z" fill="black"/>
<path d="M21.6996 15.9142H19.7609V17.8536H21.6996V15.9142Z" fill="black"/>
<path d="M23.6384 15.9142L21.6996 15.9142V17.8536H23.6384L23.6384 15.9142Z" fill="black"/>
<path d="M25.577 15.9142L23.6384 15.9142L23.6384 17.8536H25.577V15.9142Z" fill="black"/>
<path d="M27.1052 15.9143C27.3333 15.9143 27.5158 16.1007 27.5158 16.325V17.8536H25.577V15.9142L27.1052 15.9143Z" fill="black"/>
<path d="M33.3319 17.4426V16.3284C33.3319 16.1003 33.1456 15.9178 32.9213 15.9178H31.8075C31.5794 15.9178 31.397 16.1041 31.397 16.3284V17.8532H33.3357V17.4426H33.3319Z" fill="black"/>
<path d="M39.148 15.9142H37.2093V17.8536H39.148V15.9142Z" fill="black"/>
<path d="M41.0867 17.4429C41.0867 17.6711 40.9004 17.8536 40.6761 17.8536H39.148V15.9142H41.0867V17.4429Z" fill="black"/>
<path d="M43.0254 17.4429C43.0254 17.6711 43.2116 17.8536 43.4359 17.8536H44.5497C44.7778 17.8536 44.9603 17.6673 44.9603 17.4429V15.9143H43.0216L43.0254 17.4429Z" fill="black"/>
<path d="M50.7802 17.4426V16.3284C50.7802 16.1003 50.5939 15.9178 50.3696 15.9178H49.2558C49.0278 15.9178 48.8453 16.1041 48.8453 16.3284V17.8532H50.784L50.7802 17.4426Z" fill="black"/>
<path d="M56.1857 15.9141H55.0719C54.8439 15.9141 54.6614 16.1004 54.6614 16.3248V17.4389C54.6614 17.6671 54.8477 17.8496 55.0719 17.8496H56.6001V15.9103L56.1857 15.9141Z" fill="black"/>
<path d="M58.535 15.9143H56.5963V17.8536H58.535V15.9143Z" fill="black"/>
<path d="M60.0631 15.9143C60.2912 15.9143 60.4737 16.1007 60.4737 16.325V17.8536H58.535V15.9143H60.0631Z" fill="black"/>
<path d="M62.823 15.9143H63.9368C64.1648 15.9143 64.3473 16.1007 64.3473 16.325V17.4391C64.3473 17.6673 64.161 17.8498 63.9368 17.8498H62.823C62.5949 17.8498 62.4124 17.6635 62.4124 17.4391V16.325C62.4124 16.1007 62.5987 15.9143 62.823 15.9143Z" fill="black"/>
<path d="M0.373908 19.3821C0.373908 19.6102 0.560176 19.7928 0.784457 19.7928H2.31261V17.8536H0.373908V19.3821Z" fill="black"/>
<path d="M4.25133 17.8536L2.31261 17.8536V19.7928L4.25133 19.7928V17.8536Z" fill="black"/>
<path d="M6.19003 17.8536H4.25133V19.7928H6.19003V17.8536Z" fill="black"/>
<path d="M8.12873 19.3821C8.12873 19.6103 7.94246 19.7928 7.71818 19.7928H6.19003V17.8536H8.12873V19.3821Z" fill="black"/>
<path d="M9.65689 19.7926C9.88497 19.7926 10.0674 19.6063 10.0674 19.3819V19.7926H9.65689Z" fill="black"/>
<path d="M12.0061 19.3822V18.268C12.0061 18.0399 11.8199 17.8574 11.5956 17.8574H10.4818C10.2537 17.8574 10.0712 18.0437 10.0712 18.268V19.7928H12.0099V19.3822H12.0061Z" fill="black"/>
<path d="M12.4167 19.7926C12.1886 19.7926 12.0061 19.6065 12.0061 19.3822L12.0061 19.7926H12.4167Z" fill="black"/>
<path d="M19.3504 19.7926C19.5785 19.7926 19.7609 19.6063 19.7609 19.3819V19.7926H19.3504Z" fill="black"/>
<path d="M21.6996 17.8536H19.7609L19.7609 19.7926L21.6996 19.7928V17.8536Z" fill="black"/>
<path d="M22.1102 17.8535L21.6996 17.8536L21.6996 18.2642C21.6996 18.0399 21.8859 17.8535 22.1102 17.8535Z" fill="black"/>
<path d="M23.6384 18.2642L23.6384 17.8536L23.2278 17.8535C23.4521 17.8535 23.6384 18.0399 23.6384 18.2642Z" fill="black"/>
<path d="M23.2278 19.7926C23.4559 19.7926 23.6384 19.6063 23.6384 19.3819V19.7926H23.2278Z" fill="black"/>
<path d="M22.1102 19.7926C21.8821 19.7926 21.6996 19.6063 21.6996 19.3819L21.6996 19.7928L22.1102 19.7926Z" fill="black"/>
<path d="M25.577 17.8536H23.6384L23.6384 19.7926L25.577 19.7928V17.8536Z" fill="black"/>
<path d="M27.5158 17.8536H25.577V19.7928H27.5158V17.8536Z" fill="black"/>
<path d="M33.3319 17.8535H31.3932V19.7928H33.3319V17.8535Z" fill="black"/>
<path d="M36.7987 19.7926C37.0268 19.7926 37.2093 19.6063 37.2093 19.3819V19.7926H36.7987Z" fill="black"/>
<path d="M39.148 17.8536H37.2093V19.7926L39.148 19.7928V17.8536Z" fill="black"/>
<path d="M39.5585 17.8535L39.148 17.8536L39.148 18.2642C39.148 18.0399 39.3342 17.8535 39.5585 17.8535Z" fill="black"/>
<path d="M40.6761 19.7926C40.9042 19.7926 41.0867 19.6063 41.0867 19.3819V19.7926H40.6761Z" fill="black"/>
<path d="M39.5585 19.7926C39.3304 19.7926 39.148 19.6063 39.148 19.3819L39.148 19.7928L39.5585 19.7926Z" fill="black"/>
<path d="M43.0254 19.3822V18.268C43.0254 18.0399 42.8391 17.8574 42.6148 17.8574H41.501C41.2729 17.8574 41.0905 18.0437 41.0905 18.268V19.7928H43.0292L43.0254 19.3822Z" fill="black"/>
<path d="M44.5535 19.7926C44.7816 19.7926 44.9641 19.6063 44.9641 19.3819V19.7926H44.5535Z" fill="black"/>
<path d="M43.4359 19.7926C43.2078 19.7926 43.0254 19.6065 43.0254 19.3822V19.7926H43.4359Z" fill="black"/>
<path d="M46.9028 19.3822V18.268C46.9028 18.0399 46.7165 17.8574 46.4922 17.8574H45.3784C45.1504 17.8574 44.9679 18.0437 44.9679 18.268V19.7928H46.9066L46.9028 19.3822Z" fill="black"/>
<path d="M48.4309 19.7926C48.659 19.7926 48.8415 19.6063 48.8415 19.3819V19.7926H48.4309Z" fill="black"/>
<path d="M47.3133 19.7926C47.0852 19.7926 46.9028 19.6065 46.9028 19.3822L46.9028 19.7926H47.3133Z" fill="black"/>
<path d="M50.7802 17.8535H48.8415V19.7926L50.7802 19.7928V17.8535Z" fill="black"/>
<path d="M51.1907 19.7926C50.9627 19.7926 50.7802 19.6063 50.7802 19.3819L50.7802 19.7928L51.1907 19.7926Z" fill="black"/>
<path d="M53.1294 17.8535H54.2432C54.4713 17.8535 54.6538 18.0399 54.6538 18.2642V19.3783C54.6538 19.6065 54.4675 19.789 54.2432 19.789H53.1294C52.9014 19.789 52.7189 19.6027 52.7189 19.3783V18.2642C52.7189 18.0399 52.9052 17.8535 53.1294 17.8535Z" fill="black"/>
<path d="M56.5963 18.2642V17.8536L56.1857 17.8535C56.41 17.8535 56.5963 18.0399 56.5963 18.2642Z" fill="black"/>
<path d="M56.5963 19.3821C56.5963 19.6103 56.7826 19.7928 57.0068 19.7928H58.535V17.8536H56.5963V19.3821Z" fill="black"/>
<path d="M60.4737 17.8536H58.535V19.7928H60.4737V17.8536Z" fill="black"/>
<path d="M60.8843 19.7926C60.6562 19.7926 60.4737 19.6063 60.4737 19.3819L60.4737 19.7928L60.8843 19.7926Z" fill="black"/>
<path d="M2.31263 20.2034L2.31261 19.7928L1.90208 19.7927C2.12636 19.7927 2.31263 19.9791 2.31263 20.2034Z" fill="black"/>
<path d="M4.25133 19.7928L2.31261 19.7928L2.31263 21.732H4.25133V19.7928Z" fill="black"/>
<path d="M4.66188 19.7927L4.25133 19.7928L4.25133 20.2034C4.25133 19.9791 4.43759 19.7927 4.66188 19.7927Z" fill="black"/>
<path d="M7.71819 21.7322C7.94627 21.7322 8.12874 21.5459 8.12874 21.3215V21.7322H7.71819Z" fill="black"/>
<path d="M8.53929 19.7927C8.3112 19.7927 8.12874 19.9791 8.12874 20.2034V21.7322L10.0674 21.732L10.0674 19.7926L8.53929 19.7927Z" fill="black"/>
<path d="M12.0061 19.7926H10.0674L10.0674 21.732H12.0061L12.0061 19.7926Z" fill="black"/>
<path d="M13.9448 19.7927L12.0061 19.7926L12.0061 21.732H13.9448V19.7927Z" fill="black"/>
<path d="M14.3554 21.732H15.4692C15.6973 21.732 15.8797 21.5457 15.8797 21.3214V20.2072C15.8797 19.9791 15.6935 19.7966 15.4692 19.7966H13.9448V21.7358L14.3554 21.732Z" fill="black"/>
<path d="M18.2328 19.7927C18.0047 19.7927 17.8222 19.9791 17.8222 20.2034V21.732H19.7609L19.7609 19.7926L18.2328 19.7927Z" fill="black"/>
<path d="M21.6996 19.7928L19.7609 19.7926L19.7609 21.732H21.6996V19.7928Z" fill="black"/>
<path d="M23.6384 19.7926L21.6996 19.7928V21.732H23.6384L23.6384 19.7926Z" fill="black"/>
<path d="M25.577 19.7928L23.6384 19.7926L23.6384 21.732H25.577V19.7928Z" fill="black"/>
<path d="M27.5158 21.3213C27.5158 21.5495 27.3295 21.732 27.1052 21.732H25.577V19.7928H27.5158V21.3213Z" fill="black"/>
<path d="M30.9826 21.7322C31.2107 21.7322 31.3931 21.5459 31.3931 21.3215V21.7322H30.9826Z" fill="black"/>
<path d="M33.3319 19.7928H31.3932L31.3931 21.7322L33.3319 21.732V19.7928Z" fill="black"/>
<path d="M35.6811 19.7927C35.453 19.7927 35.2706 19.9791 35.2706 20.2034V21.732H37.2093L37.2093 19.7926L35.6811 19.7927Z" fill="black"/>
<path d="M39.148 19.7928L37.2093 19.7926L37.2093 21.732H39.148V19.7928Z" fill="black"/>
<path d="M41.0867 19.7926L39.148 19.7928V21.732H41.0867L41.0867 19.7926Z" fill="black"/>
<path d="M43.0254 19.7926H41.0867L41.0867 21.732H43.0254L43.0254 19.7926Z" fill="black"/>
<path d="M44.9641 19.7926H43.0254L43.0254 21.732H44.9641L44.9641 19.7926Z" fill="black"/>
<path d="M46.9028 19.7926H44.9641L44.9641 21.732H46.9028L46.9028 19.7926Z" fill="black"/>
<path d="M48.8415 19.7926H46.9028L46.9028 21.732H48.8415L48.8415 19.7926Z" fill="black"/>
<path d="M50.7802 19.7928L48.8415 19.7926L48.8415 21.732H50.7802V19.7928Z" fill="black"/>
<path d="M52.3083 19.7927C52.5364 19.7927 52.7189 19.9791 52.7189 20.2034V21.732H50.7802V19.7928L52.3083 19.7927Z" fill="black"/>
<path d="M54.247 21.7322C54.4751 21.7322 54.6576 21.5459 54.6576 21.3215V21.7322H54.247Z" fill="black"/>
<path d="M53.1294 21.7322C52.9014 21.7322 52.7189 21.5459 52.7189 21.3215L52.7189 21.732L53.1294 21.7322Z" fill="black"/>
<path d="M56.5963 21.3214V20.2072C56.5963 19.9791 56.41 19.7966 56.1857 19.7966H55.0719C54.8439 19.7966 54.6614 19.9829 54.6614 20.2072V21.732H56.6001L56.5963 21.3214Z" fill="black"/>
<path d="M58.535 20.2034L58.535 19.7928L58.1245 19.7927C58.3487 19.7927 58.535 19.9791 58.535 20.2034Z" fill="black"/>
<path d="M58.535 21.3213C58.535 21.5495 58.7213 21.732 58.9455 21.732H60.4737V19.7928H58.535L58.535 21.3213Z" fill="black"/>
<path d="M62.4124 19.7927L60.4737 19.7928V21.732H62.4124V19.7927Z" fill="black"/>
<path d="M63.9406 19.7927C64.1686 19.7927 64.3511 19.9791 64.3511 20.2034V21.732H62.4124V19.7927H63.9406Z" fill="black"/>
<path d="M2.31261 23.2607C2.31261 23.4889 2.49887 23.6714 2.72315 23.6714H3.83696C4.06504 23.6714 4.24751 23.4851 4.24751 23.2607V21.7321H2.3088V23.2607H2.31261Z" fill="black"/>
<path d="M7.71819 21.7322L6.60439 21.7321C6.37631 21.7321 6.19384 21.9184 6.19384 22.1428V23.2569C6.19384 23.4851 6.38011 23.6676 6.60439 23.6676H8.12874V21.7283L7.71819 21.7322Z" fill="black"/>
<path d="M10.0674 21.732L8.12874 21.7322V23.6714H10.0674V21.732Z" fill="black"/>
<path d="M10.478 21.7321L10.0674 21.732L10.0674 22.1428C10.0674 21.9185 10.2537 21.7321 10.478 21.7321Z" fill="black"/>
<path d="M19.7609 21.732H17.8222V23.6714H19.7609V21.732Z" fill="black"/>
<path d="M21.6996 21.732H19.7609V23.6714H21.6996V21.732Z" fill="black"/>
<path d="M22.1102 21.7321L21.6996 21.732L21.6996 22.1428C21.6996 21.9185 21.8859 21.7321 22.1102 21.7321Z" fill="black"/>
<path d="M29.0439 23.6714C29.272 23.6714 29.4545 23.4851 29.4545 23.2607V23.6714H29.0439Z" fill="black"/>
<path d="M29.865 21.7321C29.6369 21.7321 29.4545 21.9185 29.4545 22.1428V23.6714L31.3932 23.6714L31.3931 21.7322L29.865 21.7321Z" fill="black"/>
<path d="M33.3319 23.2607C33.3319 23.4889 33.1456 23.6714 32.9213 23.6714H31.3932L31.3931 21.7322L33.3319 21.732V23.2607Z" fill="black"/>
<path d="M34.86 23.6714C35.0881 23.6714 35.2706 23.4851 35.2706 23.2607V23.6714H34.86Z" fill="black"/>
<path d="M37.2093 21.732H35.2706L35.2706 23.6714L37.2093 23.6714V21.732Z" fill="black"/>
<path d="M37.6198 21.7321L37.2093 21.732L37.2093 22.1428C37.2093 21.9185 37.3955 21.7321 37.6198 21.7321Z" fill="black"/>
<path d="M39.148 22.1428L39.148 21.732L38.7374 21.7321C38.9617 21.7321 39.148 21.9185 39.148 22.1428Z" fill="black"/>
<path d="M39.148 23.2607C39.148 23.4889 39.3342 23.6714 39.5585 23.6714H40.6723C40.9004 23.6714 41.0829 23.4851 41.0829 23.2607V21.7321H39.1442L39.148 23.2607Z" fill="black"/>
<path d="M41.4972 21.7321L41.0867 21.732L41.0867 22.1428C41.0867 21.9185 41.2729 21.7321 41.4972 21.7321Z" fill="black"/>
<path d="M44.9641 22.1428L44.9641 21.732L44.5535 21.7321C44.7778 21.7321 44.9641 21.9185 44.9641 22.1428Z" fill="black"/>
<path d="M44.9641 23.2607C44.9641 23.4889 45.1503 23.6714 45.3746 23.6714H46.9028V21.732H44.9641L44.9641 23.2607Z" fill="black"/>
<path d="M48.8415 23.2607C48.8415 23.4889 48.6552 23.6714 48.4309 23.6714H46.9028V21.732H48.8415V23.2607Z" fill="black"/>
<path d="M49.252 21.7321L48.8415 21.732L48.8415 22.1428C48.8415 21.9185 49.0278 21.7321 49.252 21.7321Z" fill="black"/>
<path d="M50.7802 22.1428L50.7802 21.732L50.3696 21.7321C50.5939 21.7321 50.7802 21.9185 50.7802 22.1428Z" fill="black"/>
<path d="M50.7802 23.2607C50.7802 23.4889 50.9665 23.6714 51.1907 23.6714H52.7189V21.732H50.7802L50.7802 23.2607Z" fill="black"/>
<path d="M54.6576 21.7322L52.7189 21.732V23.6714H54.6576L54.6576 21.7322Z" fill="black"/>
<path d="M56.5963 21.7321L54.6576 21.7322L54.6576 23.6714H56.5963V21.7321Z" fill="black"/>
<path d="M62.4124 22.1428L62.4124 21.732L62.0019 21.7321C62.2261 21.7321 62.4124 21.9185 62.4124 22.1428Z" fill="black"/>
<path d="M62.4124 23.2607C62.4124 23.4889 62.5987 23.6714 62.823 23.6714H63.9368C64.1648 23.6714 64.3473 23.4851 64.3473 23.2607V21.7321H62.4086L62.4124 23.2607Z" fill="black"/>
<path d="M2.3126 25.2V24.0858C2.3126 23.8577 2.12633 23.6752 1.90205 23.6752H0.788247C0.560165 23.6752 0.377699 23.8615 0.377699 24.0858V25.6106H2.3164L2.3126 25.2Z" fill="black"/>
<path d="M4.66188 23.6713H5.77568C6.00376 23.6713 6.18623 23.8577 6.18623 24.082V25.1961C6.18623 25.4243 5.99996 25.6068 5.77568 25.6068H4.66188C4.43379 25.6068 4.25133 25.4205 4.25133 25.1961V24.082C4.25133 23.8577 4.43759 23.6713 4.66188 23.6713Z" fill="black"/>
<path d="M8.12874 24.082V23.6714L7.71819 23.6713C7.94247 23.6713 8.12874 23.8577 8.12874 24.082Z" fill="black"/>
<path d="M8.12873 25.1999C8.12873 25.4281 8.31499 25.6106 8.53927 25.6106H9.65308C9.88116 25.6106 10.0636 25.4243 10.0636 25.1999V23.6713H8.12492V25.1999H8.12873Z" fill="black"/>
<path d="M13.5343 23.6713H12.4205C12.1924 23.6713 12.0099 23.8576 12.0099 24.082V25.1961C12.0099 25.4243 12.1962 25.6068 12.4205 25.6068H13.9448V23.6675L13.5343 23.6713Z" fill="black"/>
<path d="M15.473 23.6713C15.7011 23.6713 15.8836 23.8577 15.8836 24.082V25.6106H13.9448V23.6713H15.473Z" fill="black"/>
<path d="M16.2941 25.6106C16.066 25.6106 15.8835 25.4243 15.8835 25.1999L15.8836 25.6106L16.2941 25.6106Z" fill="black"/>
<path d="M17.8222 25.1999C17.8222 25.4281 18.0085 25.6106 18.2328 25.6106H19.7609V23.6714H17.8222V25.1999Z" fill="black"/>
<path d="M21.6996 25.1999C21.6996 25.4281 21.5134 25.6106 21.2891 25.6106H19.7609V23.6714H21.6996V25.1999Z" fill="black"/>
<path d="M23.2278 25.6106C23.4559 25.6106 23.6384 25.4243 23.6384 25.1999V25.6106H23.2278Z" fill="black"/>
<path d="M25.5771 25.2V24.0858C25.5771 23.8577 25.3908 23.6752 25.1665 23.6752H24.0527C23.8246 23.6752 23.6422 23.8615 23.6422 24.0858V25.6107H25.5809V25.2H25.5771Z" fill="black"/>
<path d="M27.9263 23.6713C27.6982 23.6713 27.5158 23.8577 27.5158 24.082V25.6106H29.4545L29.4545 23.6714L27.9263 23.6713Z" fill="black"/>
<path d="M31.3932 23.6714L29.4545 23.6714L29.4545 25.6106H31.3932V23.6714Z" fill="black"/>
<path d="M31.8037 23.6713L31.3932 23.6714L31.3932 24.082C31.3932 23.8577 31.5794 23.6713 31.8037 23.6713Z" fill="black"/>
<path d="M33.7424 23.6713C33.5143 23.6713 33.3319 23.8577 33.3319 24.082V25.6106H35.2706L35.2706 23.6714L33.7424 23.6713Z" fill="black"/>
<path d="M37.2093 23.6714L35.2706 23.6714L35.2706 25.6106H37.2093V23.6714Z" fill="black"/>
<path d="M37.6198 25.6106C37.3917 25.6106 37.2093 25.4243 37.2093 25.1999L37.2093 25.6106L37.6198 25.6106Z" fill="black"/>
<path d="M41.4972 23.6713H42.611C42.8391 23.6713 43.0216 23.8577 43.0216 24.082V25.1961C43.0216 25.4243 42.8353 25.6068 42.611 25.6068H41.4972C41.2691 25.6068 41.0867 25.4205 41.0867 25.1961V24.082C41.0867 23.8577 41.2729 23.6713 41.4972 23.6713Z" fill="black"/>
<path d="M52.7189 24.082L52.7189 23.6714L52.3083 23.6713C52.5326 23.6713 52.7189 23.8577 52.7189 24.082Z" fill="black"/>
<path d="M52.3083 25.6106C52.5364 25.6106 52.7189 25.4243 52.7189 25.1999V25.6106H52.3083Z" fill="black"/>
<path d="M54.6576 23.6714H52.7189L52.7189 25.6106L54.6576 25.6106V23.6714Z" fill="black"/>
<path d="M56.5963 23.6714H54.6576V25.6106H56.5963V23.6714Z" fill="black"/>
<path d="M60.0631 23.6713H58.9493C58.7213 23.6713 58.5388 23.8576 58.5388 24.082V25.1961C58.5388 25.4243 58.7251 25.6068 58.9493 25.6068H60.4775V23.6675L60.0631 23.6713Z" fill="black"/>
<path d="M60.8843 25.6107H61.9981C62.2261 25.6107 62.4086 25.4243 62.4086 25.2V24.0858C62.4086 23.8577 62.2223 23.6752 61.9981 23.6752H60.4737V25.6145L60.8843 25.6107Z" fill="black"/>
<path d="M2.31261 25.6105H0.373908V27.5497H2.31261V25.6105Z" fill="black"/>
<path d="M6.60057 25.6105H7.71438C7.94246 25.6105 8.12493 25.7969 8.12493 26.0212V27.1353C8.12493 27.3635 7.93866 27.546 7.71438 27.546H6.60057C6.37249 27.546 6.19003 27.3597 6.19003 27.1353V26.0212C6.19003 25.7969 6.37629 25.6105 6.60057 25.6105Z" fill="black"/>
<path d="M9.65689 27.55C9.88497 27.55 10.0674 27.3637 10.0674 27.1393V27.55H9.65689Z" fill="black"/>
<path d="M12.0061 27.1392V26.025C12.0061 25.7969 11.8199 25.6144 11.5956 25.6144H10.4818C10.2537 25.6144 10.0712 25.8007 10.0712 26.025V27.5499H12.0099V27.1392H12.0061Z" fill="black"/>
<path d="M13.9448 26.0212L13.9448 25.6106L13.5343 25.6105C13.7586 25.6105 13.9448 25.7969 13.9448 26.0212Z" fill="black"/>
<path d="M12.4167 27.55C12.1886 27.55 12.0061 27.3635 12.0061 27.1392L12.0061 27.55H12.4167Z" fill="black"/>
<path d="M13.9448 27.1392C13.9448 27.3673 14.1311 27.5498 14.3554 27.5498H15.8836V25.6106H13.9448V27.1392Z" fill="black"/>
<path d="M17.4117 25.6105C17.6398 25.6105 17.8222 25.7969 17.8222 26.0212V27.5498H15.8836V25.6106L17.4117 25.6105Z" fill="black"/>
<path d="M22.1102 25.6105C21.8821 25.6105 21.6996 25.7969 21.6996 26.0212V27.5498H23.6384L23.6384 25.6106L22.1102 25.6105Z" fill="black"/>
<path d="M25.577 27.1392C25.577 27.3673 25.3908 27.5498 25.1665 27.5498H23.6384L23.6384 25.6106L25.577 25.6105V27.1392Z" fill="black"/>
<path d="M27.5158 27.1392C27.5158 27.3673 27.702 27.5498 27.9263 27.5498H29.4545V25.6106H27.5158V27.1392Z" fill="black"/>
<path d="M31.3932 27.1392C31.3932 27.3673 31.2069 27.5498 30.9826 27.5498H29.4545V25.6106H31.3932V27.1392Z" fill="black"/>
<path d="M35.2706 25.6106H33.3319V27.5498H35.2706V25.6106Z" fill="black"/>
<path d="M37.2093 25.6106H35.2706V27.5498H37.2093V25.6106Z" fill="black"/>
<path d="M37.6198 27.5499H38.7336C38.9617 27.5499 39.1442 27.3635 39.1442 27.1392V26.025C39.1442 25.7969 38.9579 25.6144 38.7336 25.6144H37.2093V27.5537L37.6198 27.5499Z" fill="black"/>
<path d="M47.3133 25.6105H48.4271C48.6552 25.6105 48.8377 25.7969 48.8377 26.0212V27.1353C48.8377 27.3635 48.6514 27.546 48.4271 27.546H47.3133C47.0852 27.546 46.9028 27.3597 46.9028 27.1353V26.0212C46.9028 25.7969 47.089 25.6105 47.3133 25.6105Z" fill="black"/>
<path d="M52.3083 25.6106L51.1945 25.6105C50.9665 25.6105 50.784 25.7968 50.784 26.0212V27.1353C50.784 27.3635 50.9703 27.546 51.1945 27.546H52.7227V25.6067L52.3083 25.6106Z" fill="black"/>
<path d="M54.6576 25.6106L52.7189 25.6106L52.7189 27.5498H54.6576V25.6106Z" fill="black"/>
<path d="M56.5963 27.1392C56.5963 27.3673 56.41 27.5498 56.1857 27.5498H54.6576V25.6106H56.5963V27.1392Z" fill="black"/>
<path d="M62.823 25.6105H63.9368C64.1648 25.6105 64.3473 25.7969 64.3473 26.0212V27.1353C64.3473 27.3635 64.161 27.546 63.9368 27.546H62.823C62.5949 27.546 62.4124 27.3597 62.4124 27.1353V26.0212C62.4124 25.7969 62.5987 25.6105 62.823 25.6105Z" fill="black"/>
<path d="M2.31261 27.5497H0.373908V29.4893H2.31261V27.5497Z" fill="black"/>
<path d="M9.65689 27.55L8.54309 27.5499C8.315 27.5499 8.13254 27.7362 8.13254 27.9606V29.0747C8.13254 29.3029 8.31881 29.4854 8.54309 29.4854H10.0674V27.5461L9.65689 27.55Z" fill="black"/>
<path d="M12.0061 27.55H10.0674L10.0674 29.4894H12.0061L12.0061 27.55Z" fill="black"/>
<path d="M12.4167 29.4891H13.5305C13.7586 29.4891 13.941 29.3027 13.941 29.0784V27.9642C13.941 27.7361 13.7548 27.5536 13.5305 27.5536H12.0061V29.4929L12.4167 29.4891Z" fill="black"/>
<path d="M15.8835 27.9608L15.8836 27.5498L15.473 27.5501C15.6973 27.5501 15.8835 27.7365 15.8835 27.9608Z" fill="black"/>
<path d="M17.8222 27.5498H15.8836L15.8835 29.4894H17.8222V27.5498Z" fill="black"/>
<path d="M23.6384 27.5498H21.6996V29.4894H23.6384V27.5498Z" fill="black"/>
<path d="M24.0489 27.5501L23.6384 27.5498L23.6383 27.9608C23.6383 27.7365 23.8246 27.5501 24.0489 27.5501Z" fill="black"/>
<path d="M25.9876 27.5501H27.1014C27.3295 27.5501 27.512 27.7365 27.512 27.9608V29.075C27.512 29.3031 27.3257 29.4856 27.1014 29.4856H25.9876C25.7595 29.4856 25.5771 29.2993 25.5771 29.075V27.9608C25.5771 27.7365 25.7633 27.5501 25.9876 27.5501Z" fill="black"/>
<path d="M33.3319 29.0788C33.3319 29.3069 33.5181 29.4894 33.7424 29.4894H35.2706V27.5498H33.3319V29.0788Z" fill="black"/>
<path d="M37.2093 29.0788C37.2093 29.3069 37.023 29.4894 36.7987 29.4894H35.2706V27.5498H37.2093V29.0788Z" fill="black"/>
<path d="M37.6198 27.5499L37.2093 27.5498L37.2093 27.9608C37.2093 27.7365 37.3955 27.5499 37.6198 27.5499Z" fill="black"/>
<path d="M42.6148 27.5499H41.501C41.2729 27.5499 41.0905 27.7362 41.0905 27.9606V29.0747C41.0905 29.3029 41.2767 29.4854 41.501 29.4854H43.0292V27.5461L42.6148 27.5499Z" fill="black"/>
<path d="M44.9641 27.5501H43.0254V29.4894H44.9641V27.5501Z" fill="black"/>
<path d="M46.4922 27.5501C46.7203 27.5501 46.9028 27.7365 46.9028 27.9608V29.4894H44.9641V27.5501H46.4922Z" fill="black"/>
<path d="M47.3133 29.4892C47.0852 29.4892 46.9028 29.3029 46.9028 29.0785L46.9028 29.4894L47.3133 29.4892Z" fill="black"/>
<path d="M58.1245 27.5499H57.0107C56.7826 27.5499 56.6001 27.7362 56.6001 27.9606V29.0747C56.6001 29.3029 56.7864 29.4854 57.0107 29.4854H58.5388V27.5461L58.1245 27.5499Z" fill="black"/>
<path d="M60.0631 27.5501C60.2912 27.5501 60.4737 27.7365 60.4737 27.9608V29.4894H58.535V27.5501H60.0631Z" fill="black"/>
<path d="M60.8843 29.4892C60.6562 29.4892 60.4737 29.3029 60.4737 29.0785L60.4737 29.4894L60.8843 29.4892Z" fill="black"/>
<path d="M2.31261 29.4893H0.373908V31.4285H2.31261V29.4893Z" fill="black"/>
<path d="M2.72318 31.4284C2.4951 31.4284 2.31263 31.2421 2.31263 31.0177L2.31261 31.4285L2.72318 31.4284Z" fill="black"/>
<path d="M5.77948 31.4284C6.00756 31.4284 6.19003 31.2421 6.19003 31.0177V31.4284H5.77948Z" fill="black"/>
<path d="M8.12874 31.0178V29.9036C8.12874 29.6755 7.94247 29.493 7.71819 29.493H6.60439C6.37631 29.493 6.19384 29.6793 6.19384 29.9036V31.4285H8.13254V31.0178H8.12874Z" fill="black"/>
<path d="M10.0674 29.9L10.0674 29.4894L9.65689 29.4893C9.88117 29.4893 10.0674 29.6757 10.0674 29.9Z" fill="black"/>
<path d="M10.0674 31.018C10.0674 31.2461 10.2537 31.4286 10.478 31.4286H11.5918C11.8199 31.4286 12.0023 31.2423 12.0023 31.018V29.4893H10.0636V31.018H10.0674Z" fill="black"/>
<path d="M12.4167 29.4891L12.0061 29.4894L12.0061 29.9C12.0061 29.6757 12.1924 29.4891 12.4167 29.4891Z" fill="black"/>
<path d="M17.8222 29.4894H15.8835V31.4286H17.8222V29.4894Z" fill="black"/>
<path d="M21.6997 31.018C21.6997 31.2461 21.8859 31.4286 22.1102 31.4286H23.224C23.4521 31.4286 23.6346 31.2423 23.6346 31.018V29.4893H21.6959V31.018H21.6997Z" fill="black"/>
<path d="M29.4545 31.0178V29.9036C29.4545 29.6755 29.2682 29.493 29.0439 29.493H27.9301C27.702 29.493 27.5196 29.6793 27.5196 29.9036V31.4285H29.4583V31.0178H29.4545Z" fill="black"/>
<path d="M38.7374 29.4891H37.6236C37.3955 29.4891 37.2131 29.6754 37.2131 29.8998V31.0139C37.2131 31.2421 37.3993 31.4246 37.6236 31.4246H39.1518V29.4853L38.7374 29.4891Z" fill="black"/>
<path d="M39.5585 31.4285H40.6723C40.9004 31.4285 41.0829 31.2421 41.0829 31.0178V29.9036C41.0829 29.6755 40.8966 29.493 40.6723 29.493H39.148V31.4323L39.5585 31.4285Z" fill="black"/>
<path d="M44.9641 29.9L44.9641 29.4894L44.5535 29.4893C44.7778 29.4893 44.9641 29.6757 44.9641 29.9Z" fill="black"/>
<path d="M44.5535 31.4284C44.7816 31.4284 44.9641 31.2421 44.9641 31.0177V31.4284H44.5535Z" fill="black"/>
<path d="M46.9028 29.4894H44.9641L44.9641 31.4284L46.9028 31.4286V29.4894Z" fill="black"/>
<path d="M48.8415 29.4893L46.9028 29.4894V31.4286H48.8415V29.4893Z" fill="black"/>
<path d="M50.7802 29.4893H48.8415V31.4286H50.7802V29.4893Z" fill="black"/>
<path d="M52.7189 29.4893H50.7802V31.4286H52.7189V29.4893Z" fill="black"/>
<path d="M54.247 29.4893C54.4751 29.4893 54.6576 29.6757 54.6576 29.9V31.4286H52.7189V29.4893H54.247Z" fill="black"/>
<path d="M55.0681 31.4284C54.8401 31.4284 54.6576 31.2421 54.6576 31.0177L54.6576 31.4286L55.0681 31.4284Z" fill="black"/>
<path d="M58.535 29.9L58.535 29.4894L58.1245 29.4893C58.3487 29.4893 58.535 29.6757 58.535 29.9Z" fill="black"/>
<path d="M60.4737 29.4894H58.535V31.4286H60.4737V29.4894Z" fill="black"/>
<path d="M62.4124 29.4893L60.4737 29.4894V31.4286H62.4124V29.4893Z" fill="black"/>
<path d="M63.9406 29.4893C64.1686 29.4893 64.3511 29.6757 64.3511 29.9V31.4286H62.4124V29.4893H63.9406Z" fill="black"/>
<path d="M2.31261 31.4285H0.373908V33.3677H2.31261V31.4285Z" fill="black"/>
<path d="M4.25133 31.4285L2.31261 31.4285V33.3677L4.25133 33.3678V31.4285Z" fill="black"/>
<path d="M6.19003 31.4284L4.25133 31.4285V33.3678H6.19003L6.19003 31.4284Z" fill="black"/>
<path d="M8.12873 31.4285L6.19003 31.4284L6.19003 33.3678H8.12873V31.4285Z" fill="black"/>
<path d="M12.4167 31.4285H13.5305C13.7586 31.4285 13.941 31.6149 13.941 31.8392V32.9534C13.941 33.1815 13.7548 33.364 13.5305 33.364H12.4167C12.1886 33.364 12.0061 33.1777 12.0061 32.9534V31.8392C12.0061 31.6149 12.1924 31.4285 12.4167 31.4285Z" fill="black"/>
<path d="M15.8835 32.9572C15.8835 33.1853 16.0698 33.3678 16.2941 33.3678H17.4079C17.636 33.3678 17.8184 33.1815 17.8184 32.9572V31.4285H15.8797V32.9572H15.8835Z" fill="black"/>
<path d="M24.0489 31.4285H25.1627C25.3908 31.4285 25.5732 31.6149 25.5732 31.8392V32.9534C25.5732 33.1815 25.387 33.364 25.1627 33.364H24.0489C23.8208 33.364 23.6383 33.1777 23.6383 32.9534V31.8392C23.6383 31.6149 23.8246 31.4285 24.0489 31.4285Z" fill="black"/>
<path d="M29.4545 31.4285H27.5158V33.3678H29.4545V31.4285Z" fill="black"/>
<path d="M31.8037 31.4285C31.5756 31.4285 31.3932 31.6149 31.3932 31.8392V33.3678H33.3319V31.4285H31.8037Z" fill="black"/>
<path d="M35.2706 31.4285H33.3319V33.3678H35.2706V31.4285Z" fill="black"/>
<path d="M35.6811 33.3677H36.7949C37.023 33.3677 37.2055 33.1813 37.2055 32.957V31.8429C37.2055 31.6147 37.0192 31.4322 36.7949 31.4322H35.2706V33.3715L35.6811 33.3677Z" fill="black"/>
<path d="M42.6148 31.4283H41.501C41.2729 31.4283 41.0905 31.6146 41.0905 31.839V32.9531C41.0905 33.1813 41.2767 33.3638 41.501 33.3638H43.0292V31.4245L42.6148 31.4283Z" fill="black"/>
<path d="M44.9641 31.4284L43.0254 31.4285V33.3678H44.9641L44.9641 31.4284Z" fill="black"/>
<path d="M46.9028 31.4286L44.9641 31.4284L44.9641 33.3678H46.9028V31.4286Z" fill="black"/>
<path d="M48.8415 31.4286H46.9028V33.3678H48.8415V31.4286Z" fill="black"/>
<path d="M49.252 31.4285L48.8415 31.4286L48.8415 31.8392C48.8415 31.6149 49.0278 31.4285 49.252 31.4285Z" fill="black"/>
<path d="M50.7802 31.8392L50.7802 31.4286L50.3696 31.4285C50.5939 31.4285 50.7802 31.6149 50.7802 31.8392Z" fill="black"/>
<path d="M49.252 33.3678C49.024 33.3678 48.8415 33.1815 48.8415 32.9571L48.8415 33.3678L49.252 33.3678Z" fill="black"/>
<path d="M50.7802 32.9572C50.7802 33.1853 50.9665 33.3678 51.1907 33.3678H52.7189V31.4286H50.7802L50.7802 32.9572Z" fill="black"/>
<path d="M54.6576 31.4286H52.7189V33.3678H54.6576V31.4286Z" fill="black"/>
<path d="M56.1857 31.4285C56.4138 31.4285 56.5963 31.6149 56.5963 31.8392V33.3678H54.6576V31.4286L56.1857 31.4285Z" fill="black"/>
<path d="M58.535 32.9572C58.535 33.1853 58.7213 33.3678 58.9455 33.3678H60.4737V31.4286H58.535V32.9572Z" fill="black"/>
<path d="M62.4124 31.4286H60.4737V33.3678H62.4124V31.4286Z" fill="black"/>
<path d="M64.3511 32.9572C64.3511 33.1853 64.1648 33.3678 63.9406 33.3678H62.4124V31.4286H64.3511V32.9572Z" fill="black"/>
<path d="M0.373919 34.8965C0.373919 35.1246 0.560186 35.3071 0.784468 35.3071H1.89827C2.12635 35.3071 2.30882 35.1208 2.30882 34.8965V33.3679H0.370117L0.373919 34.8965Z" fill="black"/>
<path d="M2.72318 33.368L2.31261 33.3677L2.31263 33.7786C2.31263 33.5543 2.4989 33.368 2.72318 33.368Z" fill="black"/>
<path d="M4.25133 33.7786L4.25133 33.3678L3.84078 33.368C4.06506 33.368 4.25133 33.5543 4.25133 33.7786Z" fill="black"/>
<path d="M4.25133 34.8966C4.25133 35.1247 4.43759 35.3072 4.66188 35.3072H6.19003V33.3678H4.25133L4.25133 34.8966Z" fill="black"/>
<path d="M8.12873 33.3678H6.19003V35.3072H8.12873V33.3678Z" fill="black"/>
<path d="M19.3504 33.3677H18.2366C18.0085 33.3677 17.826 33.554 17.826 33.7784V34.8925C17.826 35.1207 18.0123 35.3032 18.2366 35.3032H19.7609V33.3639L19.3504 33.3677Z" fill="black"/>
<path d="M20.1715 35.3069H21.2853C21.5134 35.3069 21.6958 35.1205 21.6958 34.8962V33.7821C21.6958 33.5539 21.5096 33.3714 21.2853 33.3714H19.7609V35.3107L20.1715 35.3069Z" fill="black"/>
<path d="M27.1052 35.3068C27.3333 35.3068 27.5158 35.1205 27.5158 34.8961V35.3068H27.1052Z" fill="black"/>
<path d="M29.4545 33.3678H27.5158V35.3072H29.4545V33.3678Z" fill="black"/>
<path d="M30.9826 35.3068C31.2107 35.3068 31.3931 35.1205 31.3931 34.8961V35.3068H30.9826Z" fill="black"/>
<path d="M29.865 35.3068C29.6369 35.3068 29.4545 35.1205 29.4545 34.8961V35.3068H29.865Z" fill="black"/>
<path d="M33.3319 33.3678H31.3932V35.3072H33.3319V33.3678Z" fill="black"/>
<path d="M33.7424 33.368L33.3319 33.3678L33.3319 33.7786C33.3319 33.5543 33.5181 33.368 33.7424 33.368Z" fill="black"/>
<path d="M33.7424 35.3068C33.5143 35.3068 33.3319 35.1205 33.3319 34.8961V35.3068H33.7424Z" fill="black"/>
<path d="M37.6198 33.368H38.7336C38.9617 33.368 39.1442 33.5543 39.1442 33.7786V34.8928C39.1442 35.1209 38.9579 35.3034 38.7336 35.3034H37.6198C37.3917 35.3034 37.2093 35.1171 37.2093 34.8928V33.7786C37.2093 33.5543 37.3955 33.368 37.6198 33.368Z" fill="black"/>
<path d="M46.9028 33.7786L46.9028 33.3678L46.4922 33.368C46.7165 33.368 46.9028 33.5543 46.9028 33.7786Z" fill="black"/>
<path d="M46.4922 35.3068C46.7203 35.3068 46.9028 35.1205 46.9028 34.8961V35.3068H46.4922Z" fill="black"/>
<path d="M48.8415 33.3678H46.9028L46.9028 35.3072H48.8415V33.3678Z" fill="black"/>
<path d="M50.3696 33.368C50.5977 33.368 50.7802 33.5543 50.7802 33.7786V35.3072H48.8415V33.3678L50.3696 33.368Z" fill="black"/>
<path d="M54.6576 33.7786L54.6576 33.3678L54.247 33.368C54.4713 33.368 54.6576 33.5543 54.6576 33.7786Z" fill="black"/>
<path d="M56.5963 33.3678H54.6576L54.6576 35.3072H56.5963V33.3678Z" fill="black"/>
<path d="M57.0068 35.3068C56.7788 35.3068 56.5963 35.1205 56.5963 34.8961V35.3068H57.0068Z" fill="black"/>
<path d="M60.4737 33.7786L60.4737 33.3678L60.0632 33.368C60.2874 33.368 60.4737 33.5543 60.4737 33.7786Z" fill="black"/>
<path d="M60.4737 34.8966C60.4737 35.1247 60.66 35.3072 60.8843 35.3072H61.9981C62.2261 35.3072 62.4086 35.1209 62.4086 34.8966V33.368H60.4699L60.4737 34.8966Z" fill="black"/>
<path d="M62.823 33.368L62.4124 33.3678V33.7786C62.4124 33.5543 62.5987 33.368 62.823 33.368Z" fill="black"/>
<path d="M6.19003 35.7176L6.19003 35.3072L5.77948 35.3069C6.00376 35.3069 6.19003 35.4933 6.19003 35.7176Z" fill="black"/>
<path d="M6.19004 36.8356C6.19004 37.0637 6.37631 37.2462 6.60059 37.2462H7.71439C7.94248 37.2462 8.12494 37.0599 8.12494 36.8356V35.3069H6.18624V36.8356H6.19004Z" fill="black"/>
<path d="M10.478 35.3069C10.2499 35.3069 10.0674 35.4933 10.0674 35.7176V37.2462H12.0061V35.3069H10.478Z" fill="black"/>
<path d="M13.9448 35.3069H12.0061V37.2462H13.9448V35.3069Z" fill="black"/>
<path d="M15.8836 35.3069H13.9448V37.2462H15.8836V35.3069Z" fill="black"/>
<path d="M16.2941 37.2465H17.4079C17.636 37.2465 17.8184 37.0601 17.8184 36.8358V35.7217C17.8184 35.4935 17.6322 35.311 17.4079 35.311H15.8835V37.2503L16.2941 37.2465Z" fill="black"/>
<path d="M25.9876 35.3069C25.7595 35.3069 25.5771 35.4933 25.5771 35.7176V37.2462H27.5158L27.5158 35.3072L25.9876 35.3069Z" fill="black"/>
<path d="M29.4545 35.3072H27.5158L27.5158 37.2462H29.4545V35.3072Z" fill="black"/>
<path d="M31.3932 35.3072L29.4545 35.3068L29.4545 37.2462H31.3932L31.3932 35.3072Z" fill="black"/>
<path d="M33.3319 35.3072H31.3932L31.3932 37.2462H33.3319V35.3072Z" fill="black"/>
<path d="M35.2706 35.3069L33.3319 35.3068L33.3319 37.2462H35.2706V35.3069Z" fill="black"/>
<path d="M35.6811 37.2465H36.7949C37.023 37.2465 37.2055 37.0601 37.2055 36.8358V35.7217C37.2055 35.4935 37.0192 35.311 36.7949 35.311H35.2706V37.2503L35.6811 37.2465Z" fill="black"/>
<path d="M43.4359 35.3069C43.2078 35.3069 43.0254 35.4933 43.0254 35.7176V37.2462H44.9641V35.3069H43.4359Z" fill="black"/>
<path d="M46.9028 35.3072L44.9641 35.3069V37.2462H46.9028L46.9028 35.3072Z" fill="black"/>
<path d="M48.8415 35.3072H46.9028L46.9028 37.2462H48.8415V35.3072Z" fill="black"/>
<path d="M50.7802 36.8356C50.7802 37.0637 50.5939 37.2462 50.3696 37.2462H48.8415V35.3072H50.7802V36.8356Z" fill="black"/>
<path d="M54.6576 36.8356C54.6576 37.0637 54.8439 37.2462 55.0681 37.2462H56.5963V35.3072H54.6576V36.8356Z" fill="black"/>
<path d="M58.1244 35.3069C58.3525 35.3069 58.535 35.4933 58.535 35.7176V37.2462H56.5963L56.5963 35.3068L58.1244 35.3069Z" fill="black"/>
<path d="M58.9455 37.246C58.7175 37.246 58.535 37.0597 58.535 36.8354L58.535 37.2462L58.9455 37.246Z" fill="black"/>
<path d="M62.823 35.3069H63.9368C64.1648 35.3069 64.3473 35.4933 64.3473 35.7176V36.8318C64.3473 37.0599 64.161 37.2424 63.9368 37.2424H62.823C62.5949 37.2424 62.4124 37.0561 62.4124 36.8318V35.7176C62.4124 35.4933 62.5987 35.3069 62.823 35.3069Z" fill="black"/>
<path d="M2.72318 37.2462C2.4951 37.2462 2.31263 37.4325 2.31263 37.6568V39.1854H4.25133V37.2462H2.72318Z" fill="black"/>
<path d="M4.66188 39.1857H5.77568C6.00376 39.1857 6.18623 38.9993 6.18623 38.775V37.6609C6.18623 37.4327 5.99996 37.2502 5.77568 37.2502H4.25133V39.1895L4.66188 39.1857Z" fill="black"/>
<path d="M10.0674 38.7748C10.0674 39.0029 10.2537 39.1854 10.478 39.1854H11.5918C11.8199 39.1854 12.0023 38.9991 12.0023 38.7748V37.2462H10.0636V38.7748H10.0674Z" fill="black"/>
<path d="M12.4167 37.2462L12.0061 37.2462L12.0061 37.6568C12.0061 37.4325 12.1924 37.2462 12.4167 37.2462Z" fill="black"/>
<path d="M19.3504 37.2461H18.2366C18.0085 37.2461 17.826 37.4324 17.826 37.6568V38.7709C17.826 38.9991 18.0123 39.1816 18.2366 39.1816H19.7609V37.2423L19.3504 37.2461Z" fill="black"/>
<path d="M21.6996 37.2462H19.7609V39.1854H21.6996V37.2462Z" fill="black"/>
<path d="M22.1102 39.1857H23.224C23.4521 39.1857 23.6346 38.9993 23.6346 38.775V37.6609C23.6346 37.4327 23.4483 37.2502 23.224 37.2502H21.6996V39.1895L22.1102 39.1857Z" fill="black"/>
<path d="M27.5158 37.2462H25.5771V39.1854H27.5158V37.2462Z" fill="black"/>
<path d="M29.4545 37.2462H27.5158V39.1854H29.4545V37.2462Z" fill="black"/>
<path d="M31.3932 38.7748C31.3932 39.0029 31.2069 39.1854 30.9826 39.1854H29.4545V37.2462H31.3932V38.7748Z" fill="black"/>
<path d="M31.8037 37.2462L31.3932 37.2462L31.3932 37.6568C31.3932 37.4325 31.5794 37.2462 31.8037 37.2462Z" fill="black"/>
<path d="M36.7987 39.1856C37.0268 39.1856 37.2093 38.9993 37.2093 38.775V39.1856H36.7987Z" fill="black"/>
<path d="M39.148 38.775V37.6609C39.148 37.4327 38.9617 37.2502 38.7374 37.2502H37.6236C37.3955 37.2502 37.2131 37.4365 37.2131 37.6609V39.1895H39.1518L39.148 38.775Z" fill="black"/>
<path d="M43.0254 38.7748C43.0254 39.0029 43.2116 39.1854 43.4359 39.1854H44.5497C44.7778 39.1854 44.9603 38.9991 44.9603 38.7748V37.2462H43.0216L43.0254 38.7748Z" fill="black"/>
<path d="M45.3746 37.2462L44.9641 37.2462L44.9641 37.6568C44.9641 37.4325 45.1503 37.2462 45.3746 37.2462Z" fill="black"/>
<path d="M46.9028 37.6568L46.9028 37.2462L46.4922 37.2462C46.7165 37.2462 46.9028 37.4325 46.9028 37.6568Z" fill="black"/>
<path d="M48.8415 37.2462H46.9028L46.9028 39.1854H48.8415V37.2462Z" fill="black"/>
<path d="M49.252 37.2462L48.8415 37.2462L48.8415 37.6568C48.8415 37.4325 49.0278 37.2462 49.252 37.2462Z" fill="black"/>
<path d="M53.1294 37.2462H54.2432C54.4713 37.2462 54.6538 37.4325 54.6538 37.6568V38.771C54.6538 38.9991 54.4675 39.1816 54.2432 39.1816H53.1294C52.9014 39.1816 52.7189 38.9953 52.7189 38.771V37.6568C52.7189 37.4325 52.9052 37.2462 53.1294 37.2462Z" fill="black"/>
<path d="M56.5963 37.6568L56.5963 37.2462L56.1857 37.2462C56.41 37.2462 56.5963 37.4325 56.5963 37.6568Z" fill="black"/>
<path d="M56.5963 38.7748C56.5963 39.0029 56.7826 39.1854 57.0068 39.1854H58.535V37.2462H56.5963L56.5963 38.7748Z" fill="black"/>
<path d="M60.0631 37.2462C60.2912 37.2462 60.4737 37.4325 60.4737 37.6568V39.1854H58.535V37.2462L60.0631 37.2462Z" fill="black"/>
<path d="M1.90208 41.1248C2.13016 41.1248 2.31263 40.9385 2.31263 40.7142V41.1248H1.90208Z" fill="black"/>
<path d="M4.25133 39.1854H2.31263L2.31263 41.1248L4.25133 41.1248V39.1854Z" fill="black"/>
<path d="M4.66188 39.1857L4.25133 39.1854L4.25133 39.5962C4.25133 39.3719 4.43759 39.1857 4.66188 39.1857Z" fill="black"/>
<path d="M5.77948 41.1248C6.00756 41.1248 6.19003 40.9385 6.19003 40.7142V41.1248H5.77948Z" fill="black"/>
<path d="M4.66188 41.1248C4.43379 41.1248 4.25133 40.9385 4.25133 40.7142L4.25133 41.1248L4.66188 41.1248Z" fill="black"/>
<path d="M8.12874 40.7142V39.6001C8.12874 39.3719 7.94247 39.1894 7.71819 39.1894H6.60439C6.37631 39.1894 6.19384 39.3757 6.19384 39.6001V41.1287H8.13254V40.7142H8.12874Z" fill="black"/>
<path d="M13.5343 39.1857H12.4205C12.1924 39.1857 12.0099 39.3721 12.0099 39.5964V40.7105C12.0099 40.9387 12.1962 41.1212 12.4205 41.1212H13.9448V39.1819L13.5343 39.1857Z" fill="black"/>
<path d="M14.3554 41.1249H15.4692C15.6973 41.1249 15.8797 40.9385 15.8797 40.7142V39.6001C15.8797 39.3719 15.6935 39.1894 15.4692 39.1894H13.9448V41.1287L14.3554 41.1249Z" fill="black"/>
<path d="M25.5771 40.7142C25.5771 40.9423 25.7633 41.1248 25.9876 41.1248H27.5158V39.1854H25.5771V40.7142Z" fill="black"/>
<path d="M29.4545 40.7142C29.4545 40.9423 29.2682 41.1248 29.0439 41.1248H27.5158V39.1854H29.4545V40.7142Z" fill="black"/>
<path d="M29.865 39.1856L29.4545 39.1854L29.4545 39.5962C29.4545 39.3719 29.6407 39.1856 29.865 39.1856Z" fill="black"/>
<path d="M30.9826 41.1248C31.2107 41.1248 31.3931 40.9385 31.3931 40.7142V41.1248H30.9826Z" fill="black"/>
<path d="M31.8037 39.1856C31.5756 39.1856 31.3932 39.3719 31.3932 39.5962L31.3931 41.1248L33.3319 41.1248V39.1856H31.8037Z" fill="black"/>
<path d="M35.2706 39.1856H33.3319V41.1248H35.2706V39.1856Z" fill="black"/>
<path d="M37.2093 39.1856L35.2706 39.1856V41.1248H37.2093L37.2093 39.1856Z" fill="black"/>
<path d="M39.148 39.1856L37.2093 39.1856L37.2093 41.1248H39.148V39.1856Z" fill="black"/>
<path d="M43.0254 40.7142V39.6001C43.0254 39.3719 42.8391 39.1894 42.6148 39.1894H41.501C41.2729 39.1894 41.0905 39.3757 41.0905 39.6001V41.1287H43.0292L43.0254 40.7142Z" fill="black"/>
<path d="M46.9028 40.7142C46.9028 40.9423 47.0891 41.1248 47.3133 41.1248H48.4271C48.6552 41.1248 48.8377 40.9385 48.8377 40.7142V39.1856H46.899L46.9028 40.7142Z" fill="black"/>
<path d="M51.1907 39.1856H52.3045C52.5326 39.1856 52.7151 39.3719 52.7151 39.5962V40.7104C52.7151 40.9385 52.5288 41.121 52.3045 41.121H51.1907C50.9627 41.121 50.7802 40.9347 50.7802 40.7104V39.5962C50.7802 39.3719 50.9665 39.1856 51.1907 39.1856Z" fill="black"/>
<path d="M55.0681 39.1856H56.1819C56.41 39.1856 56.5925 39.3719 56.5925 39.5962V40.7104C56.5925 40.9385 56.4062 41.121 56.1819 41.121H55.0681C54.8401 41.121 54.6576 40.9347 54.6576 40.7104V39.5962C54.6576 39.3719 54.8439 39.1856 55.0681 39.1856Z" fill="black"/>
<path d="M58.535 39.5962L58.535 39.1854L58.1245 39.1856C58.3487 39.1856 58.535 39.3719 58.535 39.5962Z" fill="black"/>
<path d="M60.4737 39.1854H58.535L58.535 41.1248H60.4737V39.1854Z" fill="black"/>
<path d="M60.8843 41.1248C60.6562 41.1248 60.4737 40.9385 60.4737 40.7142L60.4737 41.1248L60.8843 41.1248Z" fill="black"/>
<path d="M1.90208 41.1248L0.788247 41.1249C0.560165 41.1249 0.377699 41.3113 0.377699 41.5356V42.6497C0.377699 42.8779 0.563966 43.0604 0.788247 43.0604H2.3126V41.1211L1.90208 41.1248Z" fill="black"/>
<path d="M4.25133 41.1248L2.31263 41.1248L2.31263 43.064H4.25133V41.1248Z" fill="black"/>
<path d="M6.19003 41.1248L4.25133 41.1248V43.064H6.19003L6.19003 41.1248Z" fill="black"/>
<path d="M8.12873 41.1248L6.19003 41.1248L6.19003 43.064H8.12873V41.1248Z" fill="black"/>
<path d="M17.4117 43.064C17.6398 43.064 17.8222 42.8777 17.8222 42.6534V43.064H17.4117Z" fill="black"/>
<path d="M18.2328 41.1248C18.0047 41.1248 17.8222 41.3111 17.8222 41.5354L17.8222 43.064L19.7609 43.064V41.1248H18.2328Z" fill="black"/>
<path d="M20.1715 43.0643H21.2853C21.5134 43.0643 21.6958 42.878 21.6958 42.6536V41.5395C21.6958 41.3113 21.5096 41.1288 21.2853 41.1288H19.7609V43.0681L20.1715 43.0643Z" fill="black"/>
<path d="M30.9826 41.1248L29.8688 41.1249C29.6407 41.1249 29.4583 41.3113 29.4583 41.5356V42.6497C29.4583 42.8779 29.6445 43.0604 29.8688 43.0604H31.3932V41.1211L30.9826 41.1248Z" fill="black"/>
<path d="M33.3319 41.1248L31.3931 41.1248L31.3932 43.064H33.3319V41.1248Z" fill="black"/>
<path d="M33.7424 41.1248L33.3319 41.1248L33.3319 41.5354C33.3319 41.3111 33.5181 41.1248 33.7424 41.1248Z" fill="black"/>
<path d="M37.2093 41.5354L37.2093 41.1248L36.7987 41.1248C37.023 41.1248 37.2093 41.3111 37.2093 41.5354Z" fill="black"/>
<path d="M37.2093 42.6534C37.2093 42.8815 37.3955 43.064 37.6198 43.064H38.7336C38.9617 43.064 39.1442 42.8777 39.1442 42.6534V41.1248H37.2055L37.2093 42.6534Z" fill="black"/>
<path d="M40.6761 43.064C40.9042 43.064 41.0867 42.8777 41.0867 42.6534V43.064H40.6761Z" fill="black"/>
<path d="M43.0254 41.1248H41.0867L41.0867 43.064L43.0254 43.064V41.1248Z" fill="black"/>
<path d="M43.4359 43.064C43.2078 43.064 43.0254 42.8777 43.0254 42.6534L43.0254 43.064L43.4359 43.064Z" fill="black"/>
<path d="M45.3746 41.1248H46.4884C46.7165 41.1248 46.899 41.3111 46.899 41.5354V42.6496C46.899 42.8777 46.7127 43.0602 46.4884 43.0602H45.3746C45.1465 43.0602 44.9641 42.8739 44.9641 42.6496V41.5354C44.9641 41.3111 45.1503 41.1248 45.3746 41.1248Z" fill="black"/>
<path d="M52.3083 43.064C52.5364 43.064 52.7189 42.8777 52.7189 42.6534V43.064H52.3083Z" fill="black"/>
<path d="M54.6576 42.6536V41.5395C54.6576 41.3113 54.4713 41.1288 54.247 41.1288H53.1332C52.9052 41.1288 52.7227 41.3151 52.7227 41.5395V43.0681H54.6614L54.6576 42.6536Z" fill="black"/>
<path d="M55.0681 43.064C54.8401 43.064 54.6576 42.878 54.6576 42.6536L54.6576 43.064H55.0681Z" fill="black"/>
<path d="M58.1245 43.064C58.3525 43.064 58.535 42.8777 58.535 42.6534V43.064H58.1245Z" fill="black"/>
<path d="M60.4737 41.1248H58.535L58.535 43.064L60.4737 43.064V41.1248Z" fill="black"/>
<path d="M62.4124 41.1248L60.4737 41.1248V43.064H62.4124V41.1248Z" fill="black"/>
<path d="M62.823 43.0643H63.9368C64.1648 43.0643 64.3473 42.878 64.3473 42.6536V41.5395C64.3473 41.3113 64.161 41.1288 63.9368 41.1288H62.4124V43.0681L62.823 43.0643Z" fill="black"/>
<path d="M4.25133 43.4746L4.25133 43.064L3.84078 43.064C4.06506 43.064 4.25133 43.2503 4.25133 43.4746Z" fill="black"/>
<path d="M3.84078 45.0034C4.06886 45.0034 4.25133 44.8171 4.25133 44.5928V45.0034H3.84078Z" fill="black"/>
<path d="M6.19003 43.064H4.25133L4.25133 45.0034L6.19003 45.0032V43.064Z" fill="black"/>
<path d="M8.12873 43.064H6.19003V45.0032H8.12873V43.064Z" fill="black"/>
<path d="M9.65689 45.0034C9.88497 45.0034 10.0674 44.8171 10.0674 44.5928V45.0034H9.65689Z" fill="black"/>
<path d="M8.53929 45.0034C8.3112 45.0034 8.12874 44.8171 8.12874 44.5928L8.12873 45.0032L8.53929 45.0034Z" fill="black"/>
<path d="M10.478 43.064C10.2499 43.064 10.0674 43.2503 10.0674 43.4746L10.0674 45.0034L12.0061 45.0032V43.064H10.478Z" fill="black"/>
<path d="M13.9448 43.064H12.0061V45.0032H13.9448V43.064Z" fill="black"/>
<path d="M15.8836 43.064H13.9448V45.0032H15.8836V43.064Z" fill="black"/>
<path d="M17.8222 43.064L15.8836 43.064V45.0032H17.8222L17.8222 43.064Z" fill="black"/>
<path d="M19.7609 43.064L17.8222 43.064L17.8222 45.0032H19.7609V43.064Z" fill="black"/>
<path d="M20.1715 43.0643L19.7609 43.064L19.7609 43.4746C19.7609 43.2503 19.9472 43.0643 20.1715 43.0643Z" fill="black"/>
<path d="M27.1052 45.0034C27.3333 45.0034 27.5158 44.8171 27.5158 44.5928V45.0034H27.1052Z" fill="black"/>
<path d="M29.4545 44.5928V43.4787C29.4545 43.2505 29.2682 43.068 29.0439 43.068H27.9301C27.702 43.068 27.5196 43.2543 27.5196 43.4787V45.0073H29.4583V44.5928H29.4545Z" fill="black"/>
<path d="M31.3931 43.4746L31.3932 43.064L30.9826 43.064C31.2069 43.064 31.3931 43.2503 31.3931 43.4746Z" fill="black"/>
<path d="M30.9826 45.0034C31.2107 45.0034 31.3931 44.8171 31.3931 44.5928V45.0034H30.9826Z" fill="black"/>
<path d="M29.865 45.0034C29.6369 45.0034 29.4545 44.8172 29.4545 44.5928L29.4545 45.0034H29.865Z" fill="black"/>
<path d="M33.3319 43.064H31.3932L31.3931 45.0034L33.3319 45.0032V43.064Z" fill="black"/>
<path d="M33.7424 45.0034C33.5143 45.0034 33.3319 44.8171 33.3319 44.5928L33.3319 45.0032L33.7424 45.0034Z" fill="black"/>
<path d="M35.6811 43.064H36.7949C37.023 43.064 37.2055 43.2503 37.2055 43.4746V44.5888C37.2055 44.8169 37.0192 44.9994 36.7949 44.9994H35.6811C35.453 44.9994 35.2706 44.8131 35.2706 44.5888V43.4746C35.2706 43.2503 35.4568 43.064 35.6811 43.064Z" fill="black"/>
<path d="M39.5585 43.064C39.3304 43.064 39.148 43.2503 39.148 43.4746V45.0032H41.0867L41.0867 43.064L39.5585 43.064Z" fill="black"/>
<path d="M43.0254 43.064L41.0867 43.064L41.0867 45.0032H43.0254V43.064Z" fill="black"/>
<path d="M44.5535 43.064C44.7816 43.064 44.9641 43.2503 44.9641 43.4746V45.0032H43.0254V43.064L44.5535 43.064Z" fill="black"/>
<path d="M45.3746 45.0034C45.1465 45.0034 44.9641 44.8171 44.9641 44.5928L44.9641 45.0032L45.3746 45.0034Z" fill="black"/>
<path d="M48.4309 45.0034C48.659 45.0034 48.8415 44.8171 48.8415 44.5928V45.0034H48.4309Z" fill="black"/>
<path d="M49.252 43.064C49.024 43.064 48.8415 43.2503 48.8415 43.4746V45.0034L50.7802 45.0032V43.064H49.252Z" fill="black"/>
<path d="M52.7189 43.064L50.7802 43.064V45.0032H52.7189L52.7189 43.064Z" fill="black"/>
<path d="M54.6576 43.064H52.7189L52.7189 45.0032H54.6576L54.6576 43.064Z" fill="black"/>
<path d="M56.5963 43.064L54.6576 43.064L54.6576 45.0032H56.5963V43.064Z" fill="black"/>
<path d="M58.535 43.064L56.5963 43.064V45.0032H58.535L58.535 43.064Z" fill="black"/>
<path d="M60.4737 43.064L58.535 43.064L58.535 45.0032H60.4737V43.064Z" fill="black"/>
<path d="M60.8843 43.064L60.4737 43.064L60.4737 43.4746C60.4737 43.2503 60.66 43.064 60.8843 43.064Z" fill="black"/>
<path d="M3.84078 45.0034L2.72697 45.0035C2.49888 45.0035 2.31642 45.1899 2.31642 45.4142V46.5283C2.31642 46.7565 2.50268 46.939 2.72697 46.939H4.25132V44.9997L3.84078 45.0034Z" fill="black"/>
<path d="M6.19003 45.0032L4.25133 45.0034L4.25133 46.9424H6.19003V45.0032Z" fill="black"/>
<path d="M8.12873 45.0032H6.19003V46.9424H8.12873V45.0032Z" fill="black"/>
<path d="M10.0674 45.0034L8.12873 45.0032V46.9424H10.0674L10.0674 45.0034Z" fill="black"/>
<path d="M12.0061 46.5318C12.0061 46.7599 11.8199 46.9424 11.5956 46.9424H10.0674L10.0674 45.0034L12.0061 45.0032V46.5318Z" fill="black"/>
<path d="M12.4167 45.0032L12.0061 45.0032L12.0061 45.4138C12.0061 45.1895 12.1924 45.0032 12.4167 45.0032Z" fill="black"/>
<path d="M13.9448 45.4138L13.9448 45.0032L13.5343 45.0032C13.7586 45.0032 13.9448 45.1895 13.9448 45.4138Z" fill="black"/>
<path d="M13.5343 46.9426C13.7624 46.9426 13.9448 46.7563 13.9448 46.532V46.9426H13.5343Z" fill="black"/>
<path d="M15.8836 45.0032H13.9448L13.9448 46.9426L15.8836 46.9424V45.0032Z" fill="black"/>
<path d="M17.8222 45.0032H15.8836V46.9424H17.8222V45.0032Z" fill="black"/>
<path d="M19.7609 46.5318C19.7609 46.7599 19.5747 46.9424 19.3504 46.9424H17.8222V45.0032H19.7609V46.5318Z" fill="black"/>
<path d="M21.2891 46.9426C21.5172 46.9426 21.6996 46.7563 21.6996 46.532V46.9426H21.2891Z" fill="black"/>
<path d="M22.1102 45.0032C21.8821 45.0032 21.6996 45.1895 21.6996 45.4138V46.9426L23.6384 46.9424V45.0032H22.1102Z" fill="black"/>
<path d="M25.577 45.0032H23.6384V46.9424H25.577V45.0032Z" fill="black"/>
<path d="M27.5158 45.0034L25.577 45.0032V46.9424H27.5158L27.5158 45.0034Z" fill="black"/>
<path d="M29.4545 45.0034H27.5158L27.5158 46.9424H29.4545L29.4545 45.0034Z" fill="black"/>
<path d="M31.3931 45.0034H29.4545L29.4545 46.9424H31.3932L31.3931 45.0034Z" fill="black"/>
<path d="M33.3319 45.0032L31.3931 45.0034L31.3932 46.9424H33.3319V45.0032Z" fill="black"/>
<path d="M33.7424 46.9427H34.8562C35.0843 46.9427 35.2668 46.7564 35.2668 46.532V45.4179C35.2668 45.1897 35.0805 45.0072 34.8562 45.0072H33.3319V46.9465L33.7424 46.9427Z" fill="black"/>
<path d="M39.148 46.5318C39.148 46.7599 39.3342 46.9424 39.5585 46.9424H41.0867V45.0032H39.148V46.5318Z" fill="black"/>
<path d="M43.0254 45.0032H41.0867V46.9424H43.0254V45.0032Z" fill="black"/>
<path d="M44.9641 45.0032H43.0254V46.9424H44.9641V45.0032Z" fill="black"/>
<path d="M46.9028 45.0032L44.9641 45.0032V46.9424H46.9028V45.0032Z" fill="black"/>
<path d="M48.8415 45.0034L46.9028 45.0032V46.9424H48.8415L48.8415 45.0034Z" fill="black"/>
<path d="M50.7802 45.0032L48.8415 45.0034L48.8415 46.9424H50.7802V45.0032Z" fill="black"/>
<path d="M52.7189 45.0032H50.7802V46.9424H52.7189V45.0032Z" fill="black"/>
<path d="M54.6576 45.0032H52.7189V46.9424H54.6576V45.0032Z" fill="black"/>
<path d="M56.5963 45.0032H54.6576V46.9424H56.5963V45.0032Z" fill="black"/>
<path d="M58.535 45.0032H56.5963V46.9424H58.535V45.0032Z" fill="black"/>
<path d="M60.4737 46.5318C60.4737 46.7599 60.2874 46.9424 60.0631 46.9424H58.535V45.0032H60.4737V46.5318Z" fill="black"/>
<path d="M62.823 45.0032H63.9368C64.1648 45.0032 64.3473 45.1895 64.3473 45.4138V46.528C64.3473 46.7561 64.161 46.9386 63.9368 46.9386H62.823C62.5949 46.9386 62.4124 46.7523 62.4124 46.528V45.4138C62.4124 45.1895 62.5987 45.0032 62.823 45.0032Z" fill="black"/>
<path d="M0.784457 46.9428H1.89826C2.12634 46.9428 2.30881 47.1292 2.30881 47.3535V48.4676C2.30881 48.6958 2.12254 48.8783 1.89826 48.8783H0.784457C0.556374 48.8783 0.373908 48.692 0.373908 48.4676V47.3535C0.373908 47.1292 0.560176 46.9428 0.784457 46.9428Z" fill="black"/>
<path d="M4.25133 47.3534L4.25133 46.9424L3.84078 46.9428C4.06506 46.9428 4.25133 47.1291 4.25133 47.3534Z" fill="black"/>
<path d="M4.25133 48.4714C4.25133 48.6995 4.4376 48.8821 4.66188 48.8821H5.77568C6.00376 48.8821 6.18623 48.6957 6.18623 48.4714V46.9428H4.24753V48.4714H4.25133Z" fill="black"/>
<path d="M6.60057 46.9428L6.19003 46.9424L6.19003 47.3534C6.19003 47.1291 6.37629 46.9428 6.60057 46.9428Z" fill="black"/>
<path d="M13.5343 46.9426L12.4205 46.9427C12.1924 46.9427 12.0099 47.1291 12.0099 47.3534V48.4675C12.0099 48.6957 12.1962 48.8782 12.4205 48.8782H13.9448V46.9389L13.5343 46.9426Z" fill="black"/>
<path d="M15.8836 46.9424L13.9448 46.9426L13.9448 48.8821H15.8836V46.9424Z" fill="black"/>
<path d="M17.8222 46.9424H15.8836V48.8821H17.8222V46.9424Z" fill="black"/>
<path d="M18.2328 46.9428L17.8222 46.9424L17.8222 47.3534C17.8222 47.1291 18.0085 46.9428 18.2328 46.9428Z" fill="black"/>
<path d="M18.2328 48.8818C18.0047 48.8818 17.8222 48.6955 17.8222 48.4712L17.8222 48.8821L18.2328 48.8818Z" fill="black"/>
<path d="M21.2891 46.9426L20.1753 46.9427C19.9472 46.9427 19.7648 47.1291 19.7648 47.3534V48.4675C19.7648 48.6957 19.951 48.8782 20.1753 48.8782H21.6997V46.9389L21.2891 46.9426Z" fill="black"/>
<path d="M23.6384 46.9424L21.6996 46.9426V48.8821H23.6384V46.9424Z" fill="black"/>
<path d="M24.0489 46.9428L23.6384 46.9424L23.6383 47.3534C23.6383 47.1291 23.8246 46.9428 24.0489 46.9428Z" fill="black"/>
<path d="M29.4545 47.3534L29.4545 46.9424L29.0439 46.9428C29.2682 46.9428 29.4545 47.1291 29.4545 47.3534Z" fill="black"/>
<path d="M29.4545 48.4714C29.4545 48.6995 29.6407 48.8821 29.865 48.8821H30.9788C31.2069 48.8821 31.3894 48.6957 31.3894 48.4714V46.9428H29.4507V48.4714H29.4545Z" fill="black"/>
<path d="M31.8037 46.9428L31.3932 46.9424L31.3932 47.3534C31.3932 47.1291 31.5794 46.9428 31.8037 46.9428Z" fill="black"/>
<path d="M34.86 48.8818C35.0881 48.8818 35.2706 48.6955 35.2706 48.4712V48.8818H34.86Z" fill="black"/>
<path d="M37.2093 48.4714V47.3573C37.2093 47.1291 37.023 46.9466 36.7987 46.9466H35.6849C35.4568 46.9466 35.2744 47.1329 35.2744 47.3573V48.8859H37.2131L37.2093 48.4714Z" fill="black"/>
<path d="M37.6198 48.8818C37.3917 48.8818 37.2093 48.6958 37.2093 48.4714L37.2093 48.8818H37.6198Z" fill="black"/>
<path d="M41.0867 47.3534L41.0867 46.9424L40.6761 46.9428C40.9004 46.9428 41.0867 47.1291 41.0867 47.3534Z" fill="black"/>
<path d="M41.0867 48.4714C41.0867 48.6995 41.2729 48.8821 41.4972 48.8821H42.611C42.8391 48.8821 43.0216 48.6957 43.0216 48.4714V46.9428H41.0829L41.0867 48.4714Z" fill="black"/>
<path d="M43.4359 46.9428L43.0254 46.9424L43.0254 47.3534C43.0254 47.1291 43.2116 46.9428 43.4359 46.9428Z" fill="black"/>
<path d="M46.9028 47.3534L46.9028 46.9424L46.4922 46.9428C46.7165 46.9428 46.9028 47.1291 46.9028 47.3534Z" fill="black"/>
<path d="M48.8415 46.9424H46.9028L46.9028 48.8821H48.8415V46.9424Z" fill="black"/>
<path d="M50.7802 46.9424H48.8415V48.8821H50.7802V46.9424Z" fill="black"/>
<path d="M52.7189 46.9424H50.7802V48.8821H52.7189V46.9424Z" fill="black"/>
<path d="M54.6576 46.9424H52.7189V48.8821H54.6576V46.9424Z" fill="black"/>
<path d="M56.5963 46.9424H54.6576V48.8821H56.5963V46.9424Z" fill="black"/>
<path d="M58.535 46.9424H56.5963V48.8821H58.535V46.9424Z" fill="black"/>
<path d="M58.9455 46.9428L58.535 46.9424L58.535 47.3534C58.535 47.1291 58.7213 46.9428 58.9455 46.9428Z" fill="black"/>
<path d="M15.8835 49.2926L15.8836 48.8821L15.473 48.882C15.6973 48.882 15.8835 49.0683 15.8835 49.2926Z" fill="black"/>
<path d="M15.8835 50.4106C15.8835 50.6387 16.0698 50.8213 16.2941 50.8213H17.8222V48.8821H15.8836L15.8835 50.4106Z" fill="black"/>
<path d="M18.2328 50.8213H19.3466C19.5747 50.8213 19.7571 50.635 19.7571 50.4106V49.2965C19.7571 49.0683 19.5709 48.8858 19.3466 48.8858H17.8222V50.8251L18.2328 50.8213Z" fill="black"/>
<path d="M21.6996 49.2926V48.8821L21.2891 48.882C21.5134 48.882 21.6996 49.0683 21.6996 49.2926Z" fill="black"/>
<path d="M21.6997 50.4106C21.6997 50.6387 21.8859 50.8213 22.1102 50.8213H23.224C23.4521 50.8213 23.6346 50.6349 23.6346 50.4106V48.882H21.6959V50.4106H21.6997Z" fill="black"/>
<path d="M25.9876 48.882H27.1014C27.3295 48.882 27.512 49.0683 27.512 49.2926V50.4068C27.512 50.6349 27.3257 50.8175 27.1014 50.8175H25.9876C25.7595 50.8175 25.5771 50.6311 25.5771 50.4068V49.2926C25.5771 49.0683 25.7633 48.882 25.9876 48.882Z" fill="black"/>
<path d="M33.7424 48.882C33.5143 48.882 33.3319 49.0683 33.3319 49.2926V50.8213H35.2706L35.2706 48.8818L33.7424 48.882Z" fill="black"/>
<path d="M37.2093 48.8818H35.2706L35.2706 50.8213H37.2093L37.2093 48.8818Z" fill="black"/>
<path d="M37.6198 50.8213H38.7336C38.9617 50.8213 39.1442 50.635 39.1442 50.4106V49.2965C39.1442 49.0683 38.9579 48.8858 38.7336 48.8858H37.2093V50.8251L37.6198 50.8213Z" fill="black"/>
<path d="M43.4359 48.882H44.5497C44.7778 48.882 44.9603 49.0683 44.9603 49.2926V50.4068C44.9603 50.6349 44.774 50.8175 44.5497 50.8175H43.4359C43.2078 50.8175 43.0254 50.6311 43.0254 50.4068V49.2926C43.0254 49.0683 43.2116 48.882 43.4359 48.882Z" fill="black"/>
<path d="M46.4922 50.8212C46.7203 50.8212 46.9028 50.6349 46.9028 50.4106V50.8212H46.4922Z" fill="black"/>
<path d="M48.8415 48.8821H46.9028L46.9028 50.8212L48.8415 50.8213V48.8821Z" fill="black"/>
<path d="M49.252 48.882L48.8415 48.8821L48.8415 49.2926C48.8415 49.0683 49.0278 48.882 49.252 48.882Z" fill="black"/>
<path d="M54.6576 49.2926L54.6576 48.8821L54.247 48.882C54.4713 48.882 54.6576 49.0683 54.6576 49.2926Z" fill="black"/>
<path d="M56.5963 48.8821H54.6576L54.6576 50.8213H56.5963V48.8821Z" fill="black"/>
<path d="M58.535 50.4106C58.535 50.6387 58.3487 50.8213 58.1244 50.8213H56.5963V48.8821H58.535V50.4106Z" fill="black"/>
<path d="M62.823 48.882H63.9368C64.1648 48.882 64.3473 49.0683 64.3473 49.2926V50.4068C64.3473 50.6349 64.161 50.8175 63.9368 50.8175H62.823C62.5949 50.8175 62.4124 50.6311 62.4124 50.4068V49.2926C62.4124 49.0683 62.5987 48.882 62.823 48.882Z" fill="black"/>
<path d="M20.1715 50.8212H21.2853C21.5134 50.8212 21.6958 51.0075 21.6958 51.2318V52.346C21.6958 52.5741 21.5096 52.7567 21.2853 52.7567H20.1715C19.9434 52.7567 19.7609 52.5703 19.7609 52.346V51.2318C19.7609 51.0075 19.9472 50.8212 20.1715 50.8212Z" fill="black"/>
<path d="M25.5771 52.3498V51.2357C25.5771 51.0075 25.3908 50.825 25.1665 50.825H24.0527C23.8246 50.825 23.6422 51.0113 23.6422 51.2357V52.7643H25.5809V52.3498H25.5771Z" fill="black"/>
<path d="M25.9876 52.7604C25.7595 52.7604 25.5771 52.5742 25.5771 52.3498L25.5771 52.7604H25.9876Z" fill="black"/>
<path d="M27.9263 50.8212H29.0401C29.2682 50.8212 29.4507 51.0075 29.4507 51.2318V52.346C29.4507 52.5741 29.2644 52.7567 29.0401 52.7567H27.9263C27.6982 52.7567 27.5158 52.5703 27.5158 52.346V51.2318C27.5158 51.0075 27.702 50.8212 27.9263 50.8212Z" fill="black"/>
<path d="M33.3319 52.3498C33.3319 52.5779 33.5181 52.7605 33.7424 52.7605H35.2706V50.8213H33.3319V52.3498Z" fill="black"/>
<path d="M37.2093 50.8213H35.2706V52.7605H37.2093V50.8213Z" fill="black"/>
<path d="M37.6198 50.8213L37.2093 50.8213L37.2093 51.2318C37.2093 51.0075 37.3955 50.8213 37.6198 50.8213Z" fill="black"/>
<path d="M37.6198 52.7604C37.3917 52.7604 37.2093 52.5741 37.2093 52.3498L37.2093 52.7605L37.6198 52.7604Z" fill="black"/>
<path d="M40.6761 52.7604C40.9042 52.7604 41.0867 52.5741 41.0867 52.3498V52.7604H40.6761Z" fill="black"/>
<path d="M43.0254 52.3498V51.2357C43.0254 51.0075 42.8391 50.825 42.6148 50.825H41.501C41.2729 50.825 41.0905 51.0113 41.0905 51.2357V52.7643H43.0292L43.0254 52.3498Z" fill="black"/>
<path d="M46.4922 50.8212L45.3784 50.8213C45.1504 50.8213 44.9679 51.0077 44.9679 51.232V52.3461C44.9679 52.5743 45.1542 52.7568 45.3784 52.7568H46.9066V50.8175L46.4922 50.8212Z" fill="black"/>
<path d="M48.8415 50.8213L46.9028 50.8212L46.9028 52.7605H48.8415V50.8213Z" fill="black"/>
<path d="M51.1907 50.8212H52.3045C52.5326 50.8212 52.7151 51.0075 52.7151 51.2318V52.346C52.7151 52.5741 52.5288 52.7567 52.3045 52.7567H51.1907C50.9627 52.7567 50.7802 52.5703 50.7802 52.346V51.2318C50.7802 51.0075 50.9665 50.8212 51.1907 50.8212Z" fill="black"/>
<path d="M56.5963 50.8213H54.6576V52.7605H56.5963V50.8213Z" fill="black"/>
<path d="M57.0068 50.8212L56.5963 50.8213L56.5963 51.2318C56.5963 51.0075 56.7826 50.8212 57.0068 50.8212Z" fill="black"/>
<path d="M57.0068 52.7604C56.7788 52.7604 56.5963 52.5741 56.5963 52.3498L56.5963 52.7605L57.0068 52.7604Z" fill="black"/>
<path d="M58.9455 50.8212H60.0593C60.2874 50.8212 60.4699 51.0075 60.4699 51.2318V52.346C60.4699 52.5741 60.2836 52.7567 60.0593 52.7567H58.9455C58.7175 52.7567 58.535 52.5703 58.535 52.346V51.2318C58.535 51.0075 58.7213 50.8212 58.9455 50.8212Z" fill="black"/>
<path d="M19.7609 54.2894V53.1753C19.7609 52.9471 19.5747 52.7646 19.3504 52.7646H18.2366C18.0085 52.7646 17.826 52.9509 17.826 53.1753V54.7039H19.7647V54.2894H19.7609Z" fill="black"/>
<path d="M20.1715 54.6996C19.9434 54.6996 19.7609 54.5133 19.7609 54.289V54.6996H20.1715Z" fill="black"/>
<path d="M23.6383 54.2892C23.6383 54.5173 23.8246 54.6999 24.0489 54.6999H25.577L25.5771 52.7604L23.6383 52.7606V54.2892Z" fill="black"/>
<path d="M25.9876 54.7001H27.1014C27.3295 54.7001 27.512 54.5138 27.512 54.2894V53.1753C27.512 52.9471 27.3257 52.7646 27.1014 52.7646H25.5771V54.7039L25.9876 54.7001Z" fill="black"/>
<path d="M35.2706 53.1712L35.2706 52.7605L34.86 52.7606C35.0843 52.7606 35.2706 52.9469 35.2706 53.1712Z" fill="black"/>
<path d="M34.86 54.6996C35.0881 54.6996 35.2706 54.5133 35.2706 54.289V54.6996H34.86Z" fill="black"/>
<path d="M37.2093 52.7605H35.2706L35.2706 54.6996L37.2093 54.6999V52.7605Z" fill="black"/>
<path d="M39.148 52.7606L37.2093 52.7605V54.6999H39.148V52.7606Z" fill="black"/>
<path d="M41.0867 52.7604L39.148 52.7606V54.6999H41.0867L41.0867 52.7604Z" fill="black"/>
<path d="M43.0254 54.2892C43.0254 54.5173 42.8391 54.6999 42.6148 54.6999H41.0867L41.0867 52.7604L43.0254 52.7606V54.2892Z" fill="black"/>
<path d="M46.9028 53.1712L46.9028 52.7605L46.4922 52.7606C46.7165 52.7606 46.9028 52.9469 46.9028 53.1712Z" fill="black"/>
<path d="M46.4922 54.6996C46.7203 54.6996 46.9028 54.5133 46.9028 54.289V54.6996H46.4922Z" fill="black"/>
<path d="M48.8415 52.7605H46.9028L46.9028 54.6996L48.8415 54.6999V52.7605Z" fill="black"/>
<path d="M49.252 54.6996C49.024 54.6996 48.8415 54.5133 48.8415 54.289L48.8415 54.6999L49.252 54.6996Z" fill="black"/>
<path d="M54.247 54.6996C54.4751 54.6996 54.6576 54.5133 54.6576 54.289V54.6996H54.247Z" fill="black"/>
<path d="M56.5963 52.7605H54.6576V54.6996L56.5963 54.6999V52.7605Z" fill="black"/>
<path d="M57.0068 54.7001H58.1206C58.3487 54.7001 58.5312 54.5138 58.5312 54.2894V53.1753C58.5312 52.9471 58.3449 52.7646 58.1206 52.7646H56.5963V54.7039L57.0068 54.7001Z" fill="black"/>
<path d="M62.823 52.7606H63.9368C64.1648 52.7606 64.3473 52.9469 64.3473 53.1712V54.2854C64.3473 54.5135 64.161 54.6961 63.9368 54.6961H62.823C62.5949 54.6961 62.4124 54.5097 62.4124 54.2854V53.1712C62.4124 52.9469 62.5987 52.7606 62.823 52.7606Z" fill="black"/>
<path d="M17.4117 56.6393C17.6398 56.6393 17.8222 56.4529 17.8222 56.2286V56.6393H17.4117Z" fill="black"/>
<path d="M19.7609 54.6996L17.8222 54.6998L17.8222 56.6393L19.7609 56.6391L19.7609 54.6996Z" fill="black"/>
<path d="M21.6996 54.6998L19.7609 54.6996L19.7609 56.6391H21.6996V54.6998Z" fill="black"/>
<path d="M22.1102 56.6393H23.224C23.4521 56.6393 23.6346 56.453 23.6346 56.2286V55.1145C23.6346 54.8863 23.4483 54.7038 23.224 54.7038H21.6996V56.6431L22.1102 56.6393Z" fill="black"/>
<path d="M31.8037 54.6998C31.5756 54.6998 31.3932 54.8861 31.3932 55.1104V56.6391H33.3319V54.6998H31.8037Z" fill="black"/>
<path d="M35.2706 54.6996L33.3319 54.6998V56.6391H35.2706L35.2706 54.6996Z" fill="black"/>
<path d="M37.2093 56.2284C37.2093 56.4565 37.023 56.6391 36.7987 56.6391H35.2706L35.2706 54.6996L37.2093 54.6999V56.2284Z" fill="black"/>
<path d="M37.6198 54.6998L37.2093 54.6999L37.2093 55.1104C37.2093 54.8861 37.3955 54.6998 37.6198 54.6998Z" fill="black"/>
<path d="M44.5535 54.6998H43.4397C43.2116 54.6998 43.0292 54.8861 43.0292 55.1104V56.2246C43.0292 56.4527 43.2154 56.6352 43.4397 56.6352H44.9679V54.6959L44.5535 54.6998Z" fill="black"/>
<path d="M46.9028 54.6996L44.9641 54.6998V56.6391H46.9028L46.9028 54.6996Z" fill="black"/>
<path d="M48.8415 54.6999L46.9028 54.6996L46.9028 56.6391H48.8415V54.6999Z" fill="black"/>
<path d="M50.7802 54.6998L48.8415 54.6999V56.6391H50.7802V54.6998Z" fill="black"/>
<path d="M52.7189 54.6998H50.7802V56.6391H52.7189V54.6998Z" fill="black"/>
<path d="M54.6576 54.6996L52.7189 54.6998V56.6391H54.6576L54.6576 54.6996Z" fill="black"/>
<path d="M56.5963 54.6999L54.6576 54.6996L54.6576 56.6391H56.5963V54.6999Z" fill="black"/>
<path d="M57.0068 54.7001L56.5963 54.6999L56.5963 55.1104C56.5963 54.8861 56.7826 54.7001 57.0068 54.7001Z" fill="black"/>
<path d="M57.0068 56.6393C56.7788 56.6393 56.5963 56.4529 56.5963 56.2286L56.5963 56.6391L57.0068 56.6393Z" fill="black"/>
<path d="M58.9455 54.6998H60.0593C60.2874 54.6998 60.4699 54.8861 60.4699 55.1104V56.2246C60.4699 56.4527 60.2836 56.6353 60.0593 56.6353H58.9455C58.7175 56.6353 58.535 56.4489 58.535 56.2246V55.1104C58.535 54.8861 58.7213 54.6998 58.9455 54.6998Z" fill="black"/>
<path d="M16.2941 56.6392C16.066 56.6392 15.8835 56.8255 15.8835 57.0498V58.5785H17.8222L17.8222 56.6393L16.2941 56.6392Z" fill="black"/>
<path d="M19.7609 56.6391L17.8222 56.6393L17.8222 58.5785H19.7609V56.6391Z" fill="black"/>
<path d="M21.6996 56.6391H19.7609V58.5785H21.6996V56.6391Z" fill="black"/>
<path d="M22.1102 56.6393L21.6996 56.6391L21.6996 57.0498C21.6996 56.8255 21.8859 56.6393 22.1102 56.6393Z" fill="black"/>
<path d="M23.2278 58.5785C23.4559 58.5785 23.6384 58.3921 23.6384 58.1678V58.5785H23.2278Z" fill="black"/>
<path d="M22.1102 58.5785C21.8821 58.5785 21.6996 58.3921 21.6996 58.1678L21.6996 58.5785L22.1102 58.5785Z" fill="black"/>
<path d="M24.0489 56.6392C23.8208 56.6392 23.6383 56.8255 23.6383 57.0498L23.6384 58.5785L25.577 58.5785V56.6392H24.0489Z" fill="black"/>
<path d="M25.9876 58.5783H27.1014C27.3295 58.5783 27.512 58.392 27.512 58.1676V57.0535C27.512 56.8253 27.3257 56.6428 27.1014 56.6428H25.5771V58.5821L25.9876 58.5783Z" fill="black"/>
<path d="M30.9826 58.5785C31.2107 58.5785 31.3931 58.3921 31.3931 58.1678V58.5785H30.9826Z" fill="black"/>
<path d="M33.3319 56.6391H31.3932L31.3931 58.5785L33.3319 58.5785V56.6391Z" fill="black"/>
<path d="M33.7424 56.6392L33.3319 56.6391L33.3319 57.0498C33.3319 56.8255 33.5181 56.6392 33.7424 56.6392Z" fill="black"/>
<path d="M33.7424 58.5785C33.5143 58.5785 33.3319 58.3921 33.3319 58.1678L33.3319 58.5785L33.7424 58.5785Z" fill="black"/>
<path d="M36.7987 58.5785C37.0268 58.5785 37.2093 58.3921 37.2093 58.1678V58.5785H36.7987Z" fill="black"/>
<path d="M39.148 58.1676V57.0535C39.148 56.8253 38.9617 56.6428 38.7374 56.6428H37.6236C37.3955 56.6428 37.2131 56.8291 37.2131 57.0535V58.5821H39.1518L39.148 58.1676Z" fill="black"/>
<path d="M46.9028 57.0498L46.9028 56.6391L46.4922 56.6392C46.7165 56.6392 46.9028 56.8255 46.9028 57.0498Z" fill="black"/>
<path d="M46.4922 58.5785C46.7203 58.5785 46.9028 58.3921 46.9028 58.1678V58.5785H46.4922Z" fill="black"/>
<path d="M48.8415 56.6391H46.9028L46.9028 58.5785L48.8415 58.5785V56.6391Z" fill="black"/>
<path d="M49.252 56.6392L48.8415 56.6391L48.8415 57.0498C48.8415 56.8255 49.0278 56.6392 49.252 56.6392Z" fill="black"/>
<path d="M49.252 58.5785C49.024 58.5785 48.8415 58.3921 48.8415 58.1678L48.8415 58.5785L49.252 58.5785Z" fill="black"/>
<path d="M54.6576 57.0498L54.6576 56.6391L54.247 56.6392C54.4713 56.6392 54.6576 56.8255 54.6576 57.0498Z" fill="black"/>
<path d="M54.6576 58.1678C54.6576 58.3959 54.8439 58.5785 55.0681 58.5785H56.5963V56.6391H54.6576L54.6576 58.1678Z" fill="black"/>
<path d="M57.0068 58.5783H58.1206C58.3487 58.5783 58.5312 58.392 58.5312 58.1676V57.0535C58.5312 56.8253 58.3449 56.6428 58.1206 56.6428H56.5963V58.5821L57.0068 58.5783Z" fill="black"/>
<path d="M17.8222 58.5785H15.8835V60.5177H17.8222V58.5785Z" fill="black"/>
<path d="M19.7609 58.5785H17.8222V60.5177H19.7609V58.5785Z" fill="black"/>
<path d="M21.6996 58.5785H19.7609V60.5177H21.6996V58.5785Z" fill="black"/>
<path d="M23.6384 58.5785L21.6996 58.5785V60.5177H23.6384L23.6384 58.5785Z" fill="black"/>
<path d="M25.577 58.5785L23.6384 58.5785L23.6384 60.5177H25.577V58.5785Z" fill="black"/>
<path d="M25.9876 58.5783L25.577 58.5785L25.5771 58.989C25.5771 58.7647 25.7633 58.5783 25.9876 58.5783Z" fill="black"/>
<path d="M29.865 58.5784C29.6369 58.5784 29.4545 58.7647 29.4545 58.989V60.5177H31.3932L31.3931 58.5785L29.865 58.5784Z" fill="black"/>
<path d="M33.3319 58.5785L31.3931 58.5785L31.3932 60.5177H33.3319V58.5785Z" fill="black"/>
<path d="M35.2706 58.5784L33.3319 58.5785V60.5177H35.2706V58.5784Z" fill="black"/>
<path d="M37.2093 58.5785L35.2706 58.5784V60.5177H37.2093L37.2093 58.5785Z" fill="black"/>
<path d="M39.148 58.5784L37.2093 58.5785L37.2093 60.5177H39.148V58.5784Z" fill="black"/>
<path d="M43.4359 58.5784C43.2078 58.5784 43.0254 58.7647 43.0254 58.989V60.5177H44.9641V58.5784H43.4359Z" fill="black"/>
<path d="M46.9028 58.5785L44.9641 58.5784V60.5177H46.9028L46.9028 58.5785Z" fill="black"/>
<path d="M48.8415 58.5785L46.9028 58.5785L46.9028 60.5177H48.8415V58.5785Z" fill="black"/>
<path d="M49.252 60.5177H50.3658C50.5939 60.5177 50.7764 60.3314 50.7764 60.107V58.9929C50.7764 58.7647 50.5901 58.5822 50.3658 58.5822H48.8415V60.5215L49.252 60.5177Z" fill="black"/>
<path d="M52.3083 60.5177C52.5364 60.5177 52.7189 60.3313 52.7189 60.107V60.5177H52.3083Z" fill="black"/>
<path d="M54.6576 60.107V58.9929C54.6576 58.7647 54.4713 58.5822 54.247 58.5822H53.1332C52.9052 58.5822 52.7227 58.7685 52.7227 58.9929V60.5215H54.6614L54.6576 60.107Z" fill="black"/>
<path d="M55.0681 60.5177C54.8401 60.5177 54.6576 60.3314 54.6576 60.107L54.6576 60.5177H55.0681Z" fill="black"/>
<path d="M17.8222 60.5177H15.8835V62.4569H17.8222V60.5177Z" fill="black"/>
<path d="M19.7609 60.5177H17.8222V62.4569H19.7609V60.5177Z" fill="black"/>
<path d="M20.1715 60.5176L19.7609 60.5177L19.7609 60.9282C19.7609 60.7039 19.9472 60.5176 20.1715 60.5176Z" fill="black"/>
<path d="M20.1715 62.4571C19.9434 62.4571 19.7609 62.2707 19.7609 62.0464L19.7609 62.4569L20.1715 62.4571Z" fill="black"/>
<path d="M23.6384 60.9282L23.6384 60.5177L23.2278 60.5176C23.4521 60.5176 23.6384 60.7039 23.6384 60.9282Z" fill="black"/>
<path d="M23.2278 62.4571C23.4559 62.4571 23.6384 62.2707 23.6384 62.0464V62.4571H23.2278Z" fill="black"/>
<path d="M25.577 60.5177H23.6384L23.6384 62.4571L25.577 62.4569V60.5177Z" fill="black"/>
<path d="M25.9876 62.4571C25.7595 62.4571 25.5771 62.2707 25.5771 62.0464L25.577 62.4569L25.9876 62.4571Z" fill="black"/>
<path d="M29.4545 62.0462C29.4545 62.2743 29.6407 62.4569 29.865 62.4569H30.9788C31.2069 62.4569 31.3894 62.2705 31.3894 62.0462V60.5176H29.4507V62.0462H29.4545Z" fill="black"/>
<path d="M31.8037 60.5176L31.3932 60.5177L31.3932 60.9282C31.3932 60.7039 31.5794 60.5176 31.8037 60.5176Z" fill="black"/>
<path d="M33.3319 60.9282L33.3319 60.5177L32.9213 60.5176C33.1456 60.5176 33.3319 60.7039 33.3319 60.9282Z" fill="black"/>
<path d="M33.3319 62.0462C33.3319 62.2743 33.5181 62.4569 33.7424 62.4569H35.2706V60.5177H33.3319L33.3319 62.0462Z" fill="black"/>
<path d="M37.2093 60.5177H35.2706V62.4569H37.2093V60.5177Z" fill="black"/>
<path d="M39.148 60.5177H37.2093V62.4569H39.148V60.5177Z" fill="black"/>
<path d="M43.0254 62.0462C43.0254 62.2743 43.2116 62.4569 43.4359 62.4569H44.9641V60.5177H43.0254V62.0462Z" fill="black"/>
<path d="M46.9028 60.5177H44.9641V62.4569H46.9028V60.5177Z" fill="black"/>
<path d="M48.8415 60.5177H46.9028V62.4569H48.8415V60.5177Z" fill="black"/>
<path d="M49.252 60.5177L48.8415 60.5177L48.8415 60.9282C48.8415 60.7039 49.0278 60.5177 49.252 60.5177Z" fill="black"/>
<path d="M50.3696 62.4571C50.5977 62.4571 50.7802 62.2707 50.7802 62.0464V62.4571H50.3696Z" fill="black"/>
<path d="M49.252 62.4571C49.024 62.4571 48.8415 62.2707 48.8415 62.0464L48.8415 62.4569L49.252 62.4571Z" fill="black"/>
<path d="M51.1907 60.5176C50.9627 60.5176 50.7802 60.7039 50.7802 60.9282V62.4571L52.7189 62.4569L52.7189 60.5177L51.1907 60.5176Z" fill="black"/>
<path d="M54.6576 60.5177H52.7189L52.7189 62.4569H54.6576L54.6576 60.5177Z" fill="black"/>
<path d="M56.5963 60.5176L54.6576 60.5177L54.6576 62.4569H56.5963V60.5176Z" fill="black"/>
<path d="M58.1244 60.5176C58.3525 60.5176 58.535 60.7039 58.535 60.9282V62.4569H56.5963V60.5176H58.1244Z" fill="black"/>
<path d="M60.8843 60.5176H61.9981C62.2261 60.5176 62.4086 60.7039 62.4086 60.9282V62.0424C62.4086 62.2705 62.2223 62.4531 61.9981 62.4531H60.8843C60.6562 62.4531 60.4737 62.2667 60.4737 62.0424V60.9282C60.4737 60.7039 60.66 60.5176 60.8843 60.5176Z" fill="black"/>
<path d="M15.8835 63.9854C15.8835 64.2135 16.0698 64.3961 16.2941 64.3961H17.8222V62.4569H15.8835V63.9854Z" fill="black"/>
<path d="M19.7609 62.4569H17.8222V64.3961H19.7609V62.4569Z" fill="black"/>
<path d="M21.6996 62.4568L19.7609 62.4569V64.3961H21.6996V62.4568Z" fill="black"/>
<path d="M23.6384 62.4571L21.6996 62.4568V64.3961H23.6384L23.6384 62.4571Z" fill="black"/>
<path d="M25.577 62.4569L23.6384 62.4571L23.6384 64.3961H25.577V62.4569Z" fill="black"/>
<path d="M25.9876 64.3961H27.1014C27.3295 64.3961 27.512 64.2098 27.512 63.9854V62.8713C27.512 62.6431 27.3257 62.4606 27.1014 62.4606H25.5771V64.3999L25.9876 64.3961Z" fill="black"/>
<path d="M37.2093 62.8675L37.2093 62.4569L36.7987 62.4568C37.023 62.4568 37.2093 62.6431 37.2093 62.8675Z" fill="black"/>
<path d="M37.2093 63.9854C37.2093 64.2135 37.3955 64.3961 37.6198 64.3961H38.7336C38.9617 64.3961 39.1442 64.2097 39.1442 63.9854V62.4568H37.2055L37.2093 63.9854Z" fill="black"/>
<path d="M44.9641 62.8675L44.9641 62.4569L44.5535 62.4568C44.7778 62.4568 44.9641 62.6431 44.9641 62.8675Z" fill="black"/>
<path d="M44.9641 63.9854C44.9641 64.2135 45.1503 64.3961 45.3746 64.3961H46.9028V62.4569H44.9641L44.9641 63.9854Z" fill="black"/>
<path d="M48.8415 62.4569H46.9028V64.3961H48.8415V62.4569Z" fill="black"/>
<path d="M50.7802 62.4571L48.8415 62.4569V64.3961H50.7802L50.7802 62.4571Z" fill="black"/>
<path d="M52.7189 62.4569L50.7802 62.4571L50.7802 64.3961H52.7189V62.4569Z" fill="black"/>
<path d="M54.6576 62.4569H52.7189V64.3961H54.6576V62.4569Z" fill="black"/>
<path d="M56.5963 62.4569H54.6576V64.3961H56.5963V62.4569Z" fill="black"/>
<path d="M58.535 63.9854C58.535 64.2135 58.3487 64.3961 58.1244 64.3961H56.5963V62.4569H58.535V63.9854Z" fill="black"/>
<path d="M0.39285 0.399902V13.9749H13.9638V0.399902H0.39285ZM12.0251 12.0356H2.33155V2.33919H12.0251V12.0356Z" fill="black"/>
<path d="M4.25133 4.27851V10.0964H10.0674V4.27851H4.25133Z" fill="black"/>
<path d="M50.7992 0.399902V13.9749H64.3701V0.399902H50.7992ZM62.4314 12.0356H52.7379V2.33919H62.4314V12.0356Z" fill="black"/>
<path d="M54.6576 4.27851V10.0964H60.4737V4.27851H54.6576Z" fill="black"/>
<path d="M0.39285 50.8212V64.3962H13.9638V50.8212H0.39285ZM12.0251 62.4569H2.33155V52.7605H12.0251V62.4569Z" fill="black"/>
<path d="M4.25133 54.6998V60.5176H10.0674V54.6998H4.25133Z" fill="black"/>
</svg>
