<svg width="65" height="65" viewBox="0 0 65 65" fill="none" xmlns="http://www.w3.org/2000/svg">
<path d="M17.4117 2.33917C17.6398 2.33917 17.8223 2.15285 17.8223 1.9285V2.33917H17.4117Z" fill="black"/>
<path d="M19.761 1.92851V0.814379C19.761 0.586228 19.5747 0.403709 19.3504 0.403709H18.2366C18.0085 0.403709 17.8261 0.590031 17.8261 0.814379V2.34299H19.7648V1.92851H19.761Z" fill="black"/>
<path d="M27.1052 2.33917C27.3333 2.33917 27.5158 2.15285 27.5158 1.9285V2.33917H27.1052Z" fill="black"/>
<path d="M27.9263 0.399902C27.6982 0.399902 27.5158 0.586227 27.5158 0.810575L27.5158 2.33917L29.4545 2.33918V0.399902H27.9263Z" fill="black"/>
<path d="M30.9826 0.399902C31.2107 0.399902 31.3932 0.586227 31.3932 0.810575V2.33918H29.4545V0.399902H30.9826Z" fill="black"/>
<path d="M37.6198 0.399902H38.7336C38.9617 0.399902 39.1442 0.586227 39.1442 0.810575V1.92471C39.1442 2.15286 38.9579 2.33538 38.7336 2.33538H37.6198C37.3917 2.33538 37.2093 2.14906 37.2093 1.92471V0.810575C37.2093 0.586227 37.3955 0.399902 37.6198 0.399902Z" fill="black"/>
<path d="M41.4972 0.399902H42.611C42.8391 0.399902 43.0216 0.586227 43.0216 0.810575V1.92471C43.0216 2.15286 42.8353 2.33538 42.611 2.33538H41.4972C41.2691 2.33538 41.0867 2.14906 41.0867 1.92471V0.810575C41.0867 0.586227 41.2729 0.399902 41.4972 0.399902Z" fill="black"/>
<path d="M17.4117 2.33917L16.2979 2.33918C16.0698 2.33918 15.8873 2.5255 15.8873 2.74985V3.86398C15.8873 4.09213 16.0736 4.27465 16.2979 4.27465H17.8223V2.33537H17.4117L17.4117 2.33917Z" fill="black"/>
<path d="M19.761 2.33918L17.8223 2.33917L17.8222 4.27846H19.761V2.33918Z" fill="black"/>
<path d="M21.2891 4.27845C21.5172 4.27845 21.6997 4.09213 21.6997 3.86778V4.27845H21.2891Z" fill="black"/>
<path d="M20.1715 4.27845C19.9434 4.27845 19.7609 4.09213 19.7609 3.86778L19.761 4.27846L20.1715 4.27845Z" fill="black"/>
<path d="M22.1102 2.33918C21.8821 2.33918 21.6997 2.52551 21.6997 2.74985L21.6997 4.27845L23.6384 4.27846V2.33918H22.1102Z" fill="black"/>
<path d="M25.5771 2.33918H23.6384V4.27846H25.5771V2.33918Z" fill="black"/>
<path d="M27.5158 2.33917L25.5771 2.33918V4.27846H27.5158L27.5158 2.33917Z" fill="black"/>
<path d="M29.4545 2.33918L27.5158 2.33917L27.5158 4.27846H29.4545V2.33918Z" fill="black"/>
<path d="M31.3932 3.86779C31.3932 4.09594 31.2069 4.27846 30.9826 4.27846H29.4545V2.33918H31.3932V3.86779Z" fill="black"/>
<path d="M32.9213 4.27845C33.1494 4.27845 33.3319 4.09213 33.3319 3.86778V4.27845H32.9213Z" fill="black"/>
<path d="M33.7424 2.33918C33.5143 2.33918 33.3319 2.52551 33.3319 2.74985L33.3319 4.27845L35.2706 4.27846V2.33918H33.7424Z" fill="black"/>
<path d="M35.6811 4.27846H36.7949C37.023 4.27846 37.2055 4.09214 37.2055 3.86779V2.75366C37.2055 2.52551 37.0192 2.34299 36.7949 2.34299H35.2706V4.28227H35.6811V4.27846Z" fill="black"/>
<path d="M38.7374 4.27845C38.9655 4.27845 39.148 4.09213 39.148 3.86778V4.27845H38.7374Z" fill="black"/>
<path d="M41.0867 3.86779V2.75366C41.0867 2.52551 40.9004 2.34299 40.6761 2.34299H39.5623C39.3342 2.34299 39.1518 2.52931 39.1518 2.75366V4.28227H41.0905L41.0867 3.86779Z" fill="black"/>
<path d="M43.4359 2.33918H44.5497C44.7778 2.33918 44.9603 2.52551 44.9603 2.74985V3.86399C44.9603 4.09214 44.774 4.27466 44.5497 4.27466H43.4359C43.2078 4.27466 43.0254 4.08834 43.0254 3.86399V2.74985C43.0254 2.52551 43.2116 2.33918 43.4359 2.33918Z" fill="black"/>
<path d="M17.8223 4.68913L17.8222 4.27846H17.4117C17.636 4.27846 17.8223 4.46478 17.8223 4.68913Z" fill="black"/>
<path d="M17.4117 6.21773C17.6398 6.21773 17.8223 6.0314 17.8223 5.80706V6.21773H17.4117Z" fill="black"/>
<path d="M19.761 4.27846H17.8222L17.8223 6.21773L19.761 6.21774V4.27846Z" fill="black"/>
<path d="M21.6997 4.27845L19.761 4.27846V6.21774H21.6997L21.6997 4.27845Z" fill="black"/>
<path d="M23.6384 4.27846L21.6997 4.27845L21.6997 6.21774H23.6384V4.27846Z" fill="black"/>
<path d="M24.0489 4.27846H23.6384V4.68913C23.6384 4.46478 23.8246 4.27846 24.0489 4.27846Z" fill="black"/>
<path d="M25.5771 4.68913L25.5771 4.27846H25.1665C25.3908 4.27846 25.5771 4.46478 25.5771 4.68913Z" fill="black"/>
<path d="M27.5158 4.27846H25.5771V6.21774H27.5158V4.27846Z" fill="black"/>
<path d="M27.9263 4.27846H27.5158V4.68913C27.5158 4.46478 27.702 4.27846 27.9263 4.27846Z" fill="black"/>
<path d="M27.9263 6.21773C27.6982 6.21773 27.5158 6.0314 27.5158 5.80706V6.21774L27.9263 6.21773Z" fill="black"/>
<path d="M32.9213 4.27845L31.8075 4.27846C31.5794 4.27846 31.397 4.46478 31.397 4.68913V5.80326C31.397 6.03141 31.5832 6.21393 31.8075 6.21393H33.3357V4.27465H32.9213L32.9213 4.27845Z" fill="black"/>
<path d="M35.2706 4.27846L33.3319 4.27845L33.3319 6.21774H35.2706V4.27846Z" fill="black"/>
<path d="M35.6811 4.27846L35.2706 4.27846L35.2706 4.68913C35.2706 4.46478 35.4568 4.27846 35.6811 4.27846Z" fill="black"/>
<path d="M38.7374 4.27845L37.6236 4.27846C37.3955 4.27846 37.2131 4.46478 37.2131 4.68913V5.80326C37.2131 6.03141 37.3993 6.21393 37.6236 6.21393H39.1518V4.27465H38.7374L38.7374 4.27845Z" fill="black"/>
<path d="M41.0867 5.80707C41.0867 6.03522 40.9004 6.21774 40.6761 6.21774H39.148L39.148 4.27845L41.0867 4.27846V5.80707Z" fill="black"/>
<path d="M45.3746 4.27846H46.4884C46.7165 4.27846 46.899 4.46478 46.899 4.68913V5.80327C46.899 6.03142 46.7127 6.21394 46.4884 6.21394H45.3746C45.1466 6.21394 44.9641 6.02761 44.9641 5.80327V4.68913C44.9641 4.46478 45.1504 4.27846 45.3746 4.27846Z" fill="black"/>
<path d="M17.4117 6.21773L16.2979 6.21773C16.0698 6.21773 15.8873 6.40406 15.8873 6.62841V7.74254C15.8873 7.97069 16.0736 8.15321 16.2979 8.15321H17.8223V6.21393H17.4117L17.4117 6.21773Z" fill="black"/>
<path d="M19.761 7.74635C19.761 7.9745 19.5747 8.15702 19.3504 8.15702H17.8222L17.8223 6.21773L19.761 6.21774V7.74635Z" fill="black"/>
<path d="M20.1715 6.21774H19.761L19.7609 6.62841C19.7609 6.40406 19.9472 6.21774 20.1715 6.21774Z" fill="black"/>
<path d="M21.6997 6.62841L21.6997 6.21774H21.2891C21.5134 6.21774 21.6997 6.40406 21.6997 6.62841Z" fill="black"/>
<path d="M21.6996 7.74635C21.6996 7.9745 21.8859 8.15702 22.1102 8.15702H23.224C23.4521 8.15702 23.6346 7.97069 23.6346 7.74635V6.21774H21.6958V7.74635H21.6996Z" fill="black"/>
<path d="M25.5771 7.74635C25.5771 7.9745 25.7633 8.15702 25.9876 8.15702H27.5158V6.21774H25.5771V7.74635Z" fill="black"/>
<path d="M29.4545 6.21774H27.5158V8.15702H29.4545V6.21774Z" fill="black"/>
<path d="M29.865 8.15702H30.9788C31.2069 8.15702 31.3894 7.9707 31.3894 7.74635V6.63222C31.3894 6.40406 31.2031 6.22154 30.9788 6.22154H29.4545V8.16082H29.865V8.15702Z" fill="black"/>
<path d="M33.3319 6.62841L33.3319 6.21774H32.9213C33.1456 6.21774 33.3319 6.40406 33.3319 6.62841Z" fill="black"/>
<path d="M33.3319 7.74635C33.3319 7.9745 33.5181 8.15702 33.7424 8.15702H34.8562C35.0843 8.15702 35.2668 7.97069 35.2668 7.74635V6.21774H33.3281L33.3319 7.74635Z" fill="black"/>
<path d="M42.6148 8.15701C42.8429 8.15701 43.0254 7.97068 43.0254 7.74634V8.15701H42.6148Z" fill="black"/>
<path d="M44.9641 7.74635V6.63222C44.9641 6.40406 44.7778 6.22154 44.5535 6.22154H43.4397C43.2117 6.22154 43.0292 6.40787 43.0292 6.63222V8.16082H44.9679L44.9641 7.74635Z" fill="black"/>
<path d="M45.3746 8.15701C45.1466 8.15701 44.9641 7.9707 44.9641 7.74635L44.9641 8.15701H45.3746Z" fill="black"/>
<path d="M21.6997 9.68563V8.57149C21.6997 8.34334 21.5134 8.16082 21.2891 8.16082H20.1753C19.9472 8.16082 19.7648 8.34715 19.7648 8.57149V10.1001H21.7035V9.68563H21.6997Z" fill="black"/>
<path d="M24.0489 8.15702H25.1627C25.3908 8.15702 25.5733 8.34334 25.5733 8.56769V9.68182C25.5733 9.90997 25.387 10.0925 25.1627 10.0925H24.0489C23.8208 10.0925 23.6384 9.90617 23.6384 9.68182V8.56769C23.6384 8.34334 23.8246 8.15702 24.0489 8.15702Z" fill="black"/>
<path d="M40.6761 8.15701H39.5623C39.3342 8.15701 39.1518 8.34334 39.1518 8.56769V9.68182C39.1518 9.90997 39.338 10.0925 39.5623 10.0925H41.0905V8.15321H40.6761V8.15701Z" fill="black"/>
<path d="M43.0254 8.15701L41.0867 8.15702V10.0963H43.0254L43.0254 8.15701Z" fill="black"/>
<path d="M44.9641 8.15701H43.0254L43.0254 10.0963H44.9641L44.9641 8.15701Z" fill="black"/>
<path d="M46.9028 8.15702L44.9641 8.15701L44.9641 10.0963H46.9028V8.15702Z" fill="black"/>
<path d="M47.3133 10.0963H48.4271C48.6552 10.0963 48.8377 9.90998 48.8377 9.68563V8.57149C48.8377 8.34334 48.6514 8.16082 48.4271 8.16082H46.9028V10.1001H47.3133V10.0963Z" fill="black"/>
<path d="M17.8223 11.6249V10.5108C17.8223 10.2826 17.636 10.1001 17.4117 10.1001H16.2979C16.0698 10.1001 15.8873 10.2864 15.8873 10.5108V12.0394H17.8261V11.6249H17.8223Z" fill="black"/>
<path d="M21.6997 10.0963H19.7609V12.0356H21.6997V10.0963Z" fill="black"/>
<path d="M27.1052 10.0963H25.9914C25.7633 10.0963 25.5809 10.2826 25.5809 10.507V11.6211C25.5809 11.8492 25.7671 12.0318 25.9914 12.0318H27.5158V10.0925H27.1052V10.0963Z" fill="black"/>
<path d="M29.4545 10.0963H27.5158V12.0356H29.4545V10.0963Z" fill="black"/>
<path d="M29.865 12.0356H30.9788C31.2069 12.0356 31.3894 11.8493 31.3894 11.6249V10.5108C31.3894 10.2826 31.2031 10.1001 30.9788 10.1001H29.4545V12.0394H29.865V12.0356Z" fill="black"/>
<path d="M33.7424 10.0963H34.8562C35.0843 10.0963 35.2668 10.2826 35.2668 10.507V11.6211C35.2668 11.8493 35.0805 12.0318 34.8562 12.0318H33.7424C33.5143 12.0318 33.3319 11.8454 33.3319 11.6211V10.507C33.3319 10.2826 33.5181 10.0963 33.7424 10.0963Z" fill="black"/>
<path d="M37.6198 10.0963H38.7336C38.9617 10.0963 39.1442 10.2826 39.1442 10.507V11.6211C39.1442 11.8493 38.9579 12.0318 38.7336 12.0318H37.6198C37.3917 12.0318 37.2093 11.8454 37.2093 11.6211V10.507C37.2093 10.2826 37.3955 10.0963 37.6198 10.0963Z" fill="black"/>
<path d="M43.0254 10.507L43.0254 10.0963L42.6148 10.0963C42.8391 10.0963 43.0254 10.2826 43.0254 10.507Z" fill="black"/>
<path d="M44.9641 10.0963H43.0254V12.0356H44.9641V10.0963Z" fill="black"/>
<path d="M45.3746 10.0963L44.9641 10.0963L44.9641 10.507C44.9641 10.2826 45.1504 10.0963 45.3746 10.0963Z" fill="black"/>
<path d="M15.8835 13.5642C15.8835 13.7923 16.0698 13.9749 16.2941 13.9749H17.4079C17.636 13.9749 17.8184 13.7885 17.8184 13.5642V12.0356H15.8797V13.5642H15.8835Z" fill="black"/>
<path d="M19.7609 13.5642C19.7609 13.7923 19.9472 13.9749 20.1715 13.9749H21.2853C21.5134 13.9749 21.6958 13.7885 21.6958 13.5642V12.0356H19.7571V13.5642H19.7609Z" fill="black"/>
<path d="M25.5771 13.5642V12.4501C25.5771 12.2219 25.3908 12.0394 25.1665 12.0394H24.0527C23.8246 12.0394 23.6422 12.2257 23.6422 12.4501V13.9787H25.5809V13.5642H25.5771Z" fill="black"/>
<path d="M27.5158 12.4462L27.5158 12.0356H27.1052C27.3295 12.0356 27.5158 12.2219 27.5158 12.4462Z" fill="black"/>
<path d="M25.9876 13.9748C25.7595 13.9748 25.5771 13.7885 25.5771 13.5642L25.5771 13.9748H25.9876Z" fill="black"/>
<path d="M27.5158 13.5642C27.5158 13.7923 27.702 13.9749 27.9263 13.9749H29.0401C29.2682 13.9749 29.4507 13.7885 29.4507 13.5642V12.0356H27.512V13.5642H27.5158Z" fill="black"/>
<path d="M29.865 12.0356L29.4545 12.0356L29.4545 12.4462C29.4545 12.2219 29.6407 12.0356 29.865 12.0356Z" fill="black"/>
<path d="M33.3319 13.5642V12.4501C33.3319 12.2219 33.1456 12.0394 32.9213 12.0394H31.8075C31.5794 12.0394 31.397 12.2257 31.397 12.4501V13.9787H33.3357V13.5642H33.3319Z" fill="black"/>
<path d="M34.86 13.9748C35.0881 13.9748 35.2706 13.7885 35.2706 13.5642V13.9748H34.86Z" fill="black"/>
<path d="M33.7424 13.9748C33.5143 13.9748 33.3319 13.7885 33.3319 13.5642L33.3319 13.9748H33.7424Z" fill="black"/>
<path d="M37.2093 13.5642V12.4501C37.2093 12.2219 37.023 12.0394 36.7987 12.0394H35.6849C35.4568 12.0394 35.2744 12.2257 35.2744 12.4501V13.9787H37.2131L37.2093 13.5642Z" fill="black"/>
<path d="M38.7374 13.9748C38.9655 13.9748 39.148 13.7885 39.148 13.5642V13.9748H38.7374Z" fill="black"/>
<path d="M37.6198 13.9748C37.3917 13.9748 37.2093 13.7885 37.2093 13.5642L37.2093 13.9748H37.6198Z" fill="black"/>
<path d="M41.0867 13.5642V12.4501C41.0867 12.2219 40.9004 12.0394 40.6761 12.0394H39.5623C39.3342 12.0394 39.1518 12.2257 39.1518 12.4501V13.9787H41.0905L41.0867 13.5642Z" fill="black"/>
<path d="M42.6148 13.9748C42.8429 13.9748 43.0254 13.7885 43.0254 13.5642V13.9748H42.6148Z" fill="black"/>
<path d="M41.4972 13.9748C41.2691 13.9748 41.0867 13.7885 41.0867 13.5642L41.0867 13.9748H41.4972Z" fill="black"/>
<path d="M44.9641 12.0356H43.0254L43.0254 13.9748L44.9641 13.9749V12.0356Z" fill="black"/>
<path d="M45.3746 13.9748C45.1466 13.9748 44.9641 13.7885 44.9641 13.5642L44.9641 13.9749L45.3746 13.9748Z" fill="black"/>
<path d="M47.3133 12.0356H48.4271C48.6552 12.0356 48.8377 12.2219 48.8377 12.4462V13.5604C48.8377 13.7885 48.6514 13.9711 48.4271 13.9711H47.3133C47.0853 13.9711 46.9028 13.7847 46.9028 13.5604V12.4462C46.9028 12.2219 47.0891 12.0356 47.3133 12.0356Z" fill="black"/>
<path d="M25.5771 13.9748L23.6384 13.9749V15.9141H25.5771V13.9748Z" fill="black"/>
<path d="M27.1052 13.9749C27.3333 13.9749 27.5158 14.1612 27.5158 14.3855V15.9141H25.5771V13.9748L27.1052 13.9749Z" fill="black"/>
<path d="M31.3932 15.5035C31.3932 15.7316 31.5794 15.9141 31.8037 15.9141H33.3319V13.9748L31.3932 13.9749V15.5035Z" fill="black"/>
<path d="M35.2706 13.9748H33.3319V15.9141H35.2706L35.2706 13.9748Z" fill="black"/>
<path d="M37.2093 13.9748H35.2706L35.2706 15.9141H37.2093V13.9748Z" fill="black"/>
<path d="M39.148 13.9748H37.2093V15.9141H39.148L39.148 13.9748Z" fill="black"/>
<path d="M41.0867 13.9748H39.148L39.148 15.9141H41.0867V13.9748Z" fill="black"/>
<path d="M43.0254 13.9748H41.0867V15.9141H43.0254L43.0254 13.9748Z" fill="black"/>
<path d="M44.9641 13.9749L43.0254 13.9748L43.0254 15.9141H44.9641V13.9749Z" fill="black"/>
<path d="M45.3746 15.9141H46.4884C46.7165 15.9141 46.899 15.7278 46.899 15.5035V14.3893C46.899 14.1612 46.7127 13.9787 46.4884 13.9787H44.9641V15.9179L45.3746 15.9141Z" fill="black"/>
<path d="M1.90208 15.9141H0.788276C0.560193 15.9141 0.377727 16.1005 0.377727 16.3248V17.4389C0.377727 17.6671 0.563994 17.8496 0.788276 17.8496H2.31263V15.9103L1.90208 15.9141Z" fill="black"/>
<path d="M4.25133 15.9141H2.31263V17.8534H4.25133V15.9141Z" fill="black"/>
<path d="M6.19003 15.9141H4.25133V17.8534H6.19003V15.9141Z" fill="black"/>
<path d="M8.12873 15.9141H6.19003V17.8534H8.12873V15.9141Z" fill="black"/>
<path d="M8.53928 17.8534H9.65309C9.88117 17.8534 10.0636 17.6671 10.0636 17.4427V16.3286C10.0636 16.1005 9.87737 15.9179 9.65309 15.9179H8.12873V17.8572L8.53928 17.8534Z" fill="black"/>
<path d="M13.5343 15.9141H12.4205C12.1924 15.9141 12.0099 16.1005 12.0099 16.3248V17.4389C12.0099 17.6671 12.1962 17.8496 12.4205 17.8496H13.9448V15.9103L13.5343 15.9141Z" fill="black"/>
<path d="M15.8835 15.9141H13.9448V17.8534H15.8835V15.9141Z" fill="black"/>
<path d="M17.8222 15.9141H15.8835V17.8534H17.8222V15.9141Z" fill="black"/>
<path d="M19.761 15.9141H17.8222V17.8534H19.761V15.9141Z" fill="black"/>
<path d="M20.1715 17.8534H21.2853C21.5134 17.8534 21.6959 17.6671 21.6959 17.4427V16.3286C21.6959 16.1005 21.5096 15.9179 21.2853 15.9179H19.7609V17.8572L20.1715 17.8534Z" fill="black"/>
<path d="M23.6384 17.4427C23.6384 17.6709 23.8246 17.8534 24.0489 17.8534H25.5771V15.9141H23.6384V17.4427Z" fill="black"/>
<path d="M27.5158 17.4427C27.5158 17.6709 27.3295 17.8534 27.1052 17.8534H25.5771V15.9141H27.5158V17.4427Z" fill="black"/>
<path d="M29.865 15.9141H30.9788C31.2069 15.9141 31.3894 16.1005 31.3894 16.3248V17.4389C31.3894 17.6671 31.2031 17.8496 30.9788 17.8496H29.865C29.6369 17.8496 29.4545 17.6633 29.4545 17.4389V16.3248C29.4545 16.1005 29.6407 15.9141 29.865 15.9141Z" fill="black"/>
<path d="M35.2706 16.3248L35.2706 15.9141H34.86C35.0843 15.9141 35.2706 16.1005 35.2706 16.3248Z" fill="black"/>
<path d="M35.2706 17.4427C35.2706 17.6709 35.4568 17.8534 35.6811 17.8534H36.7949C37.023 17.8534 37.2055 17.6671 37.2055 17.4427V15.9141H35.2668L35.2706 17.4427Z" fill="black"/>
<path d="M37.6198 15.9141H37.2093V16.3248C37.2093 16.1005 37.3955 15.9141 37.6198 15.9141Z" fill="black"/>
<path d="M39.148 16.3248L39.148 15.9141H38.7374C38.9617 15.9141 39.148 16.1005 39.148 16.3248Z" fill="black"/>
<path d="M39.148 17.4427C39.148 17.6709 39.3342 17.8534 39.5585 17.8534H40.6723C40.9004 17.8534 41.0829 17.6671 41.0829 17.4427V15.9141H39.1442L39.148 17.4427Z" fill="black"/>
<path d="M41.4972 15.9141H41.0867V16.3248C41.0867 16.1005 41.2729 15.9141 41.4972 15.9141Z" fill="black"/>
<path d="M50.7802 17.4427V16.3286C50.7802 16.1005 50.5939 15.9179 50.3696 15.9179H49.2558C49.0278 15.9179 48.8453 16.1043 48.8453 16.3286V17.8572H50.784L50.7802 17.4427Z" fill="black"/>
<path d="M51.1907 17.8534C50.9627 17.8534 50.7802 17.6671 50.7802 17.4427L50.7802 17.8534H51.1907Z" fill="black"/>
<path d="M53.1294 15.9141H54.2432C54.4713 15.9141 54.6538 16.1005 54.6538 16.3248V17.4389C54.6538 17.6671 54.4675 17.8496 54.2432 17.8496H53.1294C52.9014 17.8496 52.7189 17.6633 52.7189 17.4389V16.3248C52.7189 16.1005 52.9052 15.9141 53.1294 15.9141Z" fill="black"/>
<path d="M58.535 17.4427V16.3286C58.535 16.1005 58.3487 15.9179 58.1245 15.9179H57.0107C56.7826 15.9179 56.6001 16.1043 56.6001 16.3286V17.8572H58.5388L58.535 17.4427Z" fill="black"/>
<path d="M58.9456 17.8534C58.7175 17.8534 58.535 17.6671 58.535 17.4427V17.8534H58.9456Z" fill="black"/>
<path d="M60.8843 15.9141H61.9981C62.2261 15.9141 62.4086 16.1005 62.4086 16.3248V17.4389C62.4086 17.6671 62.2223 17.8496 61.9981 17.8496H60.8843C60.6562 17.8496 60.4737 17.6633 60.4737 17.4389V16.3248C60.4737 16.1005 60.66 15.9141 60.8843 15.9141Z" fill="black"/>
<path d="M13.9448 18.2641L13.9448 17.8534H13.5343C13.7586 17.8534 13.9448 18.0397 13.9448 18.2641Z" fill="black"/>
<path d="M13.9448 19.382C13.9448 19.6102 14.1311 19.7927 14.3554 19.7927H15.8835V17.8534H13.9448V19.382Z" fill="black"/>
<path d="M17.8222 17.8534H15.8835V19.7927H17.8222V17.8534Z" fill="black"/>
<path d="M19.761 17.8534H17.8222V19.7927H19.761V17.8534Z" fill="black"/>
<path d="M20.1715 17.8534L19.761 17.8534L19.7609 18.2641C19.7609 18.0397 19.9472 17.8534 20.1715 17.8534Z" fill="black"/>
<path d="M27.9263 17.8534H29.0401C29.2682 17.8534 29.4507 18.0397 29.4507 18.2641V19.3782C29.4507 19.6064 29.2644 19.7889 29.0401 19.7889H27.9263C27.6982 19.7889 27.5158 19.6026 27.5158 19.3782V18.2641C27.5158 18.0397 27.702 17.8534 27.9263 17.8534Z" fill="black"/>
<path d="M31.8037 17.8534H32.9175C33.1456 17.8534 33.3281 18.0397 33.3281 18.2641V19.3782C33.3281 19.6064 33.1418 19.7889 32.9175 19.7889H31.8037C31.5756 19.7889 31.3932 19.6026 31.3932 19.3782V18.2641C31.3932 18.0397 31.5794 17.8534 31.8037 17.8534Z" fill="black"/>
<path d="M41.4972 17.8534H42.611C42.8391 17.8534 43.0216 18.0397 43.0216 18.2641V19.3782C43.0216 19.6064 42.8353 19.7889 42.611 19.7889H41.4972C41.2691 19.7889 41.0867 19.6026 41.0867 19.3782V18.2641C41.0867 18.0397 41.2729 17.8534 41.4972 17.8534Z" fill="black"/>
<path d="M44.5535 19.7927C44.7816 19.7927 44.9641 19.6064 44.9641 19.382V19.7927H44.5535Z" fill="black"/>
<path d="M46.9028 19.382V18.2679C46.9028 18.0397 46.7165 17.8572 46.4922 17.8572H45.3784C45.1504 17.8572 44.9679 18.0435 44.9679 18.2679V19.7965H46.9066L46.9028 19.382Z" fill="black"/>
<path d="M48.4309 19.7927C48.659 19.7927 48.8415 19.6064 48.8415 19.382V19.7927H48.4309Z" fill="black"/>
<path d="M47.3133 19.7927C47.0853 19.7927 46.9028 19.6064 46.9028 19.382L46.9028 19.7927H47.3133Z" fill="black"/>
<path d="M50.7802 17.8534L48.8415 17.8534L48.8415 19.7927L50.7802 19.7927V17.8534Z" fill="black"/>
<path d="M51.1907 19.7927H52.3045C52.5326 19.7927 52.7151 19.6064 52.7151 19.382V18.2679C52.7151 18.0397 52.5288 17.8572 52.3045 17.8572H50.7802V19.7965L51.1907 19.7927Z" fill="black"/>
<path d="M56.1858 19.7927C56.4138 19.7927 56.5963 19.6064 56.5963 19.382V19.7927H56.1858Z" fill="black"/>
<path d="M58.535 17.8534L56.5963 17.8534L56.5963 19.7927L58.535 19.7927V17.8534Z" fill="black"/>
<path d="M58.9456 19.7927H60.0594C60.2874 19.7927 60.4699 19.6064 60.4699 19.382V18.2679C60.4699 18.0397 60.2836 17.8572 60.0594 17.8572H58.535V19.7965L58.9456 19.7927Z" fill="black"/>
<path d="M0.784471 19.7927C0.556389 19.7927 0.373922 19.979 0.373922 20.2034V21.732H2.31263V19.7927H0.784471Z" fill="black"/>
<path d="M2.72317 21.732H3.83698C4.06506 21.732 4.24753 21.5457 4.24753 21.3213V20.2072C4.24753 19.979 4.06126 19.7965 3.83698 19.7965H2.31263V21.7358L2.72317 21.732Z" fill="black"/>
<path d="M9.65689 19.7927H8.54309C8.315 19.7927 8.13254 19.979 8.13254 20.2034V21.3175C8.13254 21.5456 8.31881 21.7282 8.54309 21.7282H10.0674V19.7889L9.65689 19.7927Z" fill="black"/>
<path d="M12.0061 19.7927H10.0674V21.732H12.0061V19.7927Z" fill="black"/>
<path d="M12.4167 21.732H13.5305C13.7586 21.732 13.941 21.5457 13.941 21.3213V20.2072C13.941 19.979 13.7548 19.7965 13.5305 19.7965H12.0061V21.7358L12.4167 21.732Z" fill="black"/>
<path d="M15.8836 20.2034L15.8835 19.7927L15.473 19.7927C15.6973 19.7927 15.8836 19.979 15.8836 20.2034Z" fill="black"/>
<path d="M15.8835 21.3213C15.8835 21.5494 16.0698 21.732 16.2941 21.732H17.8222V19.7927H15.8835V21.3213Z" fill="black"/>
<path d="M19.761 19.7927H17.8222V21.732H19.761V19.7927Z" fill="black"/>
<path d="M21.2891 21.732C21.5172 21.732 21.6997 21.5456 21.6997 21.3213V21.732H21.2891Z" fill="black"/>
<path d="M20.1715 21.732C19.9434 21.732 19.7609 21.5456 19.7609 21.3213L19.761 21.732L20.1715 21.732Z" fill="black"/>
<path d="M22.1102 19.7927C21.8821 19.7927 21.6997 19.979 21.6997 20.2034L21.6997 21.732L23.6384 21.732V19.7927H22.1102Z" fill="black"/>
<path d="M25.5771 19.7927H23.6384V21.732H25.5771V19.7927Z" fill="black"/>
<path d="M27.1052 19.7927C27.3333 19.7927 27.5158 19.979 27.5158 20.2034V21.732H25.5771V19.7927H27.1052Z" fill="black"/>
<path d="M33.7424 19.7927H34.8562C35.0843 19.7927 35.2668 19.979 35.2668 20.2034V21.3175C35.2668 21.5456 35.0805 21.7282 34.8562 21.7282H33.7424C33.5143 21.7282 33.3319 21.5418 33.3319 21.3175V20.2034C33.3319 19.979 33.5181 19.7927 33.7424 19.7927Z" fill="black"/>
<path d="M36.7987 21.732C37.0268 21.732 37.2093 21.5456 37.2093 21.3213V21.732H36.7987Z" fill="black"/>
<path d="M39.148 21.3213V20.2072C39.148 19.979 38.9617 19.7965 38.7374 19.7965H37.6236C37.3955 19.7965 37.2131 19.9828 37.2131 20.2072V21.7358H39.1518L39.148 21.3213Z" fill="black"/>
<path d="M39.5585 21.732C39.3304 21.732 39.148 21.5457 39.148 21.3213L39.148 21.732H39.5585Z" fill="black"/>
<path d="M44.5535 19.7927L43.4397 19.7927C43.2117 19.7927 43.0292 19.979 43.0292 20.2034V21.3175C43.0292 21.5456 43.2155 21.7282 43.4397 21.7282H44.9679V19.7889L44.5535 19.7927Z" fill="black"/>
<path d="M46.9028 19.7927H44.9641L44.9641 21.732H46.9028V19.7927Z" fill="black"/>
<path d="M48.8415 19.7927H46.9028V21.732H48.8415L48.8415 19.7927Z" fill="black"/>
<path d="M50.7802 21.3213C50.7802 21.5494 50.5939 21.732 50.3696 21.732H48.8415L48.8415 19.7927L50.7802 19.7927V21.3213Z" fill="black"/>
<path d="M51.1907 19.7927L50.7802 19.7927V20.2034C50.7802 19.979 50.9665 19.7927 51.1907 19.7927Z" fill="black"/>
<path d="M54.247 19.7927H53.1332C52.9052 19.7927 52.7227 19.979 52.7227 20.2034V21.3175C52.7227 21.5456 52.909 21.7282 53.1332 21.7282H54.6614V19.7889L54.247 19.7927Z" fill="black"/>
<path d="M56.5963 19.7927L54.6576 19.7927V21.732H56.5963L56.5963 19.7927Z" fill="black"/>
<path d="M58.535 21.3213C58.535 21.5494 58.3487 21.732 58.1245 21.732H56.5963L56.5963 19.7927L58.535 19.7927V21.3213Z" fill="black"/>
<path d="M58.9456 19.7927L58.535 19.7927V20.2034C58.535 19.979 58.7213 19.7927 58.9456 19.7927Z" fill="black"/>
<path d="M60.0632 21.732C60.2912 21.732 60.4737 21.5456 60.4737 21.3213V21.732H60.0632Z" fill="black"/>
<path d="M62.4124 21.3213V20.2072C62.4124 19.979 62.2261 19.7965 62.0019 19.7965H60.8881C60.66 19.7965 60.4775 19.9828 60.4775 20.2072V21.7358H62.4162L62.4124 21.3213Z" fill="black"/>
<path d="M62.823 21.732C62.5949 21.732 62.4124 21.5457 62.4124 21.3213L62.4124 21.732H62.823Z" fill="black"/>
<path d="M2.31263 21.732H0.373922V23.6712H2.31262L2.31263 21.732Z" fill="black"/>
<path d="M2.72317 21.732L2.31263 21.732V22.1426C2.31263 21.9183 2.49889 21.732 2.72317 21.732Z" fill="black"/>
<path d="M10.0674 22.1426L10.0674 21.732H9.65689C9.88118 21.732 10.0674 21.9183 10.0674 22.1426Z" fill="black"/>
<path d="M9.65689 23.6712C9.88498 23.6712 10.0674 23.4849 10.0674 23.2606V23.6712H9.65689Z" fill="black"/>
<path d="M12.0061 21.732H10.0674L10.0674 23.6712L12.0061 23.6712V21.732Z" fill="black"/>
<path d="M12.4167 21.732L12.0061 21.732L12.0061 22.1426C12.0061 21.9183 12.1924 21.732 12.4167 21.732Z" fill="black"/>
<path d="M12.4167 23.6712C12.1886 23.6712 12.0061 23.4849 12.0061 23.2606L12.0061 23.6712L12.4167 23.6712Z" fill="black"/>
<path d="M17.8223 22.1426L17.8222 21.732H17.4117C17.636 21.732 17.8223 21.9183 17.8223 22.1426Z" fill="black"/>
<path d="M19.761 21.732H17.8222V23.6712H19.761V21.732Z" fill="black"/>
<path d="M21.6997 21.732L19.761 21.732V23.6712H21.6997L21.6997 21.732Z" fill="black"/>
<path d="M23.6384 21.732L21.6997 21.732L21.6997 23.6712H23.6384V21.732Z" fill="black"/>
<path d="M24.0489 21.732H23.6384V22.1426C23.6384 21.9183 23.8246 21.732 24.0489 21.732Z" fill="black"/>
<path d="M25.5771 22.1426L25.5771 21.732H25.1665C25.3908 21.732 25.5771 21.9183 25.5771 22.1426Z" fill="black"/>
<path d="M27.5158 21.732H25.5771V23.6712H27.5158V21.732Z" fill="black"/>
<path d="M27.9263 23.6712C27.6982 23.6712 27.5158 23.4849 27.5158 23.2606V23.6712L27.9263 23.6712Z" fill="black"/>
<path d="M30.9826 23.6712C31.2107 23.6712 31.3932 23.4849 31.3932 23.2606V23.6712H30.9826Z" fill="black"/>
<path d="M33.3319 23.2606V22.1464C33.3319 21.9183 33.1456 21.7358 32.9213 21.7358H31.8075C31.5794 21.7358 31.397 21.9221 31.397 22.1464V23.6751H33.3357V23.2606H33.3319Z" fill="black"/>
<path d="M36.7987 21.732L35.6849 21.732C35.4568 21.732 35.2744 21.9183 35.2744 22.1426V23.2568C35.2744 23.4849 35.4606 23.6674 35.6849 23.6674H37.2131V21.7282L36.7987 21.732Z" fill="black"/>
<path d="M39.148 21.732H37.2093L37.2093 23.6712H39.148L39.148 21.732Z" fill="black"/>
<path d="M41.0867 21.732L39.148 21.732L39.148 23.6712H41.0867V21.732Z" fill="black"/>
<path d="M42.6148 21.732C42.8429 21.732 43.0254 21.9183 43.0254 22.1426V23.6712H41.0867V21.732H42.6148Z" fill="black"/>
<path d="M44.9641 22.1426L44.9641 21.732H44.5535C44.7778 21.732 44.9641 21.9183 44.9641 22.1426Z" fill="black"/>
<path d="M43.4359 23.6712C43.2078 23.6712 43.0254 23.4849 43.0254 23.2606V23.6712L43.4359 23.6712Z" fill="black"/>
<path d="M44.9641 23.2606C44.9641 23.4887 45.1504 23.6712 45.3746 23.6712H46.9028V21.732H44.9641V23.2606Z" fill="black"/>
<path d="M48.8415 23.2606C48.8415 23.4887 48.6552 23.6712 48.4309 23.6712H46.9028V21.732H48.8415V23.2606Z" fill="black"/>
<path d="M49.252 21.732H48.8415L48.8415 22.1426C48.8415 21.9183 49.0278 21.732 49.252 21.732Z" fill="black"/>
<path d="M50.3697 23.6712C50.5977 23.6712 50.7802 23.4849 50.7802 23.2606V23.6712H50.3697Z" fill="black"/>
<path d="M52.7189 23.2606V22.1464C52.7189 21.9183 52.5326 21.7358 52.3083 21.7358H51.1945C50.9665 21.7358 50.784 21.9221 50.784 22.1464V23.6751H52.7227L52.7189 23.2606Z" fill="black"/>
<path d="M53.1294 23.6712C52.9014 23.6712 52.7189 23.4849 52.7189 23.2606L52.7189 23.6712H53.1294Z" fill="black"/>
<path d="M58.9456 21.732C58.7175 21.732 58.535 21.9183 58.535 22.1426V23.6712H60.4737L60.4737 21.732L58.9456 21.732Z" fill="black"/>
<path d="M62.4124 21.732H60.4737L60.4737 23.6712H62.4124V21.732Z" fill="black"/>
<path d="M62.823 23.6713H63.9368C64.1648 23.6713 64.3473 23.4849 64.3473 23.2606V22.1464C64.3473 21.9183 64.161 21.7358 63.9368 21.7358H62.4124V23.6751L62.823 23.6713Z" fill="black"/>
<path d="M0.373919 25.1999C0.373919 25.428 0.560186 25.6105 0.784468 25.6105H1.89827C2.12635 25.6105 2.30882 25.4242 2.30882 25.1999V23.6712H0.370117L0.373919 25.1999Z" fill="black"/>
<path d="M7.71819 23.6712H6.60438C6.3763 23.6712 6.19384 23.8576 6.19384 24.0819V25.196C6.19384 25.4242 6.3801 25.6067 6.60438 25.6067H8.12874V23.6674L7.71819 23.6712Z" fill="black"/>
<path d="M10.0674 23.6712L8.12873 23.6712V25.6105H10.0674L10.0674 23.6712Z" fill="black"/>
<path d="M12.0061 23.6712L10.0674 23.6712L10.0674 25.6105H12.0061V23.6712Z" fill="black"/>
<path d="M12.4167 25.6105H13.5305C13.7586 25.6105 13.941 25.4242 13.941 25.1999V24.0857C13.941 23.8576 13.7548 23.6751 13.5305 23.6751H12.0061V25.6143L12.4167 25.6105Z" fill="black"/>
<path d="M19.761 23.6712H17.8222V25.6105H19.761V23.6712Z" fill="black"/>
<path d="M20.1715 23.6712H19.761L19.7609 24.0819C19.7609 23.8576 19.9472 23.6712 20.1715 23.6712Z" fill="black"/>
<path d="M21.6997 24.0819L21.6997 23.6712H21.2891C21.5134 23.6712 21.6997 23.8576 21.6997 24.0819Z" fill="black"/>
<path d="M20.1715 25.6105C19.9434 25.6105 19.7609 25.4242 19.7609 25.1998L19.761 25.6105L20.1715 25.6105Z" fill="black"/>
<path d="M21.6996 25.1999C21.6996 25.428 21.8859 25.6105 22.1102 25.6105H23.224C23.4521 25.6105 23.6346 25.4242 23.6346 25.1999V23.6712H21.6958V25.1999H21.6996Z" fill="black"/>
<path d="M25.5771 25.1999C25.5771 25.428 25.7633 25.6105 25.9876 25.6105H27.5158V23.6712H25.5771V25.1999Z" fill="black"/>
<path d="M29.4545 23.6712H27.5158V25.6105H29.4545V23.6712Z" fill="black"/>
<path d="M31.3932 23.6712L29.4545 23.6712V25.6105H31.3932L31.3932 23.6712Z" fill="black"/>
<path d="M33.3319 25.1999C33.3319 25.428 33.1456 25.6105 32.9213 25.6105H31.3932L31.3932 23.6712L33.3319 23.6712V25.1999Z" fill="black"/>
<path d="M39.148 24.0819L39.148 23.6712H38.7374C38.9617 23.6712 39.148 23.8576 39.148 24.0819Z" fill="black"/>
<path d="M39.148 25.1999C39.148 25.428 39.3342 25.6105 39.5585 25.6105H41.0867V23.6712H39.148L39.148 25.1999Z" fill="black"/>
<path d="M43.0254 23.6712H41.0867V25.6105H43.0254V23.6712Z" fill="black"/>
<path d="M44.5535 23.6712C44.7816 23.6712 44.9641 23.8576 44.9641 24.0819V25.6105H43.0254V23.6712H44.5535Z" fill="black"/>
<path d="M49.252 23.6712C49.024 23.6712 48.8415 23.8576 48.8415 24.0819V25.6105H50.7802L50.7802 23.6712L49.252 23.6712Z" fill="black"/>
<path d="M52.7189 23.6712H50.7802L50.7802 25.6105H52.7189V23.6712Z" fill="black"/>
<path d="M54.6576 23.6712L52.7189 23.6712V25.6105H54.6576V23.6712Z" fill="black"/>
<path d="M56.1857 23.6712C56.4138 23.6712 56.5963 23.8576 56.5963 24.0819V25.6105H54.6576V23.6712H56.1857Z" fill="black"/>
<path d="M58.1245 25.6105C58.3525 25.6105 58.535 25.4242 58.535 25.1998V25.6105H58.1245Z" fill="black"/>
<path d="M57.0069 25.6105C56.7788 25.6105 56.5963 25.4242 56.5963 25.1998L56.5963 25.6105L57.0069 25.6105Z" fill="black"/>
<path d="M60.4737 23.6712H58.535L58.535 25.6105L60.4737 25.6105V23.6712Z" fill="black"/>
<path d="M62.4124 25.1999C62.4124 25.428 62.2261 25.6105 62.0019 25.6105H60.4737V23.6712H62.4124V25.1999Z" fill="black"/>
<path d="M62.823 23.6713L62.4124 23.6712V24.0819C62.4124 23.8576 62.5987 23.6713 62.823 23.6713Z" fill="black"/>
<path d="M10.0674 26.0212L10.0674 25.6105H9.65689C9.88118 25.6105 10.0674 25.7969 10.0674 26.0212Z" fill="black"/>
<path d="M10.0674 27.1391C10.0674 27.3673 10.2537 27.5498 10.478 27.5498H11.5918C11.8199 27.5498 12.0023 27.3635 12.0023 27.1391V25.6105H10.0636V27.1391H10.0674Z" fill="black"/>
<path d="M12.4167 25.6105L12.0061 25.6105L12.0061 26.0212C12.0061 25.7969 12.1924 25.6105 12.4167 25.6105Z" fill="black"/>
<path d="M14.3554 25.6105H15.4692C15.6973 25.6105 15.8797 25.7969 15.8797 26.0212V27.1353C15.8797 27.3635 15.6935 27.546 15.4692 27.546H14.3554C14.1273 27.546 13.9448 27.3597 13.9448 27.1353V26.0212C13.9448 25.7969 14.1311 25.6105 14.3554 25.6105Z" fill="black"/>
<path d="M17.8222 27.1391C17.8222 27.3673 18.0085 27.5498 18.2328 27.5498H19.761V25.6105H17.8222V27.1391Z" fill="black"/>
<path d="M21.2891 25.6105C21.5172 25.6105 21.6997 25.7969 21.6997 26.0212V27.5498H19.761V25.6105H21.2891Z" fill="black"/>
<path d="M24.0489 25.6105H25.1627C25.3908 25.6105 25.5733 25.7969 25.5733 26.0212V27.1353C25.5733 27.3635 25.387 27.546 25.1627 27.546H24.0489C23.8208 27.546 23.6384 27.3597 23.6384 27.1353V26.0212C23.6384 25.7969 23.8246 25.6105 24.0489 25.6105Z" fill="black"/>
<path d="M29.4545 26.0212L29.4545 25.6105H29.0439C29.2682 25.6105 29.4545 25.7969 29.4545 26.0212Z" fill="black"/>
<path d="M29.4545 27.1391C29.4545 27.3673 29.6407 27.5498 29.865 27.5498H30.9788C31.2069 27.5498 31.3894 27.3635 31.3894 27.1391V25.6105H29.4507V27.1391H29.4545Z" fill="black"/>
<path d="M31.8037 25.6105H31.3932V26.0212C31.3932 25.7969 31.5794 25.6105 31.8037 25.6105Z" fill="black"/>
<path d="M34.86 27.5498C35.0881 27.5498 35.2706 27.3635 35.2706 27.1391V27.5498H34.86Z" fill="black"/>
<path d="M37.2093 27.1391V26.025C37.2093 25.7969 37.023 25.6143 36.7987 25.6143H35.6849C35.4568 25.6143 35.2744 25.8007 35.2744 26.025V27.5536H37.2131L37.2093 27.1391Z" fill="black"/>
<path d="M41.0867 26.0212L41.0867 25.6105H40.6761C40.9004 25.6105 41.0867 25.7969 41.0867 26.0212Z" fill="black"/>
<path d="M41.0867 27.1391C41.0867 27.3673 41.2729 27.5498 41.4972 27.5498H43.0254V25.6105H41.0867V27.1391Z" fill="black"/>
<path d="M44.9641 27.1391C44.9641 27.3673 44.7778 27.5498 44.5535 27.5498H43.0254V25.6105H44.9641V27.1391Z" fill="black"/>
<path d="M48.4309 27.5498C48.659 27.5498 48.8415 27.3635 48.8415 27.1391V27.5498H48.4309Z" fill="black"/>
<path d="M50.7802 25.6105H48.8415L48.8415 27.5498L50.7802 27.5498V25.6105Z" fill="black"/>
<path d="M52.7189 27.1391C52.7189 27.3673 52.5326 27.5498 52.3083 27.5498H50.7802V25.6105H52.7189V27.1391Z" fill="black"/>
<path d="M53.1294 25.6105H52.7189V26.0212C52.7189 25.7969 52.9052 25.6105 53.1294 25.6105Z" fill="black"/>
<path d="M54.6576 26.0212L54.6576 25.6105H54.2471C54.4713 25.6105 54.6576 25.7969 54.6576 26.0212Z" fill="black"/>
<path d="M54.2471 27.5498C54.4751 27.5498 54.6576 27.3635 54.6576 27.1391V27.5498H54.2471Z" fill="black"/>
<path d="M56.5963 25.6105H54.6576L54.6576 27.5498L56.5963 27.5498V25.6105Z" fill="black"/>
<path d="M58.535 25.6105L56.5963 25.6105V27.5498H58.535L58.535 25.6105Z" fill="black"/>
<path d="M60.4737 27.1391C60.4737 27.3673 60.2874 27.5498 60.0632 27.5498H58.535L58.535 25.6105L60.4737 25.6105V27.1391Z" fill="black"/>
<path d="M60.8843 25.6105H60.4737V26.0212C60.4737 25.7969 60.66 25.6105 60.8843 25.6105Z" fill="black"/>
<path d="M6.60058 27.5498C6.3725 27.5498 6.19003 27.7361 6.19003 27.9605V29.4891H8.12873V27.5498H6.60058Z" fill="black"/>
<path d="M9.65689 27.5498C9.88497 27.5498 10.0674 27.7361 10.0674 27.9605V29.4891H8.12873V27.5498H9.65689Z" fill="black"/>
<path d="M12.4167 27.5498H13.5305C13.7586 27.5498 13.941 27.7361 13.941 27.9605V29.0746C13.941 29.3028 13.7548 29.4853 13.5305 29.4853H12.4167C12.1886 29.4853 12.0061 29.299 12.0061 29.0746V27.9605C12.0061 27.7361 12.1924 27.5498 12.4167 27.5498Z" fill="black"/>
<path d="M17.8223 29.0784V27.9643C17.8223 27.7361 17.636 27.5536 17.4117 27.5536H16.2979C16.0698 27.5536 15.8873 27.7399 15.8873 27.9643V29.4929H17.8261V29.0784H17.8223Z" fill="black"/>
<path d="M19.761 27.9605L19.761 27.5498H19.3504C19.5747 27.5498 19.761 27.7361 19.761 27.9605Z" fill="black"/>
<path d="M18.2328 29.4891C18.0047 29.4891 17.8223 29.3028 17.8223 29.0784L17.8222 29.4891H18.2328Z" fill="black"/>
<path d="M19.7609 29.0784C19.7609 29.3066 19.9472 29.4891 20.1715 29.4891H21.2853C21.5134 29.4891 21.6958 29.3028 21.6958 29.0784V27.5498H19.7571V29.0784H19.7609Z" fill="black"/>
<path d="M27.1052 27.5498H25.9914C25.7633 27.5498 25.5809 27.7361 25.5809 27.9605V29.0746C25.5809 29.3028 25.7671 29.4853 25.9914 29.4853H27.5158V27.546L27.1052 27.5498Z" fill="black"/>
<path d="M27.9263 29.4891H29.0401C29.2682 29.4891 29.4507 29.3028 29.4507 29.0784V27.9643C29.4507 27.7361 29.2644 27.5536 29.0401 27.5536H27.5158V29.4929L27.9263 29.4891Z" fill="black"/>
<path d="M32.9213 29.4891C33.1494 29.4891 33.3319 29.3027 33.3319 29.0784V29.4891H32.9213Z" fill="black"/>
<path d="M33.7424 27.5498C33.5143 27.5498 33.3319 27.7361 33.3319 27.9605L33.3319 29.4891L35.2706 29.4891L35.2706 27.5498L33.7424 27.5498Z" fill="black"/>
<path d="M37.2093 29.0784C37.2093 29.3066 37.023 29.4891 36.7987 29.4891H35.2706L35.2706 27.5498L37.2093 27.5498V29.0784Z" fill="black"/>
<path d="M45.3746 27.5498C45.1466 27.5498 44.9641 27.7361 44.9641 27.9605V29.4891H46.9028V27.5498H45.3746Z" fill="black"/>
<path d="M48.8415 27.5498L46.9028 27.5498V29.4891H48.8415L48.8415 27.5498Z" fill="black"/>
<path d="M50.7802 29.0784C50.7802 29.3066 50.5939 29.4891 50.3696 29.4891H48.8415L48.8415 27.5498L50.7802 27.5498V29.0784Z" fill="black"/>
<path d="M51.1907 27.5498H50.7802V27.9605C50.7802 27.7361 50.9665 27.5498 51.1907 27.5498Z" fill="black"/>
<path d="M52.3084 29.4891C52.5364 29.4891 52.7189 29.3027 52.7189 29.0784V29.4891H52.3084Z" fill="black"/>
<path d="M53.1294 27.5498C52.9014 27.5498 52.7189 27.7361 52.7189 27.9605L52.7189 29.4891L54.6576 29.4891L54.6576 27.5498L53.1294 27.5498Z" fill="black"/>
<path d="M56.5963 27.5498L54.6576 27.5498L54.6576 29.4891H56.5963V27.5498Z" fill="black"/>
<path d="M58.535 29.0784C58.535 29.3066 58.3487 29.4891 58.1245 29.4891H56.5963V27.5498H58.535V29.0784Z" fill="black"/>
<path d="M58.9456 27.5498H58.535V27.9605C58.535 27.7361 58.7213 27.5498 58.9456 27.5498Z" fill="black"/>
<path d="M60.0632 29.4891C60.2912 29.4891 60.4737 29.3027 60.4737 29.0784V29.4891H60.0632Z" fill="black"/>
<path d="M62.4124 29.0784V27.9643C62.4124 27.7361 62.2261 27.5536 62.0019 27.5536H60.8881C60.66 27.5536 60.4775 27.7399 60.4775 27.9643V29.4929H62.4162L62.4124 29.0784Z" fill="black"/>
<path d="M62.823 29.4891C62.5949 29.4891 62.4124 29.3028 62.4124 29.0784L62.4124 29.4891H62.823Z" fill="black"/>
<path d="M4.25133 31.0177V29.9036C4.25133 29.6754 4.06506 29.4929 3.84078 29.4929H2.72698C2.4989 29.4929 2.31643 29.6792 2.31643 29.9036V31.4322H4.25513L4.25133 31.0177Z" fill="black"/>
<path d="M5.77949 31.4283C6.00757 31.4283 6.19004 31.242 6.19004 31.0177V31.4283H5.77949Z" fill="black"/>
<path d="M4.66188 31.4283C4.43379 31.4283 4.25133 31.242 4.25133 31.0177L4.25133 31.4283H4.66188Z" fill="black"/>
<path d="M8.12873 29.4891H6.19003L6.19004 31.4283L8.12873 31.4284L8.12873 29.4891Z" fill="black"/>
<path d="M10.0674 29.4891H8.12873L8.12873 31.4284H10.0674L10.0674 29.4891Z" fill="black"/>
<path d="M10.478 31.4283C10.2499 31.4283 10.0674 31.242 10.0674 31.0177V31.4284L10.478 31.4283Z" fill="black"/>
<path d="M15.473 31.4283C15.7011 31.4283 15.8836 31.242 15.8836 31.0177V31.4283H15.473Z" fill="black"/>
<path d="M17.8222 29.4891L15.8835 29.4891L15.8836 31.4283L17.8222 31.4284V29.4891Z" fill="black"/>
<path d="M19.3504 29.4891C19.5785 29.4891 19.761 29.6754 19.761 29.8998V31.4284H17.8222V29.4891L19.3504 29.4891Z" fill="black"/>
<path d="M20.1715 31.4283C19.9434 31.4283 19.7609 31.242 19.7609 31.0177L19.761 31.4284L20.1715 31.4283Z" fill="black"/>
<path d="M25.5771 31.0177V29.9036C25.5771 29.6754 25.3908 29.4929 25.1665 29.4929H24.0527C23.8246 29.4929 23.6422 29.6792 23.6422 29.9036V31.4322H25.5809V31.0177H25.5771Z" fill="black"/>
<path d="M32.9213 29.4891L31.8075 29.4891C31.5794 29.4891 31.397 29.6754 31.397 29.8998V31.0139C31.397 31.242 31.5832 31.4246 31.8075 31.4246H33.3357V29.4853L32.9213 29.4891Z" fill="black"/>
<path d="M35.2706 31.0177C35.2706 31.2458 35.0843 31.4284 34.86 31.4284H33.3319L33.3319 29.4891L35.2706 29.4891V31.0177Z" fill="black"/>
<path d="M35.6811 29.4891L35.2706 29.4891L35.2706 29.8998C35.2706 29.6754 35.4568 29.4891 35.6811 29.4891Z" fill="black"/>
<path d="M38.7374 29.4891H37.6236C37.3955 29.4891 37.2131 29.6754 37.2131 29.8998V31.0139C37.2131 31.242 37.3993 31.4246 37.6236 31.4246H39.1518V29.4853L38.7374 29.4891Z" fill="black"/>
<path d="M39.5585 31.4284H40.6723C40.9004 31.4284 41.0829 31.242 41.0829 31.0177V29.9036C41.0829 29.6754 40.8966 29.4929 40.6723 29.4929H39.148V31.4322L39.5585 31.4284Z" fill="black"/>
<path d="M44.9641 31.0177C44.9641 31.2458 45.1503 31.4284 45.3746 31.4284H46.4884C46.7165 31.4284 46.899 31.242 46.899 31.0177V29.4891H44.9603L44.9641 31.0177Z" fill="black"/>
<path d="M47.3133 29.4891L46.9028 29.4891V29.8998C46.9028 29.6754 47.0891 29.4891 47.3133 29.4891Z" fill="black"/>
<path d="M50.3697 31.4283C50.5977 31.4283 50.7802 31.242 50.7802 31.0177V31.4283H50.3697Z" fill="black"/>
<path d="M51.1907 29.4891C50.9627 29.4891 50.7802 29.6754 50.7802 29.8998L50.7802 31.4283L52.7189 31.4284L52.7189 29.4891L51.1907 29.4891Z" fill="black"/>
<path d="M54.6576 31.0177C54.6576 31.2458 54.4713 31.4284 54.247 31.4284H52.7189L52.7189 29.4891L54.6576 29.4891V31.0177Z" fill="black"/>
<path d="M55.0681 29.4891L54.6576 29.4891V29.8998C54.6576 29.6754 54.8439 29.4891 55.0681 29.4891Z" fill="black"/>
<path d="M60.0632 29.4891L58.9494 29.4891C58.7213 29.4891 58.5388 29.6754 58.5388 29.8998V31.0139C58.5388 31.242 58.7251 31.4246 58.9494 31.4246H60.4775V29.4853L60.0632 29.4891Z" fill="black"/>
<path d="M62.4124 29.4891H60.4737L60.4737 31.4284H62.4124V29.4891Z" fill="black"/>
<path d="M62.823 31.4284H63.9368C64.1648 31.4284 64.3473 31.242 64.3473 31.0177V29.9036C64.3473 29.6754 64.161 29.4929 63.9368 29.4929H62.4124V31.4322L62.823 31.4284Z" fill="black"/>
<path d="M2.31263 32.957C2.31263 33.1851 2.49889 33.3676 2.72317 33.3676H4.25133V31.4283L2.31263 31.4284V32.957Z" fill="black"/>
<path d="M6.19004 31.4283H4.25133V33.3676H6.19003L6.19004 31.4283Z" fill="black"/>
<path d="M8.12873 31.4284L6.19004 31.4283L6.19003 33.3676H8.12873V31.4284Z" fill="black"/>
<path d="M10.0674 31.4284H8.12873V33.3676H10.0674V31.4284Z" fill="black"/>
<path d="M12.0061 31.4284H10.0674V33.3676H12.0061V31.4284Z" fill="black"/>
<path d="M13.9448 31.4284H12.0061V33.3676H13.9448V31.4284Z" fill="black"/>
<path d="M15.8836 31.4283L13.9448 31.4284V33.3676H15.8835L15.8836 31.4283Z" fill="black"/>
<path d="M17.8222 31.4284L15.8836 31.4283L15.8835 33.3676H17.8222V31.4284Z" fill="black"/>
<path d="M19.761 31.4284H17.8222V33.3676H19.761V31.4284Z" fill="black"/>
<path d="M20.1715 33.3676H21.2853C21.5134 33.3676 21.6959 33.1813 21.6959 32.957V31.8428C21.6959 31.6147 21.5096 31.4322 21.2853 31.4322H19.7609V33.3714L20.1715 33.3676Z" fill="black"/>
<path d="M23.6383 32.957C23.6383 33.1851 23.8246 33.3676 24.0489 33.3676H25.1627C25.3908 33.3676 25.5733 33.1813 25.5733 32.957V31.4284H23.6345V32.957H23.6383Z" fill="black"/>
<path d="M27.9263 31.4284C27.6982 31.4284 27.5158 31.6147 27.5158 31.839V33.3676H29.4545V31.4284H27.9263Z" fill="black"/>
<path d="M30.9826 31.4284C31.2107 31.4284 31.3932 31.6147 31.3932 31.839V33.3676H29.4545V31.4284H30.9826Z" fill="black"/>
<path d="M31.8037 33.3676C31.5756 33.3676 31.3932 33.1813 31.3932 32.957V33.3676L31.8037 33.3676Z" fill="black"/>
<path d="M42.6148 33.3676C42.8429 33.3676 43.0254 33.1813 43.0254 32.957V33.3676H42.6148Z" fill="black"/>
<path d="M44.9641 32.957V31.8428C44.9641 31.6147 44.7778 31.4322 44.5535 31.4322H43.4397C43.2117 31.4322 43.0292 31.6185 43.0292 31.8428V33.3714H44.9679L44.9641 32.957Z" fill="black"/>
<path d="M45.3746 33.3676C45.1466 33.3676 44.9641 33.1813 44.9641 32.957L44.9641 33.3676H45.3746Z" fill="black"/>
<path d="M49.252 31.4284C49.024 31.4284 48.8415 31.6147 48.8415 31.839V33.3676H50.7802L50.7802 31.4283L49.252 31.4284Z" fill="black"/>
<path d="M52.7189 31.4284L50.7802 31.4283L50.7802 33.3676H52.7189V31.4284Z" fill="black"/>
<path d="M53.1294 31.4284H52.7189V31.839C52.7189 31.6147 52.9052 31.4284 53.1294 31.4284Z" fill="black"/>
<path d="M53.1294 33.3676C52.9014 33.3676 52.7189 33.1813 52.7189 32.957V33.3676L53.1294 33.3676Z" fill="black"/>
<path d="M57.0069 31.4284H58.1207C58.3487 31.4284 58.5312 31.6147 58.5312 31.839V32.9532C58.5312 33.1813 58.3449 33.3638 58.1207 33.3638H57.0069C56.7788 33.3638 56.5963 33.1775 56.5963 32.9532V31.839C56.5963 31.6147 56.7826 31.4284 57.0069 31.4284Z" fill="black"/>
<path d="M60.4737 31.839L60.4737 31.4284H60.0632C60.2874 31.4284 60.4737 31.6147 60.4737 31.839Z" fill="black"/>
<path d="M60.4737 32.957C60.4737 33.1851 60.66 33.3676 60.8843 33.3676H61.9981C62.2261 33.3676 62.4086 33.1813 62.4086 32.957V31.4284H60.4699L60.4737 32.957Z" fill="black"/>
<path d="M62.823 31.4284L62.4124 31.4284V31.839C62.4124 31.6147 62.5987 31.4284 62.823 31.4284Z" fill="black"/>
<path d="M8.12874 33.7783L8.12873 33.3676H7.71819C7.94247 33.3676 8.12874 33.554 8.12874 33.7783Z" fill="black"/>
<path d="M10.0674 33.3676H8.12873L8.12873 35.3069H10.0674V33.3676Z" fill="black"/>
<path d="M10.478 33.3676H10.0674V33.7783C10.0674 33.554 10.2537 33.3676 10.478 33.3676Z" fill="black"/>
<path d="M10.478 35.3069C10.2499 35.3069 10.0674 35.1206 10.0674 34.8962V35.3069L10.478 35.3069Z" fill="black"/>
<path d="M13.9448 33.7783L13.9448 33.3676H13.5343C13.7586 33.3676 13.9448 33.554 13.9448 33.7783Z" fill="black"/>
<path d="M13.5343 35.3069C13.7624 35.3069 13.9448 35.1206 13.9448 34.8962V35.3069H13.5343Z" fill="black"/>
<path d="M15.8835 33.3676H13.9448L13.9448 35.3069L15.8835 35.3069V33.3676Z" fill="black"/>
<path d="M17.8222 33.3676H15.8835V35.3069H17.8222V33.3676Z" fill="black"/>
<path d="M19.761 34.8962C19.761 35.1244 19.5747 35.3069 19.3504 35.3069H17.8222V33.3676H19.761V34.8962Z" fill="black"/>
<path d="M20.1715 33.3676L19.761 33.3676L19.7609 33.7783C19.7609 33.554 19.9472 33.3676 20.1715 33.3676Z" fill="black"/>
<path d="M27.1052 35.3069C27.3333 35.3069 27.5158 35.1206 27.5158 34.8962V35.3069H27.1052Z" fill="black"/>
<path d="M29.4545 33.3676H27.5158L27.5158 35.3069L29.4545 35.3069V33.3676Z" fill="black"/>
<path d="M31.3932 33.3676H29.4545V35.3069H31.3932V33.3676Z" fill="black"/>
<path d="M32.9213 33.3676C33.1494 33.3676 33.3319 33.554 33.3319 33.7783V35.3069H31.3932V33.3676H32.9213Z" fill="black"/>
<path d="M33.7424 35.3069C33.5143 35.3069 33.3319 35.1206 33.3319 34.8962V35.3069L33.7424 35.3069Z" fill="black"/>
<path d="M39.5585 33.3676C39.3304 33.3676 39.148 33.554 39.148 33.7783V35.3069H41.0867V33.3676H39.5585Z" fill="black"/>
<path d="M43.0254 33.3676L41.0867 33.3676V35.3069H43.0254L43.0254 33.3676Z" fill="black"/>
<path d="M44.9641 33.3676H43.0254L43.0254 35.3069H44.9641L44.9641 33.3676Z" fill="black"/>
<path d="M46.4922 33.3676C46.7203 33.3676 46.9028 33.554 46.9028 33.7783V35.3069H44.9641L44.9641 33.3676L46.4922 33.3676Z" fill="black"/>
<path d="M48.4309 35.3069C48.659 35.3069 48.8415 35.1206 48.8415 34.8962V35.3069H48.4309Z" fill="black"/>
<path d="M47.3133 35.3069C47.0853 35.3069 46.9028 35.1206 46.9028 34.8962V35.3069L47.3133 35.3069Z" fill="black"/>
<path d="M50.7802 33.3676H48.8415L48.8415 35.3069L50.7802 35.3069V33.3676Z" fill="black"/>
<path d="M52.7189 33.3676H50.7802V35.3069H52.7189V33.3676Z" fill="black"/>
<path d="M54.6576 33.3676H52.7189V35.3069H54.6576V33.3676Z" fill="black"/>
<path d="M56.1857 33.3676C56.4138 33.3676 56.5963 33.554 56.5963 33.7783V35.3069H54.6576V33.3676H56.1857Z" fill="black"/>
<path d="M57.0069 35.3069C56.7788 35.3069 56.5963 35.1206 56.5963 34.8962L56.5963 35.3069L57.0069 35.3069Z" fill="black"/>
<path d="M58.9456 33.3676H60.0594C60.2874 33.3676 60.4699 33.554 60.4699 33.7783V34.8924C60.4699 35.1206 60.2836 35.3031 60.0594 35.3031H58.9456C58.7175 35.3031 58.535 35.1168 58.535 34.8924V33.7783C58.535 33.554 58.7213 33.3676 58.9456 33.3676Z" fill="black"/>
<path d="M2.31263 36.8355V35.7214C2.31263 35.4932 2.12636 35.3107 1.90208 35.3107H0.788276C0.560193 35.3107 0.377727 35.497 0.377727 35.7214V37.25H2.31643L2.31263 36.8355Z" fill="black"/>
<path d="M8.12873 36.8355C8.12873 37.0637 8.315 37.2462 8.53928 37.2462H10.0674L10.0674 35.3069H8.12873V36.8355Z" fill="black"/>
<path d="M12.0061 35.3069L10.0674 35.3069L10.0674 37.2462H12.0061V35.3069Z" fill="black"/>
<path d="M13.9448 35.3069L12.0061 35.3069V37.2462H13.9448L13.9448 35.3069Z" fill="black"/>
<path d="M15.8835 35.3069L13.9448 35.3069L13.9448 37.2462H15.8835V35.3069Z" fill="black"/>
<path d="M16.2941 35.3069L15.8835 35.3069V35.7176C15.8835 35.4932 16.0698 35.3069 16.2941 35.3069Z" fill="black"/>
<path d="M22.1102 35.3069C21.8821 35.3069 21.6997 35.4932 21.6997 35.7176V37.2462H23.6384V35.3069H22.1102Z" fill="black"/>
<path d="M25.5771 35.3069H23.6384V37.2462H25.5771V35.3069Z" fill="black"/>
<path d="M27.5158 35.3069L25.5771 35.3069V37.2462H27.5158L27.5158 35.3069Z" fill="black"/>
<path d="M29.4545 35.3069L27.5158 35.3069L27.5158 37.2462H29.4545V35.3069Z" fill="black"/>
<path d="M31.3932 35.3069H29.4545V37.2462H31.3932V35.3069Z" fill="black"/>
<path d="M33.3319 35.3069H31.3932V37.2462H33.3319V35.3069Z" fill="black"/>
<path d="M33.7424 37.2462H34.8562C35.0843 37.2462 35.2668 37.0599 35.2668 36.8355V35.7214C35.2668 35.4932 35.0805 35.3107 34.8562 35.3107H33.3319V37.25L33.7424 37.2462Z" fill="black"/>
<path d="M38.7374 37.2462C38.9655 37.2462 39.148 37.0599 39.148 36.8355V37.2462H38.7374Z" fill="black"/>
<path d="M41.0867 35.3069H39.148L39.148 37.2462L41.0867 37.2462V35.3069Z" fill="black"/>
<path d="M41.4972 35.3069L41.0867 35.3069V35.7176C41.0867 35.4932 41.2729 35.3069 41.4972 35.3069Z" fill="black"/>
<path d="M43.0254 35.7176L43.0254 35.3069L42.6148 35.3069C42.8391 35.3069 43.0254 35.4932 43.0254 35.7176Z" fill="black"/>
<path d="M41.4972 37.2462C41.2691 37.2462 41.0867 37.0599 41.0867 36.8355V37.2462L41.4972 37.2462Z" fill="black"/>
<path d="M43.0254 36.8355C43.0254 37.0637 43.2116 37.2462 43.4359 37.2462H44.9641V35.3069H43.0254V36.8355Z" fill="black"/>
<path d="M46.9028 35.3069H44.9641V37.2462H46.9028V35.3069Z" fill="black"/>
<path d="M48.8415 35.3069L46.9028 35.3069V37.2462H48.8415L48.8415 35.3069Z" fill="black"/>
<path d="M50.7802 36.8355C50.7802 37.0637 50.5939 37.2462 50.3696 37.2462H48.8415L48.8415 35.3069L50.7802 35.3069V36.8355Z" fill="black"/>
<path d="M51.1907 35.3069L50.7802 35.3069V35.7176C50.7802 35.4932 50.9665 35.3069 51.1907 35.3069Z" fill="black"/>
<path d="M54.6576 35.7176L54.6576 35.3069L54.2471 35.3069C54.4713 35.3069 54.6576 35.4932 54.6576 35.7176Z" fill="black"/>
<path d="M54.6576 36.8355C54.6576 37.0637 54.8439 37.2462 55.0681 37.2462H56.5963V35.3069H54.6576V36.8355Z" fill="black"/>
<path d="M57.0069 37.2462H58.1207C58.3487 37.2462 58.5312 37.0599 58.5312 36.8355V35.7214C58.5312 35.4932 58.3449 35.3107 58.1207 35.3107H56.5963V37.25L57.0069 37.2462Z" fill="black"/>
<path d="M64.3511 36.8355V35.7214C64.3511 35.4932 64.1648 35.3107 63.9406 35.3107H62.8268C62.5987 35.3107 62.4162 35.497 62.4162 35.7214V37.25H64.3549L64.3511 36.8355Z" fill="black"/>
<path d="M2.31262 37.2462H0.373922V39.1855H2.31262V37.2462Z" fill="black"/>
<path d="M3.84079 39.1855C4.06887 39.1855 4.25134 38.9991 4.25134 38.7748V39.1855H3.84079Z" fill="black"/>
<path d="M2.72317 39.1855C2.49509 39.1855 2.31263 38.9991 2.31263 38.7748L2.31262 39.1855L2.72317 39.1855Z" fill="black"/>
<path d="M4.66188 37.2462C4.43379 37.2462 4.25133 37.4325 4.25133 37.6569L4.25134 39.1855L6.19003 39.1855V37.2462H4.66188Z" fill="black"/>
<path d="M7.71818 37.2462C7.94627 37.2462 8.12873 37.4325 8.12873 37.6569V39.1855H6.19003V37.2462H7.71818Z" fill="black"/>
<path d="M8.53928 39.1855C8.3112 39.1855 8.12873 38.9991 8.12873 38.7748V39.1855L8.53928 39.1855Z" fill="black"/>
<path d="M13.9448 37.6569L13.9448 37.2462H13.5343C13.7586 37.2462 13.9448 37.4325 13.9448 37.6569Z" fill="black"/>
<path d="M13.9448 38.7748C13.9448 39.003 14.1311 39.1855 14.3554 39.1855H15.4692C15.6973 39.1855 15.8797 38.9992 15.8797 38.7748V37.2462H13.941V38.7748H13.9448Z" fill="black"/>
<path d="M23.6384 37.2462H21.6997V39.1855H23.6384V37.2462Z" fill="black"/>
<path d="M24.0489 37.2462H23.6384V37.6569C23.6384 37.4325 23.8246 37.2462 24.0489 37.2462Z" fill="black"/>
<path d="M31.3932 37.6569L31.3932 37.2462H30.9826C31.2069 37.2462 31.3932 37.4325 31.3932 37.6569Z" fill="black"/>
<path d="M30.9826 39.1855C31.2107 39.1855 31.3932 38.9991 31.3932 38.7748V39.1855H30.9826Z" fill="black"/>
<path d="M33.3319 37.2462H31.3932L31.3932 39.1855L33.3319 39.1855V37.2462Z" fill="black"/>
<path d="M33.7424 37.2462L33.3319 37.2462V37.6569C33.3319 37.4325 33.5181 37.2462 33.7424 37.2462Z" fill="black"/>
<path d="M34.86 39.1855C35.0881 39.1855 35.2706 38.9991 35.2706 38.7748V39.1855H34.86Z" fill="black"/>
<path d="M33.7424 39.1855C33.5143 39.1855 33.3319 38.9991 33.3319 38.7748V39.1855L33.7424 39.1855Z" fill="black"/>
<path d="M35.6811 37.2462C35.453 37.2462 35.2706 37.4325 35.2706 37.6569L35.2706 39.1855L37.2093 39.1855V37.2462H35.6811Z" fill="black"/>
<path d="M39.148 37.2462L37.2093 37.2462V39.1855H39.148L39.148 37.2462Z" fill="black"/>
<path d="M41.0867 37.2462L39.148 37.2462L39.148 39.1855H41.0867V37.2462Z" fill="black"/>
<path d="M42.6148 37.2462C42.8429 37.2462 43.0254 37.4325 43.0254 37.6569V39.1855H41.0867V37.2462H42.6148Z" fill="black"/>
<path d="M44.9641 37.6569L44.9641 37.2462H44.5535C44.7778 37.2462 44.9641 37.4325 44.9641 37.6569Z" fill="black"/>
<path d="M44.9641 38.7748C44.9641 39.003 45.1503 39.1855 45.3746 39.1855H46.4884C46.7165 39.1855 46.899 38.9992 46.899 38.7748V37.2462H44.9603L44.9641 38.7748Z" fill="black"/>
<path d="M47.3133 37.2462H46.9028V37.6569C46.9028 37.4325 47.0891 37.2462 47.3133 37.2462Z" fill="black"/>
<path d="M51.1907 37.2462H52.3045C52.5326 37.2462 52.7151 37.4325 52.7151 37.6569V38.771C52.7151 38.9992 52.5288 39.1817 52.3045 39.1817H51.1907C50.9627 39.1817 50.7802 38.9953 50.7802 38.771V37.6569C50.7802 37.4325 50.9665 37.2462 51.1907 37.2462Z" fill="black"/>
<path d="M62.4124 38.7748C62.4124 39.003 62.5987 39.1855 62.823 39.1855H63.9368C64.1648 39.1855 64.3473 38.9992 64.3473 38.7748V37.2462H62.4086L62.4124 38.7748Z" fill="black"/>
<path d="M2.31262 39.1855H0.373922V41.1248H2.31262V39.1855Z" fill="black"/>
<path d="M4.25134 39.1855L2.31262 39.1855V41.1248H4.25133L4.25134 39.1855Z" fill="black"/>
<path d="M6.19003 39.1855L4.25134 39.1855L4.25133 41.1248H6.19003V39.1855Z" fill="black"/>
<path d="M8.12873 39.1855H6.19003V41.1248H8.12873L8.12873 39.1855Z" fill="black"/>
<path d="M10.0674 39.1855H8.12873L8.12873 41.1248H10.0674V39.1855Z" fill="black"/>
<path d="M12.0061 39.1855H10.0674V41.1248H12.0061V39.1855Z" fill="black"/>
<path d="M12.4167 41.1248H13.5305C13.7586 41.1248 13.941 40.9384 13.941 40.7141V39.6C13.941 39.3718 13.7548 39.1893 13.5305 39.1893H12.0061V41.1286L12.4167 41.1248Z" fill="black"/>
<path d="M17.4117 41.1247C17.6398 41.1247 17.8223 40.9384 17.8223 40.7141V41.1247H17.4117Z" fill="black"/>
<path d="M19.761 40.7141V39.6C19.761 39.3718 19.5747 39.1893 19.3504 39.1893H18.2366C18.0085 39.1893 17.8261 39.3756 17.8261 39.6V41.1286H19.7648V40.7141H19.761Z" fill="black"/>
<path d="M21.6996 40.7141C21.6996 40.9422 21.8859 41.1248 22.1102 41.1248H23.224C23.4521 41.1248 23.6346 40.9384 23.6346 40.7141V39.1855H21.6958V40.7141H21.6996Z" fill="black"/>
<path d="M27.1052 39.1855H25.9914C25.7633 39.1855 25.5809 39.3718 25.5809 39.5961V40.7103C25.5809 40.9384 25.7671 41.1209 25.9914 41.1209H27.5158V39.1817L27.1052 39.1855Z" fill="black"/>
<path d="M29.4545 39.1855H27.5158V41.1248H29.4545V39.1855Z" fill="black"/>
<path d="M31.3932 39.1855L29.4545 39.1855V41.1248H31.3932L31.3932 39.1855Z" fill="black"/>
<path d="M33.3319 39.1855L31.3932 39.1855L31.3932 41.1248H33.3319V39.1855Z" fill="black"/>
<path d="M35.2706 39.1855L33.3319 39.1855V41.1248H35.2706L35.2706 39.1855Z" fill="black"/>
<path d="M37.2093 40.7141C37.2093 40.9422 37.023 41.1248 36.7987 41.1248H35.2706L35.2706 39.1855L37.2093 39.1855V40.7141Z" fill="black"/>
<path d="M37.6198 39.1855H37.2093V39.5961C37.2093 39.3718 37.3955 39.1855 37.6198 39.1855Z" fill="black"/>
<path d="M39.148 39.5961L39.148 39.1855H38.7374C38.9617 39.1855 39.148 39.3718 39.148 39.5961Z" fill="black"/>
<path d="M41.0867 39.1855H39.148L39.148 41.1248H41.0867V39.1855Z" fill="black"/>
<path d="M43.0254 39.1855H41.0867V41.1248H43.0254V39.1855Z" fill="black"/>
<path d="M43.4359 41.1247C43.2078 41.1247 43.0254 40.9384 43.0254 40.7141V41.1248L43.4359 41.1247Z" fill="black"/>
<path d="M48.4309 41.1247C48.659 41.1247 48.8415 40.9384 48.8415 40.7141V41.1247H48.4309Z" fill="black"/>
<path d="M50.7802 40.7141V39.6C50.7802 39.3718 50.5939 39.1893 50.3696 39.1893H49.2558C49.0278 39.1893 48.8453 39.3756 48.8453 39.6V41.1286H50.784L50.7802 40.7141Z" fill="black"/>
<path d="M51.1907 41.1247C50.9627 41.1247 50.7802 40.9384 50.7802 40.7141L50.7802 41.1247H51.1907Z" fill="black"/>
<path d="M60.8843 39.1855H61.9981C62.2261 39.1855 62.4086 39.3718 62.4086 39.5961V40.7103C62.4086 40.9384 62.2223 41.121 61.9981 41.121H60.8843C60.6562 41.121 60.4737 40.9346 60.4737 40.7103V39.5961C60.4737 39.3718 60.66 39.1855 60.8843 39.1855Z" fill="black"/>
<path d="M2.31262 41.1248H0.373922V43.064H2.31262V41.1248Z" fill="black"/>
<path d="M2.72317 41.1248L2.31262 41.1248L2.31263 41.5354C2.31263 41.3111 2.49889 41.1248 2.72317 41.1248Z" fill="black"/>
<path d="M4.25134 41.5354L4.25133 41.1248L3.84079 41.1248C4.06507 41.1248 4.25134 41.3111 4.25134 41.5354Z" fill="black"/>
<path d="M6.19003 41.1248H4.25133V43.064H6.19003V41.1248Z" fill="black"/>
<path d="M6.60058 41.1248L6.19003 41.1248V41.5354C6.19003 41.3111 6.3763 41.1248 6.60058 41.1248Z" fill="black"/>
<path d="M15.473 41.1247H14.3592C14.1311 41.1247 13.9486 41.3111 13.9486 41.5354V42.6496C13.9486 42.8777 14.1349 43.0602 14.3592 43.0602H15.8835V41.1209L15.473 41.1247Z" fill="black"/>
<path d="M17.8223 41.1247L15.8835 41.1248V43.064H17.8222L17.8223 41.1247Z" fill="black"/>
<path d="M19.761 42.6534C19.761 42.8815 19.5747 43.064 19.3504 43.064H17.8222L17.8223 41.1247L19.761 41.1248V42.6534Z" fill="black"/>
<path d="M24.0489 41.1248H25.1627C25.3908 41.1248 25.5733 41.3111 25.5733 41.5354V42.6496C25.5733 42.8777 25.387 43.0602 25.1627 43.0602H24.0489C23.8208 43.0602 23.6384 42.8739 23.6384 42.6496V41.5354C23.6384 41.3111 23.8246 41.1248 24.0489 41.1248Z" fill="black"/>
<path d="M29.4545 41.5354L29.4545 41.1248L29.0439 41.1248C29.2682 41.1248 29.4545 41.3111 29.4545 41.5354Z" fill="black"/>
<path d="M29.0439 43.064C29.272 43.064 29.4545 42.8777 29.4545 42.6534V43.064H29.0439Z" fill="black"/>
<path d="M31.3932 41.1248H29.4545L29.4545 43.064L31.3932 43.064V41.1248Z" fill="black"/>
<path d="M33.3319 42.6534C33.3319 42.8815 33.1456 43.064 32.9213 43.064H31.3932V41.1248H33.3319V42.6534Z" fill="black"/>
<path d="M33.7424 41.1248L33.3319 41.1248V41.5354C33.3319 41.3111 33.5181 41.1248 33.7424 41.1248Z" fill="black"/>
<path d="M39.148 42.6534C39.148 42.8815 39.3342 43.064 39.5585 43.064H41.0867V41.1248H39.148V42.6534Z" fill="black"/>
<path d="M43.0254 41.1248H41.0867V43.064H43.0254V41.1248Z" fill="black"/>
<path d="M44.9641 41.1248L43.0254 41.1248V43.064H44.9641V41.1248Z" fill="black"/>
<path d="M46.9028 41.1248H44.9641V43.064H46.9028V41.1248Z" fill="black"/>
<path d="M48.8415 41.1247L46.9028 41.1248V43.064H48.8415L48.8415 41.1247Z" fill="black"/>
<path d="M50.7802 41.1247H48.8415L48.8415 43.064H50.7802V41.1247Z" fill="black"/>
<path d="M52.7189 41.1248L50.7802 41.1247V43.064H52.7189V41.1248Z" fill="black"/>
<path d="M54.247 41.1248C54.4751 41.1248 54.6576 41.3111 54.6576 41.5354V43.064H52.7189V41.1248H54.247Z" fill="black"/>
<path d="M55.0681 43.064C54.8401 43.064 54.6576 42.8777 54.6576 42.6534V43.064L55.0681 43.064Z" fill="black"/>
<path d="M58.9456 41.1248H60.0594C60.2874 41.1248 60.4699 41.3111 60.4699 41.5354V42.6496C60.4699 42.8777 60.2836 43.0602 60.0594 43.0602H58.9456C58.7175 43.0602 58.535 42.8739 58.535 42.6496V41.5354C58.535 41.3111 58.7213 41.1248 58.9456 41.1248Z" fill="black"/>
<path d="M62.823 41.1248H63.9368C64.1648 41.1248 64.3473 41.3111 64.3473 41.5354V42.6496C64.3473 42.8777 64.161 43.0602 63.9368 43.0602H62.823C62.5949 43.0602 62.4124 42.8739 62.4124 42.6496V41.5354C62.4124 41.3111 62.5987 41.1248 62.823 41.1248Z" fill="black"/>
<path d="M2.31262 43.064H0.373922V45.0033H2.31262V43.064Z" fill="black"/>
<path d="M6.19003 43.064H4.25133V45.0033H6.19003V43.064Z" fill="black"/>
<path d="M8.53928 43.064C8.3112 43.064 8.12873 43.2504 8.12873 43.4747V45.0033H10.0674V43.064H8.53928Z" fill="black"/>
<path d="M12.0061 43.064H10.0674V45.0033H12.0061V43.064Z" fill="black"/>
<path d="M12.4167 45.0033H13.5305C13.7586 45.0033 13.941 44.817 13.941 44.5926V43.4785C13.941 43.2504 13.7548 43.0678 13.5305 43.0678H12.0061V45.0071L12.4167 45.0033Z" fill="black"/>
<path d="M15.8836 43.4747L15.8835 43.064H15.473C15.6973 43.064 15.8836 43.2504 15.8836 43.4747Z" fill="black"/>
<path d="M15.8835 44.5926C15.8835 44.8208 16.0698 45.0033 16.2941 45.0033H17.4079C17.636 45.0033 17.8184 44.817 17.8184 44.5926V43.064H15.8797V44.5926H15.8835Z" fill="black"/>
<path d="M18.2328 43.064H17.8222V43.4747C17.8222 43.2504 18.0085 43.064 18.2328 43.064Z" fill="black"/>
<path d="M20.1715 43.064H21.2853C21.5134 43.064 21.6959 43.2504 21.6959 43.4747V44.5888C21.6959 44.817 21.5096 44.9995 21.2853 44.9995H20.1715C19.9434 44.9995 19.7609 44.8132 19.7609 44.5888V43.4747C19.7609 43.2504 19.9472 43.064 20.1715 43.064Z" fill="black"/>
<path d="M27.1052 43.064H25.9914C25.7633 43.064 25.5809 43.2504 25.5809 43.4747V44.5888C25.5809 44.817 25.7671 44.9995 25.9914 44.9995H27.5158V43.0602L27.1052 43.064Z" fill="black"/>
<path d="M29.4545 43.064L27.5158 43.064V45.0033H29.4545L29.4545 43.064Z" fill="black"/>
<path d="M31.3932 44.5926C31.3932 44.8208 31.2069 45.0033 30.9826 45.0033H29.4545L29.4545 43.064L31.3932 43.064V44.5926Z" fill="black"/>
<path d="M31.8037 43.064H31.3932V43.4747C31.3932 43.2504 31.5794 43.064 31.8037 43.064Z" fill="black"/>
<path d="M32.9213 45.0033C33.1494 45.0033 33.3319 44.817 33.3319 44.5926V45.0033H32.9213Z" fill="black"/>
<path d="M35.2706 44.5926V43.4785C35.2706 43.2504 35.0843 43.0678 34.86 43.0678H33.7462C33.5181 43.0678 33.3357 43.2542 33.3357 43.4785V45.0071H35.2744L35.2706 44.5926Z" fill="black"/>
<path d="M35.6811 45.0033C35.453 45.0033 35.2706 44.817 35.2706 44.5926V45.0033H35.6811Z" fill="black"/>
<path d="M43.0254 43.4747L43.0254 43.064H42.6148C42.8391 43.064 43.0254 43.2504 43.0254 43.4747Z" fill="black"/>
<path d="M42.6148 45.0033C42.8429 45.0033 43.0254 44.817 43.0254 44.5926V45.0033H42.6148Z" fill="black"/>
<path d="M44.9641 43.064H43.0254L43.0254 45.0033L44.9641 45.0033V43.064Z" fill="black"/>
<path d="M45.3746 43.064H44.9641L44.9641 43.4747C44.9641 43.2504 45.1504 43.064 45.3746 43.064Z" fill="black"/>
<path d="M46.9028 43.4747L46.9028 43.064H46.4922C46.7165 43.064 46.9028 43.2504 46.9028 43.4747Z" fill="black"/>
<path d="M45.3746 45.0033C45.1466 45.0033 44.9641 44.817 44.9641 44.5926L44.9641 45.0033L45.3746 45.0033Z" fill="black"/>
<path d="M46.9028 44.5926C46.9028 44.8208 47.0891 45.0033 47.3133 45.0033H48.8415V43.064H46.9028V44.5926Z" fill="black"/>
<path d="M50.7802 44.5926C50.7802 44.8208 50.5939 45.0033 50.3696 45.0033H48.8415V43.064H50.7802V44.5926Z" fill="black"/>
<path d="M51.1907 43.064H50.7802V43.4747C50.7802 43.2504 50.9665 43.064 51.1907 43.064Z" fill="black"/>
<path d="M52.7189 43.4747L52.7189 43.064H52.3084C52.5326 43.064 52.7189 43.2504 52.7189 43.4747Z" fill="black"/>
<path d="M52.7189 44.5926C52.7189 44.8208 52.9052 45.0033 53.1294 45.0033H54.6576V43.064H52.7189V44.5926Z" fill="black"/>
<path d="M55.0681 45.0033H56.1819C56.41 45.0033 56.5925 44.817 56.5925 44.5926V43.4785C56.5925 43.2504 56.4062 43.0678 56.1819 43.0678H54.6576V45.0071L55.0681 45.0033Z" fill="black"/>
<path d="M2.31262 45.0033H0.373922V46.9426H2.31262V45.0033Z" fill="black"/>
<path d="M6.19003 45.0033H4.25133V46.9426H6.19003V45.0033Z" fill="black"/>
<path d="M7.71819 46.9426C7.94627 46.9426 8.12874 46.7563 8.12874 46.5319V46.9426H7.71819Z" fill="black"/>
<path d="M6.60058 46.9426C6.3725 46.9426 6.19003 46.7563 6.19003 46.5319V46.9426L6.60058 46.9426Z" fill="black"/>
<path d="M10.0674 45.0033H8.12873L8.12874 46.9426L10.0674 46.9426L10.0674 45.0033Z" fill="black"/>
<path d="M12.0061 46.5319C12.0061 46.7601 11.8199 46.9426 11.5956 46.9426H10.0674L10.0674 45.0033H12.0061L12.0061 46.5319Z" fill="black"/>
<path d="M12.4167 45.0033L12.0061 45.0033L12.0061 45.414C12.0061 45.1896 12.1924 45.0033 12.4167 45.0033Z" fill="black"/>
<path d="M13.5343 46.9426C13.7624 46.9426 13.9448 46.7563 13.9448 46.5319V46.9426H13.5343Z" fill="black"/>
<path d="M15.8835 46.5319V45.4178C15.8835 45.1896 15.6973 45.0071 15.473 45.0071H14.3592C14.1311 45.0071 13.9486 45.1934 13.9486 45.4178V46.9464H15.8873V46.5319H15.8835Z" fill="black"/>
<path d="M16.2941 46.9426C16.066 46.9426 15.8835 46.7563 15.8835 46.5319L15.8835 46.9426H16.2941Z" fill="black"/>
<path d="M18.2328 45.0033H19.3466C19.5747 45.0033 19.7571 45.1896 19.7571 45.414V46.5281C19.7571 46.7563 19.5709 46.9388 19.3466 46.9388H18.2328C18.0047 46.9388 17.8222 46.7525 17.8222 46.5281V45.414C17.8222 45.1896 18.0085 45.0033 18.2328 45.0033Z" fill="black"/>
<path d="M25.5771 46.5319V45.4178C25.5771 45.1896 25.3908 45.0071 25.1665 45.0071H24.0527C23.8246 45.0071 23.6422 45.1934 23.6422 45.4178V46.9464H25.5809V46.5319H25.5771Z" fill="black"/>
<path d="M30.9826 46.9426C31.2107 46.9426 31.3932 46.7563 31.3932 46.5319V46.9426H30.9826Z" fill="black"/>
<path d="M31.8037 45.0033C31.5756 45.0033 31.3932 45.1896 31.3932 45.414L31.3932 46.9426L33.3319 46.9426L33.3319 45.0033L31.8037 45.0033Z" fill="black"/>
<path d="M35.2706 45.0033H33.3319L33.3319 46.9426H35.2706L35.2706 45.0033Z" fill="black"/>
<path d="M37.2093 45.0033L35.2706 45.0033L35.2706 46.9426H37.2093V45.0033Z" fill="black"/>
<path d="M39.148 45.0033H37.2093V46.9426H39.148V45.0033Z" fill="black"/>
<path d="M41.0867 45.0033H39.148V46.9426H41.0867V45.0033Z" fill="black"/>
<path d="M43.0254 45.0033L41.0867 45.0033V46.9426H43.0254L43.0254 45.0033Z" fill="black"/>
<path d="M44.9641 45.0033L43.0254 45.0033L43.0254 46.9426H44.9641V45.0033Z" fill="black"/>
<path d="M45.3746 46.9426H46.4884C46.7165 46.9426 46.899 46.7563 46.899 46.5319V45.4178C46.899 45.1896 46.7127 45.0071 46.4884 45.0071H44.9641V46.9464L45.3746 46.9426Z" fill="black"/>
<path d="M50.3697 46.9426C50.5977 46.9426 50.7802 46.7563 50.7802 46.5319V46.9426H50.3697Z" fill="black"/>
<path d="M52.7189 46.5319V45.4178C52.7189 45.1896 52.5326 45.0071 52.3083 45.0071H51.1945C50.9665 45.0071 50.784 45.1934 50.784 45.4178V46.9464H52.7227L52.7189 46.5319Z" fill="black"/>
<path d="M53.1294 46.9426C52.9014 46.9426 52.7189 46.7563 52.7189 46.5319L52.7189 46.9426H53.1294Z" fill="black"/>
<path d="M56.1858 46.9426C56.4138 46.9426 56.5963 46.7563 56.5963 46.5319V46.9426H56.1858Z" fill="black"/>
<path d="M58.535 46.5319V45.4178C58.535 45.1896 58.3487 45.0071 58.1245 45.0071H57.0107C56.7826 45.0071 56.6001 45.1934 56.6001 45.4178V46.9464H58.5388L58.535 46.5319Z" fill="black"/>
<path d="M0.373919 48.4712C0.373919 48.6994 0.560186 48.8819 0.784468 48.8819H1.89827C2.12635 48.8819 2.30882 48.6955 2.30882 48.4712V46.9426H0.370117L0.373919 48.4712Z" fill="black"/>
<path d="M4.25133 48.4712C4.25133 48.6994 4.43759 48.8819 4.66188 48.8819H6.19003V46.9426H4.25133V48.4712Z" fill="black"/>
<path d="M8.12874 46.9426L6.19003 46.9426V48.8819H8.12873L8.12874 46.9426Z" fill="black"/>
<path d="M10.0674 48.4712C10.0674 48.6994 9.88117 48.8819 9.65689 48.8819H8.12873L8.12874 46.9426L10.0674 46.9426L10.0674 48.4712Z" fill="black"/>
<path d="M10.478 46.9426H10.0674V47.3533C10.0674 47.1289 10.2537 46.9426 10.478 46.9426Z" fill="black"/>
<path d="M13.5343 46.9426L12.4205 46.9426C12.1924 46.9426 12.0099 47.1289 12.0099 47.3533V48.4674C12.0099 48.6955 12.1962 48.8781 12.4205 48.8781H13.9448V46.9388L13.5343 46.9426Z" fill="black"/>
<path d="M15.8835 46.9426H13.9448L13.9448 48.8819H15.8835V46.9426Z" fill="black"/>
<path d="M17.4117 46.9426C17.6398 46.9426 17.8222 47.1289 17.8222 47.3533V48.8819H15.8835V46.9426L17.4117 46.9426Z" fill="black"/>
<path d="M21.6997 48.4712V47.3571C21.6997 47.1289 21.5134 46.9464 21.2891 46.9464H20.1753C19.9472 46.9464 19.7648 47.1327 19.7648 47.3571V48.8857H21.7035V48.4712H21.6997Z" fill="black"/>
<path d="M23.6383 48.4712C23.6383 48.6994 23.8246 48.8819 24.0489 48.8819H25.1627C25.3908 48.8819 25.5733 48.6955 25.5733 48.4712V46.9426H23.6345V48.4712H23.6383Z" fill="black"/>
<path d="M29.0439 48.8819C29.272 48.8819 29.4545 48.6955 29.4545 48.4712V48.8819H29.0439Z" fill="black"/>
<path d="M29.865 46.9426C29.6369 46.9426 29.4545 47.1289 29.4545 47.3533L29.4545 48.8819L31.3932 48.8819L31.3932 46.9426L29.865 46.9426Z" fill="black"/>
<path d="M33.3319 46.9426L31.3932 46.9426L31.3932 48.8819H33.3319V46.9426Z" fill="black"/>
<path d="M35.2706 48.4712C35.2706 48.6994 35.0843 48.8819 34.86 48.8819H33.3319V46.9426H35.2706V48.4712Z" fill="black"/>
<path d="M35.6811 46.9426H35.2706L35.2706 47.3533C35.2706 47.1289 35.4568 46.9426 35.6811 46.9426Z" fill="black"/>
<path d="M41.0867 47.3533L41.0867 46.9426H40.6761C40.9004 46.9426 41.0867 47.1289 41.0867 47.3533Z" fill="black"/>
<path d="M40.6761 48.8819C40.9042 48.8819 41.0867 48.6955 41.0867 48.4712V48.8819H40.6761Z" fill="black"/>
<path d="M43.0254 46.9426H41.0867L41.0867 48.8819L43.0254 48.8819V46.9426Z" fill="black"/>
<path d="M43.4359 46.9426H43.0254V47.3533C43.0254 47.1289 43.2116 46.9426 43.4359 46.9426Z" fill="black"/>
<path d="M47.3133 46.9426C47.0853 46.9426 46.9028 47.1289 46.9028 47.3533V48.8819H48.8415V46.9426H47.3133Z" fill="black"/>
<path d="M50.7802 46.9426L48.8415 46.9426V48.8819H50.7802L50.7802 46.9426Z" fill="black"/>
<path d="M52.7189 46.9426H50.7802L50.7802 48.8819H52.7189V46.9426Z" fill="black"/>
<path d="M54.6576 46.9426L52.7189 46.9426V48.8819H54.6576V46.9426Z" fill="black"/>
<path d="M56.5963 46.9426L54.6576 46.9426V48.8819H56.5963L56.5963 46.9426Z" fill="black"/>
<path d="M58.535 48.4712C58.535 48.6994 58.3487 48.8819 58.1245 48.8819H56.5963L56.5963 46.9426L58.535 46.9426V48.4712Z" fill="black"/>
<path d="M60.8843 46.9426H61.9981C62.2261 46.9426 62.4086 47.1289 62.4086 47.3533V48.4674C62.4086 48.6955 62.2223 48.8781 61.9981 48.8781H60.8843C60.6562 48.8781 60.4737 48.6917 60.4737 48.4674V47.3533C60.4737 47.1289 60.66 46.9426 60.8843 46.9426Z" fill="black"/>
<path d="M15.8836 49.2925L15.8835 48.8819H15.473C15.6973 48.8819 15.8836 49.0682 15.8836 49.2925Z" fill="black"/>
<path d="M17.8222 48.8819H15.8835V50.8211H17.8222V48.8819Z" fill="black"/>
<path d="M21.6997 48.8819H19.7609V50.8211H21.6997V48.8819Z" fill="black"/>
<path d="M22.1102 50.8211C21.8821 50.8211 21.6997 50.6348 21.6997 50.4105V50.8211L22.1102 50.8211Z" fill="black"/>
<path d="M27.1052 50.8211C27.3333 50.8211 27.5158 50.6348 27.5158 50.4105V50.8211H27.1052Z" fill="black"/>
<path d="M27.9263 48.8819C27.6982 48.8819 27.5158 49.0682 27.5158 49.2925L27.5158 50.8211L29.4545 50.8211L29.4545 48.8819L27.9263 48.8819Z" fill="black"/>
<path d="M31.3932 50.4105C31.3932 50.6386 31.2069 50.8211 30.9826 50.8211H29.4545L29.4545 48.8819L31.3932 48.8819V50.4105Z" fill="black"/>
<path d="M31.8037 48.8819H31.3932V49.2925C31.3932 49.0682 31.5794 48.8819 31.8037 48.8819Z" fill="black"/>
<path d="M40.6761 48.8819L39.5623 48.8819C39.3342 48.8819 39.1518 49.0682 39.1518 49.2925V50.4067C39.1518 50.6348 39.338 50.8173 39.5623 50.8173H41.0905V48.8781L40.6761 48.8819Z" fill="black"/>
<path d="M43.0254 50.4105C43.0254 50.6386 42.8391 50.8211 42.6148 50.8211H41.0867L41.0867 48.8819L43.0254 48.8819V50.4105Z" fill="black"/>
<path d="M46.4922 50.8211C46.7203 50.8211 46.9028 50.6348 46.9028 50.4105V50.8211H46.4922Z" fill="black"/>
<path d="M48.8415 48.8819H46.9028L46.9028 50.8211L48.8415 50.8211V48.8819Z" fill="black"/>
<path d="M49.252 48.8819H48.8415L48.8415 49.2925C48.8415 49.0682 49.0278 48.8819 49.252 48.8819Z" fill="black"/>
<path d="M54.6576 49.2925L54.6576 48.8819H54.2471C54.4713 48.8819 54.6576 49.0682 54.6576 49.2925Z" fill="black"/>
<path d="M56.5963 48.8819H54.6576V50.8211H56.5963V48.8819Z" fill="black"/>
<path d="M57.0069 48.8819H56.5963L56.5963 49.2925C56.5963 49.0682 56.7826 48.8819 57.0069 48.8819Z" fill="black"/>
<path d="M58.9456 48.8819H60.0594C60.2874 48.8819 60.4699 49.0682 60.4699 49.2925V50.4067C60.4699 50.6348 60.2836 50.8173 60.0594 50.8173H58.9456C58.7175 50.8173 58.535 50.631 58.535 50.4067V49.2925C58.535 49.0682 58.7213 48.8819 58.9456 48.8819Z" fill="black"/>
<path d="M15.8835 52.3498C15.8835 52.5779 16.0698 52.7604 16.2941 52.7604H17.4079C17.636 52.7604 17.8184 52.5741 17.8184 52.3498V50.8211H15.8797V52.3498H15.8835Z" fill="black"/>
<path d="M19.7609 52.3498C19.7609 52.5779 19.9472 52.7604 20.1715 52.7604H21.6997V50.8211H19.7609V52.3498Z" fill="black"/>
<path d="M23.6384 50.8211L21.6997 50.8211V52.7604H23.6384V50.8211Z" fill="black"/>
<path d="M25.5771 50.8211H23.6384V52.7604H25.5771V50.8211Z" fill="black"/>
<path d="M27.5158 50.8211L25.5771 50.8211V52.7604H27.5158L27.5158 50.8211Z" fill="black"/>
<path d="M29.4545 50.8211L27.5158 50.8211L27.5158 52.7604H29.4545V50.8211Z" fill="black"/>
<path d="M29.865 50.8211L29.4545 50.8211L29.4545 51.2318C29.4545 51.0075 29.6407 50.8211 29.865 50.8211Z" fill="black"/>
<path d="M32.9213 52.7604C33.1494 52.7604 33.3319 52.5741 33.3319 52.3497V52.7604H32.9213Z" fill="black"/>
<path d="M35.2706 52.3498V51.2356C35.2706 51.0075 35.0843 50.825 34.86 50.825H33.7462C33.5181 50.825 33.3357 51.0113 33.3357 51.2356V52.7642H35.2744L35.2706 52.3498Z" fill="black"/>
<path d="M35.6811 52.7604C35.453 52.7604 35.2706 52.5741 35.2706 52.3498V52.7604H35.6811Z" fill="black"/>
<path d="M42.6148 52.7604C42.8429 52.7604 43.0254 52.5741 43.0254 52.3497V52.7604H42.6148Z" fill="black"/>
<path d="M43.4359 50.8211C43.2078 50.8211 43.0254 51.0075 43.0254 51.2318L43.0254 52.7604L44.9641 52.7604V50.8211H43.4359Z" fill="black"/>
<path d="M46.9028 50.8211L44.9641 50.8211V52.7604H46.9028L46.9028 50.8211Z" fill="black"/>
<path d="M48.8415 50.8211L46.9028 50.8211L46.9028 52.7604H48.8415V50.8211Z" fill="black"/>
<path d="M51.1907 50.8211H52.3045C52.5326 50.8211 52.7151 51.0075 52.7151 51.2318V52.346C52.7151 52.5741 52.5288 52.7566 52.3045 52.7566H51.1907C50.9627 52.7566 50.7802 52.5703 50.7802 52.346V51.2318C50.7802 51.0075 50.9665 50.8211 51.1907 50.8211Z" fill="black"/>
<path d="M56.5963 50.8211H54.6576V52.7604H56.5963V50.8211Z" fill="black"/>
<path d="M57.0069 52.7604C56.7788 52.7604 56.5963 52.5741 56.5963 52.3497L56.5963 52.7604L57.0069 52.7604Z" fill="black"/>
<path d="M60.8843 50.8211H61.9981C62.2261 50.8211 62.4086 51.0075 62.4086 51.2318V52.346C62.4086 52.5741 62.2223 52.7566 61.9981 52.7566H60.8843C60.6562 52.7566 60.4737 52.5703 60.4737 52.346V51.2318C60.4737 51.0075 60.66 50.8211 60.8843 50.8211Z" fill="black"/>
<path d="M17.4117 54.6997C17.6398 54.6997 17.8223 54.5134 17.8223 54.289V54.6997H17.4117Z" fill="black"/>
<path d="M19.761 54.289V53.1749C19.761 52.9468 19.5747 52.7642 19.3504 52.7642H18.2366C18.0085 52.7642 17.8261 52.9506 17.8261 53.1749V54.7035H19.7648V54.289H19.761Z" fill="black"/>
<path d="M21.6997 53.1711L21.6997 52.7604L21.2891 52.7604C21.5134 52.7604 21.6997 52.9467 21.6997 53.1711Z" fill="black"/>
<path d="M21.2891 54.6997C21.5172 54.6997 21.6997 54.5134 21.6997 54.289V54.6997H21.2891Z" fill="black"/>
<path d="M20.1715 54.6997C19.9434 54.6997 19.761 54.5134 19.761 54.289L19.7609 54.6997H20.1715Z" fill="black"/>
<path d="M23.6384 52.7604H21.6997L21.6997 54.6997L23.6384 54.6997V52.7604Z" fill="black"/>
<path d="M24.0489 52.7604L23.6384 52.7604V53.1711C23.6384 52.9467 23.8246 52.7604 24.0489 52.7604Z" fill="black"/>
<path d="M24.0489 54.6997C23.8208 54.6997 23.6384 54.5134 23.6384 54.289V54.6997L24.0489 54.6997Z" fill="black"/>
<path d="M27.5158 53.1711L27.5158 52.7604L27.1052 52.7604C27.3295 52.7604 27.5158 52.9467 27.5158 53.1711Z" fill="black"/>
<path d="M27.5158 54.289C27.5158 54.5172 27.702 54.6997 27.9263 54.6997H29.0401C29.2682 54.6997 29.4507 54.5134 29.4507 54.289V52.7604H27.512V54.289H27.5158Z" fill="black"/>
<path d="M32.9213 52.7604L31.8075 52.7604C31.5794 52.7604 31.397 52.9467 31.397 53.1711V54.2852C31.397 54.5134 31.5832 54.6959 31.8075 54.6959H33.3357V52.7566L32.9213 52.7604Z" fill="black"/>
<path d="M35.2706 52.7604H33.3319L33.3319 54.6997H35.2706L35.2706 52.7604Z" fill="black"/>
<path d="M37.2093 52.7604L35.2706 52.7604L35.2706 54.6997H37.2093V52.7604Z" fill="black"/>
<path d="M39.148 52.7604H37.2093V54.6997H39.148V52.7604Z" fill="black"/>
<path d="M41.0867 52.7604H39.148V54.6997H41.0867V52.7604Z" fill="black"/>
<path d="M43.0254 52.7604L41.0867 52.7604V54.6997H43.0254L43.0254 52.7604Z" fill="black"/>
<path d="M44.9641 52.7604L43.0254 52.7604L43.0254 54.6997H44.9641V52.7604Z" fill="black"/>
<path d="M46.9028 52.7604H44.9641V54.6997H46.9028V52.7604Z" fill="black"/>
<path d="M48.8415 52.7604H46.9028V54.6997H48.8415V52.7604Z" fill="black"/>
<path d="M49.252 54.6997C49.024 54.6997 48.8415 54.5134 48.8415 54.289L48.8415 54.6997L49.252 54.6997Z" fill="black"/>
<path d="M54.2471 54.6997C54.4751 54.6997 54.6576 54.5134 54.6576 54.289V54.6997H54.2471Z" fill="black"/>
<path d="M56.5963 52.7604H54.6576L54.6576 54.6997L56.5963 54.6997V52.7604Z" fill="black"/>
<path d="M58.1245 52.7604C58.3525 52.7604 58.535 52.9467 58.535 53.1711V54.6997H56.5963V52.7604L58.1245 52.7604Z" fill="black"/>
<path d="M64.3511 54.289V53.1749C64.3511 52.9468 64.1648 52.7642 63.9406 52.7642H62.8268C62.5987 52.7642 62.4162 52.9506 62.4162 53.1749V54.7035H64.3549L64.3511 54.289Z" fill="black"/>
<path d="M16.2941 54.6997C16.066 54.6997 15.8835 54.886 15.8835 55.1104V56.639H17.8222L17.8223 54.6997L16.2941 54.6997Z" fill="black"/>
<path d="M19.7609 54.6997H17.8223L17.8222 56.639H19.761L19.7609 54.6997Z" fill="black"/>
<path d="M21.6997 54.6997H19.7609L19.761 56.639H21.6997L21.6997 54.6997Z" fill="black"/>
<path d="M23.6384 54.6997L21.6997 54.6997L21.6997 56.639H23.6384V54.6997Z" fill="black"/>
<path d="M25.5771 54.6997H23.6384V56.639H25.5771V54.6997Z" fill="black"/>
<path d="M25.9876 56.639H27.1014C27.3295 56.639 27.512 56.4527 27.512 56.2283V55.1142C27.512 54.886 27.3257 54.7035 27.1014 54.7035H25.5771V56.6428L25.9876 56.639Z" fill="black"/>
<path d="M29.865 54.6997H30.9788C31.2069 54.6997 31.3894 54.886 31.3894 55.1104V56.2245C31.3894 56.4527 31.2031 56.6352 30.9788 56.6352H29.865C29.6369 56.6352 29.4545 56.4489 29.4545 56.2245V55.1104C29.4545 54.886 29.6407 54.6997 29.865 54.6997Z" fill="black"/>
<path d="M39.148 55.1104L39.148 54.6997H38.7374C38.9617 54.6997 39.148 54.886 39.148 55.1104Z" fill="black"/>
<path d="M38.7374 56.639C38.9655 56.639 39.148 56.4526 39.148 56.2283V56.639H38.7374Z" fill="black"/>
<path d="M41.0867 54.6997H39.148L39.148 56.639L41.0867 56.639V54.6997Z" fill="black"/>
<path d="M43.0254 54.6997H41.0867V56.639H43.0254V54.6997Z" fill="black"/>
<path d="M43.4359 54.6997H43.0254V55.1104C43.0254 54.886 43.2116 54.6997 43.4359 54.6997Z" fill="black"/>
<path d="M44.9641 55.1104L44.9641 54.6997H44.5535C44.7778 54.6997 44.9641 54.886 44.9641 55.1104Z" fill="black"/>
<path d="M44.9641 56.2283C44.9641 56.4565 45.1504 56.639 45.3746 56.639H46.9028V54.6997H44.9641L44.9641 56.2283Z" fill="black"/>
<path d="M48.8415 54.6997H46.9028V56.639H48.8415V54.6997Z" fill="black"/>
<path d="M50.7802 54.6997H48.8415V56.639H50.7802V54.6997Z" fill="black"/>
<path d="M52.7189 54.6997H50.7802V56.639H52.7189V54.6997Z" fill="black"/>
<path d="M54.6576 54.6997L52.7189 54.6997V56.639H54.6576L54.6576 54.6997Z" fill="black"/>
<path d="M56.5963 54.6997L54.6576 54.6997L54.6576 56.639H56.5963V54.6997Z" fill="black"/>
<path d="M58.535 54.6997H56.5963V56.639H58.535V54.6997Z" fill="black"/>
<path d="M58.9456 56.639C58.7175 56.639 58.535 56.4526 58.535 56.2283V56.639L58.9456 56.639Z" fill="black"/>
<path d="M62.4124 56.2283C62.4124 56.4565 62.5987 56.639 62.823 56.639H63.9368C64.1648 56.639 64.3473 56.4527 64.3473 56.2283V54.6997H62.4086L62.4124 56.2283Z" fill="black"/>
<path d="M17.8222 56.639H15.8835V58.5783H17.8222V56.639Z" fill="black"/>
<path d="M19.761 56.639H17.8222V58.5783H19.761V56.639Z" fill="black"/>
<path d="M21.6997 56.639H19.761V58.5783H21.6997V56.639Z" fill="black"/>
<path d="M22.1102 56.639H21.6997V57.0496C21.6997 56.8253 21.8859 56.639 22.1102 56.639Z" fill="black"/>
<path d="M23.6384 57.0496L23.6384 56.639H23.2278C23.4521 56.639 23.6384 56.8253 23.6384 57.0496Z" fill="black"/>
<path d="M25.5771 56.639H23.6384V58.5783H25.5771V56.639Z" fill="black"/>
<path d="M25.9876 56.639L25.5771 56.639V57.0496C25.5771 56.8253 25.7633 56.639 25.9876 56.639Z" fill="black"/>
<path d="M27.1052 58.5783C27.3333 58.5783 27.5158 58.3919 27.5158 58.1676V58.5783H27.1052Z" fill="black"/>
<path d="M25.9876 58.5783C25.7595 58.5783 25.5771 58.3919 25.5771 58.1676V58.5783L25.9876 58.5783Z" fill="black"/>
<path d="M29.4545 58.1676V57.0535C29.4545 56.8253 29.2682 56.6428 29.0439 56.6428H27.9301C27.702 56.6428 27.5196 56.8291 27.5196 57.0535V58.5821H29.4583V58.1676H29.4545Z" fill="black"/>
<path d="M30.9826 58.5783C31.2107 58.5783 31.3932 58.3919 31.3932 58.1676V58.5783H30.9826Z" fill="black"/>
<path d="M29.865 58.5783C29.6369 58.5783 29.4545 58.3919 29.4545 58.1676L29.4545 58.5783H29.865Z" fill="black"/>
<path d="M33.3319 58.1676V57.0535C33.3319 56.8253 33.1456 56.6428 32.9213 56.6428H31.8075C31.5794 56.6428 31.397 56.8291 31.397 57.0535V58.5821H33.3357V58.1676H33.3319Z" fill="black"/>
<path d="M33.7424 58.5783C33.5143 58.5783 33.3319 58.3919 33.3319 58.1676L33.3319 58.5783H33.7424Z" fill="black"/>
<path d="M36.7987 58.5783C37.0268 58.5783 37.2093 58.3919 37.2093 58.1676V58.5783H36.7987Z" fill="black"/>
<path d="M37.6198 56.639C37.3917 56.639 37.2093 56.8253 37.2093 57.0496L37.2093 58.5783L39.148 58.5783L39.148 56.639L37.6198 56.639Z" fill="black"/>
<path d="M41.0867 56.639L39.148 56.639L39.148 58.5783H41.0867V56.639Z" fill="black"/>
<path d="M43.0254 58.1676C43.0254 58.3957 42.8391 58.5783 42.6148 58.5783H41.0867V56.639H43.0254V58.1676Z" fill="black"/>
<path d="M48.8415 57.0496L48.8415 56.639H48.4309C48.6552 56.639 48.8415 56.8253 48.8415 57.0496Z" fill="black"/>
<path d="M48.8415 58.1676C48.8415 58.3957 49.0278 58.5783 49.252 58.5783H50.7802V56.639H48.8415L48.8415 58.1676Z" fill="black"/>
<path d="M52.7189 56.639H50.7802V58.5783H52.7189V56.639Z" fill="black"/>
<path d="M54.6576 58.1676C54.6576 58.3957 54.4713 58.5783 54.247 58.5783H52.7189V56.639H54.6576V58.1676Z" fill="black"/>
<path d="M55.0681 56.639H54.6576V57.0496C54.6576 56.8253 54.8439 56.639 55.0681 56.639Z" fill="black"/>
<path d="M56.5963 57.0496L56.5963 56.639H56.1858C56.41 56.639 56.5963 56.8253 56.5963 57.0496Z" fill="black"/>
<path d="M56.1858 58.5783C56.4138 58.5783 56.5963 58.3919 56.5963 58.1676V58.5783H56.1858Z" fill="black"/>
<path d="M58.535 56.639H56.5963L56.5963 58.5783L58.535 58.5783V56.639Z" fill="black"/>
<path d="M60.4737 56.639H58.535V58.5783H60.4737V56.639Z" fill="black"/>
<path d="M60.8843 58.5783H61.9981C62.2261 58.5783 62.4086 58.3919 62.4086 58.1676V57.0535C62.4086 56.8253 62.2223 56.6428 61.9981 56.6428H60.4737V58.5821L60.8843 58.5783Z" fill="black"/>
<path d="M17.8222 58.5783H15.8835V60.5175H17.8222V58.5783Z" fill="black"/>
<path d="M19.761 58.5783H17.8222V60.5175H19.761V58.5783Z" fill="black"/>
<path d="M21.6997 60.1069C21.6997 60.335 21.5134 60.5175 21.2891 60.5175H19.761V58.5783H21.6997V60.1069Z" fill="black"/>
<path d="M25.5771 58.5783H23.6384V60.5175H25.5771V58.5783Z" fill="black"/>
<path d="M27.5158 58.5783L25.5771 58.5783V60.5175H27.5158L27.5158 58.5783Z" fill="black"/>
<path d="M29.4545 58.5783H27.5158L27.5158 60.5175H29.4545L29.4545 58.5783Z" fill="black"/>
<path d="M31.3932 58.5783H29.4545L29.4545 60.5175H31.3932L31.3932 58.5783Z" fill="black"/>
<path d="M33.3319 58.5783H31.3932L31.3932 60.5175H33.3319V58.5783Z" fill="black"/>
<path d="M35.2706 58.5783L33.3319 58.5783V60.5175H35.2706V58.5783Z" fill="black"/>
<path d="M37.2093 58.5783L35.2706 58.5783V60.5175H37.2093L37.2093 58.5783Z" fill="black"/>
<path d="M39.148 58.5783L37.2093 58.5783L37.2093 60.5175H39.148V58.5783Z" fill="black"/>
<path d="M39.5585 58.5783L39.148 58.5783L39.148 58.9889C39.148 58.7646 39.3342 58.5783 39.5585 58.5783Z" fill="black"/>
<path d="M42.6148 60.5175C42.8429 60.5175 43.0254 60.3312 43.0254 60.1069V60.5175H42.6148Z" fill="black"/>
<path d="M44.9641 60.1069V58.9927C44.9641 58.7646 44.7778 58.5821 44.5535 58.5821H43.4397C43.2117 58.5821 43.0292 58.7684 43.0292 58.9927V60.5213H44.9679L44.9641 60.1069Z" fill="black"/>
<path d="M46.4922 60.5175C46.7203 60.5175 46.9028 60.3312 46.9028 60.1069V60.5175H46.4922Z" fill="black"/>
<path d="M45.3746 60.5175C45.1466 60.5175 44.9641 60.3312 44.9641 60.1069L44.9641 60.5175H45.3746Z" fill="black"/>
<path d="M48.8415 60.1069V58.9927C48.8415 58.7646 48.6552 58.5821 48.4309 58.5821H47.3171C47.0891 58.5821 46.9066 58.7684 46.9066 58.9927V60.5213H48.8453L48.8415 60.1069Z" fill="black"/>
<path d="M49.252 60.5175C49.024 60.5175 48.8415 60.3312 48.8415 60.1069L48.8415 60.5175H49.252Z" fill="black"/>
<path d="M54.2471 60.5175C54.4751 60.5175 54.6576 60.3312 54.6576 60.1069V60.5175H54.2471Z" fill="black"/>
<path d="M55.0681 58.5783C54.8401 58.5783 54.6576 58.7646 54.6576 58.9889L54.6576 60.5175L56.5963 60.5175L56.5963 58.5783L55.0681 58.5783Z" fill="black"/>
<path d="M58.535 60.1069C58.535 60.335 58.3487 60.5175 58.1245 60.5175H56.5963L56.5963 58.5783L58.535 58.5783V60.1069Z" fill="black"/>
<path d="M58.9456 58.5783L58.535 58.5783V58.9889C58.535 58.7646 58.7213 58.5783 58.9456 58.5783Z" fill="black"/>
<path d="M17.8222 60.5175H15.8835V62.4568H17.8222V60.5175Z" fill="black"/>
<path d="M19.761 60.5175H17.8222V62.4568H19.761V60.5175Z" fill="black"/>
<path d="M20.1715 60.5175H19.761L19.7609 60.9282C19.7609 60.7039 19.9472 60.5175 20.1715 60.5175Z" fill="black"/>
<path d="M20.1715 62.4568C19.9434 62.4568 19.7609 62.2705 19.7609 62.0461L19.761 62.4568L20.1715 62.4568Z" fill="black"/>
<path d="M25.5771 60.5175H23.6384V62.4568H25.5771V60.5175Z" fill="black"/>
<path d="M25.9876 60.5175H25.5771V60.9282C25.5771 60.7039 25.7633 60.5175 25.9876 60.5175Z" fill="black"/>
<path d="M27.5158 60.9282L27.5158 60.5175H27.1052C27.3295 60.5175 27.5158 60.7039 27.5158 60.9282Z" fill="black"/>
<path d="M29.4545 60.5175H27.5158V62.4568H29.4545V60.5175Z" fill="black"/>
<path d="M29.865 60.5175H29.4545L29.4545 60.9282C29.4545 60.7039 29.6407 60.5175 29.865 60.5175Z" fill="black"/>
<path d="M31.3932 60.9282L31.3932 60.5175H30.9826C31.2069 60.5175 31.3932 60.7039 31.3932 60.9282Z" fill="black"/>
<path d="M29.865 62.4568C29.6369 62.4568 29.4545 62.2705 29.4545 62.0461L29.4545 62.4568L29.865 62.4568Z" fill="black"/>
<path d="M31.3932 62.0461C31.3932 62.2743 31.5794 62.4568 31.8037 62.4568H33.3319V60.5175H31.3932V62.0461Z" fill="black"/>
<path d="M35.2706 60.5175H33.3319V62.4568H35.2706V60.5175Z" fill="black"/>
<path d="M37.2093 60.5175H35.2706V62.4568H37.2093V60.5175Z" fill="black"/>
<path d="M39.148 62.0461C39.148 62.2743 38.9617 62.4568 38.7374 62.4568H37.2093V60.5175H39.148V62.0461Z" fill="black"/>
<path d="M42.6148 60.5175L41.501 60.5175C41.2729 60.5175 41.0905 60.7039 41.0905 60.9282V62.0423C41.0905 62.2705 41.2768 62.453 41.501 62.453H43.0292V60.5137L42.6148 60.5175Z" fill="black"/>
<path d="M44.9641 60.5175H43.0254L43.0254 62.4568H44.9641L44.9641 60.5175Z" fill="black"/>
<path d="M46.9028 60.5175H44.9641L44.9641 62.4568H46.9028L46.9028 60.5175Z" fill="black"/>
<path d="M48.8415 60.5175H46.9028L46.9028 62.4568H48.8415L48.8415 60.5175Z" fill="black"/>
<path d="M49.252 62.4568H50.3658C50.5939 62.4568 50.7764 62.2705 50.7764 62.0462V60.932C50.7764 60.7039 50.5901 60.5214 50.3658 60.5214H48.8415V62.4606L49.252 62.4568Z" fill="black"/>
<path d="M54.2471 60.5175L53.1332 60.5175C52.9052 60.5175 52.7227 60.7039 52.7227 60.9282V62.0423C52.7227 62.2705 52.909 62.453 53.1332 62.453H54.6614V60.5137L54.2471 60.5175Z" fill="black"/>
<path d="M56.5963 62.0461C56.5963 62.2743 56.41 62.4568 56.1857 62.4568H54.6576L54.6576 60.5175L56.5963 60.5175V62.0461Z" fill="black"/>
<path d="M57.0069 60.5175H56.5963L56.5963 60.9282C56.5963 60.7039 56.7826 60.5175 57.0069 60.5175Z" fill="black"/>
<path d="M58.9456 60.5175C58.7175 60.5175 58.535 60.7039 58.535 60.9282V62.4568H60.4737V60.5175H58.9456Z" fill="black"/>
<path d="M62.4124 60.5175H60.4737V62.4568H62.4124V60.5175Z" fill="black"/>
<path d="M62.823 62.4568H63.9368C64.1648 62.4568 64.3473 62.2705 64.3473 62.0462V60.932C64.3473 60.7039 64.161 60.5214 63.9368 60.5214H62.4124V62.4606L62.823 62.4568Z" fill="black"/>
<path d="M15.8835 63.9854C15.8835 64.2136 16.0698 64.3961 16.2941 64.3961H17.8222V62.4568H15.8835V63.9854Z" fill="black"/>
<path d="M19.761 62.4568H17.8222V64.3961H19.761V62.4568Z" fill="black"/>
<path d="M20.1715 64.3961H21.2853C21.5134 64.3961 21.6959 64.2098 21.6959 63.9854V62.8713C21.6959 62.6432 21.5096 62.4606 21.2853 62.4606H19.7609V64.3999L20.1715 64.3961Z" fill="black"/>
<path d="M23.6383 63.9854C23.6383 64.2136 23.8246 64.3961 24.0489 64.3961H25.1627C25.3908 64.3961 25.5733 64.2098 25.5733 63.9854V62.4568H23.6345V63.9854H23.6383Z" fill="black"/>
<path d="M27.5158 63.9854C27.5158 64.2136 27.702 64.3961 27.9263 64.3961H29.4545V62.4568H27.5158V63.9854Z" fill="black"/>
<path d="M29.865 64.3961H30.9788C31.2069 64.3961 31.3894 64.2098 31.3894 63.9854V62.8713C31.3894 62.6432 31.2031 62.4606 30.9788 62.4606H29.4545V64.3999L29.865 64.3961Z" fill="black"/>
<path d="M33.3319 62.8675L33.3319 62.4568H32.9213C33.1456 62.4568 33.3319 62.6431 33.3319 62.8675Z" fill="black"/>
<path d="M33.3319 63.9854C33.3319 64.2136 33.5181 64.3961 33.7424 64.3961H34.8562C35.0843 64.3961 35.2668 64.2098 35.2668 63.9854V62.4568H33.3281L33.3319 63.9854Z" fill="black"/>
<path d="M35.6811 62.4568H35.2706L35.2706 62.8675C35.2706 62.6431 35.4568 62.4568 35.6811 62.4568Z" fill="black"/>
<path d="M39.5585 62.4568H40.6723C40.9004 62.4568 41.0829 62.6431 41.0829 62.8675V63.9816C41.0829 64.2098 40.8966 64.3923 40.6723 64.3923H39.5585C39.3304 64.3923 39.148 64.206 39.148 63.9816V62.8675C39.148 62.6431 39.3342 62.4568 39.5585 62.4568Z" fill="black"/>
<path d="M44.9641 62.8675L44.9641 62.4568H44.5535C44.7778 62.4568 44.9641 62.6431 44.9641 62.8675Z" fill="black"/>
<path d="M44.9641 63.9854C44.9641 64.2136 45.1504 64.3961 45.3746 64.3961H46.9028V62.4568H44.9641L44.9641 63.9854Z" fill="black"/>
<path d="M48.8415 63.9854C48.8415 64.2136 48.6552 64.3961 48.4309 64.3961H46.9028V62.4568H48.8415V63.9854Z" fill="black"/>
<path d="M49.252 62.4568L48.8415 62.4568L48.8415 62.8675C48.8415 62.6431 49.0278 62.4568 49.252 62.4568Z" fill="black"/>
<path d="M51.1907 62.4568H52.3045C52.5326 62.4568 52.7151 62.6431 52.7151 62.8675V63.9816C52.7151 64.2098 52.5288 64.3923 52.3045 64.3923H51.1907C50.9627 64.3923 50.7802 64.206 50.7802 63.9816V62.8675C50.7802 62.6431 50.9665 62.4568 51.1907 62.4568Z" fill="black"/>
<path d="M58.535 63.9854C58.535 64.2136 58.7213 64.3961 58.9456 64.3961H60.4737V62.4568H58.535V63.9854Z" fill="black"/>
<path d="M62.4124 63.9854C62.4124 64.2136 62.2261 64.3961 62.0019 64.3961H60.4737V62.4568H62.4124V63.9854Z" fill="black"/>
<path d="M62.823 62.4568L62.4124 62.4568V62.8675C62.4124 62.6431 62.5987 62.4568 62.823 62.4568Z" fill="black"/>
<path d="M0.392929 0.399902V13.9749H13.9638V0.399902H0.392929ZM12.0251 12.0356H2.33163V2.33918H12.0251V12.0356Z" fill="black"/>
<path d="M4.25133 4.27846V10.0963H10.0674V4.27846H4.25133Z" fill="black"/>
<path d="M50.7992 0.399902V13.9749H64.3701V0.399902H50.7992ZM62.4314 12.0356H52.7379V2.33918H62.4314V12.0356Z" fill="black"/>
<path d="M54.6576 4.27846V10.0963H60.4737V4.27846H54.6576Z" fill="black"/>
<path d="M0.392929 50.8211V64.3961H13.9638V50.8211H0.392929ZM12.0251 62.4568H2.33163V52.7604H12.0251V62.4568Z" fill="black"/>
<path d="M4.25133 54.6997V60.5175H10.0674V54.6997H4.25133Z" fill="black"/>
</svg>
