<svg width="37" height="37" viewBox="0 0 37 37" fill="none" xmlns="http://www.w3.org/2000/svg">
<g id="Group">
<path id="Vector" d="M6.66602 3.5H30.666C31.0638 3.5 31.4454 3.65804 31.7267 3.93934C32.008 4.22064 32.166 4.60218 32.166 5V32C32.166 32.3978 32.008 32.7794 31.7267 33.0607C31.4454 33.342 31.0638 33.5 30.666 33.5H6.66602C6.26819 33.5 5.88666 33.342 5.60536 33.0607C5.32405 32.7794 5.16602 32.3978 5.16602 32V5C5.16602 4.60218 5.32405 4.22064 5.60536 3.93934C5.88666 3.65804 6.26819 3.5 6.66602 3.5ZM8.16602 6.5V30.5H29.166V6.5H8.16602ZM11.166 9.5H26.166V15.5H11.166V9.5ZM11.166 18.5H14.166V21.5H11.166V18.5ZM11.166 24.5H14.166V27.5H11.166V24.5ZM17.166 18.5H20.166V21.5H17.166V18.5ZM17.166 24.5H20.166V27.5H17.166V24.5ZM23.166 18.5H26.166V27.5H23.166V18.5Z" fill="#7ED3F7"/>
</g>
</svg>
