<svg width="21" height="20" viewBox="0 0 21 20" fill="none" xmlns="http://www.w3.org/2000/svg">
<path d="M18.6901 10H15.985C15.0389 10 14.1209 10.322 13.3821 10.913L12.4391 11.6675C11.2217 12.6414 9.49185 12.6414 8.27445 11.6675L7.33141 10.913C6.59261 10.322 5.67465 10 4.72852 10H2.02344" stroke="#637083" stroke-width="1.5" stroke-linecap="round"/>
<path d="M2.02344 4.99996C2.02344 3.15901 3.51582 1.66663 5.35677 1.66663H15.3568C17.1977 1.66663 18.6901 3.15901 18.6901 4.99996V15C18.6901 16.8409 17.1977 18.3333 15.3568 18.3333H5.35677C3.51582 18.3333 2.02344 16.8409 2.02344 15V4.99996Z" stroke="#637083" stroke-width="1.5"/>
<path d="M2.02344 9.16659C2.02344 7.32564 3.51582 5.83325 5.35677 5.83325H15.3568C17.1977 5.83325 18.6901 7.32564 18.6901 9.16659V14.9999C18.6901 16.8409 17.1977 18.3333 15.3568 18.3333H5.35677C3.51582 18.3333 2.02344 16.8409 2.02344 14.9999V9.16659Z" stroke="#637083" stroke-width="1.5"/>
</svg>
