<svg width="21" height="20" viewBox="0 0 21 20" fill="none" xmlns="http://www.w3.org/2000/svg">
<path d="M15.0526 14.9666C15.8722 14.6933 16.5557 13.9974 16.8063 13.0621L18.2031 7.84914C18.5888 6.40962 17.8032 4.94838 16.4483 4.58535L8.47561 2.44907C7.12077 2.08604 5.70978 2.9587 5.32406 4.39821L4.472 7.57814" stroke="#637083" stroke-width="1.5"/>
<path d="M15.1478 11.5476L1.81445 11.5476M4.35414 18.2937H12.6081C14.0107 18.2937 15.1478 17.0855 15.1478 15.5952V10.1984C15.1478 8.70812 14.0107 7.5 12.6081 7.5H4.35414C2.95151 7.5 1.81445 8.70812 1.81445 10.1984V15.5952C1.81445 17.0855 2.95151 18.2937 4.35414 18.2937Z" stroke="#637083" stroke-width="1.5"/>
</svg>
