<svg width="41" height="40" viewBox="0 0 41 40" fill="none" xmlns="http://www.w3.org/2000/svg">
<g id="icons8_filter_and_sort 1" clip-path="url(#clip0_2143_40612)">
<path id="Vector" d="M34.7744 8.37183C34.1332 8.37183 7.17679 8.37183 6.5356 8.37183C5.16021 8.37183 4.04395 9.48809 4.04395 10.8635C4.04395 12.2389 5.16021 13.3551 6.5356 13.3551C7.17679 13.3551 34.1332 13.3551 34.7744 13.3551C36.1498 13.3551 37.266 12.2389 37.266 10.8635C37.266 9.48809 36.1498 8.37183 34.7744 8.37183Z" fill="#637083"/>
<path id="Vector_2" opacity="0.15" d="M7.36621 13.3552L13.3611 20.5495C14.8545 22.3401 15.6717 24.5992 15.6717 26.9298V35.9064C15.6717 37.5309 16.8461 38.9163 18.4474 39.1837L22.7364 39.898C24.2563 40.1522 25.6384 38.9811 25.6384 37.4412V26.9314C25.6384 24.5992 26.4556 22.3418 27.9489 20.5511L33.9439 13.3552H7.36621Z" fill="#637083"/>
</g>
<defs>
<clipPath id="clip0_2143_40612">
<rect width="39.8665" height="39.8665" fill="white" transform="translate(0.72168 0.0664062)"/>
</clipPath>
</defs>
</svg>
