<svg width="111" height="110" viewBox="0 0 111 110" fill="none" xmlns="http://www.w3.org/2000/svg">
<g id="Group 38231">
<g id="Rectangle 4305" filter="url(#filter0_d_2143_40594)">
<rect x="20.6416" y="16" width="70" height="70" rx="15" fill="white"/>
</g>
<path id="Vector" opacity="0.35" d="M63.985 65.4507C65.3993 64.6351 67.0284 64.5663 68.4385 65.1086C69.615 65.5613 70.9604 65.1858 71.7593 64.2117C73.184 62.4741 74.3334 60.5029 75.1407 58.3606C75.6017 57.1361 75.1657 55.7907 74.1665 54.9438C73.0422 53.9967 72.3288 52.5866 72.3288 50.9992C72.3288 49.4118 73.0422 48.0017 74.1644 47.0505C75.1636 46.2036 75.6017 44.8603 75.1386 43.6337C74.3313 41.4935 73.184 39.5202 71.7573 37.7826C70.9583 36.8085 69.6129 36.433 68.4364 36.8856C67.0284 37.4322 65.3993 37.3633 63.985 36.5477C62.5665 35.7279 61.6904 34.3449 61.461 32.8451C61.2732 31.6186 60.3012 30.6382 59.0767 30.4296C57.9586 30.2398 56.8114 30.1396 55.6411 30.1396C54.4709 30.1396 53.3236 30.2398 52.2056 30.4296C50.9811 30.6382 50.0111 31.6186 49.8213 32.8451C49.5919 34.3449 48.7158 35.7279 47.2973 36.5477C45.883 37.3633 44.2539 37.4322 42.8438 36.8877C41.6673 36.4351 40.3219 36.8105 39.5229 37.7847C38.0982 39.5223 36.951 41.4935 36.1437 43.6358C35.6806 44.8603 36.1187 46.2057 37.1178 47.0505C38.2401 48.0017 38.9535 49.4118 38.9535 50.9992C38.9535 52.5866 38.2401 53.9967 37.1178 54.9479C36.1187 55.7948 35.6806 57.1382 36.1437 58.3647C36.951 60.5049 38.0982 62.4783 39.525 64.2159C40.324 65.19 41.6694 65.5655 42.8459 65.1128C44.2539 64.5663 45.883 64.6351 47.2973 65.4507C48.7158 66.2705 49.5919 67.6535 49.8213 69.1533C50.0091 70.3799 50.9811 71.3603 52.2056 71.5689C53.3236 71.7587 54.4709 71.8588 55.6411 71.8588C56.8114 71.8588 57.9586 71.7587 59.0767 71.5689C60.3012 71.3624 61.2732 70.3819 61.461 69.1533C61.6904 67.6535 62.5665 66.2705 63.985 65.4507Z" fill="#637083"/>
<path id="Vector_2" d="M55.6417 42.6553C51.0338 42.6553 47.2979 46.3912 47.2979 50.9991C47.2979 55.607 51.0338 59.3429 55.6417 59.3429C60.2496 59.3429 63.9855 55.607 63.9855 50.9991C63.9855 46.3912 60.2496 42.6553 55.6417 42.6553Z" fill="#637083"/>
</g>
<defs>
<filter id="filter0_d_2143_40594" x="0.641602" y="0" width="110" height="110" filterUnits="userSpaceOnUse" color-interpolation-filters="sRGB">
<feFlood flood-opacity="0" result="BackgroundImageFix"/>
<feColorMatrix in="SourceAlpha" type="matrix" values="0 0 0 0 0 0 0 0 0 0 0 0 0 0 0 0 0 0 127 0" result="hardAlpha"/>
<feOffset dy="4"/>
<feGaussianBlur stdDeviation="10"/>
<feColorMatrix type="matrix" values="0 0 0 0 0.090196 0 0 0 0 0.0588235 0 0 0 0 0.286275 0 0 0 0.08 0"/>
<feBlend mode="normal" in2="BackgroundImageFix" result="effect1_dropShadow_2143_40594"/>
<feBlend mode="normal" in="SourceGraphic" in2="effect1_dropShadow_2143_40594" result="shape"/>
</filter>
</defs>
</svg>
