<svg width="18" height="19" viewBox="0 0 18 19" fill="none" xmlns="http://www.w3.org/2000/svg">
<g id="hand-coin">
<path id="vector" d="M12.1479 13.3341C12.259 13.223 12.1479 13.3341 11.8146 12.3343C11.3931 11.0696 10.4816 10.3347 8.14877 10.3347C6.71662 10.3347 5.9779 10.6618 5.51092 11.0148C5.26408 11.2013 5.14941 11.5083 5.14941 11.8178V15.4925C5.14941 15.9947 5.46888 16.4442 5.952 16.5812C7.42493 16.9988 9.71777 17.4418 12.1479 17C15.0806 16.4667 16.0518 15.0004 16.4803 14.0006C17.4801 11.6678 16.147 10.8013 15.4805 11.3345C13.8142 12.6675 13.8142 13.3341 12.1479 13.3341ZM12.1479 13.3341H9.14855" stroke="#637083" stroke-width="1.5" stroke-linecap="round"/>
<path id="vector_2" d="M1.15039 10.668C1.15039 9.93179 1.74722 9.33496 2.48344 9.33496H3.81648C4.5527 9.33496 5.14953 9.93179 5.14953 10.668V16.0002C5.14953 16.7364 4.55271 17.3332 3.81648 17.3332H2.48344C1.74722 17.3332 1.15039 16.7364 1.15039 16.0002V10.668Z" stroke="#637083" stroke-width="1.5"/>
<path id="vector_3" d="M15.3985 5.77445C15.3985 7.13252 14.2976 8.23346 12.9395 8.23346C11.5814 8.23346 10.4805 7.13252 10.4805 5.77445C10.4805 4.41637 11.5814 3.31543 12.9395 3.31543C14.2976 3.31543 15.3985 4.41637 15.3985 5.77445Z" stroke="#637083" stroke-width="1.5"/>
<path id="Subtract" fill-rule="evenodd" clip-rule="evenodd" d="M8.97559 3.46752C8.97559 2.56116 9.71033 1.82642 10.6167 1.82642C11.4589 1.82642 12.1529 2.4608 12.2469 3.27778C12.4882 3.20677 12.7435 3.16868 13.0078 3.16868C13.2659 3.16868 13.5155 3.20504 13.7519 3.27292C13.6514 1.62877 12.2861 0.326416 10.6167 0.326416C8.88191 0.326416 7.47559 1.73274 7.47559 3.46752C7.47559 5.13692 8.77789 6.50214 10.422 6.60268C10.3541 6.3664 10.3178 6.11678 10.3178 5.85867C10.3178 5.5944 10.3559 5.33903 10.4269 5.09776C9.60994 5.00368 8.97559 4.30968 8.97559 3.46752Z" fill="#637083"/>
</g>
</svg>
