<svg width="40" height="40" viewBox="0 0 40 40" fill="none" xmlns="http://www.w3.org/2000/svg">
<g clip-path="url(#clip0_2143_39119)">
<path d="M34.1191 8.37195C33.4779 8.37195 6.52151 8.37195 5.88033 8.37195C4.50493 8.37195 3.38867 9.48821 3.38867 10.8636C3.38867 12.239 4.50493 13.3553 5.88033 13.3553C6.52151 13.3553 33.4779 13.3553 34.1191 13.3553C35.4945 13.3553 36.6107 12.239 36.6107 10.8636C36.6107 9.48821 35.4945 8.37195 34.1191 8.37195Z" fill="#637083"/>
<path opacity="0.15" d="M6.71094 13.3552L12.7059 20.5495C14.1992 22.3401 15.0165 24.5992 15.0165 26.9298V35.9064C15.0165 37.5309 16.1909 38.9163 17.7922 39.1837L22.0811 39.898C23.601 40.1522 24.9831 38.9811 24.9831 37.4412V26.9314C24.9831 24.5992 25.8003 22.3418 27.2937 20.5511L33.2886 13.3552H6.71094Z" fill="#637083"/>
</g>
<defs>
<clipPath id="clip0_2143_39119">
<rect width="39.8665" height="39.8665" fill="white" transform="translate(0.0664062 0.0664062)"/>
</clipPath>
</defs>
</svg>
