<svg width="21" height="20" viewBox="0 0 21 20" fill="none" xmlns="http://www.w3.org/2000/svg">
<path d="M8.48144 12.9167H5.35645C3.97573 12.9167 2.85645 11.7974 2.85645 10.4167V4.58337C2.85645 3.20266 3.97573 2.08337 5.35645 2.08337H15.3564C16.7372 2.08337 17.8564 3.20266 17.8564 4.58337V10.2084" stroke="#637083" stroke-width="1.5" stroke-linecap="round"/>
<path d="M17.8564 14.1666L10.3564 14.1666M11.785 17.9166H16.4279C17.2169 17.9166 17.8564 17.2451 17.8564 16.4166V13.4166C17.8564 12.5882 17.2169 11.9166 16.4279 11.9166H11.785C10.996 11.9166 10.3564 12.5882 10.3564 13.4166V16.4166C10.3564 17.2451 10.996 17.9166 11.785 17.9166Z" stroke="#637083" stroke-width="1.5"/>
<path d="M8.27272 12.9167H4.47882C3.81817 12.9167 3.21988 13.307 2.95357 13.9116L2.21944 15.5782C1.73422 16.6798 2.54098 17.9167 3.7447 17.9167H8.27272" stroke="#637083" stroke-width="1.5" stroke-linecap="round"/>
</svg>
