<svg width="21" height="20" viewBox="0 0 21 20" fill="none" xmlns="http://www.w3.org/2000/svg">
<path d="M1.18945 8.4615C1.18945 7.47022 1.93565 6.66663 2.85612 6.66663H17.8561C18.7766 6.66663 19.5228 7.47022 19.5228 8.4615V16.5384C19.5228 17.5297 18.7766 18.3333 17.8561 18.3333H2.85612C1.93564 18.3333 1.18945 17.5297 1.18945 16.5384V8.4615Z" stroke="#637083" stroke-width="1.5"/>
<path d="M18.6895 9.58333H18.2728C17.1222 9.58333 16.1895 8.65059 16.1895 7.5" stroke="#637083" stroke-width="1.5" stroke-linecap="round"/>
<path d="M18.6895 15.4166H18.2728C17.1222 15.4166 16.1895 16.3494 16.1895 17.5" stroke="#637083" stroke-width="1.5" stroke-linecap="round"/>
<path d="M2.02246 9.58333H2.43913C3.58972 9.58333 4.52246 8.65059 4.52246 7.5" stroke="#637083" stroke-width="1.5" stroke-linecap="round"/>
<path d="M2.02246 15.4166H2.43913C3.58972 15.4166 4.52246 16.3494 4.52246 17.5" stroke="#637083" stroke-width="1.5" stroke-linecap="round"/>
<path d="M12.2314 12.5C12.2314 13.5355 11.392 14.375 10.3564 14.375C9.32091 14.375 8.48145 13.5355 8.48145 12.5C8.48145 11.4645 9.32091 10.625 10.3564 10.625C11.392 10.625 12.2314 11.4645 12.2314 12.5Z" stroke="#637083" stroke-width="1.5"/>
<path d="M2.85645 4.16663H17.8564" stroke="#637083" stroke-width="1.5" stroke-linecap="round"/>
<path d="M4.52246 1.66663H16.1891" stroke="#637083" stroke-width="1.5" stroke-linecap="round"/>
</svg>
