<svg width="8" height="7" viewBox="0 0 8 7" fill="none" xmlns="http://www.w3.org/2000/svg">
<path fill-rule="evenodd" clip-rule="evenodd" d="M2.33203 3.46752C2.33203 2.56116 3.06678 1.82642 3.97313 1.82642C4.81532 1.82642 5.50933 2.4608 5.60338 3.27778C5.84463 3.20677 6.09997 3.16868 6.36421 3.16868C6.62234 3.16868 6.87199 3.20504 7.1083 3.27292C7.00781 1.62877 5.64256 0.326416 3.97313 0.326416C2.23835 0.326416 0.832031 1.73274 0.832031 3.46752C0.832031 5.13692 2.13434 6.50214 3.77843 6.60268C3.71057 6.3664 3.67422 6.11678 3.67422 5.85867C3.67422 5.5944 3.71232 5.33903 3.78334 5.09776C2.96639 5.00368 2.33203 4.30968 2.33203 3.46752Z" fill="#637083"/>
</svg>
