<svg width="21" height="20" viewBox="0 0 21 20" fill="none" xmlns="http://www.w3.org/2000/svg">
<path d="M10.3564 4.21667H18.6898" stroke="#637083" stroke-width="1.5" stroke-miterlimit="10" stroke-linecap="round" stroke-linejoin="round"/>
<path d="M2.02344 14.2167H10.3568" stroke="#637083" stroke-width="1.5" stroke-miterlimit="10" stroke-linecap="round" stroke-linejoin="round"/>
<path d="M18.6898 11.25C18.6898 14.475 16.0814 17.0833 12.8564 17.0833M12.8564 17.0833L13.7314 15.625M12.8564 17.0833L14.1064 18.3333" stroke="#637083" stroke-width="1.5" stroke-linecap="round" stroke-linejoin="round"/>
<path d="M2.02344 8.74996C2.02344 5.52496 4.63177 2.91663 7.85677 2.91663M7.85677 2.91663L6.98178 4.37496M7.85677 2.91663L6.60677 1.66663" stroke="#637083" stroke-width="1.5" stroke-linecap="round" stroke-linejoin="round"/>
<path d="M10.3564 6.66663V3.33329C10.3564 2.41282 11.1026 1.66663 12.0231 1.66663H17.0231C17.9436 1.66663 18.6898 2.41282 18.6898 3.33329V6.66663C18.6898 7.5871 17.9436 8.33329 17.0231 8.33329H12.0231C11.1026 8.33329 10.3564 7.5871 10.3564 6.66663Z" stroke="#637083" stroke-width="1.5" stroke-linecap="round"/>
<path d="M2.02344 16.6666V13.3333C2.02344 12.4128 2.76963 11.6666 3.6901 11.6666H8.6901C9.61058 11.6666 10.3568 12.4128 10.3568 13.3333V16.6666C10.3568 17.5871 9.61058 18.3333 8.6901 18.3333H3.6901C2.76963 18.3333 2.02344 17.5871 2.02344 16.6666Z" stroke="#637083" stroke-width="1.5" stroke-linecap="round"/>
</svg>
