<svg width="40" height="42" viewBox="0 0 40 42" fill="none" xmlns="http://www.w3.org/2000/svg">
<path opacity="0.35" d="M28.3444 35.4507C29.7586 34.6351 31.3878 34.5663 32.7979 35.1086C33.9743 35.5613 35.3198 35.1858 36.1187 34.2117C37.5434 32.4741 38.6928 30.5029 39.5001 28.3606C39.961 27.1361 39.5251 25.7907 38.5259 24.9438C37.4016 23.9967 36.6882 22.5866 36.6882 20.9992C36.6882 19.4118 37.4016 18.0017 38.5238 17.0505C39.523 16.2036 39.961 14.8603 39.498 13.6337C38.6907 11.4935 37.5434 9.5202 36.1166 7.7826C35.3177 6.80846 33.9723 6.43298 32.7958 6.88564C31.3878 7.43216 29.7586 7.36332 28.3444 6.54771C26.9259 5.72793 26.0498 4.34494 25.8203 2.84514C25.6326 1.61859 24.6605 0.638192 23.4361 0.429596C22.318 0.239774 21.1707 0.139648 20.0005 0.139648C18.8303 0.139648 17.683 0.239774 16.5649 0.429596C15.3405 0.638192 14.3705 1.61859 14.1807 2.84514C13.9512 4.34494 13.0751 5.72793 11.6567 6.54771C10.2424 7.36332 8.61328 7.43216 7.20317 6.88772C6.02669 6.43507 4.68124 6.81054 3.88232 7.78468C2.45761 9.52229 1.31034 11.4935 0.503072 13.6358C0.0399897 14.8603 0.47804 16.2057 1.47721 17.0505C2.59946 18.0017 3.31286 19.4118 3.31286 20.9992C3.31286 22.5866 2.59946 23.9967 1.47721 24.9479C0.47804 25.7948 0.0399897 27.1382 0.503072 28.3647C1.31034 30.5049 2.45761 32.4783 3.88441 34.2159C4.68333 35.19 6.02877 35.5655 7.20525 35.1128C8.61328 34.5663 10.2424 34.6351 11.6567 35.4507C13.0751 36.2705 13.9512 37.6535 14.1807 39.1533C14.3684 40.3799 15.3405 41.3603 16.5649 41.5689C17.683 41.7587 18.8303 41.8588 20.0005 41.8588C21.1707 41.8588 22.318 41.7587 23.4361 41.5689C24.6605 41.3624 25.6326 40.3819 25.8203 39.1533C26.0498 37.6535 26.9259 36.2705 28.3444 35.4507Z" fill="#637083"/>
</svg>
