<svg width="14" height="9" viewBox="0 0 14 9" fill="none" xmlns="http://www.w3.org/2000/svg">
<path d="M8.50435 4.33419C8.61544 4.22311 8.50435 4.33419 8.17109 3.33441C7.74955 2.06977 6.83805 1.33484 4.50521 1.33484C3.07307 1.33484 2.33434 1.66192 1.86736 2.0149C1.62052 2.20147 1.50586 2.50845 1.50586 2.81787V6.49266C1.50586 6.99483 1.82532 7.44436 2.30845 7.58134C3.78137 7.99895 6.07422 8.44192 8.50435 8.00007C11.4371 7.46685 12.4083 6.0005 12.8368 5.00072C13.8365 2.66789 12.5035 1.80141 11.837 2.33462C10.1707 3.66767 10.1707 4.33419 8.50435 4.33419ZM8.50435 4.33419H5.505" stroke="#637083" stroke-width="1.5" stroke-linecap="round"/>
</svg>
