<svg width="80" height="89" viewBox="0 0 80 89" fill="none" xmlns="http://www.w3.org/2000/svg">
<mask id="path-1-inside-1_1516_43516" fill="white">
<path d="M77.5233 -1.52588e-05C78.4489 -1.52588e-05 79.2008 0.75071 79.1834 1.6761C78.7834 22.9294 70.7868 43.3598 56.6109 59.2494C42.435 75.1389 23.0454 85.4052 1.97522 88.2175C1.05781 88.3399 0.226501 87.6781 0.121338 86.7586C0.0161667 85.839 0.676926 85.01 1.59425 84.8869C21.8468 82.1685 40.4818 72.2935 54.1098 57.0181C67.7378 41.7426 75.4315 22.1063 75.8311 1.67604C75.8492 0.750664 76.5978 -1.52588e-05 77.5233 -1.52588e-05Z"/>
</mask>
<path d="M77.5233 -1.52588e-05C78.4489 -1.52588e-05 79.2008 0.75071 79.1834 1.6761C78.7834 22.9294 70.7868 43.3598 56.6109 59.2494C42.435 75.1389 23.0454 85.4052 1.97522 88.2175C1.05781 88.3399 0.226501 87.6781 0.121338 86.7586C0.0161667 85.839 0.676926 85.01 1.59425 84.8869C21.8468 82.1685 40.4818 72.2935 54.1098 57.0181C67.7378 41.7426 75.4315 22.1063 75.8311 1.67604C75.8492 0.750664 76.5978 -1.52588e-05 77.5233 -1.52588e-05Z" stroke="#7ED3F7" stroke-width="8" mask="url(#path-1-inside-1_1516_43516)"/>
</svg>
