<svg width="80" height="89" viewBox="0 0 80 89" fill="none" xmlns="http://www.w3.org/2000/svg">
<mask id="path-1-inside-1_1516_43551" fill="white">
<path d="M2.07432 89C1.14877 89 0.396812 88.2493 0.414222 87.3239C0.814214 66.0706 8.81089 45.6402 22.9868 29.7506C37.1627 13.8611 56.5522 3.59483 77.6224 0.782541C78.5398 0.660089 79.3711 1.32188 79.4763 2.24143C79.5815 3.16099 78.9207 3.99003 78.0034 4.11315C57.7508 6.83148 39.1159 16.7065 25.4878 31.982C11.8598 47.2574 4.16611 66.8937 3.76656 87.324C3.74847 88.2494 2.99987 89 2.07432 89Z"/>
</mask>
<path d="M2.07432 89C1.14877 89 0.396812 88.2493 0.414222 87.3239C0.814214 66.0706 8.81089 45.6402 22.9868 29.7506C37.1627 13.8611 56.5522 3.59483 77.6224 0.782541C78.5398 0.660089 79.3711 1.32188 79.4763 2.24143C79.5815 3.16099 78.9207 3.99003 78.0034 4.11315C57.7508 6.83148 39.1159 16.7065 25.4878 31.982C11.8598 47.2574 4.16611 66.8937 3.76656 87.324C3.74847 88.2494 2.99987 89 2.07432 89Z" stroke="#D71049" stroke-width="8" mask="url(#path-1-inside-1_1516_43551)"/>
</svg>
