<svg width="80" height="89" viewBox="0 0 80 89" fill="none" xmlns="http://www.w3.org/2000/svg">
<mask id="path-1-inside-1_1516_43538" fill="white">
<path d="M78.3241 -1.52588e-05C79.2497 -1.52588e-05 80.0016 0.75071 79.9842 1.6761C79.5842 22.9294 71.5875 43.3598 57.4116 59.2494C43.2357 75.1389 23.8462 85.4052 2.776 88.2175C1.85859 88.3399 1.02728 87.6781 0.922119 86.7586C0.816948 85.839 1.47771 85.01 2.39503 84.8869C22.6476 82.1685 41.2826 72.2935 54.9106 57.0181C68.5386 41.7426 76.2323 22.1063 76.6319 1.67604C76.65 0.750664 77.3986 -1.52588e-05 78.3241 -1.52588e-05Z"/>
</mask>
<path d="M78.3241 -1.52588e-05C79.2497 -1.52588e-05 80.0016 0.75071 79.9842 1.6761C79.5842 22.9294 71.5875 43.3598 57.4116 59.2494C43.2357 75.1389 23.8462 85.4052 2.776 88.2175C1.85859 88.3399 1.02728 87.6781 0.922119 86.7586C0.816948 85.839 1.47771 85.01 2.39503 84.8869C22.6476 82.1685 41.2826 72.2935 54.9106 57.0181C68.5386 41.7426 76.2323 22.1063 76.6319 1.67604C76.65 0.750664 77.3986 -1.52588e-05 78.3241 -1.52588e-05Z" stroke="#7ED3F7" stroke-width="8" mask="url(#path-1-inside-1_1516_43538)"/>
</svg>
