<svg width="80" height="89" viewBox="0 0 80 89" fill="none" xmlns="http://www.w3.org/2000/svg">
<mask id="path-1-inside-1_1516_43560" fill="white">
<path d="M78.1249 -1.52588e-05C79.0504 -1.52588e-05 79.8024 0.75071 79.785 1.6761C79.385 22.9294 71.3883 43.3598 57.2124 59.2494C43.0365 75.1389 23.647 85.4052 2.57678 88.2175C1.65937 88.3399 0.828064 87.6781 0.7229 86.7586C0.617729 85.839 1.27849 85.01 2.19582 84.8869C22.4484 82.1685 41.0833 72.2935 54.7114 57.0181C68.3394 41.7426 76.0331 22.1063 76.4326 1.67604C76.4507 0.750664 77.1993 -1.52588e-05 78.1249 -1.52588e-05Z"/>
</mask>
<path d="M78.1249 -1.52588e-05C79.0504 -1.52588e-05 79.8024 0.75071 79.785 1.6761C79.385 22.9294 71.3883 43.3598 57.2124 59.2494C43.0365 75.1389 23.647 85.4052 2.57678 88.2175C1.65937 88.3399 0.828064 87.6781 0.7229 86.7586C0.617729 85.839 1.27849 85.01 2.19582 84.8869C22.4484 82.1685 41.0833 72.2935 54.7114 57.0181C68.3394 41.7426 76.0331 22.1063 76.4326 1.67604C76.4507 0.750664 77.1993 -1.52588e-05 78.1249 -1.52588e-05Z" stroke="#7ED3F7" stroke-width="8" mask="url(#path-1-inside-1_1516_43560)"/>
</svg>
