<svg width="89" height="80" viewBox="0 0 89 80" fill="none" xmlns="http://www.w3.org/2000/svg">
<mask id="path-1-inside-1_1516_43552" fill="white">
<path d="M88.3984 78.3241C88.3984 79.2497 87.6477 80.0016 86.7223 79.9842C65.469 79.5842 45.0386 71.5875 29.1491 57.4116C13.2595 43.2357 2.99325 23.8462 0.180965 2.77599C0.0585131 1.85858 0.720302 1.02727 1.63986 0.922111C2.55941 0.81694 3.38845 1.4777 3.51158 2.39503C6.2299 22.6476 16.105 41.2826 31.3804 54.9106C46.6558 68.5386 66.2921 76.2323 86.7224 76.6319C87.6478 76.65 88.3984 77.3986 88.3984 78.3241Z"/>
</mask>
<path d="M88.3984 78.3241C88.3984 79.2497 87.6477 80.0016 86.7223 79.9842C65.469 79.5842 45.0386 71.5875 29.1491 57.4116C13.2595 43.2357 2.99325 23.8462 0.180965 2.77599C0.0585131 1.85858 0.720302 1.02727 1.63986 0.922111C2.55941 0.81694 3.38845 1.4777 3.51158 2.39503C6.2299 22.6476 16.105 41.2826 31.3804 54.9106C46.6558 68.5386 66.2921 76.2323 86.7224 76.6319C87.6478 76.65 88.3984 77.3986 88.3984 78.3241Z" stroke="#4CB8E9" stroke-width="8" mask="url(#path-1-inside-1_1516_43552)"/>
</svg>
