<svg width="80" height="89" viewBox="0 0 80 89" fill="none" xmlns="http://www.w3.org/2000/svg">
<mask id="path-1-inside-1_1516_43540" fill="white">
<path d="M1.67588 89C0.750328 89 -0.00162528 88.2493 0.0157849 87.3239C0.415777 66.0706 8.41245 45.6402 22.5884 29.7506C36.7643 13.8611 56.1538 3.59483 77.224 0.782541C78.1414 0.660089 78.9727 1.32188 79.0779 2.24143C79.183 3.16099 78.5223 3.99003 77.605 4.11315C57.3524 6.83148 38.7174 16.7065 25.0894 31.982C11.4614 47.2574 3.76768 66.8937 3.36813 87.324C3.35003 88.2494 2.60143 89 1.67588 89Z"/>
</mask>
<path d="M1.67588 89C0.750328 89 -0.00162528 88.2493 0.0157849 87.3239C0.415777 66.0706 8.41245 45.6402 22.5884 29.7506C36.7643 13.8611 56.1538 3.59483 77.224 0.782541C78.1414 0.660089 78.9727 1.32188 79.0779 2.24143C79.183 3.16099 78.5223 3.99003 77.605 4.11315C57.3524 6.83148 38.7174 16.7065 25.0894 31.982C11.4614 47.2574 3.76768 66.8937 3.36813 87.324C3.35003 88.2494 2.60143 89 1.67588 89Z" stroke="#D71049" stroke-width="8" mask="url(#path-1-inside-1_1516_43540)"/>
</svg>
