<svg width="80" height="89" viewBox="0 0 80 89" fill="none" xmlns="http://www.w3.org/2000/svg">
<mask id="path-1-inside-1_1516_43527" fill="white">
<path d="M77.9237 -1.52588e-05C78.8493 -1.52588e-05 79.6012 0.75071 79.5838 1.6761C79.1838 22.9294 71.1871 43.3598 57.0112 59.2494C42.8353 75.1389 23.4458 85.4052 2.37561 88.2175C1.4582 88.3399 0.626892 87.6781 0.521729 86.7586C0.416557 85.839 1.07732 85.01 1.99464 84.8869C22.2472 82.1685 40.8822 72.2935 54.5102 57.0181C68.1382 41.7426 75.8319 22.1063 76.2315 1.67604C76.2496 0.750664 76.9982 -1.52588e-05 77.9237 -1.52588e-05Z"/>
</mask>
<path d="M77.9237 -1.52588e-05C78.8493 -1.52588e-05 79.6012 0.75071 79.5838 1.6761C79.1838 22.9294 71.1871 43.3598 57.0112 59.2494C42.8353 75.1389 23.4458 85.4052 2.37561 88.2175C1.4582 88.3399 0.626892 87.6781 0.521729 86.7586C0.416557 85.839 1.07732 85.01 1.99464 84.8869C22.2472 82.1685 40.8822 72.2935 54.5102 57.0181C68.1382 41.7426 75.8319 22.1063 76.2315 1.67604C76.2496 0.750664 76.9982 -1.52588e-05 77.9237 -1.52588e-05Z" stroke="#7ED3F7" stroke-width="8" mask="url(#path-1-inside-1_1516_43527)"/>
</svg>
