<svg width="89" height="80" viewBox="0 0 89 80" fill="none" xmlns="http://www.w3.org/2000/svg">
<mask id="path-1-inside-1_1516_43528" fill="white">
<path d="M0.599586 1.67588C0.599586 0.750332 1.35031 -0.00162135 2.2757 0.0157889C23.529 0.415782 43.9594 8.41245 59.849 22.5884C75.7385 36.7643 86.0048 56.1538 88.8171 77.224C88.9395 78.1414 88.2777 78.9727 87.3582 79.0779C86.4386 79.183 85.6096 78.5223 85.4865 77.605C82.7681 57.3524 72.8931 38.7174 57.6177 25.0894C42.3422 11.4614 22.7059 3.76768 2.27564 3.36813C1.35027 3.35003 0.599586 2.60144 0.599586 1.67588Z"/>
</mask>
<path d="M0.599586 1.67588C0.599586 0.750332 1.35031 -0.00162135 2.2757 0.0157889C23.529 0.415782 43.9594 8.41245 59.849 22.5884C75.7385 36.7643 86.0048 56.1538 88.8171 77.224C88.9395 78.1414 88.2777 78.9727 87.3582 79.0779C86.4386 79.183 85.6096 78.5223 85.4865 77.605C82.7681 57.3524 72.8931 38.7174 57.6177 25.0894C42.3422 11.4614 22.7059 3.76768 2.27564 3.36813C1.35027 3.35003 0.599586 2.60144 0.599586 1.67588Z" stroke="#005993" stroke-width="8" mask="url(#path-1-inside-1_1516_43528)"/>
</svg>
