<svg width="80" height="89" viewBox="0 0 80 89" fill="none" xmlns="http://www.w3.org/2000/svg">
<mask id="path-1-inside-1_1516_43518" fill="white">
<path d="M1.8751 89C0.949547 89 0.197593 88.2493 0.215004 87.3239C0.614996 66.0706 8.61167 45.6402 22.7876 29.7506C36.9635 13.8611 56.353 3.59483 77.4232 0.782541C78.3406 0.660089 79.1719 1.32188 79.2771 2.24143C79.3823 3.16099 78.7215 3.99003 77.8042 4.11315C57.5516 6.83148 38.9166 16.7065 25.2886 31.982C11.6606 47.2574 3.96689 66.8937 3.56734 87.324C3.54925 88.2494 2.80065 89 1.8751 89Z"/>
</mask>
<path d="M1.8751 89C0.949547 89 0.197593 88.2493 0.215004 87.3239C0.614996 66.0706 8.61167 45.6402 22.7876 29.7506C36.9635 13.8611 56.353 3.59483 77.4232 0.782541C78.3406 0.660089 79.1719 1.32188 79.2771 2.24143C79.3823 3.16099 78.7215 3.99003 77.8042 4.11315C57.5516 6.83148 38.9166 16.7065 25.2886 31.982C11.6606 47.2574 3.96689 66.8937 3.56734 87.324C3.54925 88.2494 2.80065 89 1.8751 89Z" stroke="#D71049" stroke-width="8" mask="url(#path-1-inside-1_1516_43518)"/>
</svg>
