<svg width="89" height="80" viewBox="0 0 89 80" fill="none" xmlns="http://www.w3.org/2000/svg">
<mask id="path-1-inside-1_1516_43517" fill="white">
<path d="M0.199196 1.67588C0.199196 0.750332 0.949921 -0.00162135 1.87531 0.0157889C23.1286 0.415782 43.5591 8.41245 59.4486 22.5884C75.3381 36.7643 85.6044 56.1538 88.4167 77.224C88.5391 78.1414 87.8773 78.9727 86.9578 79.0779C86.0382 79.183 85.2092 78.5223 85.0861 77.605C82.3677 57.3524 72.4927 38.7174 57.2173 25.0894C41.9419 11.4614 22.3055 3.76768 1.87525 3.36813C0.949875 3.35003 0.199196 2.60144 0.199196 1.67588Z"/>
</mask>
<path d="M0.199196 1.67588C0.199196 0.750332 0.949921 -0.00162135 1.87531 0.0157889C23.1286 0.415782 43.5591 8.41245 59.4486 22.5884C75.3381 36.7643 85.6044 56.1538 88.4167 77.224C88.5391 78.1414 87.8773 78.9727 86.9578 79.0779C86.0382 79.183 85.2092 78.5223 85.0861 77.605C82.3677 57.3524 72.4927 38.7174 57.2173 25.0894C41.9419 11.4614 22.3055 3.76768 1.87525 3.36813C0.949875 3.35003 0.199196 2.60144 0.199196 1.67588Z" stroke="#005993" stroke-width="8" mask="url(#path-1-inside-1_1516_43517)"/>
</svg>
