<svg width="89" height="80" viewBox="0 0 89 80" fill="none" xmlns="http://www.w3.org/2000/svg">
<mask id="path-1-inside-1_1516_43541" fill="white">
<path d="M89 78.3241C89 79.2497 88.2493 80.0016 87.3239 79.9842C66.0706 79.5842 45.6401 71.5875 29.7506 57.4116C13.8611 43.2357 3.59481 23.8462 0.782527 2.77599C0.660076 1.85858 1.32186 1.02727 2.24142 0.922111C3.16098 0.81694 3.99002 1.4777 4.11314 2.39503C6.83146 22.6476 16.7065 41.2826 31.9819 54.9106C47.2573 68.5386 66.8937 76.2323 87.324 76.6319C88.2493 76.65 89 77.3986 89 78.3241Z"/>
</mask>
<path d="M89 78.3241C89 79.2497 88.2493 80.0016 87.3239 79.9842C66.0706 79.5842 45.6401 71.5875 29.7506 57.4116C13.8611 43.2357 3.59481 23.8462 0.782527 2.77599C0.660076 1.85858 1.32186 1.02727 2.24142 0.922111C3.16098 0.81694 3.99002 1.4777 4.11314 2.39503C6.83146 22.6476 16.7065 41.2826 31.9819 54.9106C47.2573 68.5386 66.8937 76.2323 87.324 76.6319C88.2493 76.65 89 77.3986 89 78.3241Z" stroke="#4CB8E9" stroke-width="8" mask="url(#path-1-inside-1_1516_43541)"/>
</svg>
