<svg width="89" height="80" viewBox="0 0 89 80" fill="none" xmlns="http://www.w3.org/2000/svg">
<mask id="path-1-inside-1_1516_43530" fill="white">
<path d="M88.5996 78.3241C88.5996 79.2497 87.8489 80.0016 86.9235 79.9842C65.6702 79.5842 45.2398 71.5875 29.3502 57.4116C13.4607 43.2357 3.19442 23.8462 0.382137 2.77599C0.259685 1.85858 0.921474 1.02727 1.84103 0.922111C2.76059 0.81694 3.58963 1.4777 3.71275 2.39503C6.43107 22.6476 16.3061 41.2826 31.5816 54.9106C46.857 68.5386 66.4933 76.2323 86.9236 76.6319C87.8489 76.65 88.5996 77.3986 88.5996 78.3241Z"/>
</mask>
<path d="M88.5996 78.3241C88.5996 79.2497 87.8489 80.0016 86.9235 79.9842C65.6702 79.5842 45.2398 71.5875 29.3502 57.4116C13.4607 43.2357 3.19442 23.8462 0.382137 2.77599C0.259685 1.85858 0.921474 1.02727 1.84103 0.922111C2.76059 0.81694 3.58963 1.4777 3.71275 2.39503C6.43107 22.6476 16.3061 41.2826 31.5816 54.9106C46.857 68.5386 66.4933 76.2323 86.9236 76.6319C87.8489 76.65 88.5996 77.3986 88.5996 78.3241Z" stroke="#4CB8E9" stroke-width="8" mask="url(#path-1-inside-1_1516_43530)"/>
</svg>
