<svg width="89" height="80" viewBox="0 0 89 80" fill="none" xmlns="http://www.w3.org/2000/svg">
<mask id="path-1-inside-1_1516_43550" fill="white">
<path d="M0.398415 1.67588C0.398414 0.750332 1.14914 -0.00162135 2.07453 0.0157889C23.3278 0.415782 43.7583 8.41245 59.6478 22.5884C75.5373 36.7643 85.8036 56.1538 88.6159 77.224C88.7384 78.1414 88.0766 78.9727 87.157 79.0779C86.2375 79.183 85.4084 78.5223 85.2853 77.605C82.567 57.3524 72.6919 38.7174 57.4165 25.0894C42.1411 11.4614 22.5047 3.76768 2.07447 3.36813C1.14909 3.35003 0.398415 2.60144 0.398415 1.67588Z"/>
</mask>
<path d="M0.398415 1.67588C0.398414 0.750332 1.14914 -0.00162135 2.07453 0.0157889C23.3278 0.415782 43.7583 8.41245 59.6478 22.5884C75.5373 36.7643 85.8036 56.1538 88.6159 77.224C88.7384 78.1414 88.0766 78.9727 87.157 79.0779C86.2375 79.183 85.4084 78.5223 85.2853 77.605C82.567 57.3524 72.6919 38.7174 57.4165 25.0894C42.1411 11.4614 22.5047 3.76768 2.07447 3.36813C1.14909 3.35003 0.398415 2.60144 0.398415 1.67588Z" stroke="#005993" stroke-width="8" mask="url(#path-1-inside-1_1516_43550)"/>
</svg>
