<svg width="90" height="80" viewBox="0 0 90 80" fill="none" xmlns="http://www.w3.org/2000/svg">
<mask id="path-1-inside-1_1516_43519" fill="white">
<path d="M89.1992 78.3241C89.1992 79.2497 88.4485 80.0016 87.5231 79.9842C66.2698 79.5842 45.8394 71.5875 29.9498 57.4116C14.0603 43.2357 3.79403 23.8462 0.981746 2.77599C0.859294 1.85858 1.52108 1.02727 2.44064 0.922111C3.36019 0.81694 4.18924 1.4777 4.31236 2.39503C7.03068 22.6476 16.9057 41.2826 32.1812 54.9106C47.4566 68.5386 67.0929 76.2323 87.5232 76.6319C88.4485 76.65 89.1992 77.3986 89.1992 78.3241Z"/>
</mask>
<path d="M89.1992 78.3241C89.1992 79.2497 88.4485 80.0016 87.5231 79.9842C66.2698 79.5842 45.8394 71.5875 29.9498 57.4116C14.0603 43.2357 3.79403 23.8462 0.981746 2.77599C0.859294 1.85858 1.52108 1.02727 2.44064 0.922111C3.36019 0.81694 4.18924 1.4777 4.31236 2.39503C7.03068 22.6476 16.9057 41.2826 32.1812 54.9106C47.4566 68.5386 67.0929 76.2323 87.5232 76.6319C88.4485 76.65 89.1992 77.3986 89.1992 78.3241Z" stroke="#4CB8E9" stroke-width="8" mask="url(#path-1-inside-1_1516_43519)"/>
</svg>
