<svg width="89" height="80" viewBox="0 0 89 80" fill="none" xmlns="http://www.w3.org/2000/svg">
<mask id="path-1-inside-1_1516_43563" fill="white">
<path d="M88.8008 78.3241C88.8008 79.2497 88.0501 80.0016 87.1247 79.9842C65.8714 79.5842 45.4409 71.5875 29.5514 57.4116C13.6619 43.2357 3.39559 23.8462 0.583309 2.77599C0.460857 1.85858 1.12265 1.02727 2.0422 0.922111C2.96176 0.81694 3.7908 1.4777 3.91392 2.39503C6.63224 22.6476 16.5073 41.2826 31.7827 54.9106C47.0581 68.5386 66.6945 76.2323 87.1247 76.6319C88.0501 76.65 88.8008 77.3986 88.8008 78.3241Z"/>
</mask>
<path d="M88.8008 78.3241C88.8008 79.2497 88.0501 80.0016 87.1247 79.9842C65.8714 79.5842 45.4409 71.5875 29.5514 57.4116C13.6619 43.2357 3.39559 23.8462 0.583309 2.77599C0.460857 1.85858 1.12265 1.02727 2.0422 0.922111C2.96176 0.81694 3.7908 1.4777 3.91392 2.39503C6.63224 22.6476 16.5073 41.2826 31.7827 54.9106C47.0581 68.5386 66.6945 76.2323 87.1247 76.6319C88.0501 76.65 88.8008 77.3986 88.8008 78.3241Z" stroke="#4CB8E9" stroke-width="8" mask="url(#path-1-inside-1_1516_43563)"/>
</svg>
