<svg width="80" height="89" viewBox="0 0 80 89" fill="none" xmlns="http://www.w3.org/2000/svg">
<mask id="path-1-inside-1_1516_43562" fill="white">
<path d="M2.47666 89C1.55111 89 0.799156 88.2493 0.816566 87.3239C1.21656 66.0706 9.21323 45.6402 23.3891 29.7506C37.565 13.8611 56.9545 3.59483 78.0248 0.782541C78.9422 0.660089 79.7735 1.32188 79.8786 2.24143C79.9838 3.16099 79.3231 3.99003 78.4057 4.11315C58.1532 6.83148 39.5182 16.7065 25.8902 31.982C12.2622 47.2574 4.56846 66.8937 4.16891 87.324C4.15081 88.2494 3.40221 89 2.47666 89Z"/>
</mask>
<path d="M2.47666 89C1.55111 89 0.799156 88.2493 0.816566 87.3239C1.21656 66.0706 9.21323 45.6402 23.3891 29.7506C37.565 13.8611 56.9545 3.59483 78.0248 0.782541C78.9422 0.660089 79.7735 1.32188 79.8786 2.24143C79.9838 3.16099 79.3231 3.99003 78.4057 4.11315C58.1532 6.83148 39.5182 16.7065 25.8902 31.982C12.2622 47.2574 4.56846 66.8937 4.16891 87.324C4.15081 88.2494 3.40221 89 2.47666 89Z" stroke="#D71049" stroke-width="8" mask="url(#path-1-inside-1_1516_43562)"/>
</svg>
