<svg width="89" height="80" viewBox="0 0 89 80" fill="none" xmlns="http://www.w3.org/2000/svg">
<mask id="path-1-inside-1_1516_43539" fill="white">
<path d="M-2.29662e-05 1.67588C-2.30066e-05 0.750332 0.750702 -0.00162135 1.67609 0.0157889C22.9294 0.415782 43.3598 8.41245 59.2494 22.5884C75.1389 36.7643 85.4052 56.1538 88.2175 77.224C88.3399 78.1414 87.6781 78.9727 86.7586 79.0779C85.839 79.183 85.01 78.5223 84.8869 77.605C82.1685 57.3524 72.2935 38.7174 57.018 25.0894C41.7426 11.4614 22.1063 3.76768 1.67603 3.36813C0.750656 3.35003 -2.29257e-05 2.60144 -2.29662e-05 1.67588Z"/>
</mask>
<path d="M-2.29662e-05 1.67588C-2.30066e-05 0.750332 0.750702 -0.00162135 1.67609 0.0157889C22.9294 0.415782 43.3598 8.41245 59.2494 22.5884C75.1389 36.7643 85.4052 56.1538 88.2175 77.224C88.3399 78.1414 87.6781 78.9727 86.7586 79.0779C85.839 79.183 85.01 78.5223 84.8869 77.605C82.1685 57.3524 72.2935 38.7174 57.018 25.0894C41.7426 11.4614 22.1063 3.76768 1.67603 3.36813C0.750656 3.35003 -2.29257e-05 2.60144 -2.29662e-05 1.67588Z" stroke="#005993" stroke-width="8" mask="url(#path-1-inside-1_1516_43539)"/>
</svg>
