<svg width="90" height="80" viewBox="0 0 90 80" fill="none" xmlns="http://www.w3.org/2000/svg">
<mask id="path-1-inside-1_1516_43561" fill="white">
<path d="M0.800758 1.67588C0.800758 0.750332 1.55148 -0.00162135 2.47688 0.0157889C23.7302 0.415782 44.1606 8.41245 60.0501 22.5884C75.9397 36.7643 86.206 56.1538 89.0182 77.224C89.1407 78.1414 88.4789 78.9727 87.5594 79.0779C86.6398 79.183 85.8108 78.5223 85.6876 77.605C82.9693 57.3524 73.0942 38.7174 57.8188 25.0894C42.5434 11.4614 22.9071 3.76768 2.47681 3.36813C1.55144 3.35003 0.800758 2.60144 0.800758 1.67588Z"/>
</mask>
<path d="M0.800758 1.67588C0.800758 0.750332 1.55148 -0.00162135 2.47688 0.0157889C23.7302 0.415782 44.1606 8.41245 60.0501 22.5884C75.9397 36.7643 86.206 56.1538 89.0182 77.224C89.1407 78.1414 88.4789 78.9727 87.5594 79.0779C86.6398 79.183 85.8108 78.5223 85.6876 77.605C82.9693 57.3524 73.0942 38.7174 57.8188 25.0894C42.5434 11.4614 22.9071 3.76768 2.47681 3.36813C1.55144 3.35003 0.800758 2.60144 0.800758 1.67588Z" stroke="#005993" stroke-width="8" mask="url(#path-1-inside-1_1516_43561)"/>
</svg>
