<svg width="80" height="89" viewBox="0 0 80 89" fill="none" xmlns="http://www.w3.org/2000/svg">
<mask id="path-1-inside-1_1516_43549" fill="white">
<path d="M77.7225 -1.52588e-05C78.6481 -1.52588e-05 79.4001 0.75071 79.3826 1.6761C78.9827 22.9294 70.986 43.3598 56.8101 59.2494C42.6342 75.1389 23.2447 85.4052 2.17444 88.2175C1.25703 88.3399 0.42572 87.6781 0.320557 86.7586C0.215385 85.839 0.876144 85.01 1.79347 84.8869C22.046 82.1685 40.681 72.2935 54.309 57.0181C67.937 41.7426 75.6308 22.1063 76.0303 1.67604C76.0484 0.750664 76.797 -1.52588e-05 77.7225 -1.52588e-05Z"/>
</mask>
<path d="M77.7225 -1.52588e-05C78.6481 -1.52588e-05 79.4001 0.75071 79.3826 1.6761C78.9827 22.9294 70.986 43.3598 56.8101 59.2494C42.6342 75.1389 23.2447 85.4052 2.17444 88.2175C1.25703 88.3399 0.42572 87.6781 0.320557 86.7586C0.215385 85.839 0.876144 85.01 1.79347 84.8869C22.046 82.1685 40.681 72.2935 54.309 57.0181C67.937 41.7426 75.6308 22.1063 76.0303 1.67604C76.0484 0.750664 76.797 -1.52588e-05 77.7225 -1.52588e-05Z" stroke="#7ED3F7" stroke-width="8" mask="url(#path-1-inside-1_1516_43549)"/>
</svg>
