<svg width="80" height="89" viewBox="0 0 80 89" fill="none" xmlns="http://www.w3.org/2000/svg">
<mask id="path-1-inside-1_1516_43529" fill="white">
<path d="M2.27549 89C1.34994 89 0.597984 88.2493 0.615394 87.3239C1.01539 66.0706 9.01206 45.6402 23.188 29.7506C37.3639 13.8611 56.7534 3.59483 77.8236 0.782541C78.741 0.660089 79.5723 1.32188 79.6775 2.24143C79.7826 3.16099 79.1219 3.99003 78.2046 4.11315C57.952 6.83148 39.317 16.7065 25.689 31.982C12.061 47.2574 4.36728 66.8937 3.96773 87.324C3.94964 88.2494 3.20104 89 2.27549 89Z"/>
</mask>
<path d="M2.27549 89C1.34994 89 0.597984 88.2493 0.615394 87.3239C1.01539 66.0706 9.01206 45.6402 23.188 29.7506C37.3639 13.8611 56.7534 3.59483 77.8236 0.782541C78.741 0.660089 79.5723 1.32188 79.6775 2.24143C79.7826 3.16099 79.1219 3.99003 78.2046 4.11315C57.952 6.83148 39.317 16.7065 25.689 31.982C12.061 47.2574 4.36728 66.8937 3.96773 87.324C3.94964 88.2494 3.20104 89 2.27549 89Z" stroke="#D71049" stroke-width="8" mask="url(#path-1-inside-1_1516_43529)"/>
</svg>
