<svg width="37" height="38" viewBox="0 0 37 38" fill="none" xmlns="http://www.w3.org/2000/svg">
<g clip-path="url(#clip0_1610_21332)">
<path d="M0 18.6227C0 8.3113 8.07756 0.677734 18.5 0.677734C28.9224 0.677734 37 8.3113 37 18.6227C37 28.9342 28.9224 36.5677 18.5 36.5677C16.6269 36.5677 14.8324 36.3203 13.1442 35.8578C12.8169 35.7667 12.4682 35.7912 12.1568 35.9272L8.48456 37.5505C8.26277 37.6484 8.02035 37.6902 7.7786 37.6724C7.53684 37.6547 7.30316 37.5777 7.09809 37.4485C6.89302 37.3192 6.72284 37.1416 6.6025 36.9312C6.48216 36.7207 6.41535 36.484 6.40794 36.2417L6.30619 32.951C6.29916 32.7507 6.25146 32.5539 6.16598 32.3726C6.08051 32.1914 5.95905 32.0294 5.809 31.8965C2.21075 28.6775 0 24.0155 0 18.6227ZM12.8251 15.2488L7.39075 23.8698C6.87044 24.6977 7.88562 25.6296 8.66494 25.0399L14.504 20.6092C14.696 20.4633 14.9304 20.384 15.1715 20.3831C15.4127 20.3823 15.6476 20.46 15.8406 20.6045L20.1627 23.8467C20.4693 24.0766 20.8203 24.2406 21.1935 24.3282C21.5667 24.4157 21.9539 24.4251 22.3309 24.3555C22.7078 24.286 23.0663 24.1392 23.3837 23.9242C23.701 23.7093 23.9704 23.4309 24.1749 23.1067L29.6092 14.4857C30.1319 13.6578 29.1144 12.7259 28.3351 13.3155L22.496 17.7463C22.304 17.8922 22.0696 17.9715 21.8285 17.9724C21.5873 17.9732 21.3524 17.8955 21.1594 17.7509L16.8373 14.5065C16.5307 14.2765 16.1797 14.1126 15.8065 14.025C15.4333 13.9374 15.0461 13.9281 14.6691 13.9976C14.2922 14.0671 13.9337 14.214 13.6163 14.4289C13.299 14.6439 13.0296 14.9223 12.8251 15.2465V15.2488Z" fill="white"/>
</g>
<defs>
<clipPath id="clip0_1610_21332">
<rect width="37" height="37" fill="white" transform="translate(0 0.677734)"/>
</clipPath>
</defs>
</svg>
