<svg width="45" height="45" viewBox="0 0 45 45" fill="none" xmlns="http://www.w3.org/2000/svg">
<path d="M4.31352 22.8208C4.00842 22.6939 3.66992 22.9165 3.66992 23.2469V33.7917C3.66992 37.8453 6.95597 41.1313 11.0095 41.1313H33.0283C37.0818 41.1313 40.3679 37.8453 40.3679 33.7917V23.247C40.3679 22.9166 40.0294 22.694 39.7243 22.8209C37.3151 23.8234 34.1106 24.901 30.2826 25.5965C28.9901 25.8313 28.0528 26.9421 27.4496 28.1091C26.5345 29.8795 24.6868 31.0897 22.5565 31.0897H21.4812C19.3508 31.0897 17.5031 29.8795 16.588 28.109C15.9848 26.9421 15.0475 25.8313 13.7551 25.5965C9.92703 24.9009 6.72264 23.8233 4.31352 22.8208Z" fill="white"/>
<path fill-rule="evenodd" clip-rule="evenodd" d="M33.0283 11.7734H11.0095C6.95597 11.7734 3.66992 15.0595 3.66992 19.113V19.2594C3.66992 19.5663 3.82315 19.8519 4.08698 20.0086C5.49615 20.8457 10.3888 23.4823 17.4279 24.3555V27.0294C17.4279 28.0428 18.2494 28.8643 19.2628 28.8643H24.7738C25.7872 28.8643 26.6087 28.0428 26.6087 27.0294V24.3557C33.6484 23.4825 38.5416 20.8458 39.9508 20.0086C40.2146 19.8519 40.3679 19.5663 40.3679 19.2594V19.113C40.3679 15.0595 37.0818 11.7734 33.0283 11.7734ZM20.138 22.9559C20.0367 22.9559 19.9545 23.0381 19.9545 23.1394V25.8712C19.9545 26.2766 20.2831 26.6052 20.6885 26.6052H23.3484C23.7538 26.6052 24.0824 26.2766 24.0824 25.8712V23.1394C24.0824 23.0381 24.0002 22.9559 23.8989 22.9559H20.138Z" fill="white"/>
<path fill-rule="evenodd" clip-rule="evenodd" d="M20.1836 5.80996C17.9035 5.80996 16.0551 7.65836 16.0551 9.93848V11.7734C16.0551 12.5334 15.4389 13.1495 14.6789 13.1495C13.9189 13.1495 13.3027 12.5334 13.3027 11.7734V9.93848C13.3027 6.13828 16.3834 3.05762 20.1836 3.05762H23.8534C27.6536 3.05762 30.7343 6.13828 30.7343 9.93848V11.7734C30.7343 12.5334 30.1181 13.1495 29.3581 13.1495C28.598 13.1495 27.9819 12.5334 27.9819 11.7734V9.93848C27.9819 7.65836 26.1335 5.80996 23.8534 5.80996H20.1836Z" fill="white"/>
</svg>
