<svg width="45" height="45" viewBox="0 0 45 45" fill="none" xmlns="http://www.w3.org/2000/svg">
<path fill-rule="evenodd" clip-rule="evenodd" d="M31.2513 2.97774C31.2513 2.2177 30.6352 1.60156 29.8751 1.60156C29.1151 1.60156 28.499 2.2177 28.499 2.97774V5.73008H16.5721V2.97774C16.5721 2.2177 15.956 1.60156 15.196 1.60156C14.4359 1.60156 13.8198 2.2177 13.8198 2.97774V5.73008H9.69128C7.66451 5.73008 6.02148 7.3731 6.02148 9.39987V36.0059C6.02148 38.0326 7.66451 39.6757 9.69128 39.6757H35.3798C37.4066 39.6757 39.0496 38.0326 39.0496 36.0059V9.39987C39.0496 7.3731 37.4066 5.73008 35.3798 5.73008H31.2513V2.97774ZM13.3612 14.446C12.6012 14.446 11.9851 15.0622 11.9851 15.8222C11.9851 16.5822 12.6012 17.1984 13.3612 17.1984H31.7102C32.4702 17.1984 33.0864 16.5822 33.0864 15.8222C33.0864 15.0622 32.4702 14.446 31.7102 14.446H13.3612ZM11.9851 23.1618C11.9851 22.4018 12.6012 21.7856 13.3612 21.7856H31.7102C32.4702 21.7856 33.0864 22.4018 33.0864 23.1618C33.0864 23.9218 32.4702 24.538 31.7102 24.538H13.3612C12.6012 24.538 11.9851 23.9218 11.9851 23.1618ZM13.3612 29.1252C12.6012 29.1252 11.9851 29.7413 11.9851 30.5014C11.9851 31.2614 12.6012 31.8776 13.3612 31.8776H22.5357C23.2958 31.8776 23.9119 31.2614 23.9119 30.5014C23.9119 29.7413 23.2958 29.1252 22.5357 29.1252H13.3612Z" fill="white"/>
</svg>
