<svg width="45" height="45" viewBox="0 0 45 45" fill="none" xmlns="http://www.w3.org/2000/svg">
<path fill-rule="evenodd" clip-rule="evenodd" d="M23.8529 4.50195C23.0928 4.50195 22.4767 5.11809 22.4767 5.87813C22.4767 6.63816 23.0928 7.2543 23.8529 7.2543C25.5998 7.2543 27.3297 7.59839 28.9437 8.26693C30.5577 8.93547 32.0242 9.91536 33.2595 11.1507C34.4948 12.386 35.4747 13.8525 36.1432 15.4665C36.8118 17.0805 37.1559 18.8103 37.1559 20.5573C37.1559 21.3173 37.772 21.9335 38.532 21.9335C39.2921 21.9335 39.9082 21.3173 39.9082 20.5573C39.9082 18.4489 39.4929 16.3611 38.6861 14.4132C37.8792 12.4653 36.6966 10.6953 35.2057 9.20446C33.7148 7.71358 31.9449 6.53095 29.997 5.72409C28.0491 4.91724 25.9613 4.50195 23.8529 4.50195ZM38.532 35.2365V32.2164C38.532 30.7158 37.6184 29.3663 36.2252 28.809L32.4927 27.3161C30.7206 26.6072 28.701 27.3751 27.8475 29.0822L27.5227 29.7318C27.5227 29.7318 22.9354 28.8143 19.2656 25.1445C15.5958 21.4747 14.6784 16.8875 14.6784 16.8875L15.328 16.5627C17.0351 15.7092 17.803 13.6895 17.0941 11.9174L15.6011 8.18499C15.0438 6.79173 13.6944 5.87813 12.1938 5.87813H9.1737C7.14693 5.87813 5.50391 7.52115 5.50391 9.54792C5.50391 25.7621 18.6481 38.9063 34.8623 38.9063C36.889 38.9063 38.532 37.2632 38.532 35.2365ZM22.4767 13.2177C22.4767 12.4577 23.0928 11.8415 23.8529 11.8415C24.9974 11.8415 26.1308 12.067 27.1883 12.505C28.2457 12.943 29.2065 13.585 30.0158 14.3943C30.8252 15.2037 31.4672 16.1645 31.9052 17.2219C32.3432 18.2794 32.5686 19.4127 32.5686 20.5573C32.5686 21.3173 31.9525 21.9335 31.1925 21.9335C30.4324 21.9335 29.8163 21.3173 29.8163 20.5573C29.8163 19.7742 29.662 18.9987 29.3624 18.2752C29.0627 17.5517 28.6234 16.8943 28.0696 16.3405C27.5159 15.7868 26.8585 15.3475 26.135 15.0478C25.4115 14.7481 24.636 14.5939 23.8529 14.5939C23.0928 14.5939 22.4767 13.9778 22.4767 13.2177Z" fill="white"/>
</svg>
