<svg width="45" height="45" viewBox="0 0 45 45" fill="none" xmlns="http://www.w3.org/2000/svg">
<path fill-rule="evenodd" clip-rule="evenodd" d="M8.79427 8.97534C10.0124 8.30334 11.3643 7.94922 12.7414 7.94922H15.8262C18.0109 7.94922 20.0488 8.83311 21.6034 10.3278C23.1697 8.82144 25.2133 7.94922 27.3806 7.94922H31.2948C32.6719 7.94922 34.0238 8.30334 35.242 8.97534L39.0032 11.0503C40.727 12.0012 41.7433 13.8912 41.7433 15.8768V27.3562C41.7433 30.222 39.6083 32.7813 36.6973 32.7813H29.2723C28.667 33.4341 27.8868 33.9342 26.9543 34.1914L20.4774 35.9779C17.8219 36.7104 15.0223 36.4609 12.5162 35.2759L5.30506 31.8661C3.42491 30.977 2.29297 28.9949 2.29297 26.9004V15.8768C2.29297 13.8912 3.30926 12.0012 5.03301 11.0503L8.79427 8.97534ZM19.8654 12.4806C18.765 11.3378 17.3213 10.7016 15.8262 10.7016H12.7414C11.8396 10.7016 10.9439 10.9328 10.1237 11.3853L6.36249 13.4602C5.59971 13.881 5.04531 14.795 5.04531 15.8768V26.9004C5.04531 28.0452 5.66311 28.9908 6.48161 29.3779L13.6928 32.7877C15.6098 33.6942 17.7326 33.8799 19.7456 33.3246L26.2224 31.5381C27.602 31.1576 28.5092 29.2722 27.6863 27.6077L24.3787 20.9171L23.1394 22.2844C21.5237 24.067 18.8427 24.067 17.227 22.2844C15.7963 20.7058 15.6827 18.2492 16.9306 16.5281L19.8654 12.4806Z" fill="white"/>
</svg>
