<svg width="45" height="45" viewBox="0 0 45 45" fill="none" xmlns="http://www.w3.org/2000/svg">
<path fill-rule="evenodd" clip-rule="evenodd" d="M34.8625 2.59277C34.1025 2.59277 33.4864 3.20891 33.4864 3.96895C33.4864 4.72899 34.1025 5.34512 34.8625 5.34512H36.9039C30.0332 10.8244 24.8051 14.2943 19.8341 16.5999C14.7011 18.9806 9.77699 20.1501 3.49486 20.9528C2.74095 21.0492 2.20788 21.7384 2.30422 22.4923C2.40055 23.2463 3.08981 23.7793 3.84372 23.683C10.2997 22.858 15.5211 21.6342 20.9922 19.0967C26.3415 16.6157 31.8662 12.9079 38.9911 7.20041V9.47364C38.9911 10.2337 39.6072 10.8498 40.3672 10.8498C41.1273 10.8498 41.7434 10.2337 41.7434 9.47364V5.80384C41.7434 4.03042 40.3058 2.59277 38.5323 2.59277H34.8625ZM40.3671 18.6481C40.3671 16.6213 38.7241 14.9783 36.6973 14.9783C34.6705 14.9783 33.0275 16.6214 33.0275 18.6481V36.9971C33.0275 39.0239 34.6705 40.6669 36.6973 40.6669C38.7241 40.6669 40.3671 39.0239 40.3671 36.9971V18.6481ZM11.0087 33.3273C11.0087 31.3005 9.36571 29.6575 7.33893 29.6575C5.31216 29.6575 3.66914 31.3005 3.66914 33.3273L3.66914 36.9971C3.66914 39.0239 5.31216 40.6669 7.33893 40.6669C9.3657 40.6669 11.0087 39.0239 11.0087 36.9971V33.3273ZM22.0181 22.3179C24.0449 22.3179 25.6879 23.9609 25.6879 25.9877V36.9971C25.6879 39.0239 24.0449 40.6669 22.0181 40.6669C19.9913 40.6669 18.3483 39.0239 18.3483 36.9971V25.9877C18.3483 23.9609 19.9913 22.3179 22.0181 22.3179Z" fill="white"/>
</svg>
