<svg width="73" height="73" viewBox="0 0 73 73" fill="none" xmlns="http://www.w3.org/2000/svg">
<g clip-path="url(#clip0_2483_19269)">
<path d="M27.75 41.75C20.73 41.75 6.75 45.26 6.75 52.25V57.5H48.75V52.25C48.75 45.26 34.77 41.75 27.75 41.75ZM13.77 51.5C16.29 49.76 22.38 47.75 27.75 47.75C33.12 47.75 39.21 49.76 41.73 51.5H13.77ZM27.75 36.5C33.54 36.5 38.25 31.79 38.25 26C38.25 20.21 33.54 15.5 27.75 15.5C21.96 15.5 17.25 20.21 17.25 26C17.25 31.79 21.96 36.5 27.75 36.5ZM27.75 21.5C30.24 21.5 32.25 23.51 32.25 26C32.25 28.49 30.24 30.5 27.75 30.5C25.26 30.5 23.25 28.49 23.25 26C23.25 23.51 25.26 21.5 27.75 21.5ZM48.87 41.93C52.35 44.45 54.75 47.81 54.75 52.25V57.5H66.75V52.25C66.75 46.19 56.25 42.74 48.87 41.93ZM45.75 36.5C51.54 36.5 56.25 31.79 56.25 26C56.25 20.21 51.54 15.5 45.75 15.5C44.13 15.5 42.63 15.89 41.25 16.55C43.14 19.22 44.25 22.49 44.25 26C44.25 29.51 43.14 32.78 41.25 35.45C42.63 36.11 44.13 36.5 45.75 36.5Z" fill="white"/>
</g>
<defs>
<clipPath id="clip0_2483_19269">
<rect width="72" height="72" fill="white" transform="translate(0.75 0.5)"/>
</clipPath>
</defs>
</svg>
