<svg width="198" height="50" viewBox="0 0 198 50" fill="none" xmlns="http://www.w3.org/2000/svg">
<path fill-rule="evenodd" clip-rule="evenodd" d="M172.416 14.071H184.012V24.3365C188.247 24.988 192.342 26.3549 196.124 28.3794C197.54 25.3442 198.171 21.9983 197.96 18.652C197.749 15.3056 196.701 12.0672 194.915 9.23687C193.129 6.40656 190.661 4.07602 187.742 2.46131C184.822 0.8466 181.545 0 178.214 0C174.883 0 171.605 0.8466 168.686 2.46131C165.766 4.07602 163.299 6.40656 161.513 9.23687C159.726 12.0672 158.679 15.3056 158.468 18.652C158.256 21.9983 158.888 25.3442 160.303 28.3794C164.086 26.3554 168.181 24.9886 172.416 24.3365V14.071Z" fill="#006095"/>
<path fill-rule="evenodd" clip-rule="evenodd" d="M178.214 39.7628C181.497 39.7644 184.729 38.944 187.618 37.3753C190.507 35.8067 192.964 33.5391 194.766 30.7769C189.662 28.0743 183.981 26.6621 178.214 26.6621C172.447 26.6621 166.766 28.0743 161.662 30.7769C163.463 33.5405 165.919 35.809 168.808 37.3779C171.698 38.9467 174.931 39.7663 178.214 39.7628Z" fill="#D7153A"/>
<path d="M160.314 32.2046L153.137 39.777L160.314 49.227H153.639L148.509 41.5629V49.227H143.319V24.5264H144.017C144.607 24.5242 145.192 24.6394 145.738 24.8654C146.284 25.0917 146.78 25.4244 147.197 25.8442C147.615 26.2641 147.945 26.763 148.171 27.3121C148.396 27.8614 148.511 28.4499 148.509 29.044V38.2758L153.954 32.2046H160.314Z" fill="#006095"/>
<path d="M13.5503 48.4537C12.8589 48.9572 12.0299 49.2332 11.1766 49.2445H9.62932L0 24.5861H6.20999L12.3152 40.2516L18.4274 24.6002H23.5616C23.5616 24.6002 17.1351 40.9618 15.0395 46.4321C14.7618 47.2442 14.2417 47.9502 13.5503 48.4537Z" fill="#006095"/>
<path d="M56.8154 32.1974V36.1699H54.0737V42.3574C54.0727 42.6765 54.1344 42.9927 54.2551 43.2878C54.3758 43.583 54.5532 43.8512 54.777 44.0772C55.0009 44.3031 55.2669 44.4825 55.5597 44.6049C55.8526 44.7271 56.1665 44.7901 56.4836 44.7901L56.8119 44.769V49.2023L55.1215 49.255C53.5636 49.2909 52.055 48.7047 50.9254 47.6242C49.7957 46.5438 49.137 45.0572 49.0931 43.4895V36.1699H46.5993V32.1974H49.0931V27.9505H54.0806V32.1974H56.8154Z" fill="#006095"/>
<path fill-rule="evenodd" clip-rule="evenodd" d="M32.8836 42.2801H45.6668C45.7393 41.8335 45.7825 41.3825 45.796 40.9302C45.8349 39.7265 45.6333 38.5271 45.2031 37.4033C44.773 36.2794 44.123 35.2539 43.2918 34.3877C42.476 33.5222 41.4937 32.8332 40.4047 32.3621C39.3158 31.8913 38.143 31.6484 36.9578 31.6484C35.7726 31.6484 34.5998 31.8913 33.5109 32.3621C32.4219 32.8332 31.4396 33.5222 30.6238 34.3877C28.9975 36.106 28.0952 38.3914 28.1063 40.7647C28.1174 43.1379 29.0409 45.4148 30.6832 47.1177C31.498 47.9743 32.4798 48.6525 33.5669 49.1098C34.6541 49.5671 35.8233 49.7937 37.0014 49.7755C38.825 49.7916 40.605 49.2147 42.0763 48.1301C43.5049 47.0569 44.5962 45.5923 45.2197 43.9114H40.4662C40.1118 44.5443 39.5984 45.0722 38.9774 45.4424C38.3565 45.8127 37.6498 46.012 36.9281 46.0208C35.9093 46.0266 34.9259 45.6441 34.1757 44.9503C33.4255 44.2565 32.9638 43.3025 32.8836 42.2801ZM39.5082 36.4763C40.2317 37.0857 40.7191 37.9318 40.8853 38.8665H32.9709C33.1371 37.9318 33.6245 37.0857 34.348 36.4763C35.0714 35.8669 35.9847 35.5329 36.9281 35.5329C37.8715 35.5329 38.7848 35.8669 39.5082 36.4763Z" fill="#006095"/>
<path d="M21.211 36.7079C21.2092 36.1141 21.324 35.5258 21.5489 34.9769C21.7738 34.4279 22.1043 33.9292 22.5215 33.5094C22.9386 33.0895 23.4341 32.7568 23.9794 32.5304C24.5248 32.3041 25.1092 32.1884 25.6991 32.1903H26.1951V49.255H21.2215L21.211 36.7079Z" fill="#006095"/>
<path d="M59.1689 34.976C58.9438 35.5253 58.8288 36.1138 58.8307 36.7079L58.8447 49.255H63.8113V32.1903H63.3223C62.7321 32.1881 62.1473 32.3033 61.6015 32.5293C61.0557 32.7556 60.5598 33.0883 60.1423 33.5082C59.7248 33.928 59.394 34.4269 59.1689 34.976Z" fill="#006095"/>
<path d="M76.9682 49.2514V38.9367C76.9705 38.5766 76.9018 38.2195 76.7662 37.8862C76.6305 37.553 76.4306 37.25 76.1779 36.9951C75.9252 36.74 75.6248 36.5379 75.294 36.4006C74.9632 36.2631 74.6087 36.1931 74.2509 36.1945C73.8782 36.1811 73.5068 36.2442 73.1592 36.3802C72.8116 36.5163 72.4953 36.7221 72.2295 36.9855C71.9637 37.2486 71.7541 37.5638 71.6134 37.9114C71.4727 38.2588 71.404 38.6317 71.4113 39.0069V49.2373H66.3609V32.2255H71.083V34.036H71.1598C71.9327 33.0234 73.0012 32.2798 74.2154 31.9097C75.4295 31.5394 76.7283 31.5612 77.9296 31.9718C79.1308 32.3824 80.1741 33.1614 80.9131 34.1993C81.6521 35.2373 82.0497 36.482 82.05 37.759V49.2514H76.9682Z" fill="#006095"/>
<path fill-rule="evenodd" clip-rule="evenodd" d="M117.599 34.0219V32.2114H122.593V49.2269H117.592V47.3848H117.532C117.074 48.2379 116.332 48.9014 115.437 49.2584C114.559 49.6327 113.613 49.8205 112.66 49.8105C110.143 49.8105 108.1 48.928 106.53 47.1632C105.021 45.4406 104.267 43.2902 104.267 40.7122C104.267 38.1668 105.037 36.0317 106.576 34.3067C107.333 33.4385 108.27 32.7486 109.322 32.2856C110.373 31.8226 111.513 31.5981 112.66 31.6278C113.61 31.6166 114.552 31.8096 115.423 32.1939C116.302 32.563 117.043 33.2029 117.539 34.0219H117.599ZM115.051 44.7366C115.552 44.522 116.005 44.2077 116.383 43.8129V43.8093C117.149 42.9723 117.562 41.8676 117.532 40.7297C117.551 40.1612 117.458 39.5947 117.258 39.0625C117.058 38.5304 116.756 38.0432 116.369 37.629C115.992 37.2275 115.534 36.9108 115.027 36.6995C114.52 36.488 113.974 36.3867 113.425 36.402C112.875 36.3881 112.328 36.4961 111.824 36.7184C111.32 36.9408 110.871 37.272 110.508 37.6888C109.753 38.5392 109.352 39.6493 109.387 40.7894C109.363 41.9123 109.781 42.999 110.55 43.8129C110.928 44.2077 111.381 44.522 111.882 44.7366C112.383 44.9512 112.922 45.0617 113.467 45.0617C114.011 45.0617 114.55 44.9512 115.051 44.7366Z" fill="#006095"/>
<path d="M135.743 49.2514V38.9367C135.745 38.5766 135.677 38.2195 135.541 37.8862C135.405 37.553 135.205 37.25 134.953 36.9951C134.7 36.74 134.4 36.5379 134.069 36.4006C133.738 36.2631 133.384 36.1931 133.026 36.1945C132.653 36.1811 132.282 36.2442 131.934 36.3802C131.586 36.5163 131.27 36.7221 131.004 36.9855C130.739 37.2486 130.529 37.5638 130.388 37.9114C130.248 38.2588 130.179 38.6317 130.186 39.0069V49.2373H125.122V32.2255H129.844V34.036H129.928C130.701 33.0234 131.769 32.2798 132.983 31.9097C134.197 31.5394 135.496 31.5612 136.697 31.9718C137.899 32.3824 138.942 33.1614 139.681 34.1993C140.42 35.2373 140.817 36.482 140.818 37.759V49.2514H135.743Z" fill="#006095"/>
<path fill-rule="evenodd" clip-rule="evenodd" d="M98.8638 36.0223C102.133 34.2329 101.934 31.1813 101.599 29.4939C101.179 27.3845 98.9546 24.5721 93.9356 24.6107H84.5787V49.2516H94.1033C100.257 49.2516 103.065 45.6622 102.989 41.7809C102.954 40.0511 102.465 37.1544 98.8638 36.0223ZM90.2858 29.188H93.9706C94.3141 29.1744 94.657 29.23 94.9789 29.3516C95.3009 29.4731 95.5954 29.6583 95.8453 29.8961C96.0952 30.1338 96.2953 30.4195 96.434 30.7362C96.5727 31.0529 96.6471 31.3943 96.6529 31.7404C96.6529 33.3047 95.2559 34.3033 93.9706 34.2962H90.2858V29.188ZM94.959 44.7129H90.2613V38.8348H94.8647C95.2543 38.8164 95.6436 38.877 96.0095 39.0129C96.3754 39.1489 96.7105 39.3575 96.9948 39.6261C97.2791 39.8948 97.507 40.2183 97.6648 40.5773C97.8226 40.9364 97.9072 41.3236 97.9135 41.7161C97.9198 42.1086 97.8477 42.4985 97.7016 42.8624C97.5554 43.2265 97.3381 43.5571 97.0625 43.835C96.787 44.1128 96.4588 44.3322 96.0975 44.48C95.7361 44.6278 95.349 44.7009 94.959 44.6954V44.7129Z" fill="#006095"/>
</svg>
