<svg width="70" height="70" viewBox="0 0 70 70" fill="none" xmlns="http://www.w3.org/2000/svg">
<path fill-rule="evenodd" clip-rule="evenodd" d="M32.5 0V7.5H37.5V0H32.5ZM46.5309 48.1642C50.1898 44.9566 52.5 40.2481 52.5 35C52.5 25.335 44.665 17.5 35 17.5C25.335 17.5 17.5 25.335 17.5 35C17.5 35.3545 17.5105 35.7066 17.5313 36.0559C15.8194 36.6575 14.2212 37.5005 12.7775 38.5441C12.5949 37.3896 12.5 36.2059 12.5 35C12.5 22.5736 22.5736 12.5 35 12.5C47.4264 12.5 57.5 22.5736 57.5 35C57.5 41.1713 55.0154 46.7624 50.992 50.8274C49.7216 49.6506 48.2062 48.7346 46.5309 48.1642ZM62.5 32.5H70V37.5H62.5V32.5ZM64.0608 15.3349L57.5656 19.0849L60.0656 23.4151L66.5608 19.6651L64.0608 15.3349ZM46.5851 9.93452L50.3351 3.43933L54.6652 5.93933L50.9152 12.4345L46.5851 9.93452ZM15.3349 5.93933L19.0849 12.4345L23.4151 9.93452L19.6651 3.43933L15.3349 5.93933ZM9.93437 23.4151L3.43918 19.6651L5.93918 15.3349L12.4344 19.0849L9.93437 23.4151ZM7.5 32.5H0V37.5H7.5V32.5ZM64.061 54.6651L57.5658 50.9151L60.0658 46.5849L66.561 50.3349L64.061 54.6651Z" fill="url(#paint0_linear_1646_13137)"/>
<path fill-rule="evenodd" clip-rule="evenodd" d="M23.75 64.9991C23.8196 64.9991 23.889 64.9985 23.9583 64.9975H42.333C42.3649 64.9982 42.397 64.9987 42.4291 64.999H42.5V64.9993C42.5 64.9993 42.5 64.9993 42.5 64.9993C46.6422 64.9993 50 61.6415 50 57.4993C50 53.3572 46.6422 49.9993 42.5 49.9993C40.5766 49.9993 38.8222 50.7234 37.4947 51.9138C37.5051 51.6937 37.5104 51.4723 37.5104 51.2496C37.5104 49.5615 37.2062 47.9443 36.6496 46.4501C38.3951 45.524 40.3863 44.9993 42.5 44.9993C49.4036 44.9993 55 50.5958 55 57.4993C55 64.4029 49.4036 69.9993 42.5 69.9993C42.4695 69.9993 42.4389 69.9992 42.4084 69.999H23.8469V69.9988C23.8146 69.999 23.7823 69.9991 23.75 69.9991C13.3947 69.9991 5 61.6044 5 51.249C5 40.8937 13.3947 32.499 23.75 32.499C31.9302 32.499 38.8869 37.7375 41.4485 45.0428C39.7226 45.1865 38.0963 45.6809 36.641 46.4545C34.6951 41.2246 29.6576 37.499 23.75 37.499C16.1561 37.499 10 43.6551 10 51.249C10 58.843 16.1561 64.9991 23.75 64.9991Z" fill="url(#paint1_linear_1646_13137)"/>
<defs>
<linearGradient id="paint0_linear_1646_13137" x1="35" y1="0" x2="35" y2="54.6651" gradientUnits="userSpaceOnUse">
<stop stop-color="#EFC977"/>
<stop offset="1" stop-color="#E07256"/>
</linearGradient>
<linearGradient id="paint1_linear_1646_13137" x1="30" y1="32.499" x2="30" y2="69.9993" gradientUnits="userSpaceOnUse">
<stop stop-color="#B2D4F7"/>
<stop offset="1" stop-color="#D9E2F3"/>
</linearGradient>
</defs>
</svg>
