<svg width="36" height="37" viewBox="0 0 36 37" fill="none" xmlns="http://www.w3.org/2000/svg">
<g clip-path="url(#clip0_1610_21335)">
<path d="M29.907 12.888H31.5C32.2956 12.888 33.0587 13.2041 33.6213 13.7667C34.1839 14.3293 34.5 15.0924 34.5 15.888V21.888C34.5 22.6837 34.1839 23.4467 33.6213 24.0094C33.0587 24.572 32.2956 24.888 31.5 24.888H29.907C29.5413 27.788 28.1299 30.4548 25.9376 32.388C23.7453 34.3213 20.9229 35.388 18 35.388V32.388C20.3869 32.388 22.6761 31.4398 24.364 29.752C26.0518 28.0642 27 25.775 27 23.388V14.388C27 12.0011 26.0518 9.7119 24.364 8.02407C22.6761 6.33625 20.3869 5.38803 18 5.38803C15.6131 5.38803 13.3239 6.33625 11.636 8.02407C9.94821 9.7119 9 12.0011 9 14.388V24.888H4.5C3.70435 24.888 2.94129 24.572 2.37868 24.0094C1.81607 23.4467 1.5 22.6837 1.5 21.888V15.888C1.5 15.0924 1.81607 14.3293 2.37868 13.7667C2.94129 13.2041 3.70435 12.888 4.5 12.888H6.093C6.45905 9.98838 7.87062 7.32194 10.0629 5.38905C12.2551 3.45615 15.0773 2.38965 18 2.38965C20.9227 2.38965 23.7449 3.45615 25.9371 5.38905C28.1294 7.32194 29.541 9.98838 29.907 12.888ZM4.5 15.888V21.888H6V15.888H4.5ZM30 15.888V21.888H31.5V15.888H30ZM11.64 24.5655L13.23 22.0215C14.6596 22.9171 16.313 23.3908 18 23.388C19.687 23.3908 21.3404 22.9171 22.77 22.0215L24.36 24.5655C22.4539 25.7598 20.2493 26.3915 18 26.388C15.7507 26.3915 13.5461 25.7598 11.64 24.5655Z" fill="white"/>
</g>
<defs>
<clipPath id="clip0_1610_21335">
<rect width="36" height="36" fill="white" transform="translate(0 0.887695)"/>
</clipPath>
</defs>
</svg>
